<svg xmlns="http://www.w3.org/2000/svg" xmlns:xlink="http://www.w3.org/1999/xlink" width="1938.999" height="964.001" viewBox="0 0 1938.999 964.001"><defs><linearGradient id="a" x1="1.592" y1="2.899" x2="0.284" y2="-0.114" gradientUnits="objectBoundingBox"><stop offset="0" stop-color="#ffaf00"/><stop offset="1" stop-color="#ff9283"/></linearGradient><filter id="b" x="0" y="0" width="1938.999" height="775.953" filterUnits="userSpaceOnUse"><feOffset dy="3" input="SourceAlpha"/><feGaussianBlur stdDeviation="3" result="c"/><feFlood flood-opacity="0.153"/><feComposite operator="in" in2="c"/><feComposite in="SourceGraphic"/></filter><linearGradient id="d" x1="0.757" y1="-0.318" x2="0.584" y2="1.031" xlink:href="#a"/><linearGradient id="e" x1="0.491" y1="-0.174" x2="0.557" y2="0.87" xlink:href="#a"/><linearGradient id="g" x1="0.569" y1="0.143" x2="0.541" y2="1.25" xlink:href="#a"/></defs><g transform="translate(2718.999 -768)"><path d="M2159,758H238V0H2159V758Z" transform="translate(-2948 974)" fill="#fff"/><g transform="matrix(1, 0, 0, 1, -2719, 768)" filter="url(#b)"><path d="M1765.774,1116.953h-.02c-16.6,0-34.373-.888-52.819-2.639-17.587-1.672-36.17-4.169-55.234-7.422a1057.161,1057.161,0,0,1-113.184-26.264c-35.987-10.346-72.746-22.657-109.256-36.591-17-6.488-33.932-13.329-50.324-20.333-15.835-6.765-31.292-13.733-45.943-20.712-95.795-45.619-193.619-82-290.754-108.136-28.5-7.666-57.331-14.55-85.7-20.459-29.984-6.244-60.288-11.574-90.067-15.843-31.329-4.491-62.958-7.933-94-10.232-32.532-2.411-65.342-3.633-97.52-3.633-9.313,0-18.717.1-27.95.3-6.663.144-13.4.217-20.028.217h-.054c-27.806,0-56.1-1.279-84.09-3.8-25.793-2.325-51.912-5.76-77.633-10.21a989.183,989.183,0,0,1-132.347-32.463A939.168,939.168,0,0,1,242.69,762.18C218.315,751.3,200.584,742.03,190,736.165V359H2111V636.842c-19.028,15.806-33.83,39.158-43.993,69.408a295.552,295.552,0,0,0-11.753,50.408A427.663,427.663,0,0,0,2051,805a462.867,462.867,0,0,1-4.594,54c-1.663,11.073-3.819,22-6.409,32.485a329.836,329.836,0,0,1-10.746,35.015,318.656,318.656,0,0,1-16.276,36.7,324.039,324.039,0,0,1-23,37.547,347.852,347.852,0,0,1-30.924,37.546,395.43,395.43,0,0,1-40.04,36.7,157.057,157.057,0,0,1-31.018,19.169,208.9,208.9,0,0,1-36.436,13.021,291.825,291.825,0,0,1-41.018,7.412A407.184,407.184,0,0,1,1765.774,1116.953Z" transform="translate(-181 -353)" fill="url(#a)"/></g><circle cx="127.5" cy="127.5" r="127.5" transform="translate(-1140 839)" fill="url(#d)"/><circle cx="127.5" cy="127.5" r="127.5" transform="matrix(0.899, -0.438, 0.438, 0.899, -1819.989, 985.796)" fill="url(#e)"/><circle cx="76.5" cy="76.5" r="76.5" transform="translate(-1979.191 1034.002) rotate(-11)" opacity="0.527" fill="url(#d)"/><circle cx="38" cy="38" r="38" transform="translate(-1869.499 881.588) rotate(-11)" opacity="0.527" fill="url(#g)"/></g></svg>