<svg xmlns="http://www.w3.org/2000/svg" xmlns:xlink="http://www.w3.org/1999/xlink" width="1921.499" height="953.502" viewBox="0 0 1921.499 953.502"><defs><linearGradient id="a" x1="0.486" y1="0.394" x2="0.669" y2="1.818" gradientUnits="objectBoundingBox"><stop offset="0" stop-color="#ff9283"/><stop offset="1" stop-color="#ffaf00"/></linearGradient><linearGradient id="c" x1="0.483" y1="1.054" x2="0.537" y2="-0.379" gradientUnits="objectBoundingBox"><stop offset="0" stop-color="#f7eedd"/><stop offset="1" stop-color="#fff"/></linearGradient></defs><g transform="translate(-8037 2522)"><rect width="1920" height="951" transform="translate(8037 -2522)" fill="#fff"/><g transform="translate(8038 -2695)"><circle cx="75.34" cy="75.34" r="75.34" transform="matrix(-0.087, -0.996, 0.996, -0.087, 1453.949, 577.876)" opacity="0.27" fill="url(#a)"/><circle cx="136.84" cy="136.84" r="136.84" transform="translate(1183.096 225.917)" opacity="0.09" fill="url(#a)"/><path d="M-4049,3188.5H-5970V2988.083c19.337,14.076,38.823,27.509,57.917,39.925,24.69,16.054,49.644,31.019,74.167,44.478,23.579,12.942,47.411,24.847,70.833,35.386,22.475,10.112,45.166,19.235,67.442,27.116,21.33,7.546,42.858,14.16,63.986,19.66,20.145,5.248,40.491,9.633,60.472,13.032,18.969,3.226,38.11,5.654,56.893,7.216,17.738,1.475,35.656,2.223,53.256,2.223a632.423,632.423,0,0,0,63.229-3.178c18.879-1.9,38.038-4.716,56.945-8.36,149.817-28.885,255.311-103.77,367-183.052l.007-.005.009-.006.043-.03c50.3-35.707,102.317-72.629,160.408-106.831,14.985-8.825,30.064-17.273,44.818-25.11,15.8-8.4,31.814-16.395,47.583-23.776,16.744-7.84,33.835-15.277,50.8-22.1,17.849-7.181,36.169-13.937,54.452-20.08,26.22-8.805,52.9-16.535,79.3-22.976,25.277-6.169,51.023-11.335,76.523-15.355,24.307-3.83,49.029-6.719,73.478-8.585,23.228-1.772,46.835-2.671,70.166-2.671,15.488,0,31.227.4,46.777,1.179,14.89.749,30.013,1.874,44.95,3.344,27.852,2.742,56.132,6.79,84.054,12.028,25.078,4.708,50.532,10.5,75.656,17.221,6.522,1.744,13.2,3.6,19.836,5.513V3188.5Z" transform="translate(5969.5 -2062)" fill="url(#c)"/></g></g></svg>