<svg xmlns="http://www.w3.org/2000/svg" width="1923" height="606" viewBox="0 0 1923 606"><g transform="translate(-91 -372)"><path d="M5919.5,1054.62H4003.726a44.863,44.863,0,0,1-5.225-.3V939.4h1921V1054.62h0Z" transform="translate(-3907 -112)" fill="#a67f53" stroke="rgba(0,0,0,0)" stroke-width="1"/><path d="M3897.737,538.711h-15.189a12.549,12.549,0,0,1,0-25.1h15.189v25.1Z" transform="translate(-1884.237 136)" fill="#97d8e7" stroke="rgba(0,0,0,0)" stroke-width="1"/><path d="M5896.5,479.584h-1922V458.326h1922v21.257Z" transform="translate(-3883 369)" fill="#9cb92d" stroke="rgba(0,0,0,0)" stroke-width="1"/><path d="M4056.822,608.926a57.438,57.438,0,0,1-16.587-2.464,64.636,64.636,0,0,1-15.465-7.07,80.128,80.128,0,0,1-14.02-11.194,101.715,101.715,0,0,1-12.25-14.835V396.805a101.707,101.707,0,0,1,12.25-14.835,80.132,80.132,0,0,1,14.02-11.194,64.635,64.635,0,0,1,15.465-7.07,57.065,57.065,0,0,1,33.346.052,64.826,64.826,0,0,1,15.609,7.216,80.639,80.639,0,0,1,14.125,11.418,102.559,102.559,0,0,1,12.307,15.122,127.278,127.278,0,0,1,10.154,18.328,150.812,150.812,0,0,1,7.667,21.036,181.053,181.053,0,0,1,0,96.41,150.823,150.823,0,0,1-7.667,21.036,127.277,127.277,0,0,1-10.154,18.328,102.548,102.548,0,0,1-12.307,15.122,80.643,80.643,0,0,1-14.125,11.418,64.834,64.834,0,0,1-15.609,7.216A57.459,57.459,0,0,1,4056.822,608.926Z" transform="translate(-3907 152)" fill="#d4e128" stroke="rgba(0,0,0,0)" stroke-width="1"/><g transform="translate(-43.626 347.79)"><g transform="translate(262.386 394.82)"><path d="M292.624,265.252s15.232-30.451-9.367-37.943c-13.659-4.159-20.957,9.748-24.746,23.026.94-12.334-1.458-25.95-15.106-30.1-18.992-5.784-26.711,20.59-29.6,36.518-3.554-13.465-11.132-29.885-26.65-25.562-25.447,7.093-9.636,46.143-9.636,46.143-20.8-1.936-9.052,26.795-9.052,26.795H301.342S326.115,267.88,292.624,265.252Z" transform="translate(-165.162 -219.418)" fill="#b2a1c4"/><path d="M301.345,291.632H168.466s-4.186-10.354-3.135-18.144a103.61,103.61,0,0,0,131.6-44.107c1.893,10.884-4.3,23.4-4.3,23.4C326.115,255.412,301.345,291.632,301.345,291.632Z" transform="translate(-165.162 -206.924)" fill="#9b88b5"/></g><g transform="translate(1886.954 176.371)"><path d="M917.09,126.435h-5.871l-3.381,291.379a3.444,3.444,0,0,0,3.444,3.444h6.872a3.444,3.444,0,0,0,3.444-3.444Z" transform="translate(-858.465 -117.563)" fill="#9f8951"/><g transform="translate(0 0)"><ellipse cx="51.036" cy="51.036" rx="51.036" ry="51.036" transform="matrix(0.993, -0.122, 0.122, 0.993, 0, 166.807)" fill="#506f62"/><circle cx="40.846" cy="40.846" r="40.846" transform="translate(16.043 72.059)" fill="#506f62"/><ellipse cx="30.095" cy="30.095" rx="30.095" ry="30.095" transform="translate(22.362 9.641) rotate(-9.217)" fill="#506f62"/></g><g transform="translate(9.034 200.111)"><path d="M988.832,222.4a51.044,51.044,0,0,1-98.891,17.756c24.633,16.668,89.245,2.193,97.652-28.875A50.182,50.182,0,0,1,988.832,222.4Z" transform="translate(-889.941 -211.282)" fill="#3c594c"/></g><path d="M911.306,130.981c1.46,1.632.935,4.483-1.17,6.365s-5,2.092-6.458.46-.933-4.481,1.172-6.365S909.847,129.351,911.306,130.981Z" transform="translate(-864.716 -113.242)" fill="#68897a"/><path d="M909.692,163.16c2.112,2.249,1.526,6.232-1.312,8.894s-6.847,3-8.959.744-1.524-6.232,1.312-8.894S907.583,160.908,909.692,163.16Z" transform="translate(-870.609 -73.385)" fill="#68897a"/><path d="M911.63,204.33c1.767,3.237-.108,7.663-4.188,9.888s-8.817,1.406-10.582-1.828.11-7.663,4.188-9.89S909.866,201.093,911.63,204.33Z" transform="translate(-873.063 -23.753)" fill="#68897a"/></g><g transform="translate(1254.499 116.679)"><path d="M652.992,211.2H638.339l-2.4,101.781a3.668,3.668,0,0,0,3.669,3.669h12.115a3.67,3.67,0,0,0,3.669-3.669Z" transform="translate(-566.953 48.423)" fill="#884b25"/><path d="M762.756,277.276c0,65.752-35.24,91.379-78.712,91.379s-78.712-25.627-78.712-91.379,35.24-181.261,78.712-181.261S762.756,211.525,762.756,277.276Z" transform="translate(-605.332 -96.015)" fill="#8cc63f"/><path d="M760.47,182.42c0,65.763-35.254,91.381-78.728,91.381-34.679,0-64.109-16.3-74.58-56.272a140.409,140.409,0,0,0,153-45.87C760.373,175.374,760.47,178.97,760.47,182.42Z" transform="translate(-603.037 -1.161)" fill="#7eb22d"/><path d="M638.538,125.289a6.4,6.4,0,1,1-6.4-6.4A6.4,6.4,0,0,1,638.538,125.289Z" transform="translate(-579.747 -67.334)" fill="#a3d651"/><circle cx="6.4" cy="6.4" r="6.4" transform="translate(50.791 69.555)" fill="#a3d651"/><circle cx="10.601" cy="10.601" r="10.601" transform="translate(26.789 75.556)" fill="#a3d651"/><g transform="translate(49.88 310.765)"><path d="M649.483,254.051c-15.124-1.386-21.746-17.213-22.021-17.887l5.556-2.265-2.779,1.132,2.777-1.138c.054.131,5.554,13.134,17.015,14.184Z" transform="translate(-627.462 -233.892)" fill="#884b25"/></g><g transform="translate(83.267 281.969)"><path d="M642.823,241.268l-.548-5.973c11.536-1.057,16.961-14.049,17.015-14.179l5.556,2.267C664.571,224.055,657.949,239.885,642.823,241.268Z" transform="translate(-642.275 -221.116)" fill="#884b25"/></g></g><g transform="translate(1605.466 79.536)"><path d="M817.9,169.434H803.5L801.138,374.8a3.455,3.455,0,0,0,3.606,3.282h11.91a3.455,3.455,0,0,0,3.606-3.282Z" transform="translate(-710.771 33.19)" fill="#ad6742"/><path d="M960.306,176.786a53.057,53.057,0,0,0-38.625-51.045A85,85,0,1,0,779.64,217.576a36,36,0,0,0,42.647,54.02,61.887,61.887,0,0,0,113.249-49.938A52.993,52.993,0,0,0,960.306,176.786Z" transform="translate(-761.045 -79.536)" fill="#fcb019"/><path d="M933.783,164.849a61.888,61.888,0,0,1-118.3,25.44,36.022,36.022,0,0,1-46.83-45.913,122.53,122.53,0,0,0,82.142,31.449,121.727,121.727,0,0,0,80.116-29.682C933.264,152.034,933.783,158.324,933.783,164.849Z" transform="translate(-754.23 1.77)" fill="#ff9213"/><g transform="translate(98.112 291.777)"><path d="M810.472,262.415a5.9,5.9,0,0,1-4.17-10.068l41.63-41.63a5.9,5.9,0,0,1,8.342,8.34l-41.632,41.632A5.875,5.875,0,0,1,810.472,262.415Z" transform="translate(-804.575 -208.989)" fill="#ad6742"/></g><ellipse cx="22.983" cy="22.983" rx="22.983" ry="22.983" transform="translate(149.943 283.392) rotate(-22.5)" fill="#ff9213"/><circle cx="36.694" cy="36.694" r="36.694" transform="translate(117.542 306.189) rotate(-76.717)" fill="#fcb019"/><path d="M887.384,214.99A36.7,36.7,0,0,1,818.5,232.609a43.374,43.374,0,0,0,62.244-38.671A36.485,36.485,0,0,1,887.384,214.99Z" transform="translate(-689.004 63.916)" fill="#ff9213"/></g><g transform="translate(721.079 166.946)"><path d="M557.719,212.842A94.524,94.524,0,1,0,397.527,280.8a66.364,66.364,0,1,0,131.334,0A94.225,94.225,0,0,0,557.719,212.842Z" transform="translate(-368.67 -118.317)" fill="#40a863"/><path d="M510.269,199.048a66.377,66.377,0,0,1-126.8,15.836,112.192,112.192,0,0,0,126.8-15.836Z" transform="translate(-350.116 -17.086)" fill="#2c9560"/><path d="M462.268,228.777c-.212.672-.466,1.485-.759,2.421a32.127,32.127,0,0,1-1.172,3.063q-.341.835-.71,1.736c-.124.3-.248.6-.374.911-.151.3-.3.6-.462.906-.638,1.219-1.258,2.527-1.992,3.827-.8,1.264-1.578,2.6-2.452,3.893-.951,1.242-1.821,2.574-2.858,3.773s-2.026,2.434-3.162,3.5c-.55.548-1.093,1.093-1.632,1.63L445,255.918c-1.08,1.005-2.272,1.8-3.32,2.646-1.123.746-2.137,1.517-3.158,2.094-.992.624-1.927,1.145-2.768,1.582s-1.582.787-2.189,1.071l-.3.131-2.279-59.283c.176-.09.338-.171.536-.275.645-.358,1.431-.78,2.29-1.321s1.826-1.154,2.831-1.884c1.037-.69,2.053-1.573,3.178-2.439,1.044-.96,2.225-1.88,3.284-3.007q.815-.822,1.657-1.666c.521-.6,1.048-1.2,1.58-1.81,1.1-1.183,2.026-2.545,3.018-3.841s1.785-2.739,2.669-4.075c.8-1.386,1.506-2.8,2.229-4.143.658-1.373,1.195-2.745,1.756-4.019l.4-.947c.108-.32.212-.638.316-.949q.311-.93.6-1.8a31.936,31.936,0,0,0,.965-3.158c.23-.956.431-1.79.6-2.477l.516-2.15s-.241.766-.663,2.112c-.212.669-.467,1.485-.76,2.418a31.564,31.564,0,0,1-1.172,3.065l-.71,1.733c-.124.3-.248.6-.374.913l-.462.906c-.638,1.217-1.258,2.527-1.993,3.825-.8,1.264-1.578,2.6-2.452,3.893-.951,1.244-1.821,2.574-2.858,3.773s-2.026,2.434-3.162,3.5l-1.632,1.632-1.693,1.481c-1.08,1.007-2.272,1.8-3.318,2.648-1.125.744-2.139,1.517-3.16,2.094-.992.624-1.927,1.145-2.768,1.582-.5.268-.956.489-1.384.692L429.3,160.221l-2.93,74.1c-.467-.246-.965-.514-1.526-.825-.854-.5-1.828-1.05-2.847-1.729-1.044-.64-2.114-1.422-3.261-2.236-1.127-.836-2.3-1.754-3.476-2.736-1.143-1.026-2.38-2.033-3.5-3.2q-.859-.855-1.733-1.722l-1.63-1.848c-1.132-1.2-2.089-2.542-3.083-3.829l-.737-.965-.658-1q-.653-1-1.289-1.979-.318-.487-.629-.967-.274-.5-.541-.994c-.356-.656-.706-1.3-1.044-1.925a32.323,32.323,0,0,1-1.733-3.624c-.478-1.149-1.005-2.175-1.316-3.14s-.6-1.8-.836-2.493c-.464-1.384-.728-2.177-.728-2.177l.584,2.22.672,2.554c.25.992.708,2.051,1.111,3.241a33.223,33.223,0,0,0,1.51,3.773q.453.987.929,2.022c.158.345.32.694.482,1.046l.575,1.023q.578,1.035,1.177,2.1.3.531.6,1.071l.687,1.032c.926,1.379,1.821,2.82,2.9,4.129l1.551,2.008q.838.953,1.666,1.891c1.075,1.285,2.279,2.407,3.392,3.548,1.154,1.1,2.3,2.13,3.417,3.079,1.136.924,2.2,1.812,3.248,2.554,1.019.78,2,1.427,2.867,2.013.879.57,1.654,1.053,2.308,1.436.273.158.509.293.737.422l-5.4,136.491a3.64,3.64,0,0,0,3.512,3.775h9.694a3.641,3.641,0,0,0,3.512-3.775L433.4,267.145c.027-.011.047-.013.077-.027.4-.176.915-.437,1.569-.778.645-.356,1.431-.775,2.29-1.316s1.826-1.154,2.831-1.884c1.037-.69,2.053-1.573,3.178-2.436,1.044-.962,2.225-1.882,3.284-3.009.543-.545,1.1-1.1,1.657-1.663l1.578-1.81c1.1-1.186,2.029-2.545,3.02-3.843s1.785-2.736,2.669-4.073c.8-1.388,1.506-2.8,2.229-4.143.656-1.373,1.195-2.748,1.756-4.021l.4-.947c.108-.32.212-.636.316-.947.205-.622.406-1.222.6-1.8a32.8,32.8,0,0,0,.965-3.16c.23-.956.43-1.79.595-2.475.327-1.37.516-2.152.516-2.152Z" transform="translate(-334.648 -65.772)" fill="#7f5a31"/></g><g transform="translate(526.819 225.1)"><circle cx="85.111" cy="85.111" r="85.111" fill="#f77e59"/><path d="M446.9,209.044a85.116,85.116,0,0,1-159.781,40.861,100.606,100.606,0,0,0,144.378-89.691A84.637,84.637,0,0,1,446.9,209.044Z" transform="translate(-276.674 -123.934)" fill="#e26649"/><path d="M383.839,196.638c-.232-2.716-.527-5.274-.823-7.632-1.255-9.419-2.72-15.575-2.72-15.575s1.154,6.225,1.934,15.658c.176,2.358.34,4.914.435,7.618s.115,5.554.027,8.5-.307,5.966-.681,9.014c-.18,1.524-.5,3.034-.739,4.557-.356,1.49-.681,2.939-1.118,4.422l-.782,2.236-.2.557-.1.279-.05.14c0-.007-.041.115,0,0l-.029.061-.471,1a20.315,20.315,0,0,1-1.066,1.914c-.426.593-.814,1.208-1.287,1.76a25.6,25.6,0,0,1-6.487,5.572,49.586,49.586,0,0,1-14.443,5.66,80.08,80.08,0,0,1-10.983,1.776c-.124.011-.232.018-.349.029L342.9,213.285l.041-.009c.541-.146,1.152-.284,1.8-.516a17.218,17.218,0,0,0,2.047-.809,21.331,21.331,0,0,0,2.164-1.154,17.251,17.251,0,0,0,2.08-1.6c.327-.3.663-.6.978-.915l.859-1.037.421-.516.349-.568.674-1.125c.394-.766.667-1.571.983-2.31.212-.778.379-1.533.55-2.236.151-.708.155-1.4.232-2.017a9.248,9.248,0,0,0,.07-1.693c-.02-.5-.036-.938-.05-1.3l-.043-1.122s-.063.406-.176,1.113c-.054.349-.122.775-.2,1.262a8.629,8.629,0,0,1-.385,1.6c-.187.57-.313,1.208-.582,1.832-.288.618-.57,1.269-.89,1.918-.417.6-.782,1.249-1.244,1.83l-.753.829-.372.412-.435.352-.852.7c-.3.2-.627.383-.929.572a14.129,14.129,0,0,1-1.88.931,17.613,17.613,0,0,1-1.882.566c-.6.156-2.858.25-3.4.316-.354.054-2.671.077-2.671.095v2.18h-.365c-.131,0-.264-1.136-.4-1.154-.257-.041-.543-.645-.857-.694-.311-.086-.647-.458-1.007-.559a12.6,12.6,0,0,1-2.324-1.222,6.942,6.942,0,0,1-1.246-.911,16.608,16.608,0,0,1-1.262-1.089c-.394-.422-.8-.872-1.215-1.314a15.736,15.736,0,0,1-1.127-1.526,23.988,23.988,0,0,1-2.026-3.5c-.62-1.253-1.046-2.639-1.591-3.976-.413-1.386-.762-2.8-1.145-4.195-.325-1.4-.507-2.82-.76-4.179a34.486,34.486,0,0,1-.489-3.967c-.117-1.269-.228-2.473-.329-3.582-.059-1.113-.056-2.134-.086-3.043s-.038-1.7-.052-2.353c-.029-1.305-.047-2.053-.047-2.053s-.063.744-.171,2.044c-.054.654-.12,1.445-.2,2.351s-.178,1.936-.239,3.059c-.016,1.125-.034,2.344-.054,3.633a35.471,35.471,0,0,0,.068,4.071c.108,1.411.144,2.883.325,4.368.239,1.479.449,3,.728,4.5.424,1.483.726,3.007,1.258,4.452a26.794,26.794,0,0,0,1.86,4.177,18.35,18.35,0,0,0,1.134,1.918q.669.889,1.31,1.733a19.611,19.611,0,0,0,1.447,1.508,9.742,9.742,0,0,0,1.512,1.276,16.031,16.031,0,0,0,3.027,1.819l1.4.554c.448.14.87.246,1.249.352a5.436,5.436,0,0,0,.76.158l-.573,14.067c-1.143.113-2.655.268-4.47.4a67.75,67.75,0,0,1-14.211-.277,33.1,33.1,0,0,1-3.753-.755,23.056,23.056,0,0,1-3.485-1.2c-.554-.225-1.055-.527-1.573-.78-.471-.318-.978-.581-1.4-.924a10.29,10.29,0,0,1-1.213-1.028l-.543-.534-.455-.57a6.587,6.587,0,0,1-.778-1.138,5.681,5.681,0,0,1-.57-1.116,11.145,11.145,0,0,1-.651-1.952c-.135-.557-.162-1.014-.219-1.319l-.07-.473.013.476c.018.309-.009.773.061,1.352a11.43,11.43,0,0,0,.426,2.078,6.175,6.175,0,0,0,.455,1.237,7.233,7.233,0,0,0,.681,1.305c.137.219.275.442.417.672.169.21.338.424.512.642a11.613,11.613,0,0,0,1.177,1.267c.419.428.917.775,1.4,1.181.516.338,1.03.733,1.594,1.046a24.738,24.738,0,0,0,3.575,1.736,36.21,36.21,0,0,0,3.881,1.28,71.118,71.118,0,0,0,14.779,2.071c1.686.081,3.122.11,4.226.135l-5.369,131.8a4.443,4.443,0,0,0,4.467,4.438h6.541a4.442,4.442,0,0,0,4.465-4.438l-3.753-115.156c.246-.034.494-.059.76-.1a84.217,84.217,0,0,0,11.509-2.455,53.379,53.379,0,0,0,15.252-6.9,28.849,28.849,0,0,0,6.971-6.638c.5-.658.924-1.386,1.37-2.089a23.3,23.3,0,0,0,1.116-2.256l.478-1.168.032-.072.045-.137.043-.142.083-.284.167-.568.672-2.272c.381-1.564.678-3.219.969-4.808.174-1.591.419-3.171.525-4.745.23-3.144.3-6.234.234-9.219S384.06,199.354,383.839,196.638Z" transform="translate(-254.845 -109.713)" fill="#7c4329"/><g transform="translate(33.132 33.36)"><path d="M319.765,177.74s-6.144,2.646-10.42.183-5.065-9.11-5.065-9.11,6.144-2.648,10.422-.183S319.765,177.74,319.765,177.74Z" transform="translate(-288.282 -148.06)" fill="#fcb019"/><path d="M344.631,180.176s-5.344,2.3-9.063.158-4.4-7.923-4.4-7.923,5.344-2.3,9.063-.158S344.631,180.176,344.631,180.176Z" transform="translate(-254.571 -143.344)" fill="#fcb019"/><path d="M327.346,167.57s-.248,6.124-3.978,8.68-9.527.577-9.527.577.246-6.124,3.976-8.68S327.346,167.57,327.346,167.57Z" transform="translate(-276.294 -148.987)" fill="#fcb019"/><path d="M350.3,171.492s.89,5.256-1.823,8.1-8,2.2-8,2.2-.89-5.254,1.824-8.1S350.3,171.492,350.3,171.492Z" transform="translate(-243.079 -143.232)" fill="#fcb019"/><path d="M312.661,185.107s2.261,4.6.541,7.965-6.775,4.226-6.775,4.226-2.263-4.6-.541-7.965S312.661,185.107,312.661,185.107Z" transform="translate(-287.079 -126.081)" fill="#fcb019"/><path d="M315.86,179.144s-6.829-3.507-7.769-9.092,4.368-11.132,4.368-11.132,6.829,3.507,7.767,9.092S315.86,179.144,315.86,179.144Z" transform="translate(-283.643 -158.919)" fill="#fcb019"/><path d="M342.211,181.885s-5.939-3.05-6.755-7.907,3.8-9.681,3.8-9.681,5.939,3.05,6.755,7.907S342.211,181.885,342.211,181.885Z" transform="translate(-249.311 -152.174)" fill="#fcb019"/><path d="M297.182,191.658s6.014-3.194,10.555-1.046,5.892,8.822,5.892,8.822-6.016,3.194-10.557,1.046S297.182,191.658,297.182,191.658Z" transform="translate(-297.182 -120.109)" fill="#fcb019"/><path d="M331.488,188.737s-5.91-.953-7.952-4.866.55-9.306.55-9.306,5.91.951,7.952,4.864S331.488,188.737,331.488,188.737Z" transform="translate(-265.121 -139.301)" fill="#fcb019"/><path d="M328.732,187.9s-.893-4.751,1.524-7.373,7.224-2.125,7.224-2.125.89,4.751-1.526,7.373S328.732,187.9,328.732,187.9Z" transform="translate(-257.823 -134.535)" fill="#fcb019"/></g></g><g transform="translate(1207.176 427.835)"><g transform="translate(20.534 17.841)"><rect width="33.89" height="6.158" transform="matrix(0.001, -1, 1, 0.001, 0, 33.89)" fill="#9f8951"/></g><g transform="translate(0 40.716)"><path d="M584.336,263.479a11.363,11.363,0,0,1,22.726.025" transform="translate(-584.336 -252.13)" fill="#779221"/><path d="M594.167,263.491a11.363,11.363,0,0,1,22.727.025" transform="translate(-572.009 -252.117)" fill="#779221"/></g><circle cx="17.044" cy="17.044" r="17.044" transform="translate(6.016)" fill="#00a99d"/><path d="M603.852,244.952a5.966,5.966,0,1,1-5.959-5.971A5.966,5.966,0,0,1,603.852,244.952Z" transform="translate(-574.826 -227.902)" fill="#f4dd1b"/></g><g transform="translate(1615.137 427.835)"><g transform="translate(20.534 17.841)"><rect width="33.89" height="6.158" transform="matrix(0.001, -1, 1, 0.001, 0, 33.89)" fill="#9f8951"/></g><g transform="translate(0 40.716)"><path d="M765.336,263.479a11.363,11.363,0,0,1,22.726.025" transform="translate(-765.336 -252.13)" fill="#779221"/><path d="M775.167,263.491a11.363,11.363,0,1,1,22.726.025" transform="translate(-753.009 -252.117)" fill="#779221"/></g><circle cx="17.044" cy="17.044" r="17.044" transform="translate(6.016)" fill="#f4dd1b"/><path d="M784.852,244.952a5.966,5.966,0,1,1-5.959-5.971A5.966,5.966,0,0,1,784.852,244.952Z" transform="translate(-755.826 -227.902)" fill="#fff"/></g><g transform="translate(431.501 410.357)"><g transform="translate(22.54 19.59)"><rect width="49.587" height="6.762" transform="translate(0 49.586) rotate(-89.939)" fill="#9f8951"/></g><g transform="translate(0 57.081)"><path d="M240.193,264.1a12.477,12.477,0,0,1,24.953.027" transform="translate(-240.193 -251.636)" fill="#779221"/><path d="M250.987,264.111a12.478,12.478,0,1,1,24.956.027" transform="translate(-226.658 -251.622)" fill="#779221"/></g><path d="M280.554,245.046a18.716,18.716,0,1,1-18.694-18.735A18.715,18.715,0,0,1,280.554,245.046Z" transform="translate(-236.519 -226.311)" fill="#e68983"/><path d="M261.621,238.265a6.55,6.55,0,1,1-6.543-6.557A6.553,6.553,0,0,1,261.621,238.265Z" transform="translate(-229.75 -219.544)" fill="#fff"/></g><g transform="translate(508.135 426.028)"><g transform="translate(20.301 23.103)"><rect width="30.439" height="6.088" transform="translate(0 30.439) rotate(-89.938)" fill="#9f8951"/></g><g transform="translate(0 42.651)"><path d="M274.193,263.407a11.233,11.233,0,0,1,22.465.025" transform="translate(-274.193 -252.187)" fill="#779221"/><path d="M283.911,263.418a11.234,11.234,0,0,1,22.467.025" transform="translate(-262.007 -252.173)" fill="#779221"/></g><path d="M310.53,250.13a16.849,16.849,0,1,1-16.83-16.866A16.85,16.85,0,0,1,310.53,250.13Z" transform="translate(-270.885 -233.264)" fill="#f7931e"/><path d="M293.485,244.026a5.9,5.9,0,1,1-5.889-5.9A5.9,5.9,0,0,1,293.485,244.026Z" transform="translate(-264.792 -227.171)" fill="#fff"/></g><g transform="translate(124.966 435.475)"><g transform="translate(16.741 19.052)"><rect width="25.101" height="5.02" transform="translate(0 25.101) rotate(-89.938)" fill="#9f8951"/></g><g transform="translate(0 35.172)"><path d="M112.207,262.321a9.264,9.264,0,0,1,18.527.02" transform="translate(-94.144 -253.049)" fill="#779221"/></g></g><g transform="translate(1141.49 416.565)"><g transform="translate(20.527 17.841)"><rect width="45.16" height="6.158" transform="matrix(0.001, -1, 1, 0.001, 0, 45.16)" fill="#9f8951"/></g><g transform="translate(0 51.986)"><path d="M555.193,263.479a11.363,11.363,0,0,1,22.726.025" transform="translate(-555.193 -252.13)" fill="#779221"/><path d="M565.024,263.491a11.362,11.362,0,1,1,22.724.025" transform="translate(-542.866 -252.117)" fill="#779221"/></g><circle cx="17.044" cy="17.044" r="17.044" transform="translate(6.015)" fill="#a56f9e"/><path d="M574.709,239.952a5.966,5.966,0,1,1-5.959-5.971A5.966,5.966,0,0,1,574.709,239.952Z" transform="translate(-545.683 -222.902)" fill="#f4dd1b"/></g><g transform="translate(705.437 449.9)"><path d="M413.922,263.956c0,6.773-11.684,10.961-26.1,10.961s-26.1-4.188-26.1-10.961,11.684-20.1,26.1-20.1S413.922,257.185,413.922,263.956Z" transform="translate(-361.73 -243.855)" fill="#999"/><path d="M402.239,259.8c0,5.107-8.813,8.265-19.681,8.265s-19.681-3.158-19.681-8.265,8.811-15.16,19.681-15.16S402.239,254.7,402.239,259.8Z" transform="translate(-360.293 -242.866)" fill="#b3b3b3"/><path d="M384.257,253.129c0,2.554-4.406,4.134-9.841,4.134s-9.841-1.58-9.841-4.134,4.407-7.58,9.841-7.58S384.257,250.575,384.257,253.129Z" transform="translate(-358.161 -241.731)" fill="#e6e6e6"/></g><g transform="translate(296.153 197.651)"><rect width="102" height="36.138" rx="8.017" transform="translate(0 2.176)" fill="#97d8e7"/><path d="M263.971,174.037H218.232a12.586,12.586,0,0,1-12.548-12.55h0a12.584,12.584,0,0,1,12.548-12.548h45.739a12.586,12.586,0,0,1,12.55,12.548h0A12.588,12.588,0,0,1,263.971,174.037Z" transform="translate(-148.117 -110.624)" fill="#97d8e7"/><path d="M276.417,203.7h-16.6a12.586,12.586,0,0,1-12.548-12.55h0A12.584,12.584,0,0,1,259.822,178.6h16.6a12.586,12.586,0,0,1,12.55,12.548h0A12.588,12.588,0,0,1,276.417,203.7Z" transform="translate(-95.966 -73.428)" fill="#97d8e7"/><path d="M762.718,157.038h-16.6a12.584,12.584,0,0,1-12.548-12.548h0a12.586,12.586,0,0,1,12.548-12.55h16.6a12.586,12.586,0,0,1,12.55,12.55h0A12.584,12.584,0,0,1,762.718,157.038Z" transform="translate(513.822 -131.94)" fill="#97d8e7"/><path d="M747.2,175.2H715.866a12.584,12.584,0,0,1-12.548-12.548h0a12.586,12.586,0,0,1,12.548-12.55H747.2a12.588,12.588,0,0,1,12.55,12.55h0A12.586,12.586,0,0,1,747.2,175.2Z" transform="translate(475.882 -109.17)" fill="#97d8e7"/><path d="M609.255,191.188H567.866a12.586,12.586,0,0,1-12.55-12.548h0a12.586,12.586,0,0,1,12.55-12.548h41.389A12.584,12.584,0,0,1,621.8,178.641h0A12.584,12.584,0,0,1,609.255,191.188Z" transform="translate(290.298 -89.114)" fill="#97d8e7"/><path d="M527.386,183.828H501.775a12.585,12.585,0,0,1-12.55-12.548h0a12.587,12.587,0,0,1,12.55-12.55h25.611a12.586,12.586,0,0,1,12.548,12.55h0A12.584,12.584,0,0,1,527.386,183.828Z" transform="translate(207.424 -98.347)" fill="#97d8e7"/><path d="M606.961,162.495h-79.7a12.588,12.588,0,0,1-12.55-12.55h0A12.586,12.586,0,0,1,527.26,137.4h79.7a12.584,12.584,0,0,1,12.548,12.548h0A12.586,12.586,0,0,1,606.961,162.495Z" transform="translate(239.38 -125.097)" fill="#97d8e7"/></g><g transform="translate(1807.808 409.766)"><path d="M872.855,286.373h0c-5.932,0-12.2-4.81-12.2-10.745l1.456-33.268H883.6l1.456,33.268C885.054,281.563,878.788,286.373,872.855,286.373Z" transform="translate(-838.481 -205.596)" fill="#c69c6d"/><path d="M919.563,259.811a13.473,13.473,0,0,1-.845,4.844c-2.143,5.775-8.31,9.1-16.37,10.819A83.224,83.224,0,0,1,885.159,277q-2.914,0-5.739-.153a68.062,68.062,0,0,1-13.431-1.891c-9-2.346-15.185-6.987-15.171-15.21,0-3.494,1.463-7.479,3.872-11.452a54.767,54.767,0,0,1,10.4-12.232c6.57-5.826,14.189-10.014,20.128-10.014C899.043,226.049,919.588,246.492,919.563,259.811Z" transform="translate(-850.818 -226.049)" fill="#ea5d46"/><path d="M867.2,237.693a8.2,8.2,0,0,1-14.666,5.031,54.764,54.764,0,0,1,10.4-12.232A8.23,8.23,0,0,1,867.2,237.693Z" transform="translate(-848.664 -220.478)" fill="#fbc6ae"/><path d="M879.8,237.352a6.181,6.181,0,1,1-6.18-6.183A6.181,6.181,0,0,1,879.8,237.352Z" transform="translate(-829.979 -219.629)" fill="#fbc6ae"/><path d="M889.752,248.551c-2.143,5.775-8.31,9.1-16.37,10.819a10.972,10.972,0,1,1,16.37-10.819Z" transform="translate(-829.419 -209.946)" fill="#fbc6ae"/><path d="M870.559,242.523a4.079,4.079,0,1,1-4.08-4.08A4.078,4.078,0,0,1,870.559,242.523Z" transform="translate(-836.293 -210.508)" fill="#fbc6ae"/><path d="M870.98,252.186a68.06,68.06,0,0,1-13.431-1.891,6.929,6.929,0,0,1,13.431,1.891Z" transform="translate(-842.378 -201.387)" fill="#fbc6ae"/></g><g transform="translate(651.557 406.223)"><g transform="translate(0 39.295)"><path d="M344.88,269.169h0c-1.406,0-2.892-.518-2.892-3.518l.345-16.819h5.092l.345,16.819C347.769,268.651,346.284,269.169,344.88,269.169Z" transform="translate(-332.605 -233.233)" fill="#c7b299"/><path d="M362.37,252.816a3.966,3.966,0,0,1-.3,1.564c-.766,1.866-2.968,2.941-5.844,3.5a32.56,32.56,0,0,1-6.137.494q-1.041,0-2.049-.05a26.625,26.625,0,0,1-4.794-.611c-3.216-.757-5.421-2.256-5.418-4.914a7.007,7.007,0,0,1,1.384-3.7,18.265,18.265,0,0,1,3.714-3.951c2.346-1.882,5.065-3.234,7.186-3.234C355.043,241.911,362.377,248.515,362.37,252.816Z" transform="translate(-337.825 -241.911)" fill="#a67c52"/></g><path d="M356.3,287.579h0c-2.089,0-4.3-.771-4.3-5.231l.512-48.2h7.571l.512,48.2C360.6,286.809,358.393,287.579,356.3,287.579Z" transform="translate(-320.044 -212.348)" fill="#c7b299"/><path d="M382.3,240.692a5.9,5.9,0,0,1-.449,2.326c-1.138,2.775-4.411,4.373-8.689,5.2a48.581,48.581,0,0,1-9.124.733c-1.03,0-2.049-.025-3.045-.072a39.687,39.687,0,0,1-7.129-.908c-4.781-1.127-8.06-3.356-8.053-7.3a10.4,10.4,0,0,1,2.056-5.5,27.189,27.189,0,0,1,5.522-5.876c3.487-2.8,7.53-4.81,10.684-4.81C371.414,224.477,382.318,234.3,382.3,240.692Z" transform="translate(-327.805 -224.477)" fill="#a67c52"/></g><g transform="translate(1426.821 358.434)"><path d="M702.6,287.444s-26.632-56.47,16.231-66.739c26.134-6.261,38.9,17.272,44.887,36.771,4.868-23.064,17.869-61.4,49.859-53.026,45.207,11.833,17.13,77.224,17.13,77.224,36.944-3.228,16.107,44.948,16.107,44.948H687.353S667.57,284.643,702.6,287.444Z" transform="translate(-681.783 -203.274)" fill="#d4e128"/><path d="M846.815,304.4H687.356s-5.646-12.444-5.57-23.006a171.99,171.99,0,0,0,29.806,2.256c54.317,0,101.833-25.226,127.717-62.646-.469,19.179-8.6,38.486-8.6,38.486C867.655,256.258,846.815,304.4,846.815,304.4Z" transform="translate(-681.786 -181.048)" fill="#c5c920"/><g transform="translate(29.563 32.775)"><path d="M706.855,230.757a4.88,4.88,0,0,1-2.9,7.992,8.77,8.77,0,0,1-4.4-.352,8.673,8.673,0,0,1-3.473-2.549,4.878,4.878,0,0,1,2.9-7.992,7.987,7.987,0,0,1,7.873,2.9Z" transform="translate(-694.902 -205.384)" fill="#75a209"/><path d="M707.525,224.846a4.88,4.88,0,0,1,6.347,6.615,6.81,6.81,0,0,1-3.32,3.185,4.881,4.881,0,0,1-6.349-6.615,7.172,7.172,0,0,1,1.384-1.882A7.059,7.059,0,0,1,707.525,224.846Z" transform="translate(-683.912 -209.566)" fill="#75a209"/><path d="M707.224,230.59a4.87,4.87,0,0,1-7.481,2.567,9.745,9.745,0,0,1-4.075-11.871,4.87,4.87,0,0,1,7.481-2.567,9.752,9.752,0,0,1,4.075,11.871Z" transform="translate(-694.681 -217.816)" fill="#75a209"/></g><g transform="translate(599.539 75.719)"><path d="M955.977,247.7a3.443,3.443,0,0,1-5.094,3.165,6.193,6.193,0,0,1-2.283-2.114,6.113,6.113,0,0,1-.814-2.926,3.442,3.442,0,0,1,5.092-3.167,5.642,5.642,0,0,1,3.1,5.042Z" transform="translate(-947.782 -230.157)" fill="#43ddc6"/><path d="M959.119,244.506a3.441,3.441,0,0,1,.633,6.433,4.792,4.792,0,0,1-3.23.32,3.442,3.442,0,0,1-.633-6.435,4.809,4.809,0,0,1,3.23-.318Z" transform="translate(-940.063 -227.472)" fill="#43ddc6"/><path d="M957.153,247.688a3.433,3.433,0,0,1-5.265-1.839,6.874,6.874,0,0,1,2.917-8.355,3.434,3.434,0,0,1,5.265,1.839,6.875,6.875,0,0,1-2.917,8.355Z" transform="translate(-943.139 -236.869)" fill="#43ddc6"/></g></g><g transform="translate(880.542 374.962)"><path d="M673.7,315.173H443.472a64.663,64.663,0,0,1-3.762-14.558c-1.17-9.518.672-19.929,14.885-18.608,0,0-19.427-48.266,11.838-56.97,19.059-5.313,28.361,14.867,32.729,31.411,3.557-19.569,13.032-51.949,36.36-44.837,16.762,5.105,19.711,21.868,18.55,37.012,4.661-16.3,13.627-33.313,30.4-28.2,16.359,4.977,18.376,18.257,16.794,29.4a23.4,23.4,0,0,1,13.409-5.419c8.11-.694,14.074,1.246,18.453,4.672,14.276,11.112,11.718,37.889,11.436,40.438.316-2.1,3.568-20.362,22.116-16.774C686.356,276.548,673.7,315.173,673.7,315.173Z" transform="translate(-439.418 -210.607)" fill="#7cd8ae"/><path d="M673.542,293.78H443.31a64.662,64.662,0,0,1-3.762-14.558s152.805,15.629,193.417-51.554c14.276,11.112,11.718,37.9,11.436,40.447.316-2.1,3.568-20.358,22.116-16.769C686.193,255.15,673.542,293.78,673.542,293.78Z" transform="translate(-439.256 -189.214)" fill="#61c3a9"/><g transform="translate(5.957 10.551)"><path d="M456.156,233.8a4.113,4.113,0,0,1-2.445,6.737,6.728,6.728,0,0,1-6.638-2.446,4.113,4.113,0,0,1,2.445-6.737,6.727,6.727,0,0,1,6.638,2.446Z" transform="translate(-437.023 -195.282)" fill="#a6edcc"/><path d="M445.313,244.373a4.116,4.116,0,0,1,5.353,5.578,5.762,5.762,0,0,1-2.8,2.687,4.116,4.116,0,0,1-5.353-5.578,6.068,6.068,0,0,1,1.165-1.587A6.006,6.006,0,0,1,445.313,244.373Z" transform="translate(-442.061 -179.294)" fill="#a6edcc"/><path d="M458,234.984a4.108,4.108,0,0,1-6.309,2.166,8.219,8.219,0,0,1-3.435-10.01,4.106,4.106,0,0,1,6.307-2.166A8.224,8.224,0,0,1,458,234.984Z" transform="translate(-434.922 -204.096)" fill="#a6edcc"/><path d="M478.619,220.246a4.12,4.12,0,0,1,5.31-4.747,6.909,6.909,0,0,1,5,5.6,4.122,4.122,0,0,1-5.313,4.747,6.911,6.911,0,0,1-5-5.6Z" transform="translate(-396.333 -215.288)" fill="#a6edcc"/><path d="M487.081,229.415c.852,4.56-5.89,6.651-7.769,2.412a5.645,5.645,0,0,1-.219-.584,5.3,5.3,0,0,1-.149-.606c-.854-4.56,5.889-6.651,7.769-2.412a5.652,5.652,0,0,1,.219.584A5.26,5.26,0,0,1,487.081,229.415Z" transform="translate(-395.906 -201.954)" fill="#a6edcc"/><path d="M506.876,221.735c.852,4.56-5.889,6.654-7.769,2.412a5.5,5.5,0,0,1-.37-1.188c-.852-4.56,5.889-6.654,7.769-2.412a5.177,5.177,0,0,1,.219.584A5.236,5.236,0,0,1,506.876,221.735Z" transform="translate(-371.086 -211.582)" fill="#a6edcc"/><path d="M529.381,240.084a2.242,2.242,0,0,1-4.226,1.312,3.117,3.117,0,0,1-.119-.318,2.888,2.888,0,0,1-.081-.329,2.242,2.242,0,0,1,4.226-1.312,2.885,2.885,0,0,1,.2.647Z" transform="translate(-338.17 -186.579)" fill="#a6edcc"/><path d="M546.318,246.287c1.17,5.583-5.572,7.675-7.769,2.412-.1-.234-.185-.476-.261-.724s-.142-.494-.194-.744c-1.17-5.583,5.572-7.675,7.769-2.412.1.234.187.476.264.724S546.266,246.037,546.318,246.287Z" transform="translate(-321.813 -182.06)" fill="#a6edcc"/><path d="M531.547,235.51c.852,4.56-5.889,6.654-7.769,2.412a5.479,5.479,0,0,1-.219-.584,5.211,5.211,0,0,1-.149-.6c-.854-4.56,5.889-6.654,7.769-2.412a5.612,5.612,0,0,1,.219.584A5.367,5.367,0,0,1,531.547,235.51Z" transform="translate(-340.148 -194.309)" fill="#a6edcc"/><path d="M489.586,233.818a4.127,4.127,0,0,1-5.957-3.9,6.982,6.982,0,0,1,4.206-6.417,4.127,4.127,0,0,1,5.957,3.906,6.982,6.982,0,0,1-4.206,6.415Z" transform="translate(-389.947 -205.545)" fill="#a6edcc"/><path d="M504.213,230.229a4.128,4.128,0,0,1-6.775,2.2,6.992,6.992,0,0,1-2.371-7.3,4.127,4.127,0,0,1,6.775-2.2,6.986,6.986,0,0,1,2.371,7.3Z" transform="translate(-375.87 -207.017)" fill="#a6edcc"/></g></g><g transform="translate(110.29 165.452)"><path d="M242.359,194.055c-12.633,44.36-42.167,75.464-76.568,75.464-21.635,0-41.339-12.313-56.121-32.484a171.346,171.346,0,0,0,132.689-42.98Z" transform="translate(-82.649 -21.853)" fill="#c5c920"/><path d="M141.178,146.587h-3.21l-7.26,246.65a4.44,4.44,0,0,0,4.44,4.44H144a4.44,4.44,0,0,0,4.44-4.44Z" transform="translate(-56.269 -81.375)" fill="#99864c"/><path d="M147.2,149.685c0,6.672-3.631,12.081-8.112,12.081s-8.112-5.409-8.112-12.081,3.631-12.081,8.112-12.081S147.2,143.013,147.2,149.685Z" transform="translate(-55.932 -92.639)" fill="#8cc63f"/><path d="M147.581,176.178,124,157.867v-2.26l23.312,14.8Z" transform="translate(-64.68 -70.065)" fill="#99864c"/><path d="M131.708,154.708c4.055,3.667,5.346,8.847,2.885,11.569s-7.747,1.959-11.8-1.708-5.346-8.847-2.885-11.569S127.653,151.041,131.708,154.708Z" transform="translate(-71.379 -75.379)" fill="#8cc63f"/><path d="M133.724,176.178l23.162-18.311v-2.26l-23.1,14.8Z" transform="translate(-52.487 -70.065)" fill="#99864c"/><path d="M146.223,154.708c-4.055,3.667-5.346,8.847-2.883,11.569s7.744,1.959,11.8-1.708,5.346-8.847,2.885-11.569S150.28,151.041,146.223,154.708Z" transform="translate(-41.996 -75.379)" fill="#8cc63f"/><g transform="translate(83.18 99.168)"><path d="M138.889,205.527l38.421-32.687-1.763-2.2-40.961,30.888C136.071,202.8,137.5,204.141,138.889,205.527Z" transform="translate(-134.586 -150.378)" fill="#99864c"/><path d="M165.271,179.463c-4.569,3.658-10.264,4.14-12.721,1.073s-.746-8.52,3.82-12.18,10.264-4.14,12.721-1.073S169.837,175.8,165.271,179.463Z" transform="translate(-113.468 -157.124)" fill="#8cc63f"/><path d="M144.088,194.308l-.538-26.362,1.547-1.239,2.721,24.167Z" transform="translate(-123.346 -155.314)" fill="#99864c"/><path d="M152.982,170.675c-.286,4.787-3.124,8.513-6.338,8.322s-5.59-4.228-5.3-9.016,3.124-8.513,6.338-8.322S153.268,165.887,152.982,170.675Z" transform="translate(-126.146 -161.652)" fill="#8cc63f"/><path d="M143.538,180.3l25.45,6.073,1.547-1.24-22.912-7.825Z" transform="translate(-123.361 -142.015)" fill="#99864c"/><path d="M162.492,179.081c-4.736-.766-8.991,1.192-9.5,4.37s2.91,6.376,7.643,7.143,8.991-1.192,9.5-4.373S167.225,179.846,162.492,179.081Z" transform="translate(-111.576 -140.005)" fill="#8cc63f"/></g><g transform="translate(24.569 126.756)"><path d="M154.049,217.766l-38.418-32.684,1.76-2.2,40.963,30.886C156.867,215.041,155.438,216.382,154.049,217.766Z" transform="translate(-99.744 -162.616)" fill="#99864c"/><path d="M114.352,191.7c4.569,3.66,10.264,4.14,12.721,1.073s.746-8.52-3.82-12.18-10.264-4.14-12.721-1.073S109.785,188.045,114.352,191.7Z" transform="translate(-107.546 -169.364)" fill="#8cc63f"/><path d="M127.459,206.548,128,180.187l-1.547-1.24-2.721,24.167Z" transform="translate(-89.591 -167.553)" fill="#99864c"/><path d="M122.692,182.917c.286,4.787,3.124,8.513,6.338,8.319s5.59-4.228,5.3-9.016S131.21,173.707,128,173.9,122.406,178.127,122.692,182.917Z" transform="translate(-90.919 -173.892)" fill="#8cc63f"/><path d="M140.653,192.544l-25.45,6.073-1.547-1.24,22.912-7.825Z" transform="translate(-102.22 -154.254)" fill="#99864c"/><path d="M116.277,191.321c4.733-.764,8.989,1.192,9.5,4.373s-2.908,6.376-7.643,7.14-8.989-1.19-9.5-4.37S111.541,192.087,116.277,191.321Z" transform="translate(-108.582 -152.244)" fill="#8cc63f"/></g></g><g transform="translate(155.773 515.832)"><path d="M179.5,278.012H163.4a7.982,7.982,0,0,0-7.959,7.959h0a7.983,7.983,0,0,0,7.959,7.961H179.5a7.983,7.983,0,0,0,7.959-7.961h0A7.982,7.982,0,0,0,179.5,278.012Z" transform="translate(-70.741 -266.956)" fill="#8c6239"/><path d="M137.581,273.107H123.39a5.546,5.546,0,0,0-5.529,5.529h0a5.545,5.545,0,0,0,5.529,5.527h14.191a5.545,5.545,0,0,0,5.529-5.527h0A5.546,5.546,0,0,0,137.581,273.107Z" transform="translate(-117.861 -273.107)" fill="#8c6239"/><path d="M412.81,276.973h-12.6a7.983,7.983,0,0,0-7.959,7.961h0a7.982,7.982,0,0,0,7.959,7.959h12.6a7.983,7.983,0,0,0,7.961-7.959h0A7.983,7.983,0,0,0,412.81,276.973Z" transform="translate(226.2 -268.259)" fill="#8c6239"/><path d="M359.711,279.426H347.592a7.983,7.983,0,0,0-7.961,7.959h0a7.985,7.985,0,0,0,7.961,7.961h12.119a7.985,7.985,0,0,0,7.961-7.961h0A7.983,7.983,0,0,0,359.711,279.426Z" transform="translate(160.223 -265.183)" fill="#8c6239"/><path d="M255.2,282.957H234.055a5.544,5.544,0,0,0-5.527,5.529h0a5.542,5.542,0,0,0,5.527,5.527H255.2a5.544,5.544,0,0,0,5.529-5.527h0A5.546,5.546,0,0,0,255.2,282.957Z" transform="translate(20.908 -260.756)" fill="#8c6239"/><path d="M496.127,279.43H484.914a5.546,5.546,0,0,0-5.529,5.529h0a5.544,5.544,0,0,0,5.529,5.527h11.213a5.542,5.542,0,0,0,5.527-5.527h0A5.544,5.544,0,0,0,496.127,279.43Z" transform="translate(335.465 -265.178)" fill="#8c6239"/><path d="M441.973,273.107H430.76a5.545,5.545,0,0,0-5.527,5.529h0a5.545,5.545,0,0,0,5.527,5.527h11.213a5.545,5.545,0,0,0,5.529-5.527h0A5.546,5.546,0,0,0,441.973,273.107Z" transform="translate(267.562 -273.107)" fill="#8c6239"/><path d="M270.874,275.56H259.663a5.544,5.544,0,0,0-5.529,5.527h0a5.546,5.546,0,0,0,5.529,5.529h11.211a5.546,5.546,0,0,0,5.529-5.529h0A5.544,5.544,0,0,0,270.874,275.56Z" transform="translate(53.016 -270.031)" fill="#8c6239"/><path d="M211.041,274.521h-5.788a5.544,5.544,0,0,0-5.529,5.527h0a5.546,5.546,0,0,0,5.529,5.529h5.788a5.546,5.546,0,0,0,5.529-5.529h0A5.544,5.544,0,0,0,211.041,274.521Z" transform="translate(-15.21 -271.334)" fill="#8c6239"/><path d="M573.448,278.012h-16.1a7.983,7.983,0,0,0-7.961,7.959h0a7.983,7.983,0,0,0,7.961,7.961h16.1a7.983,7.983,0,0,0,7.959-7.961h0A7.982,7.982,0,0,0,573.448,278.012Z" transform="translate(423.238 -266.956)" fill="#8c6239"/><path d="M531.525,273.107H517.334a5.546,5.546,0,0,0-5.529,5.529h0a5.545,5.545,0,0,0,5.529,5.527h14.191a5.545,5.545,0,0,0,5.529-5.527h0A5.546,5.546,0,0,0,531.525,273.107Z" transform="translate(376.118 -273.107)" fill="#8c6239"/><path d="M923.494,273.442h-6.548a7.982,7.982,0,0,0-7.959,7.959h0a7.983,7.983,0,0,0,7.959,7.961h6.548a7.983,7.983,0,0,0,7.959-7.961h0A7.982,7.982,0,0,0,923.494,273.442Z" transform="translate(874.158 -272.687)" fill="#8c6239"/><path d="M806.754,276.973h-12.6a7.983,7.983,0,0,0-7.959,7.961h0a7.982,7.982,0,0,0,7.959,7.959h12.6a7.983,7.983,0,0,0,7.961-7.959h0A7.983,7.983,0,0,0,806.754,276.973Z" transform="translate(720.179 -268.259)" fill="#8c6239"/><path d="M753.658,279.426H741.536a7.984,7.984,0,0,0-7.961,7.959h0a7.986,7.986,0,0,0,7.961,7.961h12.122a7.984,7.984,0,0,0,7.959-7.961h0A7.982,7.982,0,0,0,753.658,279.426Z" transform="translate(654.202 -265.183)" fill="#8c6239"/><path d="M649.141,282.957H628a5.544,5.544,0,0,0-5.527,5.529h0A5.542,5.542,0,0,0,628,294.013h21.142a5.544,5.544,0,0,0,5.529-5.527h0A5.546,5.546,0,0,0,649.141,282.957Z" transform="translate(514.886 -260.756)" fill="#8c6239"/><path d="M890.071,279.43H878.858a5.546,5.546,0,0,0-5.529,5.529h0a5.544,5.544,0,0,0,5.529,5.527h11.213a5.542,5.542,0,0,0,5.527-5.527h0A5.544,5.544,0,0,0,890.071,279.43Z" transform="translate(829.444 -265.178)" fill="#8c6239"/><path d="M835.917,273.107H824.706a5.546,5.546,0,0,0-5.529,5.529h0a5.545,5.545,0,0,0,5.529,5.527h11.211a5.545,5.545,0,0,0,5.529-5.527h0A5.546,5.546,0,0,0,835.917,273.107Z" transform="translate(761.541 -273.107)" fill="#8c6239"/><path d="M664.82,275.56H653.607a5.544,5.544,0,0,0-5.529,5.527h0a5.546,5.546,0,0,0,5.529,5.529H664.82a5.545,5.545,0,0,0,5.527-5.529h0A5.543,5.543,0,0,0,664.82,275.56Z" transform="translate(546.995 -270.031)" fill="#8c6239"/><path d="M604.985,274.521H599.2a5.543,5.543,0,0,0-5.529,5.527h0a5.545,5.545,0,0,0,5.529,5.529h5.788a5.546,5.546,0,0,0,5.529-5.529h0A5.544,5.544,0,0,0,604.985,274.521Z" transform="translate(478.768 -271.334)" fill="#8c6239"/></g><g transform="translate(175.503 511.058)"><rect width="25.247" height="11.056" rx="2.453" transform="translate(0 19.026)" fill="#c69c6d"/><path d="M477.438,281.883H455.733a5.543,5.543,0,0,0-5.527,5.527h0a5.544,5.544,0,0,0,5.527,5.529h21.705a5.544,5.544,0,0,0,5.527-5.529h0A5.543,5.543,0,0,0,477.438,281.883Z" transform="translate(279.147 -257.329)" fill="#c69c6d"/><path d="M315.223,275.539H294.081a5.546,5.546,0,0,0-5.529,5.529h0a5.546,5.546,0,0,0,5.529,5.529h21.142a5.544,5.544,0,0,0,5.527-5.529h0A5.544,5.544,0,0,0,315.223,275.539Z" transform="translate(76.444 -265.284)" fill="#c69c6d"/><path d="M230,273.087H218.786a5.545,5.545,0,0,0-5.529,5.527h0a5.546,5.546,0,0,0,5.529,5.529H230a5.544,5.544,0,0,0,5.527-5.529h0A5.543,5.543,0,0,0,230,273.087Z" transform="translate(-17.971 -268.358)" fill="#c69c6d"/><rect width="22.268" height="11.056" rx="2.453" transform="translate(417.892 26.221)" fill="#c69c6d"/><path d="M382.729,270.989H371.516a5.546,5.546,0,0,0-5.529,5.529h0a5.544,5.544,0,0,0,5.529,5.527h11.213a5.542,5.542,0,0,0,5.527-5.527h0A5.544,5.544,0,0,0,382.729,270.989Z" transform="translate(173.542 -270.989)" fill="#c69c6d"/><path d="M201.638,281.883H195.85a5.543,5.543,0,0,0-5.527,5.527h0a5.544,5.544,0,0,0,5.527,5.529h5.788a5.546,5.546,0,0,0,5.529-5.529h0A5.545,5.545,0,0,0,201.638,281.883Z" transform="translate(-46.729 -257.329)" fill="#c69c6d"/><rect width="25.247" height="11.056" rx="2.453" transform="translate(1012.196 26.221)" fill="#c69c6d"/><path d="M871.382,281.883H849.677a5.545,5.545,0,0,0-5.527,5.527h0a5.545,5.545,0,0,0,5.527,5.529h21.705a5.544,5.544,0,0,0,5.527-5.529h0A5.543,5.543,0,0,0,871.382,281.883Z" transform="translate(773.125 -257.329)" fill="#c69c6d"/><path d="M709.167,275.539H688.025a5.546,5.546,0,0,0-5.529,5.529h0a5.546,5.546,0,0,0,5.529,5.529h21.142a5.544,5.544,0,0,0,5.527-5.529h0A5.544,5.544,0,0,0,709.167,275.539Z" transform="translate(570.422 -265.284)" fill="#c69c6d"/><path d="M946.538,275.58h-5.732a5.544,5.544,0,0,0-5.529,5.527h0a5.546,5.546,0,0,0,5.529,5.529h5.732a5.546,5.546,0,0,0,5.529-5.529h0A5.544,5.544,0,0,0,946.538,275.58Z" transform="translate(887.392 -265.232)" fill="#c69c6d"/><path d="M623.942,273.087H612.729a5.543,5.543,0,0,0-5.527,5.527h0a5.544,5.544,0,0,0,5.527,5.529h11.213a5.545,5.545,0,0,0,5.529-5.529h0A5.545,5.545,0,0,0,623.942,273.087Z" transform="translate(476.009 -268.358)" fill="#c69c6d"/><rect width="22.269" height="11.056" rx="2.453" transform="translate(1305.815 26.221)" fill="#c69c6d"/><path d="M776.673,270.989H765.46a5.546,5.546,0,0,0-5.529,5.529h0a5.544,5.544,0,0,0,5.529,5.527h11.213a5.542,5.542,0,0,0,5.527-5.527h0A5.544,5.544,0,0,0,776.673,270.989Z" transform="translate(667.521 -270.989)" fill="#c69c6d"/></g></g><rect width="1920" height="606" transform="translate(92 372)" fill="#353535" opacity="0.97"/></g></svg>