<svg xmlns="http://www.w3.org/2000/svg" width="1921" height="784" viewBox="0 0 1921 784"><g transform="translate(2331 -5524)"><rect width="1920" height="784" transform="translate(-2330 5524)" fill="#fff"/><path d="M482.745,642.981A319.991,319.991,0,0,1,296.5,583.569V59.412A319.99,319.99,0,0,1,482.745,0a323.864,323.864,0,0,1,64.791,6.532A319.734,319.734,0,0,1,662.493,54.906,322.431,322.431,0,0,1,778.971,196.352,319.874,319.874,0,0,1,797.7,256.7a324.624,324.624,0,0,1,0,129.583A319.728,319.728,0,0,1,749.33,501.239,322.428,322.428,0,0,1,607.883,617.716a319.88,319.88,0,0,1-60.347,18.733A323.866,323.866,0,0,1,482.745,642.981Z" transform="translate(-2627 5541.993)" fill="#00bc8c" stroke="rgba(0,0,0,0)" stroke-width="1" opacity="0.08"/><circle cx="226.99" cy="226.99" r="226.99" transform="translate(-930.746 5730.993)" fill="#00bc8c" opacity="0.08"/></g></svg>