<svg xmlns="http://www.w3.org/2000/svg" xmlns:xlink="http://www.w3.org/1999/xlink" width="1939" height="985.001" viewBox="0 0 1939 985.001"><defs><linearGradient id="a" x1="1.592" y1="2.899" x2="0.284" y2="-0.114" gradientUnits="objectBoundingBox"><stop offset="0" stop-color="#ffaf00"/><stop offset="1" stop-color="#ff9283"/></linearGradient><filter id="b" x="0" y="0" width="1939" height="602.953" filterUnits="userSpaceOnUse"><feOffset dy="3" input="SourceAlpha"/><feGaussianBlur stdDeviation="3" result="c"/><feFlood flood-opacity="0.153"/><feComposite operator="in" in2="c"/><feComposite in="SourceGraphic"/></filter><linearGradient id="d" x1="0.757" y1="-0.318" x2="0.584" y2="1.031" xlink:href="#a"/><linearGradient id="e" x1="0.491" y1="-0.174" x2="0.557" y2="0.87" xlink:href="#a"/><linearGradient id="g" x1="0.569" y1="0.143" x2="0.541" y2="1.25" xlink:href="#a"/></defs><g transform="translate(2273.999 -115)"><g transform="translate(445 -586)"><path d="M2159,712H238V-204H2159V712Z" transform="translate(-2948 974)" fill="#fff"/><g transform="matrix(1, 0, 0, 1, -2719, 701)" filter="url(#b)"><path d="M1765.775,943.953h-.021c-16.634,0-34.4-.888-52.818-2.639-17.59-1.672-36.174-4.17-55.236-7.422a1055.926,1055.926,0,0,1-113.182-26.266c-35.991-10.345-72.751-22.656-109.256-36.59-16.994-6.485-33.926-13.326-50.325-20.331-15.847-6.773-31.3-13.741-45.942-20.712-95.808-45.625-193.632-82.008-290.754-108.137-28.473-7.661-57.308-14.545-85.7-20.459-29.975-6.243-60.277-11.573-90.066-15.842-31.354-4.494-62.982-7.937-94.006-10.233-32.541-2.41-65.352-3.632-97.521-3.632-9.321,0-18.725.1-27.95.3-6.629.143-13.368.216-20.028.216h-.054c-27.8,0-56.1-1.279-84.089-3.8-25.762-2.321-51.881-5.755-77.633-10.208a990.09,990.09,0,0,1-132.348-32.465,939.153,939.153,0,0,1-96.151-36.556c-24.369-10.873-42.1-20.149-52.69-26.016V359H2111V463.843c-19.029,15.8-33.83,39.155-43.992,69.407a295.206,295.206,0,0,0-11.755,50.406A427.688,427.688,0,0,0,2051,632a463.4,463.4,0,0,1-4.594,54c-1.658,11.046-3.814,21.976-6.41,32.484a329.73,329.73,0,0,1-10.744,35.014,319.175,319.175,0,0,1-16.277,36.7,323.1,323.1,0,0,1-23,37.545A348.2,348.2,0,0,1,1959.05,865.3a396.065,396.065,0,0,1-40.041,36.7,157.069,157.069,0,0,1-31.019,19.171,208.821,208.821,0,0,1-36.435,13.02,291.377,291.377,0,0,1-41.017,7.412A406.868,406.868,0,0,1,1765.775,943.953Z" transform="translate(-181 -353)" fill="url(#a)"/></g></g><circle cx="76.5" cy="76.5" r="76.5" transform="translate(-611 522)" fill="url(#d)"/><circle cx="127.5" cy="127.5" r="127.5" transform="matrix(0.899, -0.438, 0.438, 0.899, -1333.989, 279.796)" fill="url(#e)"/><circle cx="76.5" cy="76.5" r="76.5" transform="translate(-1534.191 448.002) rotate(-11)" opacity="0.527" fill="url(#d)"/><circle cx="38" cy="38" r="38" transform="translate(-1304.499 591.588) rotate(-11)" opacity="0.527" fill="url(#g)"/></g></svg>