<svg xmlns="http://www.w3.org/2000/svg" width="64.143" height="63.833" viewBox="0 0 64.143 63.833"><g transform="translate(0 0)"><g transform="translate(0 0)"><ellipse cx="32.071" cy="31.917" rx="32.071" ry="31.917"/></g><g transform="translate(13.098 20.186)"><path d="M53.381,41.735c-9.263,0-9.275,9.228-9.275,9.276,0,0-.635,9.24,9.275,9.24,0,0,8.265.47,8.265-6.431H57.4s.141,2.6-3.88,2.6a3.923,3.923,0,0,1-4.244-4.2H61.787S63.162,41.735,53.381,41.735Zm-4.15,7.253a4.31,4.31,0,0,1,4.244-3.715c3.738,0,3.679,3.715,3.679,3.715Zm-10.6-2.374s3.679-.27,3.679-4.6-3.009-6.431-6.83-6.431H22.91V59.745H35.477s7.677.236,7.677-7.135C43.154,52.609,43.483,46.614,38.628,46.614ZM28.448,39.878h7.03s1.7,0,1.7,2.515-1,2.88-2.14,2.88H28.448Zm6.677,15.577H28.448V48.988h7.03s2.552-.023,2.54,3.327C38.017,55.137,36.124,55.431,35.125,55.454Zm13.06-18.445v2.975h9.969V37.009Z" transform="translate(-22.91 -35.587)" fill="#f1f2f2"/></g></g></svg>