<svg xmlns="http://www.w3.org/2000/svg" width="42.232" height="59.646" viewBox="0 0 42.232 59.646"><g transform="translate(-113.232 -323)"><g transform="translate(113.232 323)"><path d="M139.045,329.3c-.977-1.436-1.862-2.774-2.718-4.068q-.6-.912-1.174-1.77a1.308,1.308,0,0,0-.324-.324.81.81,0,0,0-.457-.139,1.016,1.016,0,0,0-.818.449c-1.063,1.715-2.284,3.515-3.907,5.861-6.136,9.01-16.414,24.1-16.414,32.3a20.954,20.954,0,0,0,6.213,14.894,21.22,21.22,0,0,0,14.9,6.137,21.228,21.228,0,0,0,21.116-21.116C155.464,353.412,145.186,338.319,139.045,329.3Zm8.965,45.867-.006.006-.006.006a19.156,19.156,0,0,1-13.65,5.608,19.466,19.466,0,0,1-13.638-5.6l-.006-.006-.006-.006a19.156,19.156,0,0,1-5.608-13.65c0-7.463,9.272-21.186,16.043-31.206l.054-.08,0-.006,0-.006c.32-.462.629-.93.927-1.384.411-.624.8-1.214,1.2-1.766l1.025-1.409,1.025,1.409c.4.552.79,1.142,1.2,1.766.3.453.608.922.927,1.383l.006.008.005.008.584.871c6.546,9.767,15.51,23.144,15.51,30.41A19.466,19.466,0,0,1,148.01,375.168Z" transform="translate(-113.232 -323)" fill="#3c85c6"/></g><g transform="translate(139.822 361.271)"><path d="M308.161,592.455l0-.025a.834.834,0,0,0-.218-.615.94.94,0,0,0-.636-.311l-.059,0a.909.909,0,0,0-.867.843,12.144,12.144,0,0,1-1.788,5.735,11.568,11.568,0,0,1-4.346,4.161.945.945,0,0,0-.371,1.213l0,0,0,0a1.049,1.049,0,0,0,.887.576.814.814,0,0,0,.415-.112l.012-.007.012-.006a13.3,13.3,0,0,0,4.935-4.781l.009-.016.01-.015a13.048,13.048,0,0,0,2-6.622Z" transform="translate(-299.78 -591.502)" fill="#3c85c6"/></g></g></svg>