<svg xmlns="http://www.w3.org/2000/svg" width="33.917" height="36.916" viewBox="0 0 33.917 36.916"><g transform="translate(-15.899 0)"><path d="M60.976,35.623,65.73,22.079l-12.488-.038a.936.936,0,0,1-.717-1.547h0L63.5,7.026c1.811-2.188,3.622-4.414,5.47-6.678A.952.952,0,0,1,70.295.2a1.016,1.016,0,0,1,.3,1.056L65.805,14.836l12.488.038a.943.943,0,0,1,.755,1.509h0c-3.509,4.527-7.206,8.979-10.9,13.469-1.811,2.188-3.622,4.376-5.546,6.715a.952.952,0,0,1-1.32.151.963.963,0,0,1-.3-1.094" transform="translate(-32.967 0)" fill="#94c83d"/><g transform="translate(15.899 1.721)"><path d="M25.67,47.925a.945.945,0,1,1-.905,1.66,16.9,16.9,0,0,1,4.188-31.314.947.947,0,1,1,.415,1.849,14.988,14.988,0,0,0-3.7,27.8" transform="translate(-15.899 -18.248)" fill="#5e9641"/><path d="M227.605,36.6a.945.945,0,1,1,.905-1.66,16.892,16.892,0,0,1-4.49,31.276.947.947,0,1,1-.415-1.849,14.975,14.975,0,0,0,4-27.767" transform="translate(-203.346 -33.256)" fill="#5e9641"/></g></g></svg>