<svg xmlns="http://www.w3.org/2000/svg" width="54.657" height="59.491" viewBox="0 0 54.657 59.491"><g transform="translate(0)"><path d="M66.283,57.408l7.661-21.827-20.124-.061a1.509,1.509,0,0,1-1.155-2.493h0l17.692-21.7C73.274,7.8,76.193,4.21,79.172.562A1.534,1.534,0,0,1,81.3.319a1.637,1.637,0,0,1,.486,1.7L74.065,23.908l20.124.061A1.52,1.52,0,0,1,95.4,26.4h0c-5.654,7.3-11.612,14.47-17.571,21.7C74.916,51.632,72,55.159,68.9,58.928a1.534,1.534,0,0,1-2.128.243,1.551,1.551,0,0,1-.486-1.763" transform="translate(-46.766 0)" fill="#94c83d"/><g transform="translate(0 2.774)"><path d="M31.646,66.074a1.524,1.524,0,1,1-1.459,2.675,27.229,27.229,0,0,1,6.749-50.462,1.527,1.527,0,0,1,.669,2.979,24.153,24.153,0,0,0-5.958,44.808" transform="translate(-15.899 -18.248)" fill="#5e9641"/><path d="M230.5,37.689a1.524,1.524,0,1,1,1.459-2.675,27.221,27.221,0,0,1-7.235,50.4,1.527,1.527,0,1,1-.669-2.979A24.133,24.133,0,0,0,230.5,37.689" transform="translate(-191.409 -32.3)" fill="#5e9641"/></g></g></svg>