<svg xmlns="http://www.w3.org/2000/svg" width="59.038" height="59.038" viewBox="0 0 59.038 59.038"><path d="M1.972,29.519A27.575,27.575,0,0,1,29.519,1.972,27.251,27.251,0,0,1,51.22,12.8H45.258a.98.98,0,1,0,0,1.96h7.876a.271.271,0,0,0,.092-.023,1.165,1.165,0,0,0,.2-.035c.069-.023.127-.046.184-.069.023-.012.058-.012.081-.035l.069-.069a.783.783,0,0,0,.138-.138c.035-.046.069-.1.1-.15a.544.544,0,0,0,.069-.173.586.586,0,0,0,.035-.2c0-.035.023-.058.023-.092V5.9a.98.98,0,1,0-1.96,0v4.9A29.4,29.4,0,0,0,0,29.519a29.2,29.2,0,0,0,1.453,9.155.986.986,0,0,0,.934.68.86.86,0,0,0,.3-.046,1,1,0,0,0,.634-1.245A27.366,27.366,0,0,1,1.972,29.519Z" fill="#d6ea18"/><path d="M154.563,124.656a1.045,1.045,0,0,0,.369.069,1,1,0,0,0,.83-.45l14.759-22.635a.977.977,0,0,0-.98-1.5l-10.435,1.741,2.7-15.347a.983.983,0,0,0-1.81-.68l-14.759,24.6a.985.985,0,0,0,1,1.476l10.4-1.73-2.675,13.364A.974.974,0,0,0,154.563,124.656Zm-6.549-15.025,10.92-18.207L156.9,102.909a1,1,0,0,0,.265.865.965.965,0,0,0,.865.277l9.594-1.6-10.747,16.477,1.949-9.744a.983.983,0,0,0-.254-.876.959.959,0,0,0-.7-.3.762.762,0,0,0-.161.012Z" transform="translate(-128.365 -75.535)" fill="#d6ea18"/><path d="M95.315,169.928a.985.985,0,1,0-1.868.623,27.448,27.448,0,0,1-47.841,25.425h5.961a.98.98,0,1,0,0-1.96H43.68a.167.167,0,0,0-.081.023,1.166,1.166,0,0,0-.2.035c-.069.023-.127.046-.184.069-.023.012-.058.012-.081.035l-.069.069a.783.783,0,0,0-.138.138c-.035.046-.069.1-.1.15a.544.544,0,0,0-.069.173.586.586,0,0,0-.035.2c0,.035-.023.058-.023.092v7.876a.98.98,0,1,0,1.96,0v-4.9a29.241,29.241,0,0,0,22.635,10.8,29.554,29.554,0,0,0,28.02-38.847Z" transform="translate(-37.776 -149.737)" fill="#d6ea18"/></svg>