<svg xmlns="http://www.w3.org/2000/svg" xmlns:xlink="http://www.w3.org/1999/xlink" width="616.72" height="594.171" viewBox="0 0 616.72 594.171"><defs><linearGradient id="a" x1="0.486" y1="0.394" x2="0.669" y2="1.818" gradientUnits="objectBoundingBox"><stop offset="0" stop-color="#ff9283"/><stop offset="1" stop-color="#ffaf00"/></linearGradient></defs><g transform="translate(-342.857 -183.724)"><circle cx="245.102" cy="245.102" r="245.102" transform="translate(342.857 183.724)" opacity="0.19" fill="url(#a)"/><g transform="translate(369.862 250.865)"><ellipse cx="294.858" cy="22.976" rx="294.858" ry="22.976" transform="translate(0 481.078)" fill="#baa4ff"/><g transform="translate(76.608 0)"><g transform="translate(212.571 1.262)"><path d="M141.684,358.009c-.135-.285-10.151-21.175-10.873-24.07-.8-3.222-2.1-7.506-1.3-11.921,1.452-8.029,13.149-16.131,21.624-12.877,4.569,1.754,12.162,10.126,17.266,1.933,0,0,1.619-6.5,2.86.551,1.555,8.821-1.94,13.072-1.94,13.072s13.637,21.961-1.026,32.593C157.819,364.893,144.865,364.7,141.684,358.009Z" transform="translate(-129.263 -308.343)" fill="#ff5e4d"/></g><g transform="translate(211.025)"><path d="M142.748,358.877c-3.691-6.217-7.057-12.582-10.212-19.1a29.391,29.391,0,0,1-2.158-5.182,51.857,51.857,0,0,1-1.3-5.4,20.039,20.039,0,0,1-.163-5.8,14.689,14.689,0,0,1,2.03-5.666,22.24,22.24,0,0,1,8.551-7.689c3.424-1.687,7.455-2.69,11.392-1.706a15.719,15.719,0,0,1,5.137,2.62,42.382,42.382,0,0,0,4.466,2.818,6.149,6.149,0,0,0,8.975-1.834,7.19,7.19,0,0,1-3.96,3.764,8.616,8.616,0,0,1-5.659-.5c-3.482-1.324-6.413-3.985-9.484-4.46a15.172,15.172,0,0,0-9.452,1.982,19.622,19.622,0,0,0-7.237,6.682,11.39,11.39,0,0,0-1.654,4.4,18.608,18.608,0,0,0,.054,4.954,49.72,49.72,0,0,0,1.016,5.146,40.285,40.285,0,0,0,1.693,4.89c1.3,3.338,2.687,6.66,4.056,9.985C140.125,352.157,141.523,355.475,142.748,358.877Z" transform="translate(-128.781 -307.95)" fill="#fc877e"/></g><g transform="translate(208.389 151.752)"><g transform="translate(0)"><path d="M215.907,355.278c.18.917,14.563,18.414,27.985,40.118,14.836,24,12.845,48.958,13,89.474.164,42.722-23.016,171.615-24.359,211.849-.18,5.425-2.8,7.019-3.771.382-6.115-41.645-38.916-266.259-38.916-266.259L175.244,690.371s-15.173,6.855-15.1,0c.481-45.874-35.7-233.5-31.907-256,7.968-47.185,17-60.245,18.122-73.022C154.71,364.346,200.965,363.833,215.907,355.278Z" transform="translate(-127.959 -355.278)" fill="#295a6e"/></g></g><g transform="translate(259.092 151.752)"><path d="M181.017,355.278c.18.917,14.563,18.414,27.985,40.118,14.836,24,12.845,48.958,13,89.474.163,42.722-23.015,171.615-24.359,211.849-.18,5.425-2.8,7.019-3.771.382-6.115-41.645-38.916-266.259-38.916-266.259l-11.187-68.2s.612-.035.92-.055C158.89,361.726,173.7,359.466,181.017,355.278Z" transform="translate(-143.772 -355.278)" fill="#184056"/></g><g transform="translate(217.261 486.846)"><g transform="translate(0 5.432)"><path d="M130.794,471c-.975-9.523,8.773-6.454,14.772-8.8-1.747,1.3-3.437,3.088-.487,3.691,4.313.882,13.476-1.157,15.987-4.418a19.573,19.573,0,0,1,1.837,7.509C163.079,471.789,131.342,476.386,130.794,471Z" transform="translate(-130.726 -461.48)" fill="#3b2b5b"/></g><g transform="translate(12.746)"><path d="M136.307,469.636c-2.95-.6-1.26-2.4.487-3.691,3.723-1.452,6.858-2.517,7.545-2.889a4.484,4.484,0,0,0,2.184-2.719l1.9-.552s-1.045,2.757,2.639,3.8c.619.176.882,1,1.231,1.632C149.784,468.479,140.62,470.518,136.307,469.636Z" transform="translate(-134.701 -459.786)" fill="#ff97a6"/></g></g><g transform="translate(178.591 67.678)"><path d="M173.615,329.057s-47.612,13.355-54.9,43.552c-1.244,5.165,19.979,11.6,19.979,11.6l26.751-32.914Z" transform="translate(-118.666 -329.057)" fill="#f8f7fd"/></g><g transform="translate(173.829 104.049)"><path d="M119.6,358.149c-1.452,10.354-2.145,32.526-2.414,46.611-.24,12.515,20.191,9.052,20.191,9.052s7.724-13.823,7.862-19.956c.189-8.462-.462-37.54-.462-37.54S125.041,319.314,119.6,358.149Z" transform="translate(-117.18 -340.401)" fill="#f8f7fd"/></g><g transform="translate(217.828 58.302)"><g transform="translate(0)"><path d="M131.5,341.588c8.83-4.643,35.168-16.9,64.346-15.314,15,.814,28.316,10.927,28.316,10.927s-16.439,73.827-14.753,82.382c-14.942,8.555-61.2,9.068-69.547,6.073a4.165,4.165,0,0,0-.276-2.026C127.623,395.76,131.5,341.588,131.5,341.588Z" transform="translate(-130.903 -326.133)" fill="#f8f7fd"/></g></g><g transform="translate(250.635 51.465)"><path d="M141.134,324Z" transform="translate(-141.134 -324.001)" fill="#3b2b5b"/></g><g transform="translate(85.94 286.796)"><rect width="8.734" height="217.078" fill="#dbcffd"/></g><g transform="translate(94.674 286.796)"><rect width="5.843" height="217.078" fill="#cbb3fc"/></g><g transform="translate(379.251 286.796)"><rect width="8.873" height="217.078" fill="#dbcffd"/></g><g transform="translate(388.124 286.796)"><rect width="5.937" height="217.078" fill="#cbb3fc"/></g><g transform="translate(13.172 286.796)"><rect width="5.844" height="217.078" fill="#cbb3fc"/></g><g transform="translate(4.438 491.752)"><rect width="96.08" height="12.122" fill="#cbb3fc"/></g><g transform="translate(305.322 286.796)"><rect width="5.937" height="217.078" fill="#cbb3fc"/></g><g transform="translate(296.449 491.752)"><rect width="97.612" height="12.122" fill="#cbb3fc"/></g><g transform="translate(4.438 286.796)"><rect width="8.734" height="217.078" fill="#dbcffd"/></g><g transform="translate(296.449 286.796)"><rect width="8.873" height="217.078" fill="#dbcffd"/></g><g transform="translate(24.2 220.69)"><rect width="26.564" height="20.213" fill="#cbb3fc"/></g><g transform="translate(14.862 220.69)"><circle cx="9.337" cy="9.337" r="9.337" fill="#dbcffd"/></g><g transform="translate(41.427 220.69)"><ellipse cx="9.337" cy="9.551" rx="9.337" ry="9.551" fill="#cbb3fc"/></g><g transform="translate(285.561 238.867)"><path d="M260.829,404.5h-108.8V382.447h108.8a11.029,11.029,0,0,1,11.027,11.03h0A11.028,11.028,0,0,1,260.829,404.5Z" transform="translate(-152.027 -382.447)" fill="#30193b"/></g><g transform="translate(231.312 260.925)"><rect width="162.749" height="35.77" fill="#f99680"/></g><g transform="translate(0 238.867)"><path d="M382.214,404.5H74a11.029,11.029,0,0,1-11.03-11.027h0A11.029,11.029,0,0,1,74,382.447H382.214a11.029,11.029,0,0,1,11.027,11.03h0A11.028,11.028,0,0,1,382.214,404.5Z" transform="translate(-62.967 -382.447)" fill="#3b2b5b"/></g><g transform="translate(4.438 260.925)"><path d="M311.982,389.326H64.351V425.1H402.708v-35.77Z" transform="translate(-64.351 -389.326)" fill="#ffad96"/></g><g transform="translate(19.81 225.638)"><circle cx="4.39" cy="4.39" r="4.39" fill="#cbb3fc"/></g><g transform="translate(361.184 155.119)"><rect width="10.226" height="83.747" fill="#3b2b5b"/></g><g transform="translate(367.313 160.232)"><rect width="9.602" height="78.634" fill="#30193b"/></g><g transform="translate(62.399 220.69)"><rect width="11.006" height="18.176" fill="#3b2b5b"/></g><g transform="translate(73.405 220.69)"><rect width="18.176" height="107.846" transform="translate(107.846 0) rotate(90)" fill="#30193b"/></g><g transform="translate(37.482 168.531)"><g transform="translate(90.913 34.848)"><path d="M155.27,371.379l-52.113,55.608a.494.494,0,0,0,.67.725l55.509-43.985.632-6.063,4.329-5.611Z" transform="translate(-103.01 -371.379)" fill="#aacbe8"/></g><g transform="translate(0 57.107)"><path d="M282.313,391.191H74.657l71.242-11,171.827-1.867Z" transform="translate(-74.657 -378.321)" fill="#61bdd6"/></g><g transform="translate(142.967)"><path d="M137.553,360.928c-5.351-1.3-9.574.635-11.787,3.264s-4.938,9.135-1.664,14.964l1.286,2a7.692,7.692,0,0,1-.077,4.078,40.67,40.67,0,0,1-2.985,5.352l-3.081,5.114,9.036.587,9.315-12.893s6.765-3.463,8.035-8.907a11.852,11.852,0,0,0-.9-7.836A10.681,10.681,0,0,0,137.553,360.928Zm-.138,17.888c-3.485,2.52-7.484,2.293-9.481-.8-2.273-3.527-1.443-10.078,2.171-12.405a7.781,7.781,0,0,1,10.469,2.065C142.571,370.769,141.969,375.524,137.416,378.817Z" transform="translate(-119.245 -360.511)" fill="#c43b72"/></g><g transform="translate(150.441 30.657)"><path d="M158.039,373.935a11.851,11.851,0,0,0-6.935-3.764c-5.521-.856-11.261,4.13-11.261,4.13l-15.025,3.437-3.242,8.991,5.893-.949a41.226,41.226,0,0,1,6.079-.773,7.674,7.674,0,0,1,3.812,1.452l1.372,1.94c4.184,5.214,11.238,5.114,14.506,4.043s6.64-4.268,7.429-9.715A10.693,10.693,0,0,0,158.039,373.935Zm-4.492,13.954c-3.511,2.482-9.895.808-12.319-2.616-2.129-3.011-.847-6.807,2.79-9.1,4.758-2.995,9.395-1.78,11.524,1.228A7.788,7.788,0,0,1,153.547,387.89Z" transform="translate(-121.576 -370.072)" fill="#c43b72"/></g><g transform="translate(75.863 37.929)"><path d="M173.286,381.664,98.869,401.707a.412.412,0,0,1-.314-.76l64.3-28.607,6.445,2.549,6.836-2.155Z" transform="translate(-98.317 -372.34)" fill="#d5eaf5"/></g><g transform="translate(139.821 42.662)"><path d="M118.723,377.692a2.448,2.448,0,1,0,.564-3.418A2.445,2.445,0,0,0,118.723,377.692Z" transform="translate(-118.264 -373.816)" fill="#aacbe8"/></g></g><g transform="translate(185.927 167.577)"><g transform="translate(0)"><path d="M120.965,364.855s6.515,4.479,5.861,2.687-.09-1.549-.09-1.549,2.87,2.655,3.424,1.267a2.7,2.7,0,0,0,.08-2.225s3.963,2.786,4.572,1.26-2.357-5.483-3.171-6.031S120.555,363.858,120.965,364.855Z" transform="translate(-120.953 -360.213)" fill="#ff97a6"/></g></g><g transform="translate(219.992 202.694)"><g transform="translate(0)"><path d="M146.3,374.851s-2.238,4.566-5.99,5.82c-2.616.875-5.4.859-5.493-.346s2.187-.75,2.187-.75-4.418,1.164-4.563-.859c-.038-.574,2.966-1.562,2.966-1.562s-4.13.837-3.812-.128,5.778-2.344,7.035-2.357,4.524-3.351,7.048-3.5C146.611,371.112,147.3,372.828,146.3,374.851Z" transform="translate(-131.578 -371.166)" fill="#ff97a6"/></g></g><g transform="translate(232.287 69.37)"><path d="M214.215,436.6c-13.342,22.5-37.091,46.829-65.58,38.624-10.6-3.053-13.223-17.113-13.223-17.113l48.263-35.928,19.094-71.983,11.447-20.62S234.031,403.2,214.215,436.6Z" transform="translate(-135.412 -329.585)" fill="#dbcffd"/></g><g transform="translate(37.482 238.508)"><path d="M282.313,534.306,74.657,532.028V382.335H282.313V534.306Z" transform="translate(-74.657 -382.335)" fill="#76d8df"/></g><g transform="translate(250.634 58.302)"><path d="M141.134,329.5s1.376-.327,2.071-.484a110.377,110.377,0,0,1,30.07-2.745c15,.814,28.316,10.927,28.316,10.927s-16.439,73.827-14.753,82.382c-7.06,4.043-21.111,6.288-34.85,7.218-.8.054-2.4.151-2.4.151s-6.166-35.908-7.2-48.779C141.451,366.431,141.134,329.5,141.134,329.5Z" transform="translate(-141.134 -326.133)" fill="#dbcffd"/></g><g transform="translate(239.437 47.214)"><path d="M144.581,322.675s8.013,16.016,7.42,18.286-4.232,6.169-8.183,2.786-6.175-18.886-6.175-18.886Z" transform="translate(-137.642 -322.675)" fill="#ff97a6"/><g transform="translate(0.699 3.678)"><path d="M149.554,331.944c-2.187,2.289-5.573,4.236-9.292,3.684a69.664,69.664,0,0,1-2.4-9.276l8.029-2.53C147,326.143,148.412,329.2,149.554,331.944Z" transform="translate(-137.86 -323.822)" fill="#c95d77"/></g></g><g transform="translate(225.106 30.708)"><g transform="translate(0)"><path d="M139.013,341.636c-2.354-1.885-7.253-10.687-5.451-15.378,2.337-6.092,6.91-6.41,8.811-6.955,2.963-.7,6.329-2.164,9.427-1.68,3.4.532,5.175,4.271,6.56,7.022s2.867,8.157,2.257,11.277c-.555,2.851-4.168,6.817-6.737,7.942C146.17,347.244,143.085,346.269,139.013,341.636Z" transform="translate(-133.173 -317.527)" fill="#ff97a6"/></g></g><g transform="translate(282.217 83.302)"><path d="M150.984,407.616c1.241-12.534,3.434-24.866,5.858-37.152,2.52-12.271,5.281-24.49,9-36.534-1.231,12.521-3.428,24.862-5.861,37.152C157.458,383.357,154.7,395.586,150.984,407.616Z" transform="translate(-150.984 -333.93)" fill="#eeeafe"/></g><g transform="translate(222.017 204.131)"><path d="M140.584,371.788a48.974,48.974,0,0,0-7.827,0c-2.626.394,5.034,2.735,5.034,2.735l3.431-2.735Z" transform="translate(-132.209 -371.614)" fill="#ff97a6"/></g><g transform="translate(276.712 155.119)"><rect width="13.712" height="100.203" transform="translate(100.203 0) rotate(90)" fill="#30193b"/></g><g transform="translate(266.485 155.119)"><rect width="10.226" height="83.747" fill="#3b2b5b"/></g><g transform="translate(276.712 160.232)"><rect width="9.602" height="78.634" fill="#30193b"/></g></g></g></g></svg>