<svg xmlns="http://www.w3.org/2000/svg" width="488" height="701" viewBox="0 0 488 701"><g transform="translate(-1295 -264)"><ellipse cx="244" cy="48.5" rx="244" ry="48.5" transform="translate(1295 868)" fill="rgba(139,139,139,0.52)" opacity="0.43"/><g transform="translate(685.174 -15.682)"><g transform="translate(836.203 469.126)"><rect width="6.609" height="93.435" transform="matrix(0.421, -0.907, 0.907, 0.421, 0, 5.995)" fill="#fd9e38"/></g><g transform="translate(716.826 279.682)"><g transform="translate(78.832 295.691)"><rect width="14.071" height="295.088" fill="#cbb3fc"/></g><g transform="translate(25.667 580.059)"><path d="M729.319,503.575c-2.948,0-5.337-2.88-5.337-6.435s2.389-6.431,5.337-6.431c10.517,0,20.119-8.953,25.062-23.369l.646-1.88C760.11,450.621,770.448,441.4,782,441.4h4.469c2.948,0,5.338,2.88,5.338,6.431s-2.389,6.435-5.338,6.435H782c-7.149,0-13.7,6.173-17.106,16.113l-.646,1.883C757.624,491.573,744.241,503.575,729.319,503.575Z" transform="translate(-723.982 -441.395)" fill="#cbb3fc"/></g><g transform="translate(76.803 580.059)"><path d="M803.23,503.575c3.067,0,5.553-2.88,5.553-6.435s-2.486-6.431-5.553-6.431c-10.94,0-20.93-8.953-26.066-23.369l-.675-1.88c-5.283-14.839-16.037-24.065-28.05-24.065h-4.649c-3.067,0-5.553,2.88-5.553,6.431s2.486,6.432,5.553,6.432h4.649c7.432,0,14.251,6.177,17.791,16.116l.674,1.883C773.789,491.573,787.71,503.575,803.23,503.575Z" transform="translate(-738.238 -441.395)" fill="#cbb3fc"/></g><g transform="translate(79.135 563.706)"><path d="M745.621,517.661a6.676,6.676,0,0,1-6.733-6.621V443.458a6.734,6.734,0,0,1,13.466,0V511.04A6.676,6.676,0,0,1,745.621,517.661Z" transform="translate(-738.888 -436.836)" fill="#cbb3fc"/></g><g transform="translate(0 4.021)"><path d="M879.648,521.015c-10.051-25.733-36.182-34.173-40.2-55.078S853.518,418.9,853.518,418.9c16.514-27.336,23.71-46.605,26.7-59.332a21.753,21.753,0,0,0-14.5-25.514L853.4,330a47.778,47.778,0,0,1-32.85-45.386V280.8H784.838v3.813A47.782,47.782,0,0,1,751.989,330l-12.318,4.05a21.753,21.753,0,0,0-14.5,25.514c2.992,12.727,10.184,32,26.7,59.332,0,0,18.093,26.131,14.072,47.039s-30.152,29.345-40.2,55.078c-6.815,17.447-8.519,53.561-8.91,75.007a17.3,17.3,0,0,0,16.737,17.608H871.822a17.3,17.3,0,0,0,16.733-17.608C888.167,574.576,886.464,538.462,879.648,521.015Z" transform="translate(-716.826 -280.803)" fill="#295a6e"/></g><g transform="translate(85.868 4.021)"><path d="M817.72,521.015c-10.051-25.733-36.182-34.173-40.2-55.078S791.589,418.9,791.589,418.9c16.514-27.336,23.71-46.605,26.7-59.332a21.753,21.753,0,0,0-14.5-25.514L791.47,330a47.778,47.778,0,0,1-32.85-45.386V280.8H740.765V613.63h69.128a17.3,17.3,0,0,0,16.733-17.608C826.239,574.576,824.535,538.462,817.72,521.015Z" transform="translate(-740.765 -280.803)" fill="#184056"/></g><g transform="translate(67.976)"><path d="M771.557,283.9c0,2.331-8.01,4.222-17.888,4.222s-17.892-1.89-17.892-4.222,8.01-4.222,17.892-4.222S771.557,281.572,771.557,283.9Z" transform="translate(-735.777 -279.682)" fill="#3b2b5b"/></g></g><g transform="translate(769.884 468.081)"><path d="M802.525,591.686l-6.4-3.25c3.975-7.809,3.878-56.025-13.82-89.491-8.892-16.8-7.7-44.518-6.553-71.316,1.184-27.674,2.41-56.287-7.924-68.945-18.154-22.239-34.625-19.194-34.779-19.161l-1.431-7.027c.836-.179,20.9-3.917,41.767,21.651,12.063,14.771,10.833,43.442,9.534,73.787-1.108,25.848-2.253,52.571,5.729,67.657C806.151,528.691,808.644,579.651,802.525,591.686Z" transform="translate(-731.618 -332.205)" fill="#ffcb48"/></g><g transform="translate(916.001 499.792)"><path d="M831.013,399.611c-22.824-2.974-68.755-25.83-56.667-51.986,4.5-9.731,10.259-5.789,10.259-5.789l56.068,35.751S860.577,403.467,831.013,399.611Z" transform="translate(-772.353 -341.046)" fill="#f98a8a"/></g><g transform="translate(930.605 459.22)"><path d="M776.425,329.735Z" transform="translate(-776.425 -329.735)" fill="#3b2b5b"/></g><g transform="translate(915.348 452.821)"><path d="M782.159,328.478s1.822,18.86.33,20.865-6.7,4.441-9.373-.416,1.162-20.977,1.162-20.977Z" transform="translate(-772.172 -327.951)" fill="#ff97a6"/></g><g transform="translate(915.576 457.05)"><path d="M782.881,339.148c-3.11,1.41-8.085,0-10.646-2.945.384-3.253.491-4.236,1.012-7.073l9.114.61C782.569,332.448,782.8,336,782.881,339.148Z" transform="translate(-772.235 -329.13)" fill="#c95d77"/></g><g transform="translate(904.565 433.276)"><path d="M771.166,343.981c-.825-1.227-1.481-5.779-1.948-10.309a9.873,9.873,0,0,1,9.846-10.858c1.4,0,2.306-.054,2.536-.312,3.21.226,7.07-.19,10.043,1.277,3.26,1.607,3.874,5.94,4.4,9.154s.323,9.136-1.277,12.092c-1.46,2.7-6.356,5.567-9.3,5.893C776.622,351.894,773.816,349.939,771.166,343.981Z" transform="translate(-769.165 -322.502)" fill="#ff97a6"/></g><g transform="translate(886.628 406.108)"><path d="M807.715,332.271a37.489,37.489,0,0,0-21.726-14.811,1.112,1.112,0,0,0-1.126,1.811c1.668,1.794,4.147,3.343,5.707,6.611-2.5-1.872-12.138-7.278-16.7-10.747-.94-.714-1.937.563-1.549,1.453.932,2.059,1.844,4.122,2.751,6.162-3.569-1.356-5.875-5.119-8.9-7.371a1.317,1.317,0,0,0-2.005,1.055c.488,9.441-.315,18.193,11.532,28.179,7.217,6.083,20.786,2.163,29.944,1.833a8.746,8.746,0,0,1,.491.75,3.546,3.546,0,0,1,.24.445c.76,3.666,1.765,7.3,2.611,10.947a1.114,1.114,0,0,0,1.331.829c4.139-1.169,5.047-4.889,5.7-8.655.011-.047,5.366-5.022,4.659-12.117C820.255,334.452,811.869,330.851,807.715,332.271Z" transform="translate(-764.165 -314.928)" fill="#a87c1b"/></g><g transform="translate(846.305 927.693)"><g transform="translate(0 5.883)"><path d="M753.03,470.48c-1.3-8.5,9.606-6.349,16.066-8.5-1.912,1.277-3.792,3.078-.71,3.87,4.509,1.162,14.294-.506,17.117-3.813a20.692,20.692,0,0,1,1.542,8.028C787.081,473.027,753.895,476.137,753.03,470.48Z" transform="translate(-752.923 -461.979)" fill="#3b2b5b"/></g><g transform="translate(13.829)"><path d="M758.413,470.092c-3.081-.793-1.2-2.594.71-3.87,4.01-1.338,7.378-2.3,8.121-2.647a4.756,4.756,0,0,0,2.453-2.755l2.034-.481s-1.248,2.852,2.586,4.15c.642.219.879,1.1,1.212,1.79C772.707,469.586,762.921,471.254,758.413,470.092Z" transform="translate(-756.778 -460.339)" fill="#ff97a6"/></g></g><g transform="translate(932.927 926.297)"><g transform="translate(0 5.883)"><path d="M777.178,470.091c-1.3-8.5,9.61-6.345,16.07-8.5-1.915,1.277-3.795,3.081-.714,3.874,4.509,1.159,14.294-.506,17.117-3.817a20.641,20.641,0,0,1,1.542,8.028C811.233,472.641,778.043,475.751,777.178,470.091Z" transform="translate(-777.072 -461.59)" fill="#3b2b5b"/></g><g transform="translate(13.828)"><path d="M782.561,469.707c-3.081-.793-1.2-2.6.714-3.874,4.007-1.334,7.375-2.292,8.121-2.647a4.742,4.742,0,0,0,2.45-2.755l2.034-.481s-1.248,2.855,2.586,4.154c.646.215.879,1.1,1.213,1.786C796.855,469.2,787.07,470.865,782.561,469.707Z" transform="translate(-780.927 -459.95)" fill="#ff97a6"/></g></g><g transform="translate(859.65 563.967)"><path d="M860.509,358.937c.14.979,11.819,10.442,20.227,36.081,10.933,33.348,8.971,51.125,4.806,88.573-5,44.891-13.311,193.589-21.1,234.692-1.069,5.642-15.1,5.065-15.779-1.994-4.24-44.3-25.719-272.778-25.719-272.778L776.778,724.148l-10.854.552s-.85-2.088-.409-9.319c2.952-48.417-13.028-247.874-7.82-271.426,10.922-49.4,21.159-62.711,23.021-76.144C789.376,371.42,844.274,367.173,860.509,358.937Z" transform="translate(-756.644 -358.937)" fill="#2a6868"/></g><g transform="translate(857.547 567.952)"><path d="M758.772,709.074c2.952-48.417-4.6-240.259-2.256-264.266a229.153,229.153,0,0,1,11.109-51.319c5.6-15.747,15.316-25.758,16.382-33.441,2.03.843,30.51,9.857,42.186,10.8,0,0-46,101.963-53.751,350.726l-13.265-3.178S758.33,716.306,758.772,709.074Z" transform="translate(-756.057 -360.048)" fill="#357a5f"/></g><g transform="translate(884.203 471.348)"><path d="M767.8,358.867c1.4-9.462,11.209-20.162,19.585-22.53,13.968-3.946,31.3-4.606,52.574-.065,15.575,3.322,8.594,13.548,8.594,13.548s-.542,30.665,2.446,54.594,3.279,29.793,5.983,42.387a36.945,36.945,0,0,1-7.02,1.919c-12.067,2.4-33.929,4.337-44.12,3.705-18.06-1.123-34.628-6.6-39.475-9.412a5.441,5.441,0,0,0,.018-2.4C760.617,416.81,764.734,379.5,767.8,358.867Z" transform="translate(-763.489 -333.116)" fill="#b52366"/></g><g transform="translate(879.814 471.883)"><path d="M807.493,350.145s1.962,39.266,2.033,62.087c.051,15.919-3.6,39.776-3.6,39.776s-32.383-2.948-43.657-10.32c0,0,1.822-27.448,1.74-37.089-.072-8.594,2.256-26.214,4.44-40.755,2.131-14.208-11.1-21.533,18.573-28.448,5.994-1.4,17.049-2.6,17.53-1.948C805.775,335.123,807.493,350.145,807.493,350.145Z" transform="translate(-762.265 -333.265)" fill="#c43b72"/></g><g transform="translate(957.389 473.841)"><path d="M818.363,412.046c-6.894,14.8-17.58-5.854-17.58-5.854l-13.52-59.931-3.372-12.45a28.555,28.555,0,0,1,15.557,7.439c2.489,2.357,8.293,14.746,9.43,17.63C817.186,379.968,822.818,402.48,818.363,412.046Z" transform="translate(-783.892 -333.811)" fill="#ff97a6"/></g><g transform="translate(854.597 474.798)"><path d="M755.235,398.138s11.2,18.674,15.2,14.448c12.6-13.3,28.24-65.473,28.24-65.473l8.856-13.035a48.733,48.733,0,0,0-12.942,1.833c-3.522,1.073-12.7,3.637-18.067,11.905A161.338,161.338,0,0,0,755.235,398.138Z" transform="translate(-755.235 -334.078)" fill="#ff97a6"/></g><g transform="translate(805.391 496.31)"><path d="M789.051,400.067c-22.426-5.2-47.534-58.959-47.534-58.959l2.346-1.033L800.824,379.1S818.091,406.8,789.051,400.067Z" transform="translate(-741.517 -340.075)" fill="#ff97a6"/></g><g transform="translate(904.625 426.864)"><path d="M769.182,327.062s5.162,17.694,13.731,26.156c4.276,4.222,21.041-4.6,19.445-15.578s-25.625-18.584-28.14-16.615A27.99,27.99,0,0,0,769.182,327.062Z" transform="translate(-769.182 -320.714)" fill="#a87c1b"/></g><g transform="translate(802.294 486.999)"><path d="M746.523,347.084l.592-8.232s-4.211-2.884-6.335-.291c-.9,1.1,3.289,9.932,3.289,9.932Z" transform="translate(-740.654 -337.479)" fill="#ff97a6"/></g><g transform="translate(806.962 487.466)"><path d="M742.959,341.4s2.78-4.527,3.135-3.68-1.162,4.451-1.162,4.451l-2.977,3.73.889-4.179Z" transform="translate(-741.955 -337.61)" fill="#ff97a6"/></g><g transform="translate(806.417 482.294)"><path d="M744.142,342.245a8.774,8.774,0,0,0-1.46-5.463c-1.84-3.027-.219,6.109-.219,6.109Z" transform="translate(-741.803 -336.168)" fill="#ff97a6"/></g><g transform="translate(803.56 485.839)"><path d="M745.309,342.874a7.608,7.608,0,0,0-3.26-5.341c-3.106-2.242,1.718,6.256,1.718,6.256Z" transform="translate(-741.006 -337.156)" fill="#ff97a6"/></g><g transform="translate(802.222 486.823)"><path d="M745.216,343.631a7.957,7.957,0,0,0-3.088-6.026c-1.044-.75-2.145.976-1.022,4.046a9.99,9.99,0,0,0,1.933,3.01Z" transform="translate(-740.634 -337.43)" fill="#ff97a6"/></g><g transform="translate(803.31 481.449)"><path d="M745.636,343.055s-1.148-4.53-3.9-6.79,2.475,7.69,2.475,7.69Z" transform="translate(-740.937 -335.932)" fill="#ff97a6"/></g><g transform="translate(881.827 594.094)"><path d="M769.669,367.336l33.5,2.127s2.3,41.275-9.455,43.736-31.16-4.312-30.887-22.931S769.669,367.336,769.669,367.336Z" transform="translate(-762.826 -367.336)" fill="#2a6868"/></g><g transform="translate(941.848 595.737)"><path d="M813.244,367.794l-33.5,2.123s-2.3,41.275,9.452,43.736,31.163-4.312,30.891-22.932S813.244,367.794,813.244,367.794Z" transform="translate(-779.559 -367.794)" fill="#357a5f"/></g><g transform="translate(859.361 474.013)"><path d="M806.77,333.938s-20.919-1.969-33.237,13.8-16.97,24.144-16.97,24.144l23.972,20.41Z" transform="translate(-756.563 -333.859)" fill="#c43b72"/></g><g transform="translate(854.596 507.841)"><path d="M760,343.29l27.269,24.6-2.426,6.742-29.607-24.82Z" transform="translate(-755.235 -343.29)" fill="#c43b72"/></g><g transform="translate(944.196 471.883)"><path d="M780.214,333.344s20.916-1.969,33.233,13.792,13.616,28.592,13.616,28.592l-20.618,15.966Z" transform="translate(-780.214 -333.265)" fill="#b52366"/></g><g transform="translate(967.132 510.155)"><path d="M810.522,343.935,786.608,364.09l2.425,6.743,26.252-20.374Z" transform="translate(-786.608 -343.935)" fill="#b52366"/></g><g transform="translate(764.14 467.619)"><path d="M731.766,332.076l73.556,1.217,2.724,7.8-78.03-1.321Z" transform="translate(-730.017 -332.076)" fill="#ffcb48"/></g><g transform="translate(886.398 407.615)"><path d="M764.331,315.348c.506,3.39.793,6.808,1.46,10.079a25.758,25.758,0,0,0,3.655,9.075,35.243,35.243,0,0,0,6.514,7.325,14.073,14.073,0,0,0,8.49,3.644l.039.007a1.23,1.23,0,0,1,1,.8c1.331,3.666,2.751,7.3,4.441,10.822a51.334,51.334,0,0,0,6.123,10,35,35,0,0,1-7.594-9.2,71.64,71.64,0,0,1-5.33-10.729l1.044.8c-3.476-.273-7.393-1.514-9.979-4.154a32.3,32.3,0,0,1-6.776-8.1,25.218,25.218,0,0,1-3.135-10.062A67.788,67.788,0,0,1,764.331,315.348Z" transform="translate(-764.101 -315.348)" fill="#d6a034"/></g></g></g></svg>