<svg xmlns="http://www.w3.org/2000/svg" width="196" height="184" viewBox="0 0 196 184"><g transform="translate(-94 -149)"><circle cx="59.5" cy="59.5" r="59.5" transform="translate(102 185)" fill="#00bc8c" opacity="0.07"/><ellipse cx="98" cy="10.5" rx="98" ry="10.5" transform="translate(94 312)" fill="#e5e5e5"/><circle cx="59.5" cy="59.5" r="59.5" transform="translate(166 149)" fill="#ff9478" opacity="0.91"/><g transform="translate(-3975.865 88.905)"><g transform="translate(4106.866 85.001)"><path d="M4208.063,445.423l4.565-14.046c1.633-5.025,3.285-10.139,3.68-15.363s.91-12.046-2.184-15.317c-3.955-4.181-11.033-5.735-13.618,1.306-9.089,24.762-2.794,64.438-1.653,73.382q.474,3.714,1.062,7.4h6.5C4207.6,468.9,4210.195,452.886,4208.063,445.423Z" transform="translate(-4164.103 -353.128)" fill="#0a334c" fill-rule="evenodd"/><path d="M4221.42,785.417h-6.5q.683,4.318,1.513,8.6c.194,1,.513,2.138,1.437,2.435a2.589,2.589,0,0,0,3.04-2.1C4220.959,791.565,4221.154,788.544,4221.42,785.417Z" transform="translate(-4179.994 -655.761)" fill="#724339"/><path d="M4289.252,459.46c.836,2.265,2.185,4.814,4.331,4.889a3.943,3.943,0,0,0,3.25-2.142,14.745,14.745,0,0,0,1.468-4.126l4.617-18.619c1.246-5.025,2.5-10.139,2.43-15.363s-1.671-10.668-5.229-13.938c-4.548-4.181-12.818-3.676-14.439,3.448-2.148,9.437-2.046,19.934-.607,29.485A83.064,83.064,0,0,0,4289.252,459.46Z" transform="translate(-4216.845 -351.596)" fill="#0a3c5f" fill-rule="evenodd"/><path d="M4315.333,597.44c-4.253-6.09-12.274-2.255-10.5,5.141,2.149,8.935,5.6,17.777,9.076,26.268q1.376,3.366,2.855,6.688l6.657-2.147C4321.146,619.509,4319.677,603.661,4315.333,597.44Z" transform="translate(-4232.869 -506.893)" fill="#0a3c5f" fill-rule="evenodd"/><path d="M4366.482,771.1l-6.657,2.147q1.879,4.237,3.907,8.4c.457.937,1.079,1.989,2.113,2.119,1.322.166,2.93-1.263,2.615-2.558C4367.706,778.1,4367.068,774.661,4366.482,771.1Z" transform="translate(-4275.925 -644.599)" fill="#724339"/><path d="M4355.357,812.9a11.61,11.61,0,0,0-.717-3.549c-.473-1.089-.8-2.225-1.809-2.842a2.579,2.579,0,0,1-1.488,1.659c-.482.1-3.075-.793-3.5-.55-.31.175-.052,5.212-1.34,6.445a32.2,32.2,0,0,1-4.371,3.064,4.558,4.558,0,0,0-1.357,1.26,1.8,1.8,0,0,0-.156,1.771,1.087,1.087,0,0,0,.1.133l10.563-1.751a11.88,11.88,0,0,0,.478-1.247l1.529-4.516a18.319,18.319,0,0,1,1.358,5.2l1.18-.2Q4355.589,815.347,4355.357,812.9Z" transform="translate(-4260.822 -672.203)" fill="#2d2c2a" fill-rule="evenodd"/><path d="M4232.091,398.418c3.5-.1,29.306,2.15,15.015-20.512-1.991-3.157-7.039-3.5-10.742-3.968-5.015-.633-14.787-.585-17.2,3.968C4211.644,392.112,4228.224,398.525,4232.091,398.418Z" transform="translate(-4164.784 -320.655)" fill="#0a3c5f" fill-rule="evenodd"/><path d="M4233.227,213.461c1.058-3.695,1.868-7.906.647-11.666-.382-1.175-.456-1.363-1.505-.779a10.742,10.742,0,0,0-2.235,1.977,24.349,24.349,0,0,0-3.432,4.6,44.64,44.64,0,0,0-2.631,5.392l7.991,4.114C4232.485,215.9,4232.876,214.687,4233.227,213.461Z" transform="translate(-4185.354 -175.176)" fill="#131319" fill-rule="evenodd"/><path d="M4189.978,256.422c-.513,1.224-1,2.462-1.479,3.7l-7.941,20.387a3.189,3.189,0,0,0-.31,2,2.168,2.168,0,0,0,2.705,1.179,5.918,5.918,0,0,0,2.572-1.965,64.423,64.423,0,0,0,12.444-21.188Z" transform="translate(-4154.754 -225.063)" fill="#724339"/><path d="M4116.918,282.559c-.219-.707-.352-1.627.252-2.056.574-.407,1.361-.042,1.954.336,5.017,3.19,16.4,16.228,16.12,18.883-.262,2.479-1.738,3.409-3.917,2.237C4126.893,299.572,4117.8,285.391,4116.918,282.559Z" transform="translate(-4114.557 -244.338)" fill="#724339"/><path d="M4108,256.944a5.425,5.425,0,0,1-.972-4.489,5.525,5.525,0,0,1,2.328-2.922c.458-.308,1.116-.557,1.518-.179.358.337.24.915.287,1.4.1,1.115,1.125,1.876,1.774,2.788a4.635,4.635,0,0,1,.763,3.536c-.19.967-1.1,3.009-2.334,2.923C4110.215,259.927,4108.6,257.809,4108,256.944Z" transform="translate(-4106.866 -218.502)" fill="#77483d"/><path d="M4248.563,217.937c-.924-8.748,8.471-16.088,7.589-24.84-.6-5.971-6.5-10.685-12.506-10.606s-11.516,4.441-13.659,10.046a17.376,17.376,0,0,0-1,8.4c.254,1.971.845,3.884,1.18,5.843a29.928,29.928,0,0,1-.674,12.042c-.828,3.431-2.605,6.7-3.5,10.093h27.94C4253.132,227.5,4248.829,220.462,4248.563,217.937Z" transform="translate(-4179.592 -160.986)" fill="#63b791" fill-rule="evenodd"/><path d="M4194.72,821.98a11.59,11.59,0,0,0-.127-3.618,5.786,5.786,0,0,0-1.6-3.1c-.235.578-.833,1.364-1.456,1.389-.493.02-2.935-1.016-3.4-.846-.333.122-.872,4.864-2.344,5.87a32.2,32.2,0,0,1-4.814,2.308,4.561,4.561,0,0,0-1.544,1.021,1.8,1.8,0,0,0-.444,1.722,1.268,1.268,0,0,0,.075.148h10.707a12.074,12.074,0,0,0,.676-1.152q1.122-2.1,2.246-4.205a18.3,18.3,0,0,1,.489,5.357h1.2Q4194.549,824.429,4194.72,821.98Z" transform="translate(-4154.269 -679.026)" fill="#2d2c2a" fill-rule="evenodd"/><g transform="translate(75.274 22.122)"><path d="M4339.036,217.108a13.968,13.968,0,0,0-2.637-8.487,2.225,2.225,0,0,0-1.831-1.078,2.321,2.321,0,0,0-1.524,1.316c-2.33,3.938-3.045,8.571-3.582,13.137l8.94,1.2A31.4,31.4,0,0,0,4339.036,217.108Z" transform="translate(-4327.533 -207.535)" fill="#131319" fill-rule="evenodd"/><path d="M4331.122,277.309c.2-.951.4-1.9.575-2.861l-8.94-1.2q-.076.655-.15,1.308-.774,6.856-1.549,13.713c-.194,1.714-.816,3.661.336,5.156a3.5,3.5,0,0,0,3.646,1.308,4.557,4.557,0,0,0,2.6-2.37,13.509,13.509,0,0,0,1.05-3.444Q4329.9,283.115,4331.122,277.309Z" transform="translate(-4320.715 -258.755)" fill="#77483d"/></g><path d="M4232.234,357.613c-.861.605-2.865,2.078-2.3,2.967.438.69,2.57.154,3.316-.178,5.175-2.3,21.1-11.894,21.947-12.909,1.39-1.674-.38-6.776-3.391-6.146C4248.75,341.987,4240.068,352.112,4232.234,357.613Z" transform="translate(-4184.142 -293.921)" fill="#77483d"/><path d="M4200.872,416.239l-4.521,2.049c-.187.307.2.689.561.687a4.608,4.608,0,0,0,1.034-.3c.35-.087.82.034.877.39s-.329.61-.658.761l-4.551,2.087a3.038,3.038,0,0,0,2.548,2.62,6.456,6.456,0,0,0,3.819-.682,15.58,15.58,0,0,0,4.5-3.086,4.329,4.329,0,0,0,1.517-2.695C4206.14,415.385,4202.47,415.515,4200.872,416.239Z" transform="translate(-4164.612 -353.871)" fill="#77483d"/><g transform="translate(69.372)"><path d="M4325.4,96a2.137,2.137,0,0,0-2.6-3.384l-1.441,1.107,2.6,3.384Z" transform="translate(-4321.358 -90.628)" fill="#73e0b1"/><path d="M4329.1,90.545l-.3.233-.3.233,2.828,3.681.607-.466Z" transform="translate(-4326.917 -89.322)" fill="#59c194"/><path d="M4333.836,90.026l1.241-.954a.738.738,0,0,0,.129-1.033l-2.11-2.747a.738.738,0,0,0-1.031-.142l-1.241.954Z" transform="translate(-4328.736 -85.001)" fill="#c43b71"/><path d="M4328.524,91.219l2.923,3.8a.073.073,0,0,1-.013.1l-.187.144a.074.074,0,0,1-.1-.014l-2.923-3.8a.074.074,0,0,1,.013-.1l.188-.144A.073.073,0,0,1,4328.524,91.219Z" transform="translate(-4326.695 -89.825)" fill="#c43b71"/></g><path d="M4289.2,147.337a15.13,15.13,0,0,1-.406,6.663,2.372,2.372,0,0,0-.021,2.009,2.2,2.2,0,0,0,1.807.635,10.422,10.422,0,0,0,3.309-.248,3.526,3.526,0,0,0,2.419-2.1,5.233,5.233,0,0,0-.091-2.717q-.548-2.582-1.1-5.164a2.978,2.978,0,0,0-.572-1.417,2.031,2.031,0,0,0-2.4-.249,5.938,5.938,0,0,0-1.841,1.8Z" transform="translate(-4229.382 -131.356)" fill="#724339"/><path d="M4273.056,108.714a10.383,10.383,0,0,1-.819-3.615,18.847,18.847,0,0,1-.043-5.111,6.514,6.514,0,0,1,2.51-4.316,6.794,6.794,0,0,1,5.951-.464,6.326,6.326,0,0,1,4,3.34,8.786,8.786,0,0,1,.462,2.87,10.663,10.663,0,0,1-.267,3.765,6.908,6.908,0,0,1-2.494,3.3,16.539,16.539,0,0,1-3.7,1.971,7.378,7.378,0,0,1-2.325.656C4274.722,111.212,4273.724,110.053,4273.056,108.714Z" transform="translate(-4216.56 -92.596)" fill="#77483d"/><path d="M4285.045,93.153c.72,1.622.441,3.667,1.572,5.035a3.1,3.1,0,0,0,3.91.621,3.534,3.534,0,0,0,1.537-2.779,5.17,5.17,0,0,0-.932-3.1,9.75,9.75,0,0,0-2.314-2.326,11.719,11.719,0,0,0-4.533-2.2,7.569,7.569,0,0,0-3.2-.009c-.792.176-2.326.607-2.538,1.544s.605,1.1,1.264.914a4.253,4.253,0,0,1,2.9.044A4.364,4.364,0,0,1,4285.045,93.153Z" transform="translate(-4220.705 -87.517)" fill="#73e0b1" fill-rule="evenodd"/><path d="M4320.827,131.084a2.624,2.624,0,0,1,.976-.188,1.212,1.212,0,0,1,.886.4,1.446,1.446,0,0,1,.176,1.283,2.1,2.1,0,0,1-2.411,1.655,1.414,1.414,0,0,1-1.055-1.809A1.949,1.949,0,0,1,4320.827,131.084Z" transform="translate(-4251.686 -120.772)" fill="#77483d"/><path d="M4274.04,101.652l-6.759.015a1,1,0,0,1-.985-.842c-.208-1.311-.191-3.725,2.623-4.076,3.6-.448,5.8-.219,6.11,3.837A.993.993,0,0,1,4274.04,101.652Z" transform="translate(-4214.062 -94.031)" fill="#73e0b1"/></g><path d="M4283.551,150.817a.989.989,0,0,0-1.223.236.747.747,0,0,1-.2.249h0a3.189,3.189,0,0,0,2.854,0m0,0h0s-.034,0-.2-.249a1.008,1.008,0,0,0-1.224-.236" transform="translate(-119.636 -51.203)" fill="#c43b71"/><path d="M4295.93,147.864a.172.172,0,1,1-.173-.172A.172.172,0,0,1,4295.93,147.864Z" transform="translate(-129.514 -48.863)"/><path d="M4326.967,143.576a.575.575,0,1,1-.575-.575A.575.575,0,0,1,4326.967,143.576Z" transform="translate(-150.013 -45.206)" fill="#c43b71"/></g></g></svg>