<svg xmlns="http://www.w3.org/2000/svg" xmlns:xlink="http://www.w3.org/1999/xlink" width="660.393" height="662.052" viewBox="0 0 660.393 662.052"><defs><linearGradient id="a" x1="0.486" y1="0.394" x2="0.669" y2="1.818" gradientUnits="objectBoundingBox"><stop offset="0" stop-color="#ff9283"/><stop offset="1" stop-color="#ffaf00"/></linearGradient></defs><g transform="translate(-1085.857 -183.555)"><ellipse cx="203.376" cy="203.376" rx="203.376" ry="203.376" transform="translate(1085.857 183.555)" fill="url(#a)"/><ellipse cx="203.376" cy="203.376" rx="203.376" ry="203.376" transform="translate(1172.418 538.627) rotate(-41)" opacity="0.87" fill="url(#a)"/><g transform="translate(1111.698 287.257)"><path d="M1274.786,300.877a11.59,11.59,0,0,0-3.463-3.235h0a11.686,11.686,0,0,0-4.715-1.622,14.618,14.618,0,0,0-16.367-17.207,18.068,18.068,0,0,0-35.2-4.628,17.871,17.871,0,0,0-.312,10.06,18.9,18.9,0,0,0-6.978,21.649h0s4.375,23.837,42.453,16.488c5.494-.031,12.03,5.951,15.887,12.264a3.021,3.021,0,0,0,5.482-.919,122.408,122.408,0,0,1,5.516-14.766C1280.857,310.559,1277.706,304.362,1274.786,300.877Z" transform="translate(-954.495 -261.765)" fill="#fff"/><path d="M1173.736,722.49c-3.278,5.977-7.639,12.718-13.367,14.391-3.973,1.16-14.349-6.191-16.317-9.141s15.319-145.24,20.851-153.9c7.42-11.621,58.027,4.428,54.754,24.587-4.184,25.771-13.549,53.189-24.151,78.743A464.124,464.124,0,0,1,1173.736,722.49Z" transform="translate(-1029.108 -410.293)" fill="#0a334c" fill-rule="evenodd"/><path d="M1179.568,741.966c1.926-1.635,3.072-3.984,4.157-6.265q22.108-46.48,40.375-94.659c3.4-8.958,6.745-18.4,5.467-27.9s-8.793-18.87-18.373-18.812c-8.477.051-15.167,7-20.256,13.785a176.445,176.445,0,0,0-34.653,96.482c-.369,7.512-2.391,17.92-.307,25.282C1158.388,738.4,1170.942,749.285,1179.568,741.966Z" transform="translate(-1015.805 -417.674)" fill="#0a334c" fill-rule="evenodd"/><path d="M1154.183,907.655a37.48,37.48,0,0,1-16.914-1.368l2.25-20.035a5.245,5.245,0,0,1,.695-2.442,4.844,4.844,0,0,1,3.294-1.67c4.676-.817,11.731-1.071,11.566,4.724C1154.877,893.788,1154.475,900.727,1154.183,907.655Z" transform="translate(-1053.972 -512.264)" fill="#f4d0cb"/><path d="M1145.322,731.59c6.533-11.823,23.765-19.928,32.749.582,13.7,31.279-18.264,89.788-20.9,127.562h-19.4C1136.966,856.078,1141.7,738.15,1145.322,731.59Z" transform="translate(-1047.358 -484.667)" fill="#0a334c" fill-rule="evenodd"/><path d="M1275.389,605.949c-4.723,3.721-10.968,4.29-16.825,4.29-48.219,0-76.121-15.682-69.453-37.83,6.851-22.752,50-19.08,72.542-11.748,4.858,1.581,11.939,3.111,15.258,7.647C1281.722,574.883,1286.863,596.91,1275.389,605.949Z" transform="translate(-956.82 -382.568)" fill="#0a3c5f" fill-rule="evenodd"/><path d="M1184.755,420.8c-9.3,20.18-21.393,39.884-39.557,52.681-3.916,2.758-9.02,5.227-13.3,3.074a9.482,9.482,0,0,1-4.658-6.646,22.045,22.045,0,0,1,.242-8.342c3.876-21.686,17.86-40,31.45-57.336,5.6-7.142,14.386-20.207,24.283-21.458,10.308-1.3,9.322,14.382,7.944,20.41A90.83,90.83,0,0,1,1184.755,420.8Z" transform="translate(-1098.615 -314.095)" fill="#f4d0cb"/><path d="M1213.05,375.474c-2.762-2.848-22,2.3-25.5,3.652-21.2,8.223-34.782,26.007-45.785,46.444l37.089,16.691C1187.866,426.083,1215.669,378.174,1213.05,375.474Z" transform="translate(-1033.613 -308.953)" fill="#f7f7f7" fill-rule="evenodd"/><path d="M1287.482,592.838c-4.221-19.844-22.805-22.972-38.3-18.937a33.246,33.246,0,0,0-9.246,4.023c-5.893-.714-11.886,2.063-15.945,6.412-4.133,4.43-6.461,10.285-7.7,16.216-3.434,16.438.918,33.47,6.451,49.326a329.748,329.748,0,0,0,16.032,38.069c5.509,11.086,11.943,25.606,18.66,36,.745,1.153,29.325-.389,30.372-6.5a361.908,361.908,0,0,0,4.853-46.008C1293.729,645.67,1292.879,618.206,1287.482,592.838Z" transform="translate(-938.129 -407.814)" fill="#0a3c5f" fill-rule="evenodd"/><path d="M1168.247,544.779c.49,3.277.79,7.138-1.646,9.386-2.055,1.9-5.389,1.767-7.845.427s-35.959-56.367-34.55-71.623c.709-7.678,6.807-10.855,13.706-10.565C1147.515,472.806,1166.463,532.846,1168.247,544.779Z" transform="translate(-1098.143 -351.557)" fill="#f4d0cb"/><path d="M1147.854,572.467c-1.471.464-3.2.784-3.99,2.106-.844,1.4-.173,3.235.769,4.576a13.648,13.648,0,0,0,12.03,5.54,15.194,15.194,0,0,0,11.4-6.981,13.776,13.776,0,0,0,.894-13.568c-1.949-3.661-8.438-8.181-11.812-4.183-1.382,1.637-1.236,5.312-2.6,7.342A12.845,12.845,0,0,1,1147.854,572.467Z" transform="translate(-1046.283 -380.02)" fill="#f4d0cb"/><path d="M1285.163,453.515c5.159-17.856,9.476-37.541,6.629-54.787-8.936-10.911-27.209-26.273-63.439-26.273-25.415,0-44.442,15.7-48.85,22.219-4.652,6.88-3.3,16.528-2.106,24.667-.768,15.163,7.9,54.515-5.134,77.043-10.226,17.674-11.4,58.421-8.522,64.062l122.227,10.175c.175-2.237.015-30.947-.006-33.106Q1285.563,495.516,1285.163,453.515Z" transform="translate(-956.397 -318.14)" fill="#f7f7f7" fill-rule="evenodd"/><path d="M1345.421,437.382a104.349,104.349,0,0,0-46.462-36.83c-3.35-1.339-7.6-2.352-10.218.125a6.711,6.711,0,0,0-1.787,5.422,18.855,18.855,0,0,0,1.654,5.641c8.809,21.2,20.576,41.014,32.3,60.748,3.6,6.063,7.262,12.2,12.286,17.149s11.649,8.663,18.7,8.721c3.692.03,9.256-1.206,11.379-4.639,1.708-2.761.34-7.684-.056-10.624a104.768,104.768,0,0,0-8.856-30.193A102.847,102.847,0,0,0,1345.421,437.382Z" transform="translate(-848.529 -321.581)" fill="#f4d0cb"/><path d="M1366.979,451.052a1.782,1.782,0,0,1,.2.384C1367.115,451.307,1367.043,451.181,1366.979,451.052Z" transform="translate(-862.157 -335.196)" fill="#18898d" fill-rule="evenodd"/><path d="M1283.337,399.423c-1.092-3.5-1.926-7.8.618-10.449,2.683-2.791,9.861-2.051,13.5-.724,22.04,8.045,38.556,24.028,50.769,44.041L1306.8,450.272A216.357,216.357,0,0,1,1283.337,399.423Z" transform="translate(-847.738 -313.873)" fill="#f7f7f7" fill-rule="evenodd"/><path d="M1290.317,562.324c-.162,3.589,3.188,6.592,6.726,7.214s56.91-43.539,64.074-53.924c2.18-3.161,4.446-6.961,3.233-10.6-1.084-3.254-4.556-5.03-7.833-6.043-5.5-1.7-12.36-2.7-18.038-1.26-3.917.992-4.962,4.647-7.08,7.658C1323.618,516.428,1290.42,560.028,1290.317,562.324Z" transform="translate(-849.105 -360.718)" fill="#f4d0cb"/><g transform="translate(263.648 34.111)"><path d="M1234.734,341.487c7.157-10.953,19.9-13.519,25.953-10.89-2.3,20.5-.767,29.614,7.1,40.8-16.446,6.406-40.545,5.214-44.127,0C1223.99,369.751,1231.033,347.15,1234.734,341.487Z" transform="translate(-1223.662 -307.432)" fill="#f4d0cb"/><path d="M1257.82,311.8c-5.492-10.735-20.887-12.246-28.7-2.045-7.157,9.339-6.3,32.421-2.947,37.891,5.859,9.565,23.754,3.77,27.236-1.749C1258.505,337.815,1262.439,320.832,1257.82,311.8Z" transform="translate(-1223.662 -302.874)" fill="#fce0d9"/><path d="M1273.613,336.377a10.783,10.783,0,0,1-3.884,7.089c-6.144,4.977-9.347-4.165-7.154-8.98C1265.188,328.746,1274.456,328.907,1273.613,336.377Z" transform="translate(-1230.169 -307.568)" fill="#fce0d9"/></g><path d="M1092.821,920.548c-.249-2.776,2.385-5.075,5.1-5.721s5.545-.154,8.332-.187a22.5,22.5,0,0,0,19.313-11.921,5.69,5.69,0,0,1,1.94-2.577,3.738,3.738,0,0,1,4.038.741c1.124.924,1.918,2.183,2.946,3.214a9.9,9.9,0,0,0,7.07,2.83c2.181-.032,4.622-1.7,6.716-.6,1.849.972,2.347,3.531,2.815,5.357.807,3.144,1.539,6.31,2.308,9.464a13.292,13.292,0,0,1,.389,2.148H1138.64c-.7-.992-1.279-3.88-1.581-5.071-.05,1.225-.534,4.128-1.312,5.071h-41.621A4.683,4.683,0,0,1,1092.821,920.548Z" transform="translate(-1092.804 -515.346)" fill="#2d2c2a" fill-rule="evenodd"/><g transform="translate(420.758 243.964)"><path d="M1367.01,898.633a37.974,37.974,0,0,1-16.244,5.161q-3.258-9.489-6.518-18.979a5.057,5.057,0,0,1-.405-2.473,4.544,4.544,0,0,1,2.333-2.758c3.977-2.507,10.4-5.408,12.734-.1C1361.7,885.824,1364.305,892.255,1367.01,898.633Z" transform="translate(-1278.969 -755.342)" fill="#f4d0cb"/><path d="M1265.671,749.369c-.226-12.656,13.016-28.144,30.624-11.887,28.35,26.175,38.886,78.3,51.367,116.81l-17.957,7.339C1327.02,858.779,1265.8,756.4,1265.671,749.369Z" transform="translate(-1265.668 -730.484)" fill="#0a3c5f" fill-rule="evenodd"/><path d="M1348.7,920.415c-1.151-2.528-.95-5.095-.091-6.143s.82-6.059.527-13.3c-.134-3.31,5.357-6.495,10.292-2.719,1.6,1.226,2.9,1.913,3.948,1.445.875-.393,1.238-2.34,2.507-1.669,1.12.592,2.291,2.879,3.172,4.491,1.519,2.776,3.014,5.585,4.521,8.377.333.618.678,1.266.971,1.923l-24.273,9.921A8.2,8.2,0,0,1,1348.7,920.415Z" transform="translate(-1279.667 -758.754)" fill="#2d2c2a" fill-rule="evenodd"/></g><path d="M1273.4,567.425c-1.987,2.371,4.74,3.975,7.111,5.963l-19.055,1.016a4.832,4.832,0,0,0-3.15.929,3.188,3.188,0,0,0-.411,3.66,7.729,7.729,0,0,0,2.746,2.772,29.854,29.854,0,0,0,21.017,4.774,16.17,16.17,0,0,0,7.875-3.112,8.571,8.571,0,0,0,3.332-7.494c-.583-4.365-3.881-4.442-7.175-5.287C1283.589,570.107,1274.078,566.618,1273.4,567.425Z" transform="translate(-934.048 -382.685)" fill="#f4d0cb"/><path d="M1221.679,313.042s18.8,15.025,38.664,4.3-34.256-11.966-34.256-11.966Z" transform="translate(-962.872 -269.189)" fill="#c1858e" opacity="0.41"/><ellipse cx="13.293" cy="28.827" rx="13.293" ry="28.827" transform="translate(243.006 45.222) rotate(-80.68)" fill="#fff"/><g transform="translate(240.6 64.725)"><g transform="translate(23.112)"><path d="M1261.281,349.416a19.73,19.73,0,0,1-8.51-2.462c-8.666-4.333-12.69-2.466-13.606-.875l-1.823-.974-1.848-.924c.171-.342,4.364-8.3,19.124-.924,3.97,1.985,7.03,2.539,8.611,1.561a3.949,3.949,0,0,0,1.48-2.983,2.067,2.067,0,0,1,4.133,0,7.914,7.914,0,0,1-3.44,6.5A7.692,7.692,0,0,1,1261.281,349.416Z" transform="translate(-1235.495 -339.769)" fill="#fff"/></g><path d="M1213.976,349.419a5.849,5.849,0,0,1-2.849-.7c-3.388-1.85-3.486-6.374-3.486-6.885a2.067,2.067,0,0,1,4.133-.009c.009.836.349,2.735,1.339,3.269,1.026.553,3.084-.077,5.651-1.728,4.511-2.9,8.376-3.859,11.485-2.848a6.953,6.953,0,0,1,4.277,3.837,2.067,2.067,0,0,1-3.852,1.5,2.926,2.926,0,0,0-1.774-1.426c-1.288-.388-3.7-.283-7.9,2.415C1218.333,348.559,1215.983,349.419,1213.976,349.419Zm-2.2-7.584h0Z" transform="translate(-1207.641 -339.769)" fill="#fff"/></g></g></g></svg>