<svg xmlns="http://www.w3.org/2000/svg" width="226.631" height="232.413" viewBox="0 0 226.631 232.413"><g transform="translate(-74.5 -156.707)"><ellipse cx="68.799" cy="68.799" rx="68.799" ry="68.799" transform="translate(74.5 226.084)" fill="#00bc8c" opacity="0.19"/><ellipse cx="113.316" cy="12.141" rx="113.316" ry="12.141" transform="translate(74.5 364.838)" fill="#e5e5e5"/><ellipse cx="68.799" cy="68.799" rx="68.799" ry="68.799" transform="translate(151.971 156.707)" fill="#ff9478"/><ellipse cx="34.688" cy="34.689" rx="34.688" ry="34.689" transform="translate(198.222 275.805)" fill="#ff9478" opacity="0.62"/><g transform="translate(151.971 175.002)"><path d="M3848.131,54.335a4.239,4.239,0,0,0-1.269-1.185h0a4.273,4.273,0,0,0-1.727-.594,5.355,5.355,0,0,0-6-6.3,6.613,6.613,0,1,0-13.008,1.99,6.926,6.926,0,0,0-2.556,7.931h0s1.6,8.732,15.552,6.04c2.012-.011,4.407,2.18,5.82,4.493a1.107,1.107,0,0,0,2.009-.337,44.786,44.786,0,0,1,2.021-5.409A5.964,5.964,0,0,0,3848.131,54.335Z" transform="translate(-3788.57 -40.008)" fill="#fff"/><path d="M3755.607,481.117c-1.2,2.19-2.8,4.659-4.9,5.272-1.455.425-5.256-2.268-5.977-3.349s5.612-53.205,7.638-56.378c2.719-4.257,21.256,1.622,20.057,9.007-1.533,9.441-4.963,19.485-8.846,28.846A170.236,170.236,0,0,1,3755.607,481.117Z" transform="translate(-3729.146 -331.559)" fill="#0a334c" fill-rule="evenodd"/><path d="M3767.6,509.822a6.594,6.594,0,0,0,1.523-2.295q8.1-17.027,14.79-34.676c1.244-3.282,2.471-6.742,2-10.22s-3.221-6.913-6.73-6.892c-3.105.019-5.556,2.566-7.421,5.05a64.639,64.639,0,0,0-12.694,35.344c-.135,2.752-.875,6.565-.113,9.261C3759.841,508.515,3764.44,512.5,3767.6,509.822Z" transform="translate(-3739.698 -354.652)" fill="#0a334c" fill-rule="evenodd"/><path d="M3742.587,824.486a13.727,13.727,0,0,1-6.2-.5q.413-3.67.824-7.339a1.917,1.917,0,0,1,.254-.895,1.774,1.774,0,0,1,1.207-.612c1.712-.3,4.3-.393,4.237,1.73C3742.842,819.406,3742.694,821.948,3742.587,824.486Z" transform="translate(-3722.875 -626.541)" fill="#f4d0cb"/><path d="M3739.7,616.726c2.393-4.331,8.706-7.3,12,.214,5.019,11.458-6.69,32.892-7.657,46.729h-7.106C3736.643,662.33,3738.377,619.129,3739.7,616.726Z" transform="translate(-3723.264 -473.169)" fill="#0a334c" fill-rule="evenodd"/><path d="M3831.94,425.275c-1.73,1.363-4.018,1.572-6.164,1.572-17.664,0-27.885-5.745-25.442-13.858,2.509-8.335,18.317-6.989,26.574-4.3,1.779.579,4.373,1.139,5.589,2.8C3834.259,413.895,3836.143,421.964,3831.94,425.275Z" transform="translate(-3770.999 -317.481)" fill="#0a3c5f" fill-rule="evenodd"/><path d="M3744.655,205.138c-3.407,7.392-7.836,14.611-14.491,19.3-1.434,1.01-3.3,1.915-4.872,1.126a3.475,3.475,0,0,1-1.706-2.435,8.074,8.074,0,0,1,.089-3.056c1.42-7.944,6.542-14.652,11.521-21,2.05-2.616,5.27-7.4,8.9-7.861,3.777-.478,3.416,5.269,2.911,7.477A33.277,33.277,0,0,1,3744.655,205.138Z" transform="translate(-3713.1 -154.421)" fill="#f4d0cb"/><path d="M3768.13,181.406c-1.011-1.043-8.058.841-9.34,1.338-7.767,3.012-12.741,9.527-16.772,17.014l13.587,6.115C3758.9,199.945,3769.089,182.395,3768.13,181.406Z" transform="translate(-3727.134 -146.789)" fill="#bcbcbc" fill-rule="evenodd"/><path d="M3860.175,435.782c-1.546-7.269-8.354-8.415-14.03-6.937a12.165,12.165,0,0,0-3.387,1.474,7.07,7.07,0,0,0-5.841,2.349,12.3,12.3,0,0,0-2.821,5.94c-1.259,6.022.336,12.261,2.363,18.069a120.836,120.836,0,0,0,5.873,13.946c2.018,4.061,4.375,9.38,6.836,13.189.273.423,10.743-.143,11.126-2.38a132.515,132.515,0,0,0,1.778-16.854C3862.463,455.136,3862.152,445.075,3860.175,435.782Z" transform="translate(-3796.484 -333.871)" fill="#0a3c5f" fill-rule="evenodd"/><path d="M3736.156,329.819c.179,1.2.29,2.615-.6,3.438a2.538,2.538,0,0,1-2.874.157c-.9-.491-13.172-20.649-12.656-26.237.26-2.813,2.494-3.977,5.021-3.871C3728.562,303.453,3735.5,325.447,3736.156,329.819Z" transform="translate(-3710.475 -239.278)" fill="#f4d0cb"/><path d="M3745.757,415.974c-.539.17-1.171.287-1.461.772a1.6,1.6,0,0,0,.282,1.677,5,5,0,0,0,4.407,2.03,5.565,5.565,0,0,0,4.175-2.558,5.047,5.047,0,0,0,.328-4.97c-.713-1.341-3.092-3-4.327-1.532-.505.6-.453,1.946-.952,2.69A4.7,4.7,0,0,1,3745.757,415.974Z" transform="translate(-3728.751 -320.655)" fill="#f4d0cb"/><path d="M3812.761,208.074c1.89-6.542,3.471-13.752,2.428-20.071-3.274-4-9.967-9.624-23.239-9.624-9.31,0-16.28,5.751-17.9,8.139-1.7,2.521-1.209,6.055-.771,9.036-.281,5.555,2.894,19.971-1.881,28.223-3.746,6.474-4.176,21.4-3.122,23.468l44.775,3.727c.064-.82.005-11.337,0-12.128Q3812.907,223.459,3812.761,208.074Z" transform="translate(-3746.634 -144.733)" fill="#f7f7f7" fill-rule="evenodd"/><path d="M3944.9,225.769a38.222,38.222,0,0,0-17.019-13.492c-1.227-.49-2.783-.861-3.744.046a2.458,2.458,0,0,0-.655,1.986,6.926,6.926,0,0,0,.606,2.067c3.227,7.765,7.538,15.025,11.833,22.254a30.273,30.273,0,0,0,4.5,6.282,10.189,10.189,0,0,0,6.851,3.195c1.353.011,3.391-.442,4.169-1.7.625-1.012.125-2.815-.021-3.892a38.386,38.386,0,0,0-3.244-11.061A37.624,37.624,0,0,0,3944.9,225.769Z" transform="translate(-3864.469 -170.004)" fill="#f4d0cb"/><path d="M4023.546,276.631a.638.638,0,0,1,.073.141C4023.6,276.724,4023.569,276.678,4023.546,276.631Z" transform="translate(-3940.207 -219.095)" fill="#18898d" fill-rule="evenodd"/><path d="M3918.054,201.172c-.4-1.284-.705-2.859.227-3.828.983-1.022,3.612-.751,4.944-.265,8.074,2.947,14.124,8.8,18.6,16.134l-15.175,6.587A79.276,79.276,0,0,1,3918.054,201.172Z" transform="translate(-3860.074 -158.558)" fill="#bcbcbc" fill-rule="evenodd"/><path d="M3927.707,358.015a2.835,2.835,0,0,0,2.464,2.643c1.3.228,20.848-15.95,23.472-19.754.8-1.157,1.629-2.55,1.185-3.884a4.05,4.05,0,0,0-2.869-2.214,12.918,12.918,0,0,0-6.608-.462c-1.435.363-1.817,1.7-2.593,2.805C3939.906,341.2,3927.744,357.174,3927.707,358.015Z" transform="translate(-3867.67 -262.584)" fill="#f4d0cb"/><g transform="translate(39.776 12.496)"><path d="M3848.445,129.2c2.622-4.012,7.289-4.952,9.507-3.989-.841,7.51-.281,10.849,2.6,14.945-6.024,2.347-14.853,1.91-16.164,0C3844.509,139.555,3847.089,131.276,3848.445,129.2Z" transform="translate(-3844.389 -116.726)" fill="#f4d0cb"/><path d="M3856.9,94.669a6.249,6.249,0,0,0-10.515-.749c-2.622,3.421-2.307,11.877-1.08,13.881,2.147,3.5,8.7,1.381,9.978-.641C3857.153,104.2,3858.594,97.976,3856.9,94.669Z" transform="translate(-3844.389 -91.397)" fill="#fce0d9"/><path d="M3896.465,128.038a3.954,3.954,0,0,1-1.423,2.6c-2.251,1.823-3.424-1.526-2.621-3.29C3893.379,125.243,3896.774,125.3,3896.465,128.038Z" transform="translate(-3880.55 -117.485)" fill="#fce0d9"/></g><path d="M3680.813,845.211a2.224,2.224,0,0,1,1.867-2.1,13.828,13.828,0,0,1,3.052-.068,8.241,8.241,0,0,0,7.075-4.367,2.081,2.081,0,0,1,.71-.944,1.37,1.37,0,0,1,1.479.271c.412.338.7.8,1.079,1.177a3.627,3.627,0,0,0,2.59,1.037c.8-.012,1.693-.622,2.46-.219.677.356.86,1.294,1.031,1.962.3,1.152.564,2.312.846,3.467a4.786,4.786,0,0,1,.143.787H3697.6a7.753,7.753,0,0,1-.579-1.858,4.4,4.4,0,0,1-.481,1.858h-15.247A1.712,1.712,0,0,1,3680.813,845.211Z" transform="translate(-3680.807 -643.672)" fill="#2d2c2a" fill-rule="evenodd"/><g transform="translate(52.544 142.473)"><path d="M4003.074,816.583a13.9,13.9,0,0,1-5.95,1.891l-2.387-6.952a1.839,1.839,0,0,1-.149-.906,1.663,1.663,0,0,1,.854-1.01c1.457-.919,3.81-1.981,4.665-.037C4001.129,811.891,4002.083,814.246,4003.074,816.583Z" transform="translate(-3970.822 -764.092)" fill="#f4d0cb"/><path d="M3896.9,632.86c-.083-4.636,4.768-10.31,11.218-4.355,10.385,9.588,14.245,28.684,18.817,42.791l-6.579,2.688C3919.374,672.94,3896.946,635.437,3896.9,632.86Z" transform="translate(-3896.899 -625.942)" fill="#0a3c5f" fill-rule="evenodd"/><path d="M3999.987,842.276a2.383,2.383,0,0,1-.033-2.25c.314-.384.3-2.22.193-4.871-.05-1.212,1.962-2.379,3.77-1,.586.449,1.064.7,1.446.529.32-.144.453-.857.918-.612a4.739,4.739,0,0,1,1.162,1.645c.556,1.017,1.1,2.046,1.655,3.069.122.227.249.464.356.7l-8.892,3.634A2.982,2.982,0,0,1,3999.987,842.276Z" transform="translate(-3974.698 -783.055)" fill="#2d2c2a" fill-rule="evenodd"/></g><path d="M3892.523,422c-.728.868,1.737,1.456,2.6,2.184l-6.98.372a1.771,1.771,0,0,0-1.154.34,1.167,1.167,0,0,0-.15,1.341,2.828,2.828,0,0,0,1.005,1.015,10.935,10.935,0,0,0,7.7,1.749,5.926,5.926,0,0,0,2.885-1.14,3.141,3.141,0,0,0,1.221-2.745c-.214-1.6-1.422-1.627-2.629-1.937C3896.255,422.982,3892.772,421.7,3892.523,422Z" transform="translate(-3836.638 -329.083)" fill="#f4d0cb"/><path d="M3841.911,97.335s6.888,5.5,14.163,1.576-12.548-4.383-12.548-4.383Z" transform="translate(-3802.738 -81.271)" fill="#c1858e" opacity="0.41"/><ellipse cx="4.87" cy="10.56" rx="4.87" ry="10.56" transform="translate(34.695 16.566) rotate(-80.68)" fill="#fff"/><g transform="translate(34.906 23.71)"><g transform="translate(8.467)"><path d="M3868.627,141.052a7.231,7.231,0,0,1-3.118-.9c-3.174-1.587-4.648-.9-4.984-.32l-.668-.357-.677-.338c.063-.125,1.6-3.042,7.006-.338,1.455.727,2.575.93,3.155.572a1.448,1.448,0,0,0,.542-1.093.757.757,0,1,1,1.514,0,2.9,2.9,0,0,1-1.26,2.381A2.817,2.817,0,0,1,3868.627,141.052Z" transform="translate(-3859.181 -137.518)" fill="#fff"/></g><g transform="translate(0 0)"><path d="M3826.682,141.054a2.141,2.141,0,0,1-1.043-.256,2.987,2.987,0,0,1-1.278-2.522.757.757,0,0,1,1.514,0c0,.306.127,1,.491,1.2s1.13-.028,2.07-.633c1.653-1.062,3.068-1.414,4.207-1.043a2.55,2.55,0,0,1,1.568,1.405.757.757,0,0,1-1.412.549,1.068,1.068,0,0,0-.65-.523c-.472-.142-1.357-.1-2.895.885A4.968,4.968,0,0,1,3826.682,141.054Zm-.807-2.778h0Z" transform="translate(-3824.361 -137.519)" fill="#fff"/></g></g></g></g></svg>