<svg xmlns="http://www.w3.org/2000/svg" width="253" height="126" viewBox="0 0 253 126"><g transform="translate(-63 -175)"><ellipse cx="126.5" cy="13" rx="126.5" ry="13" transform="translate(63 275)" fill="#e5e5e5"/><g transform="translate(-294.471 -286.648)"><rect width="109.772" height="4.613" transform="translate(396.164 562.284)" fill="#7d4e24"/><path d="M404.393,557.592v14a3.128,3.128,0,0,1-3.121,3.121H399.3a3.129,3.129,0,0,1-3.131-3.121v-14a3.131,3.131,0,0,1,3.131-3.131h1.976A3.13,3.13,0,0,1,404.393,557.592Z" fill="#432918"/><path d="M510.141,557.592v14a3.128,3.128,0,0,1-3.121,3.121h-1.976a3.13,3.13,0,0,1-3.132-3.121v-14a3.132,3.132,0,0,1,3.132-3.131h1.976A3.13,3.13,0,0,1,510.141,557.592Z" fill="#432918"/><path d="M420.5,461.648l-5.774,23.543h-17.5l6.753-23.543Z" fill="#85b029"/><path d="M453.9,461.648v23.543H414.723l.16-.739.739-3.448,4.875-19.356Z" fill="#7da627"/><path d="M424.793,569.4H407.171l-11.288-81.868h19.479Z" fill="#85b029"/><path d="M453.912,487.532V569.4H424.783l-.24-2.148-.6-5.144-8.171-71-.22-1.939-.08-.815-.1-.826Z" fill="#7da627"/><rect width="65.431" height="7.435" transform="translate(388.471 483.677)" fill="#9acc30"/><path d="M485.808,461.648l5.774,23.543h17.5l-6.753-23.543Z" fill="#769c24"/><path d="M452.4,461.648v23.543h39.179l-.16-.739L490.683,481l-4.875-19.356Z" fill="#7da627"/><path d="M481.513,569.4h17.621l11.288-81.868H490.943Z" fill="#769c24"/><path d="M490.933,487.532l-.1.826-.08.815-.22,1.939-8.172,71-.6,5.144-.24,2.148H452.414V487.532Z" fill="#7da627"/><rect width="65.431" height="7.435" transform="translate(452.404 483.677)" fill="#9acc30"/><path d="M483.4,558.54v10.284H422.9V558.54c0-1.689,3.317-3.052,7.4-3.052h45.667C480.084,555.488,483.4,556.851,483.4,558.54Z" fill="#59751b"/></g><g transform="translate(-294.328 186.858)"><path d="M550.318,98.614c-6.582,4.085-15.64,3.349-15.64,3.349s-49.263,4.007-1.51-58.593a.646.646,0,0,0-.135-.135s-3.387-3.813-5.9-6.02c2.885,1.684,6.95,4.723,6.95,4.723a1.313,1.313,0,0,0,.135.116C499.68,112.8,547.2,99.214,547.2,99.214A31.02,31.02,0,0,0,550.318,98.614Z" transform="translate(0 -0.328)" fill="#2e2e2e"/><path d="M551.825,98.266l-.019.019a31.024,31.024,0,0,1-3.117.6S501.168,112.475,535.7,41.725a1.308,1.308,0,0,1-.135-.116s-4.065-3.039-6.95-4.723c-.212-.194-.426-.368-.619-.522-2.013-1.626,9.484-1.82,14.3-1.22,1.258.155,2.052.368,2.032.62-.1.871-3.484,3.155-5.284,5.556a5.22,5.22,0,0,0-1.084,2.071C564.93,78.871,560.555,92.827,551.825,98.266Z" transform="translate(-1.488)" fill="#414142"/><g transform="translate(532.609 42.81)"><path d="M536.163,44.733q2.032.1,4.052.314c.413.045.41-.6,0-.647q-2.021-.217-4.052-.314c-.416-.02-.415.627,0,.647Z" transform="translate(-535.852 -44.085)" fill="#1d1d1b"/></g></g><g transform="translate(-262.328 205.944)"><path d="M539.473,81.085C534.77,84,528.3,83.478,528.3,83.478s-35.2,2.863-1.079-41.866a.462.462,0,0,0-.1-.1s-2.42-2.725-4.219-4.3c2.061,1.2,4.966,3.375,4.966,3.375a.935.935,0,0,0,.1.083c-24.674,50.552,9.28,40.842,9.28,40.842A22.165,22.165,0,0,0,539.473,81.085Z" transform="translate(0 -0.915)" fill="#2e2e2e"/><path d="M543.631,80.157l-.013.014a22.17,22.17,0,0,1-2.227.429s-33.955,9.71-9.28-40.842a.936.936,0,0,1-.1-.083s-2.9-2.171-4.966-3.375c-.152-.139-.3-.263-.442-.373-1.438-1.162,6.777-1.3,10.221-.872.9.111,1.466.263,1.452.443-.069.622-2.489,2.255-3.776,3.97a3.73,3.73,0,0,0-.774,1.48C552.994,66.3,549.869,76.27,543.631,80.157Z" transform="translate(-4.145)" fill="#414142"/><g transform="translate(526.819 40.532)"><path d="M536.074,44.548q1.452.068,2.9.224c.3.032.293-.431,0-.462q-1.444-.155-2.9-.224c-.3-.014-.3.448,0,.462Z" transform="translate(-535.852 -44.085)" fill="#1d1d1b"/></g></g></g></svg>