<svg xmlns="http://www.w3.org/2000/svg" width="196" height="201" viewBox="0 0 196 201"><g transform="translate(-94 -149)"><circle cx="59.5" cy="59.5" r="59.5" transform="translate(94 209)" fill="#00bc8c" opacity="0.19"/><ellipse cx="98" cy="10.5" rx="98" ry="10.5" transform="translate(94 329)" fill="#e5e5e5"/><circle cx="59.5" cy="59.5" r="59.5" transform="translate(161 149)" fill="#ff9478"/><circle cx="30" cy="30" r="30" transform="translate(201 252)" fill="#ff9478" opacity="0.62"/><g transform="translate(-4319.678 115.67)"><g transform="translate(4498.678 51.399)"><path d="M4531.673,632.8c1.46,3.852,1.694,15.274,5.135,26.382.137.724-3.353,1.851-3.781,1.326-5.517-12.132-13.864-25.755-15.515-33.641-.55-2.632,2.142-8.429,5.378-6.251C4525.836,622.6,4530.46,629.6,4531.673,632.8Z" transform="translate(-4513.437 -498.784)" fill="#f4d0c9"/><path d="M4578.382,803.606a10.787,10.787,0,0,0-1.339-3.082,5.369,5.369,0,0,0-2.436-2.128c-.006.579-.254,1.46-.785,1.694-.419.185-2.88.12-3.222.424-.23.2.752,3.947.126,5.556,0,0-2.241,1.7-3.4,2.512a4.235,4.235,0,0,0-1.239,1.19,1.669,1.669,0,0,0-.117,1.646,1.033,1.033,0,0,0,.093.122l8.542-1.566,1.165-.458a11.031,11.031,0,0,0,.191-1.224q.256-2.2.512-4.395a17.014,17.014,0,0,1,2.243,4.46l1.033-.406Q4579.067,805.779,4578.382,803.606Z" transform="translate(-4551.483 -639.008)" fill="#e03f3f" fill-rule="evenodd"/><path d="M4534.847,405.3a26.8,26.8,0,0,1-.888,9.789c-2.333,10.133-6.787,24.836-11.391,34.159-.56,1.134-7.209,3.022-7.393,1.849-1.869-11.956.789-33.132,4.426-44.673a16.945,16.945,0,0,1,3.541-6.867C4528.395,394.125,4533.984,399.372,4534.847,405.3Z" transform="translate(-4511.172 -323.481)" fill="#f4d0c9"/><path d="M4615.4,635.48c.176,4.115-3.19,15.033-3.414,26.66-.1.73-3.765.7-4.006.07-1.427-13.251-5.07-28.806-4.16-36.812.3-2.672,4.682-7.33,7.069-4.245C4613.064,623.963,4615.254,632.064,4615.4,635.48Z" transform="translate(-4581.273 -498.784)" fill="#f4d0c9"/><path d="M4597.288,815.661a10.772,10.772,0,0,0-.117-3.358,5.372,5.372,0,0,0-1.488-2.872c-.218.537-.772,1.265-1.351,1.289-.458.019-2.724-.942-3.154-.785-.31.113-.81,4.514-2.175,5.447a29.855,29.855,0,0,1-4.467,2.143,4.24,4.24,0,0,0-1.433.948,1.669,1.669,0,0,0-.412,1.6,1.214,1.214,0,0,0,.07.137h9.937a11.166,11.166,0,0,0,.626-1.069l2.085-3.9a17,17,0,0,1,.454,4.971h1.11Q4597.13,817.934,4597.288,815.661Z" transform="translate(-4564.71 -647.689)" fill="#f73c3c" fill-rule="evenodd"/><path d="M4544.515,403.165c2.611,3.236,10.481,5.877,12.708,4.491,12.179-7.582,12.035-6.147,12.961-9.834.719-2.858-.822-5.746-2.309-8.291-1.325-2.271-14.951-4.392-21.078-2.8-1.244.323-3.161-.116-3.68,1.1-.99,2.319-1.636,4.54-3.149,8.371C4539.115,398.359,4542.047,400.105,4544.515,403.165Z" transform="translate(-4531.039 -314.746)" fill="#222b56" fill-rule="evenodd"/><path d="M4604.062,393c-4.333-5.929-14.589-4.953-17.731,2.759-3.474,8.533.788,42.175,2.74,48.675.889,1.691,8.524,4.81,9.9,1.626,1.023-9.949,4.06-28.445,5.542-33.482C4605.628,408.791,4608.557,399.149,4604.062,393Z" transform="translate(-4566.59 -317.098)" fill="#f4d0c9"/><path d="M4501.833,223.691c-.254.8,4.819,1.567,5.517.944,6.473-5.765,14.687-13.731,18.835-21.342.714-1.309-2.446-5.845-2.257-7.324C4516.958,197.988,4504.107,216.588,4501.833,223.691Z" transform="translate(-4501.153 -165.123)" fill="#f9f9f9" fill-rule="evenodd"/><path d="M4514.327,427.731c3.277,2.341,32.082,3.956,35.938,5.118-.318-6.515-.151-17.107.94-23.537.624-3.674,1.479-7.379,1.11-11.088s-2.246-7.528-5.646-9.055c-3.556-1.6-7.664-.343-11.562-.3a18.32,18.32,0,0,1-5.807-.886c-1.4-.45-3.21-1.851-4.72-1.245-1.419.569-2.085,2.59-2.7,3.827C4520.863,392.606,4513.506,413.454,4514.327,427.731Z" transform="translate(-4510.938 -315.07)" fill="#0a3c5f" fill-rule="evenodd"/><path d="M4554.972,220.99c-.671-4.527-2.376-8.967-2.041-13.531.265-3.6,3.227-6.617,5.115-9.972.9-1.591.387-4.252,1.463-5.585,2.221-2.752,5.44-3.2,8.806-4.287,9.21-2.974,11.6,10.8,11.216,13.836s-2.283,7.3-2.83,10.3c-1.4,7.7-1.354,13.945,1.457,21.252.127.333-18.076,2.713-21.482,2.028-3.453-.695-3.894-1.982-2.71-5.034A17.25,17.25,0,0,0,4554.972,220.99Z" transform="translate(-4541.32 -158.221)" fill="#a30042" fill-rule="evenodd"/><path d="M4504.222,308.713c7.2-.733,20.285,1.083,25.027,1.382-.2,5.5-27.46,6.637-29.219,4.8C4496.039,310.73,4501.929,308.946,4504.222,308.713Z" transform="translate(-4498.677 -253.674)" fill="#f4d0c9"/><path d="M4658.1,217.611q.338,12.936.676,25.872a3.231,3.231,0,0,0,.5,2c.914,1.119,2.938.733,3.881-.362,4.07-4.721,5.76-23.437,4.5-26.834a12,12,0,0,0-5.831-6.814C4657.958,209.725,4658.023,214.594,4658.1,217.611Z" transform="translate(-4624.068 -177.029)" fill="#fff" fill-rule="evenodd"/><path d="M4538.913,304.031c1.393-.929,26.548,6.524,30.819,10.617,1.162,1.114-.4,4.184-2.57,4.51a13.242,13.242,0,0,1-4.817-.518C4552.569,315.8,4534.734,307.374,4538.913,304.031Z" transform="translate(-4529.837 -250.064)" fill="#f4d0c9"/><path d="M4609.8,151.36a14.018,14.018,0,0,1-.377,6.184,2.2,2.2,0,0,0-.019,1.864,2.042,2.042,0,0,0,1.677.589,9.668,9.668,0,0,0,3.07-.23,3.271,3.271,0,0,0,2.245-1.951,4.857,4.857,0,0,0-.084-2.521l-1.018-4.792a2.754,2.754,0,0,0-.531-1.315,1.885,1.885,0,0,0-2.226-.231,5.511,5.511,0,0,0-1.708,1.669Z" transform="translate(-4585.614 -127.942)" fill="#f4d0c9"/><path d="M4586.1,66.115c.052-.025.106-.041.156-.07a2.192,2.192,0,0,0-.1-3.856,2.176,2.176,0,0,0-1.232-3.217,2.2,2.2,0,0,0-3.061-2.885l-.008.006-.031-.019a2.193,2.193,0,1,0-3.65-1.995,1.9,1.9,0,0,0-.969.441,2.17,2.17,0,0,0-.251-.7,2.2,2.2,0,0,0-3-.8,2.3,2.3,0,0,0-.264.19,2.189,2.189,0,1,0-4.26.988,2.658,2.658,0,0,1-3.386.579,2.19,2.19,0,0,0-1.085,2.026,2.185,2.185,0,0,0-.745,2.807,2.19,2.19,0,0,0-1.561,2.092,2.2,2.2,0,0,0-1.2,4.031,2.1,2.1,0,0,0,.689,1.331,2.182,2.182,0,0,0,1.675,3.212,2.321,2.321,0,0,0,.109.242,2.2,2.2,0,1,0,3.4-2.693c.014-.007.028-.011.042-.019a2.19,2.19,0,0,0,1.055-2.291,2.19,2.19,0,0,0,.477-1.248,2.146,2.146,0,0,0,.568-.224,2.189,2.189,0,0,0,1.085-2.028,2.373,2.373,0,0,0,.266-.2,2.169,2.169,0,0,0,2.875-1.667,2.181,2.181,0,0,0,.933.429,2.161,2.161,0,0,0,1.757,2.2,2.173,2.173,0,0,0,2.669,2.186,2.037,2.037,0,0,0,.667,1.224,2.2,2.2,0,0,0-.257,1.043,2.176,2.176,0,0,0,.562,3.806,2.133,2.133,0,0,0,.163.362,2.193,2.193,0,0,0,4.084-1.294,2.193,2.193,0,0,0,1.836-3.983Z" transform="translate(-4547.269 -51.399)" fill="#f2ecd6"/><path d="M4594.3,110.123a9.611,9.611,0,0,1-.761-3.354,17.46,17.46,0,0,1-.04-4.743,6.043,6.043,0,0,1,2.329-4.005,6.305,6.305,0,0,1,5.523-.43,5.874,5.874,0,0,1,3.71,3.1,8.159,8.159,0,0,1,.428,2.664,9.853,9.853,0,0,1-.249,3.494,6.4,6.4,0,0,1-2.313,3.063,15.327,15.327,0,0,1-3.432,1.829,6.846,6.846,0,0,1-2.158.609C4595.846,112.441,4594.92,111.366,4594.3,110.123Z" transform="translate(-4573.151 -87.396)" fill="#f4d7d0"/><path d="M4640.114,132.016a2.43,2.43,0,0,1,.906-.174,1.121,1.121,0,0,1,.822.367A1.338,1.338,0,0,1,4642,133.4a1.944,1.944,0,0,1-2.236,1.536,1.313,1.313,0,0,1-.979-1.679A1.811,1.811,0,0,1,4640.114,132.016Z" transform="translate(-4608.864 -114.676)" fill="#f4d7d0"/><path d="M4631.518,300.56c.932,1.351-2.229,2.145-2.019,2.971.184.717,4.661.825,5.725,1.1a1.572,1.572,0,0,1,1.292.979,1.85,1.85,0,0,1-.537,1.639,4.236,4.236,0,0,1-3.442,1.311,12.022,12.022,0,0,1-3.591-.983,5.654,5.654,0,0,1-1.781-.955,2.947,2.947,0,0,1-.208-4.088C4628.1,301.423,4630.172,301.107,4631.518,300.56Z" transform="translate(-4599.011 -247.396)" fill="#f4d0c9"/><path d="M4503.277,299.239a11.71,11.71,0,0,1,3.414-1.414c-.683.676-2.116,2.393-1.722,3.019.382.607,2.174-1.9,2.891-2,1.41-.2,2.966.538,4.29-.11,1-.489,1.682-1.893.873-2.767C4509.405,292.056,4503.734,295.937,4503.277,299.239Z" transform="translate(-4502.295 -242.491)" fill="#f4d0c9"/><g transform="translate(19.557 13.034)"><g transform="translate(0 0.181)" opacity="0.23"><ellipse cx="1.743" cy="1.743" rx="1.743" ry="1.743" transform="translate(0 3.394) rotate(-76.718)" fill="#d6d6d6"/></g><g transform="translate(5.485 0)" opacity="0.23"><ellipse cx="1.743" cy="1.743" rx="1.743" ry="1.743" transform="translate(0 1.334) rotate(-22.5)" fill="#d6d6d6"/></g><path d="M4598.615,113.989a1.961,1.961,0,0,0-1.867,1.37,1.474,1.474,0,0,0-1.129-.462,1.365,1.365,0,0,0-.82.415,1.952,1.952,0,1,0,.107.632c0-.031,0-.061,0-.092a1.161,1.161,0,0,1,.758-.531,1.273,1.273,0,0,1,1,.558c0,.022,0,.044,0,.066a1.957,1.957,0,1,0,1.957-1.957Zm-5.666,3.487a1.53,1.53,0,1,1,1.53-1.53A1.532,1.532,0,0,1,4592.949,117.476Zm5.666,0a1.53,1.53,0,1,1,1.53-1.53A1.532,1.532,0,0,1,4598.615,117.476Z" transform="translate(-4590.852 -113.668)"/></g></g><path d="M4603.772,92.3l.429-3.43-.429-3.859-4.287-2.572-4.716-1.715h-3.859l-2.143,1.715-1.715,3V89.3l1.579-.246a2.12,2.12,0,0,0,2.6-2.133,2.112,2.112,0,0,0,1.715-2.144,2.137,2.137,0,0,0,.911-.418,2.117,2.117,0,0,0,2.805,1.626,2.24,2.24,0,0,0,.259.191,2.138,2.138,0,0,0,1.06,1.979,2.088,2.088,0,0,0,.554.219,2.144,2.144,0,0,0,.465,1.218,2.137,2.137,0,0,0,1.03,2.236c.013.007.027.011.041.018" transform="translate(-69.517 -23.07)" fill="#f2ecd6"/><path d="M4606.652,147.143a1.093,1.093,0,0,0-1.366.267.837.837,0,0,1-.229.283h0a3.517,3.517,0,0,0,3.188,0m0,0h0s-.038,0-.228-.283a1.114,1.114,0,0,0-1.366-.267" transform="translate(-83.682 -75.205)" fill="#ff99b4"/></g></g></svg>