<svg xmlns="http://www.w3.org/2000/svg" width="196" height="201" viewBox="0 0 196 201"><g transform="translate(-94 -149)"><circle cx="59.5" cy="59.5" r="59.5" transform="translate(94 209)" fill="#00bc8c" opacity="0.19"/><ellipse cx="98" cy="10.5" rx="98" ry="10.5" transform="translate(94 329)" fill="#e5e5e5"/><circle cx="59.5" cy="59.5" r="59.5" transform="translate(161 149)" fill="#ff9478"/><circle cx="30" cy="30" r="30" transform="translate(201 252)" fill="#ff9478" opacity="0.62"/><g transform="translate(-3519.807 124.814)"><path d="M3844.76,52.4a3.666,3.666,0,0,0-1.1-1.025h0a3.7,3.7,0,0,0-1.493-.514,4.632,4.632,0,0,0-5.186-5.452,5.724,5.724,0,0,0-11.151-1.466,5.663,5.663,0,0,0-.1,3.187,5.989,5.989,0,0,0-2.211,6.859h0s1.386,7.552,13.449,5.224c1.74-.01,3.811,1.885,5.033,3.885a.957.957,0,0,0,1.737-.291,38.74,38.74,0,0,1,1.748-4.678A5.157,5.157,0,0,0,3844.76,52.4Z" transform="translate(-112.442)" fill="#fff"/><path d="M3754.13,473.563c-1.039,1.894-2.42,4.029-4.235,4.559-1.258.368-4.546-1.961-5.169-2.9s4.853-46.014,6.606-48.758c2.351-3.682,18.384,1.4,17.347,7.79-1.325,8.165-4.293,16.851-7.651,24.947A147.151,147.151,0,0,1,3754.13,473.563Z" transform="translate(-50.438 -304.212)" fill="#0a334c" fill-rule="evenodd"/><path d="M3766.386,502.513a5.7,5.7,0,0,0,1.317-1.985q7-14.725,12.792-29.989c1.076-2.838,2.137-5.831,1.732-8.839s-2.786-5.978-5.821-5.96c-2.686.016-4.805,2.219-6.418,4.367a55.9,55.9,0,0,0-10.979,30.567c-.117,2.38-.757,5.677-.1,8.01C3759.676,501.382,3763.653,504.831,3766.386,502.513Z" transform="translate(-61.448 -328.307)" fill="#0a334c" fill-rule="evenodd"/><path d="M3741.75,823.2a11.871,11.871,0,0,1-5.359-.434q.357-3.173.713-6.347a1.663,1.663,0,0,1,.22-.774,1.534,1.534,0,0,1,1.044-.529c1.481-.259,3.716-.339,3.664,1.5C3741.97,818.808,3741.842,821.006,3741.75,823.2Z" transform="translate(-43.896 -612.002)" fill="#f4d0cb"/><path d="M3739.326,616.132c2.07-3.746,7.529-6.313,10.376.185,4.341,9.91-5.786,28.446-6.622,40.413h-6.146C3736.678,655.572,3738.178,618.21,3739.326,616.132Z" transform="translate(-44.301 -451.97)" fill="#0a334c" fill-rule="evenodd"/><path d="M3827.619,422.754a8.426,8.426,0,0,1-5.331,1.359c-15.277,0-24.116-4.968-22-11.985,2.17-7.208,15.842-6.045,22.982-3.722,1.539.5,3.782.985,4.834,2.423C3829.625,412.912,3831.254,419.891,3827.619,422.754Z" transform="translate(-94.109 -289.522)" fill="#0a3c5f" fill-rule="evenodd"/><path d="M3741.792,203.251c-2.947,6.393-6.778,12.636-12.532,16.69-1.24.874-2.858,1.656-4.213.974a3,3,0,0,1-1.476-2.106,6.979,6.979,0,0,1,.077-2.643c1.228-6.871,5.658-12.671,9.964-18.165,1.773-2.263,4.558-6.4,7.693-6.8,3.266-.413,2.954,4.557,2.517,6.466A28.793,28.793,0,0,1,3741.792,203.251Z" transform="translate(-33.695 -119.382)" fill="#f4d0cb"/><path d="M3764.6,181.364c-.875-.9-6.969.727-8.077,1.157-6.718,2.605-11.019,8.239-14.5,14.714l11.75,5.288C3756.621,197.4,3765.43,182.219,3764.6,181.364Z" transform="translate(-48.339 -111.418)" fill="#bcbcbc" fill-rule="evenodd"/><path d="M3856.59,434.768c-1.337-6.287-7.225-7.278-12.134-6a10.521,10.521,0,0,0-2.929,1.275,6.115,6.115,0,0,0-5.052,2.031,10.64,10.64,0,0,0-2.439,5.137c-1.088,5.208.291,10.6,2.044,15.627a104.521,104.521,0,0,0,5.079,12.061,125.093,125.093,0,0,0,5.912,11.407c.236.366,9.291-.123,9.622-2.058a114.577,114.577,0,0,0,1.538-14.576A101.521,101.521,0,0,0,3856.59,434.768Z" transform="translate(-120.701 -306.624)" fill="#0a3c5f" fill-rule="evenodd"/><path d="M3733.973,326.234c.155,1.038.25,2.261-.522,2.973a2.2,2.2,0,0,1-2.485.135c-.778-.425-11.392-17.858-10.946-22.691.225-2.432,2.156-3.439,4.342-3.347C3727.406,303.432,3733.408,322.453,3733.973,326.234Z" transform="translate(-30.957 -207.923)" fill="#f4d0cb"/><path d="M3745.541,415.277c-.466.147-1.013.249-1.264.667a1.387,1.387,0,0,0,.244,1.45,4.324,4.324,0,0,0,3.811,1.755,4.814,4.814,0,0,0,3.611-2.212,4.365,4.365,0,0,0,.283-4.3c-.617-1.16-2.674-2.592-3.743-1.325-.437.519-.391,1.683-.823,2.326A4.067,4.067,0,0,1,3745.541,415.277Z" transform="translate(-50.027 -292.834)" fill="#f4d0cb"/><path d="M3806.682,204.06c1.635-5.657,3-11.894,2.1-17.358-2.831-3.456-8.62-8.323-20.1-8.323-8.052,0-14.08,4.974-15.477,7.039-1.474,2.18-1.046,5.236-.667,7.815-.243,4.8,2.5,17.271-1.626,24.408-3.24,5.6-3.612,18.509-2.7,20.3l38.723,3.224c.055-.709,0-9.8,0-10.488Q3806.808,217.366,3806.682,204.06Z" transform="translate(-68.686 -109.273)" fill="#f7f7f7" fill-rule="evenodd"/><path d="M3942.007,223.876a33.059,33.059,0,0,0-14.719-11.668c-1.062-.424-2.407-.745-3.238.04a2.126,2.126,0,0,0-.566,1.718,5.983,5.983,0,0,0,.524,1.787A153.436,153.436,0,0,0,3934.241,235a26.171,26.171,0,0,0,3.892,5.433,8.811,8.811,0,0,0,5.925,2.763c1.17.009,2.932-.382,3.605-1.47.541-.875.108-2.434-.018-3.366a33.186,33.186,0,0,0-2.806-9.566A32.57,32.57,0,0,0,3942.007,223.876Z" transform="translate(-191.637 -135.641)" fill="#f4d0cb"/><path d="M4023.546,276.631a.539.539,0,0,1,.063.122C4023.589,276.712,4023.566,276.672,4023.546,276.631Z" transform="translate(-270.664 -186.864)" fill="#18898d" fill-rule="evenodd"/><path d="M3918,200.56c-.346-1.111-.61-2.472.2-3.311.85-.884,3.124-.65,4.276-.229,6.983,2.549,12.215,7.613,16.085,13.953l-13.124,5.7A68.567,68.567,0,0,1,3918,200.56Z" transform="translate(-187.052 -123.698)" fill="#bcbcbc" fill-rule="evenodd"/><path d="M3927.706,354.782a2.452,2.452,0,0,0,2.131,2.285c1.121.2,18.03-13.794,20.3-17.084.691-1,1.409-2.205,1.025-3.359a3.5,3.5,0,0,0-2.482-1.915,11.171,11.171,0,0,0-5.715-.4c-1.241.314-1.572,1.472-2.243,2.426C3938.257,340.241,3927.739,354.054,3927.706,354.782Z" transform="translate(-194.978 -232.241)" fill="#f4d0cb"/><g transform="translate(3715.207 50.815)"><path d="M3847.9,128.615c2.267-3.47,6.3-4.283,8.222-3.45-.727,6.5-.243,9.382,2.25,12.925-5.21,2.03-12.845,1.652-13.98,0C3844.493,137.57,3846.724,130.409,3847.9,128.615Z" transform="translate(-3844.389 -117.826)" fill="#f4d0cb"/><path d="M3855.211,94.227a5.4,5.4,0,0,0-9.094-.648c-2.268,2.959-2,10.272-.934,12,1.856,3.03,7.526,1.194,8.629-.554C3855.428,102.467,3856.674,97.087,3855.211,94.227Z" transform="translate(-3844.389 -91.397)" fill="#fce0d9"/><path d="M3895.885,127.745a3.419,3.419,0,0,1-1.23,2.246c-1.947,1.577-2.961-1.32-2.267-2.845C3893.215,125.327,3896.152,125.378,3895.885,127.745Z" transform="translate(-3882.121 -118.618)" fill="#fce0d9"/></g><path d="M3680.812,844.184a1.923,1.923,0,0,1,1.614-1.813,11.967,11.967,0,0,1,2.64-.059,7.127,7.127,0,0,0,6.118-3.777,1.8,1.8,0,0,1,.614-.817,1.185,1.185,0,0,1,1.279.235c.356.293.608.692.934,1.018a3.136,3.136,0,0,0,2.24.9c.691-.01,1.465-.538,2.128-.189.586.308.744,1.119.892,1.7.256,1,.488,2,.732,3a4.207,4.207,0,0,1,.123.681h-4.8a6.7,6.7,0,0,1-.5-1.607,3.793,3.793,0,0,1-.416,1.607h-13.186A1.482,1.482,0,0,1,3680.812,844.184Z" transform="translate(0 -629.877)" fill="#2d2c2a" fill-rule="evenodd"/><g transform="translate(3726.249 163.224)"><path d="M4001.925,815.487a12.026,12.026,0,0,1-5.146,1.635l-2.065-6.013a1.6,1.6,0,0,1-.129-.783,1.439,1.439,0,0,1,.739-.874c1.26-.794,3.295-1.713,4.034-.032C4000.243,811.429,4001.068,813.466,4001.925,815.487Z" transform="translate(-3974.032 -770.091)" fill="#f4d0cb"/><path d="M3896.9,631.925c-.072-4.01,4.124-8.917,9.7-3.766,8.981,8.292,12.32,24.807,16.274,37.007l-5.689,2.325C3916.336,666.588,3896.939,634.154,3896.9,631.925Z" transform="translate(-3896.899 -625.942)" fill="#0a3c5f" fill-rule="evenodd"/><path d="M3999.947,841.094a2.063,2.063,0,0,1-.029-1.946c.272-.332.26-1.92.167-4.212-.043-1.049,1.7-2.057,3.26-.861.507.388.92.606,1.251.458.277-.124.392-.741.794-.529a4.1,4.1,0,0,1,1.005,1.423c.481.88.955,1.77,1.432,2.654.106.2.215.4.308.609l-7.69,3.143A2.58,2.58,0,0,1,3999.947,841.094Z" transform="translate(-3978.077 -789.878)" fill="#2d2c2a" fill-rule="evenodd"/></g><path d="M3891.736,421.994c-.629.751,1.5,1.259,2.253,1.889l-6.037.322a1.532,1.532,0,0,0-1,.294,1.01,1.01,0,0,0-.13,1.16,2.448,2.448,0,0,0,.87.878,9.457,9.457,0,0,0,6.659,1.512,5.124,5.124,0,0,0,2.5-.986,2.716,2.716,0,0,0,1.056-2.374c-.185-1.383-1.23-1.407-2.273-1.675C3894.964,422.844,3891.951,421.738,3891.736,421.994Z" transform="translate(-162.598 -301.628)" fill="#f4d0cb"/><path d="M3841.91,96.956s5.957,4.76,12.249,1.363-10.852-3.791-10.852-3.791Z" transform="translate(-127.225 -43.055)" fill="#c1858e" opacity="0.41"/><ellipse cx="4.211" cy="9.133" rx="4.211" ry="9.133" transform="translate(3710.812 54.335) rotate(-80.68)" fill="#fff"/><g transform="translate(3710.995 60.513)"><g transform="translate(7.322)"><path d="M3867.35,140.574a6.253,6.253,0,0,1-2.7-.78c-2.745-1.373-4.02-.781-4.31-.277l-.578-.309-.585-.293c.054-.109,1.382-2.631,6.059-.293,1.258.629,2.227.8,2.728.495a1.251,1.251,0,0,0,.469-.945.655.655,0,1,1,1.309,0,2.507,2.507,0,0,1-1.09,2.059A2.437,2.437,0,0,1,3867.35,140.574Z" transform="translate(-3859.181 -137.518)" fill="#fff"/></g><g transform="translate(0 0)"><path d="M3826.368,140.576a1.851,1.851,0,0,1-.9-.221,2.583,2.583,0,0,1-1.1-2.181.655.655,0,0,1,1.31,0c0,.265.11.866.424,1.036s.977-.025,1.79-.548c1.429-.919,2.654-1.223,3.639-.9a2.205,2.205,0,0,1,1.355,1.215.655.655,0,0,1-1.221.475.925.925,0,0,0-.562-.452c-.408-.123-1.173-.09-2.5.765A4.3,4.3,0,0,1,3826.368,140.576Zm-.7-2.4h0Z" transform="translate(-3824.361 -137.519)" fill="#fff"/></g></g></g></g></svg>