<svg xmlns="http://www.w3.org/2000/svg" width="196" height="184" viewBox="0 0 196 184"><g transform="translate(-94 -149)"><circle cx="59.5" cy="59.5" r="59.5" transform="translate(102 185)" fill="#00bc8c" opacity="0.07"/><ellipse cx="98" cy="10.5" rx="98" ry="10.5" transform="translate(94 312)" fill="#e5e5e5"/><circle cx="59.5" cy="59.5" r="59.5" transform="translate(166 149)" fill="#ff9478" opacity="0.91"/><g transform="translate(-4352.678 133.388)"><g transform="translate(4498.678 51.399)"><path d="M4531.217,632.393c1.414,3.728,1.64,14.784,4.97,25.536.132.7-3.245,1.792-3.66,1.283-5.34-11.742-13.418-24.928-15.017-32.561-.533-2.547,2.073-8.159,5.206-6.05C4525.567,622.52,4530.043,629.3,4531.217,632.393Z" transform="translate(-4513.566 -528.86)" fill="#f4d0c9"/><path d="M4577.979,803.439a10.418,10.418,0,0,0-1.3-2.983,5.2,5.2,0,0,0-2.358-2.06c-.005.561-.246,1.413-.759,1.639-.406.179-2.788.117-3.119.41-.223.2.728,3.82.123,5.377,0,0-2.169,1.642-3.289,2.432a4.1,4.1,0,0,0-1.2,1.152,1.616,1.616,0,0,0-.113,1.593,1.038,1.038,0,0,0,.089.118l8.269-1.515,1.127-.443a10.786,10.786,0,0,0,.185-1.185q.248-2.127.5-4.254a16.456,16.456,0,0,1,2.17,4.317l1-.393Q4578.642,805.542,4577.979,803.439Z" transform="translate(-4532.779 -670.305)" fill="#e03f3f" fill-rule="evenodd"/><path d="M4534.2,405.048a25.933,25.933,0,0,1-.86,9.475c-2.258,9.808-6.569,24.039-11.026,33.064-.542,1.1-6.978,2.925-7.155,1.79-1.809-11.572.763-32.069,4.285-43.24a16.4,16.4,0,0,1,3.426-6.646C4527.951,394.226,4533.361,399.3,4534.2,405.048Z" transform="translate(-4511.281 -342.178)" fill="#f4d0c9"/><path d="M4615.025,634.988c.171,3.983-3.088,14.551-3.3,25.8-.095.707-3.645.682-3.878.068-1.381-12.826-4.907-27.882-4.025-35.631.294-2.586,4.531-7.095,6.842-4.108C4612.764,623.84,4614.884,631.681,4615.025,634.988Z" transform="translate(-4554.076 -528.86)" fill="#f4d0c9"/><path d="M4596.818,815.461a10.411,10.411,0,0,0-.114-3.25,5.2,5.2,0,0,0-1.44-2.78c-.211.52-.748,1.225-1.307,1.247-.443.018-2.636-.912-3.053-.76-.3.109-.784,4.369-2.105,5.272a28.9,28.9,0,0,1-4.324,2.074,4.1,4.1,0,0,0-1.387.917,1.615,1.615,0,0,0-.4,1.547,1.089,1.089,0,0,0,.068.133h9.617a10.747,10.747,0,0,0,.606-1.035l2.019-3.777a16.467,16.467,0,0,1,.439,4.812h1.074Q4596.665,817.661,4596.818,815.461Z" transform="translate(-4540.67 -679.061)" fill="#f73c3c" fill-rule="evenodd"/><path d="M4544.364,402.62c2.527,3.132,10.145,5.689,12.3,4.347,11.789-7.339,11.648-5.95,12.546-9.518.7-2.766-.8-5.562-2.234-8.025-1.283-2.2-14.472-4.251-20.4-2.708-1.2.313-3.059-.112-3.561,1.063-.959,2.245-1.583,4.394-3.049,8.1C4539.138,397.968,4541.976,399.658,4544.364,402.62Z" transform="translate(-4491.11 -329.451)" fill="#222b56" fill-rule="evenodd"/><path d="M4603.451,392.877c-4.193-5.738-14.122-4.794-17.163,2.671-3.362,8.259.763,40.822,2.652,47.113.86,1.636,8.25,4.655,9.583,1.574.99-9.629,3.929-27.532,5.364-32.408C4604.967,408.162,4607.8,398.829,4603.451,392.877Z" transform="translate(-4526.97 -335.924)" fill="#f4d0c9"/><path d="M4501.833,222.8c-.246.77,4.665,1.517,5.34.914,6.266-5.58,14.215-13.291,18.231-20.657.691-1.267-2.368-5.657-2.185-7.089C4516.473,197.924,4504.034,215.926,4501.833,222.8Z" transform="translate(-4501.174 -171.735)" fill="#f9f9f9" fill-rule="evenodd"/><path d="M4514.392,426.412c6.627,2.266,64.876,3.829,72.673,4.954-.643-6.305-.305-16.558,1.9-22.782,1.261-3.557,2.99-7.142,2.244-10.732s-4.541-7.286-11.417-8.764c-7.19-1.545-15.5-.332-23.38-.289a74.98,74.98,0,0,1-11.741-.858c-2.825-.435-6.492-1.791-9.544-1.205-2.871.551-4.218,2.507-5.464,3.7C4527.61,392.413,4512.733,412.592,4514.392,426.412Z" transform="translate(-4511.044 -332.195)" fill="#0a3c5f" fill-rule="evenodd"/><path d="M4554.906,219.905c-.649-4.382-2.3-8.679-1.976-13.1.256-3.487,3.124-6.405,4.95-9.652.867-1.54.375-4.115,1.416-5.406,2.149-2.663,5.266-3.1,8.523-4.149,8.915-2.879,11.226,10.456,10.857,13.393s-2.209,7.061-2.739,9.973c-1.356,7.456-1.311,13.5,1.41,20.571.124.323-17.5,2.626-20.793,1.963-3.342-.673-3.769-1.918-2.624-4.873A16.694,16.694,0,0,0,4554.906,219.905Z" transform="translate(-4501.482 -165.241)" fill="#a30042" fill-rule="evenodd"/><path d="M4504.044,308.708c6.971-.709,19.634,1.049,24.224,1.337-.19,5.32-26.58,6.424-28.282,4.647C4496.124,310.66,4501.825,308.934,4504.044,308.708Z" transform="translate(-4498.678 -264.121)" fill="#f4d0c9"/><path d="M4658.1,217.4q.327,12.521.654,25.042a3.127,3.127,0,0,0,.485,1.938c.885,1.083,2.844.709,3.757-.35,3.939-4.569,5.575-22.685,4.353-25.973a11.612,11.612,0,0,0-5.644-6.6C4657.961,209.769,4658.025,214.482,4658.1,217.4Z" transform="translate(-4584.949 -184.612)" fill="#fff" fill-rule="evenodd"/><path d="M4538.893,304.028c1.348-.9,25.7,6.315,29.83,10.277,1.125,1.079-.385,4.05-2.488,4.366a12.815,12.815,0,0,1-4.662-.5C4552.111,315.421,4534.848,307.264,4538.893,304.028Z" transform="translate(-4489.898 -260.765)" fill="#f4d0c9"/><path d="M4609.778,151.275a13.564,13.564,0,0,1-.365,5.985,2.13,2.13,0,0,0-.018,1.8,1.977,1.977,0,0,0,1.623.57,9.357,9.357,0,0,0,2.972-.223,3.166,3.166,0,0,0,2.173-1.888,4.7,4.7,0,0,0-.081-2.44l-.985-4.638a2.667,2.667,0,0,0-.514-1.273,1.824,1.824,0,0,0-2.154-.223,5.325,5.325,0,0,0-1.654,1.615Z" transform="translate(-4560.509 -128.608)" fill="#f4d0c9"/><path d="M4585.272,65.643c.05-.024.1-.04.151-.068a2.122,2.122,0,0,0-.1-3.733,2.106,2.106,0,0,0-1.193-3.114,2.125,2.125,0,0,0-2.963-2.792l-.008.006-.029-.018a2.123,2.123,0,1,0-3.533-1.931,1.843,1.843,0,0,0-.938.427,2.1,2.1,0,0,0-.243-.682,2.126,2.126,0,0,0-2.9-.778,2.241,2.241,0,0,0-.255.184,2.1,2.1,0,0,0-.242-.682,2.122,2.122,0,0,0-3.881,1.639,2.573,2.573,0,0,1-3.277.561,2.12,2.12,0,0,0-1.051,1.961,2.115,2.115,0,0,0-.722,2.717,2.12,2.12,0,0,0-1.511,2.025,2.125,2.125,0,0,0-1.165,3.9,2.042,2.042,0,0,0,.667,1.288,2.113,2.113,0,0,0,1.622,3.109,2.184,2.184,0,0,0,.105.234,2.127,2.127,0,1,0,3.291-2.606c.013-.007.027-.011.04-.018a2.12,2.12,0,0,0,1.021-2.217,2.122,2.122,0,0,0,.462-1.208,2.077,2.077,0,0,0,.55-.217,2.119,2.119,0,0,0,1.051-1.963,2.263,2.263,0,0,0,.257-.19,2.1,2.1,0,0,0,2.782-1.613,2.112,2.112,0,0,0,.9.415,2.092,2.092,0,0,0,1.7,2.127,2.1,2.1,0,0,0,2.583,2.115,1.977,1.977,0,0,0,.645,1.185,2.131,2.131,0,0,0-.249,1.01,2.106,2.106,0,0,0,.543,3.684,2.043,2.043,0,0,0,.158.35A2.123,2.123,0,0,0,4583.5,69.5a2.123,2.123,0,0,0,1.777-3.855Z" transform="translate(-4507.481 -51.399)" fill="#f2ecd6"/><path d="M4594.271,109.707a9.3,9.3,0,0,1-.736-3.247,16.874,16.874,0,0,1-.039-4.591,5.849,5.849,0,0,1,2.254-3.877,6.1,6.1,0,0,1,5.346-.417,5.685,5.685,0,0,1,3.591,3,7.894,7.894,0,0,1,.415,2.578,9.533,9.533,0,0,1-.241,3.382,6.2,6.2,0,0,1-2.24,2.965,14.835,14.835,0,0,1-3.321,1.771,6.624,6.624,0,0,1-2.088.59C4595.767,111.951,4594.87,110.91,4594.271,109.707Z" transform="translate(-4548.271 -87.71)" fill="#f4d7d0"/><path d="M4640.071,132.01a2.351,2.351,0,0,1,.876-.169,1.085,1.085,0,0,1,.8.356,1.3,1.3,0,0,1,.157,1.152,1.882,1.882,0,0,1-2.165,1.487,1.271,1.271,0,0,1-.948-1.625A1.753,1.753,0,0,1,4640.071,132.01Z" transform="translate(-4580.281 -115.227)" fill="#f4d7d0"/><path d="M4631.349,300.56c.9,1.308-2.157,2.076-1.954,2.875.178.694,4.512.8,5.542,1.063a1.52,1.52,0,0,1,1.249.948,1.789,1.789,0,0,1-.519,1.586,4.1,4.1,0,0,1-3.332,1.269,11.636,11.636,0,0,1-3.476-.951,5.468,5.468,0,0,1-1.724-.924,2.851,2.851,0,0,1-.2-3.957C4628.037,301.4,4630.046,301.09,4631.349,300.56Z" transform="translate(-4559.675 -257.562)" fill="#f4d0c9"/><path d="M4503.278,299.082a11.329,11.329,0,0,1,3.3-1.369c-.661.655-2.048,2.316-1.667,2.922.37.588,2.1-1.835,2.8-1.936,1.364-.2,2.871.521,4.152-.107.965-.473,1.628-1.833.845-2.679C4509.209,292.129,4503.72,295.886,4503.278,299.082Z" transform="translate(-4502.328 -252.334)" fill="#f4d0c9"/><g transform="translate(42.086 12.616)"><g transform="translate(0 0.175)" opacity="0.23"><ellipse cx="1.687" cy="1.687" rx="1.687" ry="1.687" transform="translate(0 3.285) rotate(-76.718)" fill="#d6d6d6"/></g><g transform="translate(5.309 0)" opacity="0.23"><ellipse cx="1.687" cy="1.687" rx="1.687" ry="1.687" transform="translate(0 1.292) rotate(-22.5)" fill="#d6d6d6"/></g><path d="M4598.371,113.989a1.9,1.9,0,0,0-1.807,1.327,1.426,1.426,0,0,0-1.093-.447,1.322,1.322,0,0,0-.794.4,1.889,1.889,0,1,0,.1.612c0-.03,0-.059,0-.089a1.124,1.124,0,0,1,.734-.514,1.231,1.231,0,0,1,.97.54c0,.021,0,.042,0,.063a1.894,1.894,0,1,0,1.894-1.894Zm-5.484,3.375a1.481,1.481,0,1,1,1.48-1.481A1.482,1.482,0,0,1,4592.886,117.364Zm5.484,0a1.481,1.481,0,1,1,1.48-1.481A1.483,1.483,0,0,1,4598.371,117.364Z" transform="translate(-4590.856 -113.678)"/></g></g><path d="M4603.236,91.931l.415-3.32-.415-3.735-4.15-2.49-4.565-1.66h-3.735l-2.074,1.66-1.661,2.9v3.735l1.528-.238a2.052,2.052,0,0,0,2.521-2.064,2.045,2.045,0,0,0,1.661-2.076,2.068,2.068,0,0,0,.881-.405,2.049,2.049,0,0,0,2.715,1.574,2.185,2.185,0,0,0,.251.185,2.068,2.068,0,0,0,1.025,1.916,2.031,2.031,0,0,0,.536.212,2.08,2.08,0,0,0,.45,1.179,2.069,2.069,0,0,0,1,2.164c.013.007.027.011.039.017" transform="translate(-41.882 -23.27)" fill="#f2ecd6"/><path d="M4606.6,147.138a1.058,1.058,0,0,0-1.322.259.8.8,0,0,1-.221.274h0a3.4,3.4,0,0,0,3.086,0m0,0h0s-.037,0-.221-.274a1.077,1.077,0,0,0-1.322-.259" transform="translate(-62.046 -75.86)" fill="#ff99b4"/></g></g></svg>