<svg xmlns="http://www.w3.org/2000/svg" width="269" height="108" viewBox="0 0 269 108"><g transform="translate(-53 -218)"><ellipse cx="134.5" cy="10.5" rx="134.5" ry="10.5" transform="translate(53 305)" fill="#e5e5e5"/><g transform="translate(-196.017 -247.597)"><rect width="177.777" height="74.179" transform="translate(295.017 488.228)" fill="#ffa724"/><rect width="151.348" height="45.262" transform="translate(308.232 465.597)" fill="#ff9961"/><rect width="149.606" height="51.548" transform="translate(309.102 510.858)" fill="#e6e6e6"/><rect width="158.924" height="7.544" transform="translate(304.444 512.116)" fill="#b3b3b3"/><rect width="158.924" height="7.544" transform="translate(304.444 510.858)" fill="#ccc"/><rect width="142.661" height="28.208" transform="translate(312.575 474.124)" fill="#f9f0d8"/><rect width="23" height="137" transform="translate(452.677 476.5) rotate(90)" fill="none" stroke="#f2a43b" stroke-miterlimit="10" stroke-width="1"/><rect width="31.675" height="37.089" transform="translate(336.568 523.317)" fill="#87b8e2"/><path d="M358.1,523.317H336.568v15.576Z" fill="#b5d0ec"/><line x1="0.09" y2="34.724" transform="translate(352.207 523.491)" fill="#ccc" stroke="#e6e6e6" stroke-miterlimit="10" stroke-width="1.072"/><rect width="31.675" height="37.089" transform="translate(399.568 523.317)" fill="#87b8e2"/><path d="M421.1,523.317H399.568v15.576Z" fill="#b5d0ec"/><line x1="0.09" y2="36.868" transform="translate(415.207 523.491)" fill="#ccc" stroke="#e6e6e6" stroke-miterlimit="10" stroke-width="1.105"/><rect width="152.417" height="2.514" transform="translate(307.697 555.701)" fill="#ccc"/><rect width="152.417" height="2.514" transform="translate(307.697 560.73)" fill="#ccc"/><rect width="152.417" height="2.515" transform="translate(307.697 558.216)" fill="#b3b3b3"/><path d="M372.763,545.829c-.3.3-.7.394-.892.2s-.114-.593.183-.9.7-.394.893-.2S373.06,545.525,372.763,545.829Z" fill="#eab995"/><rect width="1.591" height="3.184" transform="matrix(0.985, 0.175, -0.175, 0.985, 375.68, 540.065)" fill="#b47d4f"/><path d="M373.437,545.637l-1.295-.661,3.268-2.246,1.295.661Z" fill="#b47d4f"/><rect width="2.293" height="5.048" transform="translate(375.874 545.637) rotate(24.434)" fill="#64666b"/><rect width="2.293" height="5.048" transform="translate(373.874 550.213) rotate(2.302)" fill="#64666b"/><rect width="2.293" height="5.048" transform="matrix(0.97, -0.241, 0.241, 0.97, 377.719, 546.372)" fill="#64666b"/><rect width="2.293" height="5.048" transform="matrix(0.808, -0.589, 0.589, 0.808, 378.994, 551.2)" fill="#64666b"/><path d="M375.763,555.266h-2.83a.4.4,0,0,0-.4.4h0a.4.4,0,0,0,.4.4h2.83a.4.4,0,0,0,.4-.4h0A.4.4,0,0,0,375.763,555.266Z" fill="#814b1b"/><path d="M381.631,555.974l2.306-1.641a.4.4,0,0,0,.1-.561h0a.4.4,0,0,0-.561-.095l-2.307,1.64a.405.405,0,0,0-.1.562h0A.405.405,0,0,0,381.631,555.974Z" fill="#814b1b"/><path d="M375.874,545.581c.291,1.285.887,2.419,1.959,2.419h.211c1.074,0,1.7-1.044,1.989-2.333C378.664,545.671,377.236,545.583,375.874,545.581Z" fill="#64666b"/><path d="M380.177,545.348v-4.79a2.437,2.437,0,0,0-2.34-2.558h-.231c-1.424,0-2.028,1.251-2.028,2.557l.281,4.7c0,.23-.262.744-.2.744h4.656C380.388,546,380.177,545.577,380.177,545.348Z" fill="#996233"/><path d="M380.332,547.891c.039.5-.191.923-.512.949s-.614-.36-.653-.859.19-.923.512-.949S380.293,547.392,380.332,547.891Z" fill="#eab995"/><path d="M381.294,542.585l-1.462,1.173-2.349-2.927a1.624,1.624,0,0,1,1.462-1.173Z" fill="#b47d4f"/><path d="M380.685,547.144l-1.591.635.544-4.641,1.591-.635Z" fill="#b47d4f"/><path d="M378.98,538.568a2.292,2.292,0,0,1-2.036,0v-1.959h2.036Z" fill="#efc0a9"/><path d="M379.6,535.1c0,1.095-.76,2.365-1.7,2.365-.318,0-1.251.236-1.505,0-.5-.459-.191-1.641-.191-2.365a1.7,1.7,0,0,1,3.392,0Z" fill="#efc0a9"/><path d="M376.327,536.5l-.831-.366.812-1.251.612.269Z" fill="#efc0a9"/><path d="M376.161,533.79a2.155,2.155,0,0,1,3.44,0,2.294,2.294,0,0,1,0,2.676c-.432.322-.65-.286-.86-.927C376.921,534.6,375.933,534.637,376.161,533.79Z" fill="#57453f"/><path d="M425.345,546.495c.157.378.482.6.726.5s.315-.491.158-.869-.483-.6-.727-.5S425.187,546.116,425.345,546.495Z" fill="#eab995"/><rect width="1.536" height="3.075" transform="translate(424.173 543.292) rotate(-168.25)" fill="#0072bf"/><path d="M424.809,546.081l1.4-.128-2.123-3.186-1.4.128Z" fill="#f47f00"/><path d="M425.457,541.273c0-.381-.276-.512-.624-.917a1.946,1.946,0,0,0-2.15-1.356h-.2a2.03,2.03,0,0,0-2.289,1.953c.233,0,.847,4.911.235,5.1a8.124,8.124,0,0,0,4.456-.136,2.4,2.4,0,0,0,.029-.658c-.67-.37-.568-1.652-.325-3A.964.964,0,0,0,425.457,541.273Z" fill="#ff9300"/><path d="M421.7,539.071c.325.173.585.621,1.056.768.867.271.924-.016.862-.492l-.054-.417v-1.5h-1.734C422.059,538.178,422.23,538.885,421.7,539.071Z" fill="#efc0a9"/><path d="M420.976,535.978c0,1.057.733,2.283,1.638,2.283.306,0,1.207.228,1.453,0,.478-.443.184-1.585.184-2.283a1.64,1.64,0,0,0-3.275,0Z" fill="#efc0a9"/><path d="M424.137,537.329l.663-.568-.645-.993-.591.26Z" fill="#efc0a9"/><path d="M424.3,534.709a2.08,2.08,0,0,0-3.321,0,2.213,2.213,0,0,0,0,2.583c.416.312.627-.276.83-.9C423.564,535.493,424.517,535.527,424.3,534.709Z" fill="#4b2900"/><path d="M421.062,535.8c.2.4-.136.2-.236.595-.174.689-.382,1.945-1.151,2.43l1.7.16a.811.811,0,0,0,.735-.375,2.212,2.212,0,0,0-.767-2.928Z" fill="#4b2900"/><path d="M425.5,555.154l1.238-.141-.55-4.843-1.617.294Z" fill="#eab995"/><path d="M427.75,555.905c-.124.2-.8.01-1.5-.427s-1.175-.952-1.051-1.153.8-.01,1.5.426S427.874,555.7,427.75,555.905Z" fill="#eab995"/><path d="M425.324,554.252c1.8,1.708,2.316.863,2.489,1.442.19.636-.636.542-2.636-.615v.758l-.121.019-.079-1.53Z" fill="#303030"/><path d="M417.485,553.519l.952.8,3.146-3.723-1.323-.975Z" fill="#eab995"/><path d="M418.481,555.669c-.231.047-.554-.573-.72-1.385s-.114-1.509.118-1.556.554.572.72,1.384S418.712,555.622,418.481,555.669Z" fill="#eab995"/><path d="M418.019,552.77c-.011,2.478,1.129,2.454.826,2.978-.333.574-1.587-.893-1.194-2.162l-.551.52-.265-.253.975-1.2Z" fill="#303030"/><path d="M424.91,545.216l1.68,4.717a9.509,9.509,0,0,1-7.123.468l1.177-4.73C422.456,546.074,423.94,546.011,424.91,545.216Z" fill="#ff9300"/><path d="M423.065,549.876h-1.944a1.12,1.12,0,0,1-1.116-1.116v-.2a1.12,1.12,0,0,1,1.116-1.116h1.944a1.108,1.108,0,0,1,.357.059,1.12,1.12,0,0,1,.76,1.057v.2A1.12,1.12,0,0,1,423.065,549.876Z" fill="#303030"/><path d="M423.071,547.446s.321-8.384-1.982-8.156c-2.127.212.038,8.156.038,8.156" fill="none" stroke="#303030" stroke-miterlimit="10" stroke-width="0.189"/><path d="M421.738,547.783c.108.471.441.8.745.727s.463-.508.355-.979-.442-.8-.746-.727S421.63,547.312,421.738,547.783Z" fill="#eab995"/><path d="M419.323,543.17l1.686.661,1.321-3.375a1.568,1.568,0,0,0-1.686-.66Z" fill="#f47f00"/><path d="M421.2,547.2l1.649.128-1.838-4.121-1.649-.128Z" fill="#f47f00"/><rect width="8.972" height="4.194" transform="translate(382.117 466.282)" fill="#f09822"/><rect width="9.756" height="4.561" transform="translate(296.45 536.613)" fill="#ef9316"/><rect width="9.756" height="4.561" transform="translate(461.617 540.487)" fill="#ef9316"/><rect width="8.492" height="3.97" transform="translate(445.318 503.156)" fill="#f09822"/><rect width="8.492" height="3.97" transform="translate(436.245 505.889)" fill="#f09822"/><rect width="9.756" height="4.561" transform="translate(461.617 498.597)" fill="#ef9316"/><rect width="8.972" height="4.194" transform="translate(390.967 469.929)" fill="#f09822"/><rect width="7.959" height="3.721" transform="translate(333.074 506.569)" fill="#f09822"/><rect width="7.959" height="3.721" transform="translate(323.477 503.893)" fill="#f09822"/><rect width="9.756" height="4.561" transform="translate(297.941 492.396)" fill="#ef9316"/><rect width="8.781" height="4.105" transform="translate(321.1 468.333)" fill="#f09822"/><rect width="9.234" height="4.317" transform="translate(446.001 466.526)" fill="#f09822"/></g></g></svg>