<svg xmlns="http://www.w3.org/2000/svg" xmlns:xlink="http://www.w3.org/1999/xlink" width="253" height="161.748" viewBox="0 0 253 161.748"><defs><linearGradient id="a" x1="0.757" y1="-0.318" x2="0.584" y2="1.031" gradientUnits="objectBoundingBox"><stop offset="0" stop-color="#ffaf00"/><stop offset="1" stop-color="#ff9283"/></linearGradient></defs><g transform="translate(-63 -139)"><g transform="translate(1972.576 -596.258)" opacity="0.71"><circle cx="23.019" cy="23.019" r="23.019" transform="translate(-1793.75 811.934)" fill="url(#a)"/></g><g transform="translate(0 -6)" opacity="0.51"><ellipse cx="126.5" cy="15.874" rx="126.5" ry="15.874" transform="translate(63 275)" fill="#e5e5e5"/></g><circle cx="59.5" cy="59.5" r="59.5" transform="translate(88 143)" fill="#00bc8c" opacity="0.19"/><circle cx="48" cy="48" r="48" transform="translate(184 139)" fill="#ff9478" opacity="0.72"/><g transform="translate(32.68 -413.385)"><rect width="169.446" height="5.343" transform="translate(70.32 618.645)" fill="#ccc"/><g transform="translate(77.009 624.014)"><g transform="translate(7.853 5.094)"><rect width="4.555" height="58.619" transform="translate(136.175)" fill="#cecdcc"/><rect width="4.554" height="58.619" fill="#cecdcc"/></g><g transform="translate(0 0)"><rect width="152.67" height="1.707" transform="translate(1.797 3.362)" fill="#ceccca"/><rect width="156.263" height="3.387" fill="#f2f2f2"/></g></g><g transform="translate(180.901 566.905)"><rect width="4.41" height="1.268" transform="translate(24.189 4.517)" fill="#fff"/><g transform="translate(24.145)"><path d="M761.267,568.592c.461-1.083,1.8-2.287,2.987-1.351,1.118.883.579,2.584,1.715,3.43.136.1.056.315-.106.195-.823-.613-.874-1.542-1.112-2.466a1.441,1.441,0,0,0-1.79-1.14,2.474,2.474,0,0,0-1.461,1.521c-.06.139-.288-.063-.234-.19Z" transform="translate(-761.259 -566.905)" fill="#f2f2f2"/></g><g transform="translate(45.057 20.142)"><path d="M868.666,670.246a3.273,3.273,0,0,0,2.2.535,11.773,11.773,0,0,1,2.4.174c2.237.534.923,3.146.211,4.418-.076.136-.3-.07-.234-.189.494-.882,1.287-2.164.992-3.231-.189-.684-1.08-.794-1.669-.846-1.207-.108-3.043.266-4.006-.667-.119-.115-.04-.336.106-.195Z" transform="translate(-868.503 -670.201)" fill="#f2f2f2"/></g><g transform="translate(0 1.49)"><path d="M637.57,580.154c-.281.379-.126.688.346.688H655.6a.86.86,0,0,0,.858-.858v-2.095a.86.86,0,0,0-.858-.858H640.753a1.931,1.931,0,0,0-1.37.688Z" transform="translate(-637.43 -576.547)" fill="#fff"/><path d="M730.934,579.328a2.966,2.966,0,0,0,1.509.484h4.18a.86.86,0,0,0,.857-.858v-3.547a.86.86,0,0,0-.857-.858H731.14a.86.86,0,0,0-.857.858v2.579A1.877,1.877,0,0,0,730.934,579.328Z" transform="translate(-712.178 -574.549)" fill="#e0dee0"/></g><rect width="0.817" height="24.884" transform="matrix(0.721, -0.693, 0.693, 0.721, 29.61, 7.731)" fill="#fff"/><rect width="0.817" height="26.861" transform="translate(29.061 4.204) rotate(-43.898)" fill="#fff"/><rect width="25.241" height="0.817" transform="translate(39.261 49.679) rotate(-72.731)" fill="#fff"/><rect width="26.861" height="0.817" transform="translate(40.97 51.398) rotate(-72.733)" fill="#fff"/><rect width="3.07" height="1.756" transform="translate(39.272 52.212)" fill="#ccc"/><path d="M832.047,817.589a.982.982,0,0,0,.98.98h3.757a.982.982,0,0,0,.98-.98v-3.308a.646.646,0,0,0-.922-.649l-3.871,1.388a1.5,1.5,0,0,0-.923,1.31Z" transform="translate(-794.099 -765.479)" fill="#fff"/><path d="M855.184,817.546a.331.331,0,1,0,.331-.331A.331.331,0,0,0,855.184,817.546Z" transform="translate(-812.724 -768.407)" fill="red"/><path d="M834.4,824.561a.331.331,0,1,0,.331-.331A.331.331,0,0,0,834.4,824.561Z" transform="translate(-795.991 -774.054)" fill="red"/><path d="M772.875,585.5c-.48.666-.2,1.278.611,1.361l3.553.36c.817.083,1.21-.462.873-1.21l-1.464-3.257a.789.789,0,0,0-1.485-.151Z" transform="translate(-746.274 -579.173)" fill="#fff"/><path d="M870.43,680.943c-.48.666-.2,1.278.612,1.361l3.553.361c.816.083,1.209-.462.872-1.211L874,678.2a.788.788,0,0,0-1.484-.151Z" transform="translate(-824.807 -656.006)" fill="#fff"/><path d="M872.951,696.1a.331.331,0,1,0,.331-.331A.331.331,0,0,0,872.951,696.1Z" transform="translate(-827.027 -670.64)" fill="red"/><path d="M883.953,681.177a.331.331,0,1,0,.331-.331A.331.331,0,0,0,883.953,681.177Z" transform="translate(-835.884 -658.629)" fill="red"/><path d="M891.6,697.585a.331.331,0,1,0,.331-.331A.331.331,0,0,0,891.6,697.585Z" transform="translate(-842.038 -671.837)" fill="red"/><path d="M775.4,600.655a.331.331,0,1,0,.331-.331A.331.331,0,0,0,775.4,600.655Z" transform="translate(-748.493 -593.808)" fill="red"/><path d="M786.4,585.733a.331.331,0,1,0,.331-.331A.331.331,0,0,0,786.4,585.733Z" transform="translate(-757.349 -581.795)" fill="red"/><path d="M794.039,602.143a.331.331,0,1,0,.331-.331A.331.331,0,0,0,794.039,602.143Z" transform="translate(-763.502 -595.006)" fill="red"/><path d="M1.633,0H17.15a1.634,1.634,0,0,1,1.634,1.634v0a1.633,1.633,0,0,1-1.633,1.633H1.633A1.633,1.633,0,0,1,0,1.633v0A1.633,1.633,0,0,1,1.633,0Z" transform="translate(27.251 53.764)" fill="#fff"/></g><g transform="translate(161.573 599.523)"><rect width="4.929" height="24.336" transform="translate(23.034 55.664)" fill="#c4bcbb"/><g transform="translate(0 29.7)"><path d="M538.307,904.472a1.828,1.828,0,0,0,3.655,0V888.308a1.828,1.828,0,0,0-3.655,0Z" transform="translate(-538.307 -886.502)" fill="#322f33"/><path d="M781.1,904.472a1.828,1.828,0,0,0,3.656,0V888.308a1.828,1.828,0,0,0-3.656,0Z" transform="translate(-733.755 -886.502)" fill="#322f33"/></g><path d="M635.4,1022.694a1.878,1.878,0,0,0,1.933,1.806H646.6a1.878,1.878,0,0,0,1.933-1.806v-1.228a1.878,1.878,0,0,0-1.933-1.806h-9.265a1.878,1.878,0,0,0-1.933,1.806Z" transform="translate(-616.471 -963.996)" fill="#322f33"/><g transform="translate(1.349 90.534)"><g transform="translate(25.325)"><path d="M675.611,1201.017a.712.712,0,0,1-.456-.929l.448-1.128a.792.792,0,0,1,.994-.426l19.384,6.713a1.148,1.148,0,0,1,.714,1v2.913a.751.751,0,0,1-.772.722h-1.245a.751.751,0,0,1-.773-.722v-1.086a1.123,1.123,0,0,0-.725-.974Z" transform="translate(-675.107 -1198.489)" fill="#c4bcbb"/><path d="M765.164,1250.969a2.712,2.712,0,1,0,2.707-2.528A2.622,2.622,0,0,0,765.164,1250.969Z" transform="translate(-747.604 -1238.701)"/><path d="M770.387,1254.9a1.692,1.692,0,1,0,1.688-1.577A1.635,1.635,0,0,0,770.387,1254.9Z" transform="translate(-751.808 -1242.63)" fill="#a79daa"/></g><path d="M573.413,1201.017a.712.712,0,0,0,.457-.929l-.448-1.128a.792.792,0,0,0-.994-.426l-19.385,6.713a1.148,1.148,0,0,0-.714,1v2.913a.751.751,0,0,0,.773.722h1.245a.751.751,0,0,0,.773-.722v-1.086a1.123,1.123,0,0,1,.725-.974Z" transform="translate(-550.945 -1198.489)" fill="#c4bcbb"/><path d="M550.639,1250.969a2.712,2.712,0,1,1-2.706-2.528A2.622,2.622,0,0,1,550.639,1250.969Z" transform="translate(-545.227 -1238.701)"/><path d="M553.828,1254.9a1.691,1.691,0,1,1-1.688-1.577A1.635,1.635,0,0,1,553.828,1254.9Z" transform="translate(-549.434 -1242.63)" fill="#a79daa"/><rect width="3.084" height="7.215" transform="translate(22.607 3.062)" fill="#c4bcbb"/><path d="M660.608,1250.969a2.713,2.713,0,1,1-2.707-2.528A2.622,2.622,0,0,1,660.608,1250.969Z" transform="translate(-633.752 -1238.701)"/><ellipse cx="1.687" cy="1.577" rx="1.687" ry="1.577" transform="translate(22.461 10.692)" fill="#a79daa"/></g><path d="M4.617,0h0A4.616,4.616,0,0,1,9.233,4.616v6.544a4.617,4.617,0,0,1-4.617,4.617h0A4.616,4.616,0,0,1,0,11.161V4.617A4.617,4.617,0,0,1,4.617,0Z" transform="translate(20.882 78.753)" fill="#2b3056"/><path d="M553.747,985.9c-.794-1.292-.139-2.35,1.456-2.35h41.52c1.595,0,2.25,1.057,1.456,2.35l-2.7,4.391a5.638,5.638,0,0,1-4.343,2.349H560.786a5.639,5.639,0,0,1-4.343-2.349Z" transform="translate(-550.464 -934.931)" fill="#2b3056"/><g transform="translate(2.64 0)"><path d="M551.858,783.2a2.482,2.482,0,0,0,2.615,2.7h40.46a2.482,2.482,0,0,0,2.615-2.7l-4.89-46.316a3.2,3.2,0,0,0-3.184-2.7H559.931a3.2,3.2,0,0,0-3.184,2.7Z" transform="translate(-551.844 -734.188)" fill="#323d6b"/><rect width="18.54" height="51.203" transform="translate(13.589 0.505)" fill="#2d395e"/></g></g><g transform="translate(114.003 590.146)"><g transform="translate(0 0)"><g transform="translate(0)"><path d="M341.011,686.093H295.705a1.36,1.36,0,0,0-1.356,1.356V716.2a1.36,1.36,0,0,0,1.356,1.356h6.748V716.4h31.809v1.153h6.748a1.36,1.36,0,0,0,1.356-1.356V687.449A1.36,1.36,0,0,0,341.011,686.093Z" transform="translate(-294.349 -686.093)" fill="#4d4d4d"/></g><g transform="translate(0 30.612)"><g transform="translate(0 1.244)"><path d="M.993,0H47.025a.994.994,0,0,1,.994.994v0a.993.993,0,0,1-.993.993H.993A.993.993,0,0,1,0,.994v0A.993.993,0,0,1,.993,0Z" fill="#333"/></g><g transform="translate(8.24)"><path d="M.7,0H30.841a.7.7,0,0,1,.7.7V.965a.7.7,0,0,1-.7.7H.7a.7.7,0,0,1-.7-.7V.7A.7.7,0,0,1,.7,0Z" fill="#333"/></g></g><g transform="translate(2.273 1.909)"><rect width="43.473" height="26.645" fill="#00c2c3"/></g></g><g transform="translate(2.745 2.112)"><rect width="42.529" height="25.486" fill="#fff"/><g transform="translate(1.27 0.796)"><rect width="32.436" height="21.131" fill="#333"/></g><g transform="translate(3.412 19.693)"><rect width="28.153" height="0.751" fill="#6d6a69"/></g><g transform="translate(34.606 0.796)"><rect width="7.192" height="4.734" fill="#31be83"/></g><g transform="translate(34.606 5.994)"><rect width="7.192" height="4.734" fill="#aad585"/></g><g transform="translate(34.606 11.191)"><rect width="7.192" height="4.734" fill="#ff8c76"/></g><g transform="translate(34.606 16.388)"><rect width="7.192" height="4.734" fill="#00a99d"/></g><g transform="translate(34.606 21.586)"><rect width="7.192" height="3.9" fill="#fff079"/></g><g transform="translate(1.27 22.885)"><rect width="32.436" height="2.072" fill="#666"/></g><g transform="translate(2.186 2.005)"><rect width="30.604" height="16.75" fill="#4d4d4d"/></g></g></g></g></g></svg>