<svg xmlns="http://www.w3.org/2000/svg" width="202" height="156" viewBox="0 0 202 156"><g transform="translate(-94 -177)"><circle cx="59.5" cy="59.5" r="59.5" transform="translate(177 177)" fill="#00bc8c" opacity="0.07"/><ellipse cx="98" cy="10.5" rx="98" ry="10.5" transform="translate(94 312)" fill="#e5e5e5"/><circle cx="59.5" cy="59.5" r="59.5" transform="translate(94 197)" fill="#ff9478" opacity="0.07"/><g transform="translate(-3562.807 169.029)"><path d="M3844.362,52.17a3.605,3.605,0,0,0-1.077-1.006h0a3.632,3.632,0,0,0-1.466-.5,4.546,4.546,0,0,0-5.089-5.351A5.614,5.614,0,1,0,3825.686,47a5.879,5.879,0,0,0-2.17,6.732h0s1.36,7.412,13.2,5.127c1.709-.01,3.741,1.851,4.941,3.814a.939.939,0,0,0,1.7-.286,38.073,38.073,0,0,1,1.715-4.591A5.062,5.062,0,0,0,3844.362,52.17Z" transform="translate(-79.4)" fill="#fff"/><path d="M3753.955,472.672c-1.019,1.859-2.375,3.955-4.157,4.475-1.235.361-4.462-1.925-5.074-2.843s4.764-45.165,6.484-47.859c2.308-3.614,18.044,1.377,17.026,7.646-1.3,8.014-4.213,16.54-7.51,24.487A144.3,144.3,0,0,1,3753.955,472.672Z" transform="translate(-35.263 -348.772)" fill="#0a334c" fill-rule="evenodd"/><path d="M3766.242,501.65a5.6,5.6,0,0,0,1.293-1.948q6.875-14.454,12.555-29.436c1.056-2.786,2.1-5.723,1.7-8.676s-2.734-5.868-5.713-5.85c-2.636.016-4.717,2.178-6.3,4.287a54.862,54.862,0,0,0-10.776,30c-.115,2.336-.744,5.573-.1,7.862C3759.656,500.54,3763.56,503.925,3766.242,501.65Z" transform="translate(-43.089 -374.432)" fill="#0a334c" fill-rule="evenodd"/><path d="M3741.651,823.049a11.653,11.653,0,0,1-5.26-.425q.349-3.115.7-6.23a1.632,1.632,0,0,1,.216-.759,1.5,1.5,0,0,1,1.024-.519c1.454-.254,3.648-.333,3.6,1.469C3741.867,818.737,3741.741,820.895,3741.651,823.049Z" transform="translate(-34.226 -679.993)" fill="#f4d0cb"/><path d="M3739.281,616.062c2.031-3.677,7.39-6.2,10.184.181,4.261,9.727-5.68,27.922-6.5,39.668h-6.032C3736.682,654.774,3738.154,618.1,3739.281,616.062Z" transform="translate(-33.21 -519.175)" fill="#0a334c" fill-rule="evenodd"/><path d="M3827.109,422.457a8.269,8.269,0,0,1-5.232,1.334c-14.995,0-23.671-4.876-21.6-11.764,2.13-7.075,15.549-5.933,22.558-3.653,1.511.491,3.713.967,4.745,2.378C3829.078,412.8,3830.677,419.646,3827.109,422.457Z" transform="translate(-62.146 -322.717)" fill="#0a3c5f" fill-rule="evenodd"/><path d="M3741.454,203.029c-2.893,6.275-6.653,12.4-12.3,16.382-1.217.858-2.805,1.625-4.136.956a2.95,2.95,0,0,1-1.449-2.067,6.858,6.858,0,0,1,.076-2.594c1.206-6.744,5.554-12.438,9.78-17.83,1.74-2.221,4.474-6.284,7.551-6.673,3.206-.405,2.9,4.473,2.471,6.347A28.243,28.243,0,0,1,3741.454,203.029Z" transform="translate(-33.86 -134.198)" fill="#f4d0cb"/><path d="M3764.184,181.359c-.859-.885-6.84.714-7.928,1.136-6.594,2.557-10.816,8.087-14.237,14.443l11.533,5.191C3756.352,197.1,3765,182.2,3764.184,181.359Z" transform="translate(-34.191 -124.506)" fill="#bcbcbc" fill-rule="evenodd"/><path d="M3856.166,434.648c-1.312-6.171-7.092-7.144-11.91-5.889a10.331,10.331,0,0,0-2.875,1.251,6,6,0,0,0-4.958,1.994,10.449,10.449,0,0,0-2.4,5.043c-1.068,5.112.286,10.408,2.006,15.339a102.592,102.592,0,0,0,4.985,11.839,122.843,122.843,0,0,0,5.8,11.2c.232.359,9.12-.121,9.445-2.02a112.433,112.433,0,0,0,1.509-14.307A99.626,99.626,0,0,0,3856.166,434.648Z" transform="translate(-83.909 -349.898)" fill="#0a3c5f" fill-rule="evenodd"/><path d="M3733.716,325.811c.152,1.019.246,2.22-.512,2.919a2.156,2.156,0,0,1-2.44.133c-.763-.417-11.182-17.529-10.744-22.273.221-2.388,2.117-3.376,4.262-3.286C3727.269,303.43,3733.16,322.1,3733.716,325.811Z" transform="translate(-31.109 -233.124)" fill="#f4d0cb"/><path d="M3745.515,415.2c-.457.144-.994.244-1.24.655a1.362,1.362,0,0,0,.239,1.423,4.245,4.245,0,0,0,3.741,1.723,4.723,4.723,0,0,0,3.544-2.171,4.283,4.283,0,0,0,.278-4.219c-.606-1.139-2.624-2.544-3.673-1.3-.43.509-.384,1.652-.808,2.283A3.992,3.992,0,0,1,3745.515,415.2Z" transform="translate(-38.524 -324.647)" fill="#f4d0cb"/><path d="M3805.964,203.586c1.6-5.553,2.946-11.674,2.061-17.038-2.779-3.393-8.461-8.17-19.728-8.17-7.9,0-13.82,4.882-15.191,6.909-1.446,2.14-1.026,5.14-.655,7.671-.239,4.715,2.457,16.953-1.6,23.958-3.18,5.5-3.545,18.167-2.65,19.921L3806.214,240c.055-.7,0-9.624,0-10.3Q3806.088,216.647,3805.964,203.586Z" transform="translate(-37.441 -126.635)" fill="#f7f7f7" fill-rule="evenodd"/><path d="M3941.664,223.653a32.446,32.446,0,0,0-14.447-11.453c-1.042-.416-2.362-.731-3.178.039a2.087,2.087,0,0,0-.555,1.686,5.863,5.863,0,0,0,.514,1.754,150.642,150.642,0,0,0,10.044,18.891,25.708,25.708,0,0,0,3.82,5.333,8.649,8.649,0,0,0,5.816,2.712c1.148.009,2.878-.375,3.539-1.443.531-.859.106-2.389-.017-3.3a32.6,32.6,0,0,0-2.754-9.389A31.936,31.936,0,0,0,3941.664,223.653Z" transform="translate(-133.501 -152.637)" fill="#f4d0cb"/><path d="M4023.546,276.631a.552.552,0,0,1,.062.119C4023.588,276.71,4023.566,276.671,4023.546,276.631Z" transform="translate(-212.916 -206.254)" fill="#18898d" fill-rule="evenodd"/><path d="M3918,200.488c-.339-1.09-.6-2.427.193-3.25.834-.868,3.066-.638,4.2-.225,6.854,2.5,11.99,7.472,15.788,13.7l-12.882,5.591A67.308,67.308,0,0,1,3918,200.488Z" transform="translate(-128.893 -138.103)" fill="#bcbcbc" fill-rule="evenodd"/><path d="M3927.706,354.4a2.407,2.407,0,0,0,2.091,2.243c1.1.193,17.7-13.539,19.925-16.769.678-.983,1.383-2.164,1.006-3.3a3.437,3.437,0,0,0-2.436-1.879,10.964,10.964,0,0,0-5.609-.392c-1.218.308-1.543,1.445-2.2,2.381C3938.062,340.128,3927.738,353.686,3927.706,354.4Z" transform="translate(-136.858 -259.788)" fill="#f4d0cb"/><g transform="translate(3747.606 50.615)"><path d="M3847.832,128.546c2.226-3.406,6.188-4.2,8.07-3.386-.713,6.375-.238,9.209,2.208,12.687-5.114,1.992-12.608,1.621-13.722,0C3844.49,137.335,3846.681,130.307,3847.832,128.546Z" transform="translate(-3844.389 -117.956)" fill="#f4d0cb"/><path d="M3855.011,94.174a5.3,5.3,0,0,0-8.926-.636c-2.226,2.9-1.958,10.082-.916,11.783,1.822,2.974,7.387,1.172,8.469-.544C3855.224,102.263,3856.447,96.982,3855.011,94.174Z" transform="translate(-3844.389 -91.397)" fill="#fce0d9"/><path d="M3895.816,127.71a3.356,3.356,0,0,1-1.208,2.2c-1.911,1.548-2.907-1.3-2.225-2.793C3893.2,125.337,3896.078,125.387,3895.816,127.71Z" transform="translate(-3882.306 -118.751)" fill="#fce0d9"/></g><path d="M3680.812,844.063a1.887,1.887,0,0,1,1.584-1.779,11.743,11.743,0,0,1,2.591-.058,7,7,0,0,0,6.006-3.707,1.767,1.767,0,0,1,.6-.8,1.162,1.162,0,0,1,1.255.23c.35.287.6.679.917,1a3.078,3.078,0,0,0,2.2.88c.678-.01,1.437-.528,2.088-.186.575.3.73,1.1.875,1.666.251.978.479,1.962.718,2.943a4.134,4.134,0,0,1,.121.668h-4.709a6.627,6.627,0,0,1-.491-1.577,3.717,3.717,0,0,1-.408,1.577h-12.943A1.455,1.455,0,0,1,3680.812,844.063Z" transform="translate(0 -697.955)" fill="#2d2c2a" fill-rule="evenodd"/><g transform="translate(3784.488 95.967)"><path d="M4001.789,815.358a11.806,11.806,0,0,1-5.052,1.605l-2.026-5.9a1.572,1.572,0,0,1-.126-.769,1.412,1.412,0,0,1,.726-.858c1.237-.78,3.234-1.682,3.96-.032C4000.138,811.375,4000.948,813.374,4001.789,815.358Z" transform="translate(-3974.411 -770.799)" fill="#f4d0cb"/><path d="M3896.9,631.815c-.07-3.936,4.047-8.752,9.523-3.7,8.816,8.139,12.092,24.35,15.974,36.325l-5.584,2.282C3915.977,665.838,3896.938,634,3896.9,631.815Z" transform="translate(-3896.898 -625.942)" fill="#0a3c5f" fill-rule="evenodd"/><path d="M3999.941,840.955a2.026,2.026,0,0,1-.028-1.91c.267-.326.254-1.884.164-4.135-.042-1.029,1.666-2.02,3.2-.846.5.381.9.595,1.228.449.272-.122.385-.728.78-.519a4.011,4.011,0,0,1,.986,1.4c.473.864.938,1.737,1.406,2.6.1.192.211.394.3.6l-7.548,3.085A2.555,2.555,0,0,1,3999.941,840.955Z" transform="translate(-3978.475 -790.683)" fill="#2d2c2a" fill-rule="evenodd"/></g><path d="M3891.644,421.994c-.618.737,1.474,1.236,2.211,1.854l-5.926.316a1.5,1.5,0,0,0-.979.289.992.992,0,0,0-.128,1.138,2.4,2.4,0,0,0,.854.862,9.28,9.28,0,0,0,6.535,1.484,5.024,5.024,0,0,0,2.449-.967,2.665,2.665,0,0,0,1.036-2.331c-.182-1.357-1.207-1.381-2.231-1.644C3894.812,422.827,3891.854,421.742,3891.644,421.994Z" transform="translate(-123.604 -333.999)" fill="#f4d0cb"/><path d="M3841.91,96.911s5.848,4.673,12.023,1.338-10.652-3.721-10.652-3.721Z" transform="translate(-95.497 -43.267)" fill="#c1858e" opacity="0.41"/><ellipse cx="4.134" cy="8.964" rx="4.134" ry="8.964" transform="translate(3741.85 54.071) rotate(-80.68)" fill="#fff"/><g transform="translate(3741.394 60.135)"><g transform="translate(7.187 0)"><path d="M3867.2,140.518a6.135,6.135,0,0,1-2.646-.766c-2.695-1.347-3.946-.767-4.231-.272l-.567-.3-.575-.287c.053-.107,1.357-2.582,5.947-.287,1.235.617,2.186.79,2.678.485a1.228,1.228,0,0,0,.46-.928.643.643,0,1,1,1.285,0,2.46,2.46,0,0,1-1.07,2.021A2.39,2.39,0,0,1,3867.2,140.518Z" transform="translate(-3859.18 -137.518)" fill="#fff"/></g><g transform="translate(0 0)"><path d="M3826.331,140.52a1.819,1.819,0,0,1-.886-.217,2.536,2.536,0,0,1-1.084-2.141.643.643,0,0,1,1.285,0c0,.26.108.85.417,1.017s.959-.024,1.757-.538c1.4-.9,2.6-1.2,3.572-.885a2.161,2.161,0,0,1,1.33,1.193.643.643,0,0,1-1.2.466.912.912,0,0,0-.552-.444c-.4-.12-1.152-.088-2.457.751A4.219,4.219,0,0,1,3826.331,140.52Zm-.685-2.358h0Z" transform="translate(-3824.361 -137.519)" fill="#fff"/></g></g></g></g></svg>