<svg xmlns="http://www.w3.org/2000/svg" xmlns:xlink="http://www.w3.org/1999/xlink" width="196.143" height="188.971" viewBox="0 0 196.143 188.971"><defs><linearGradient id="a" x1="0.486" y1="0.394" x2="0.669" y2="1.818" gradientUnits="objectBoundingBox"><stop offset="0" stop-color="#ff9283"/><stop offset="1" stop-color="#ffaf00"/></linearGradient></defs><g transform="translate(-89.857 -149.924)"><ellipse cx="77.953" cy="77.953" rx="77.953" ry="77.953" transform="translate(89.857 149.924)" opacity="0.19" fill="url(#a)"/><g transform="translate(98.446 171.277)"><ellipse cx="93.777" cy="7.307" rx="93.777" ry="7.307" transform="translate(0 153.003)" fill="#baa4ff"/><g transform="translate(24.365 0)"><g transform="translate(67.607 0.401)"><path d="M133.214,324.139c-.043-.091-3.229-6.735-3.458-7.655a8.9,8.9,0,0,1-.412-3.791c.462-2.553,4.182-5.13,6.877-4.1,1.453.558,3.868,3.22,5.491.615,0,0,.515-2.066.91.175.495,2.805-.617,4.158-.617,4.158s4.337,6.984-.326,10.366C138.345,326.329,134.225,326.267,133.214,324.139Z" transform="translate(-129.263 -308.343)" fill="#ff5e4d"/></g><g transform="translate(67.115)"><path d="M133.223,324.147c-1.174-1.977-2.245-4-3.248-6.074a9.348,9.348,0,0,1-.686-1.648,16.5,16.5,0,0,1-.412-1.716,6.374,6.374,0,0,1-.052-1.846,4.672,4.672,0,0,1,.646-1.8,7.074,7.074,0,0,1,2.72-2.445,5.338,5.338,0,0,1,3.623-.542,5,5,0,0,1,1.634.833,13.465,13.465,0,0,0,1.421.9,1.956,1.956,0,0,0,2.854-.583,2.287,2.287,0,0,1-1.259,1.2,2.74,2.74,0,0,1-1.8-.158c-1.107-.421-2.04-1.268-3.016-1.418a4.825,4.825,0,0,0-3.006.63,6.24,6.24,0,0,0-2.3,2.125,3.623,3.623,0,0,0-.526,1.4,5.918,5.918,0,0,0,.017,1.576,15.811,15.811,0,0,0,.323,1.637,12.809,12.809,0,0,0,.538,1.555c.412,1.062.855,2.118,1.29,3.176C132.389,322.01,132.834,323.065,133.223,324.147Z" transform="translate(-128.781 -307.95)" fill="#fc877e"/></g><g transform="translate(66.276 48.264)"><g transform="translate(0)"><path d="M155.93,355.278c.057.292,4.632,5.856,8.9,12.759,4.718,7.632,4.085,15.571,4.135,28.457.052,13.587-7.32,54.581-7.747,67.377-.057,1.725-.889,2.232-1.2.121-1.945-13.245-12.377-84.681-12.377-84.681L143,461.852s-4.826,2.18-4.8,0c.153-14.59-11.355-74.263-10.148-81.418,2.534-15.007,5.407-19.16,5.764-23.224C136.467,358.162,151.178,358,155.93,355.278Z" transform="translate(-127.959 -355.278)" fill="#295a6e"/></g></g><g transform="translate(82.402 48.264)"><path d="M155.618,355.278c.057.292,4.632,5.856,8.9,12.759,4.718,7.632,4.085,15.571,4.135,28.457.052,13.587-7.32,54.581-7.747,67.377-.057,1.725-.889,2.232-1.2.121-1.945-13.245-12.377-84.681-12.377-84.681l-3.558-21.689.293-.017C148.58,357.329,153.292,356.61,155.618,355.278Z" transform="translate(-143.772 -355.278)" fill="#184056"/></g><g transform="translate(69.098 154.837)"><g transform="translate(0 1.727)"><path d="M130.747,464.509c-.31-3.029,2.79-2.053,4.7-2.8-.556.412-1.093.982-.155,1.174,1.372.28,4.286-.368,5.085-1.405a6.225,6.225,0,0,1,.584,2.388C141.015,464.758,130.922,466.221,130.747,464.509Z" transform="translate(-130.726 -461.48)" fill="#3b2b5b"/></g><g transform="translate(4.054)"><path d="M135.212,462.919c-.938-.192-.4-.762.155-1.174,1.184-.462,2.181-.8,2.4-.919a1.426,1.426,0,0,0,.694-.865l.6-.175s-.332.877.839,1.208c.2.056.28.317.392.519C139.5,462.551,136.583,463.2,135.212,462.919Z" transform="translate(-134.701 -459.786)" fill="#ff97a6"/></g></g><g transform="translate(56.799 21.524)"><path d="M136.142,329.057S121,333.3,118.682,342.909c-.4,1.643,6.354,3.688,6.354,3.688l8.508-10.468Z" transform="translate(-118.666 -329.057)" fill="#f8f7fd"/></g><g transform="translate(55.285 33.092)"><path d="M117.949,346.045c-.462,3.293-.682,10.344-.768,14.824-.076,3.98,6.421,2.879,6.421,2.879s2.457-4.4,2.5-6.347c.06-2.691-.147-11.939-.147-11.939S119.68,333.694,117.949,346.045Z" transform="translate(-117.18 -340.401)" fill="#f8f7fd"/></g><g transform="translate(69.278 18.543)"><g transform="translate(0)"><path d="M131.094,331.048c2.808-1.477,11.185-5.375,20.465-4.87,4.769.259,9.006,3.475,9.006,3.475s-5.228,23.48-4.692,26.2c-4.752,2.721-19.463,2.884-22.119,1.931a1.324,1.324,0,0,0-.088-.644C129.86,348.277,131.094,331.048,131.094,331.048Z" transform="translate(-130.903 -326.133)" fill="#f8f7fd"/></g></g><g transform="translate(79.712 16.368)"><g transform="translate(0 0)"><path d="M141.134,324Z" transform="translate(-141.134 -324.001)" fill="#3b2b5b"/></g></g><g transform="translate(27.333 91.213)"><rect width="2.778" height="69.04" fill="#dbcffd"/></g><g transform="translate(30.11 91.213)"><rect width="1.858" height="69.04" fill="#cbb3fc"/></g><g transform="translate(120.618 91.213)"><rect width="2.822" height="69.04" fill="#dbcffd"/></g><g transform="translate(123.44 91.213)"><rect width="1.888" height="69.04" fill="#cbb3fc"/></g><g transform="translate(4.189 91.213)"><rect width="1.859" height="69.04" fill="#cbb3fc"/></g><g transform="translate(1.411 156.398)"><rect width="30.557" height="3.855" fill="#cbb3fc"/></g><g transform="translate(97.105 91.213)"><rect width="1.888" height="69.04" fill="#cbb3fc"/></g><g transform="translate(94.283 156.398)"><rect width="31.045" height="3.855" fill="#cbb3fc"/></g><g transform="translate(1.411 91.213)"><rect width="2.778" height="69.04" fill="#dbcffd"/></g><g transform="translate(94.283 91.213)"><rect width="2.822" height="69.04" fill="#dbcffd"/></g><g transform="translate(7.696 70.189)"><rect width="8.449" height="6.428" fill="#cbb3fc"/></g><g transform="translate(4.727 70.189)"><ellipse cx="2.97" cy="2.97" rx="2.97" ry="2.97" fill="#dbcffd"/></g><g transform="translate(13.175 70.189)"><ellipse cx="2.97" cy="3.038" rx="2.97" ry="3.038" fill="#cbb3fc"/></g><g transform="translate(90.82 75.97)"><path d="M186.631,389.462h-34.6v-7.015h34.6a3.508,3.508,0,0,1,3.507,3.508h0A3.507,3.507,0,0,1,186.631,389.462Z" transform="translate(-152.027 -382.447)" fill="#30193b"/></g><g transform="translate(73.567 82.985)"><rect width="51.761" height="11.376" fill="#f99680"/></g><g transform="translate(0 75.97)"><path d="M164.5,389.462H66.475a3.508,3.508,0,0,1-3.508-3.507h0a3.508,3.508,0,0,1,3.508-3.508H164.5a3.508,3.508,0,0,1,3.507,3.508h0A3.507,3.507,0,0,1,164.5,389.462Z" transform="translate(-62.967 -382.447)" fill="#3b2b5b"/></g><g transform="translate(1.411 82.985)"><path d="M143.108,389.326H64.351V400.7H171.963V389.326Z" transform="translate(-64.351 -389.326)" fill="#ffad96"/></g><g transform="translate(6.3 71.762)"><ellipse cx="1.396" cy="1.396" rx="1.396" ry="1.396" fill="#cbb3fc"/></g><g transform="translate(114.871 49.334)"><rect width="3.252" height="26.635" fill="#3b2b5b"/></g><g transform="translate(116.821 50.961)"><rect width="3.054" height="25.009" fill="#30193b"/></g><g transform="translate(19.846 70.189)"><rect width="3.5" height="5.781" fill="#3b2b5b"/></g><g transform="translate(23.346 70.189)"><rect width="5.781" height="34.299" transform="translate(34.299 0) rotate(90)" fill="#30193b"/></g><g transform="translate(11.921 53.6)"><g transform="translate(28.914 11.083)"><path d="M119.631,371.379l-16.574,17.686a.157.157,0,0,0,.213.23l17.654-13.989.2-1.928,1.377-1.785Z" transform="translate(-103.01 -371.379)" fill="#aacbe8"/></g><g transform="translate(0 18.162)"><path d="M140.7,382.415H74.657l22.658-3.5,54.648-.594Z" transform="translate(-74.657 -378.321)" fill="#61bdd6"/></g><g transform="translate(45.47)"><path d="M125.068,360.644a3.659,3.659,0,0,0-3.749,1.038,4.426,4.426,0,0,0-.529,4.759l.409.635a2.446,2.446,0,0,1-.024,1.3,12.931,12.931,0,0,1-.949,1.7l-.98,1.627,2.874.187,2.962-4.1s2.152-1.1,2.555-2.833a3.77,3.77,0,0,0-.288-2.492A3.4,3.4,0,0,0,125.068,360.644Zm-.044,5.689c-1.108.8-2.38.729-3.015-.256a3.158,3.158,0,0,1,.69-3.945,2.475,2.475,0,0,1,3.33.657A2.623,2.623,0,0,1,125.024,366.333Z" transform="translate(-119.245 -360.511)" fill="#c43b72"/></g><g transform="translate(47.847 9.75)"><path d="M133.173,371.3a3.769,3.769,0,0,0-2.206-1.2c-1.756-.272-3.581,1.313-3.581,1.313l-4.779,1.093-1.031,2.859,1.874-.3a13.111,13.111,0,0,1,1.933-.246,2.441,2.441,0,0,1,1.212.462l.436.617a4.429,4.429,0,0,0,4.613,1.286,3.663,3.663,0,0,0,2.363-3.09A3.4,3.4,0,0,0,133.173,371.3Zm-1.429,4.438a3.159,3.159,0,0,1-3.918-.832c-.677-.958-.269-2.165.887-2.893a2.625,2.625,0,0,1,3.665.391A2.477,2.477,0,0,1,131.744,375.739Z" transform="translate(-121.576 -370.072)" fill="#c43b72"/></g><g transform="translate(24.128 12.063)"><path d="M122.16,375.305,98.492,381.68a.131.131,0,0,1-.1-.242l20.45-9.1,2.05.811,2.174-.685Z" transform="translate(-98.317 -372.34)" fill="#d5eaf5"/></g><g transform="translate(44.469 13.568)"><path d="M118.41,375.049a.779.779,0,1,0,.179-1.087A.778.778,0,0,0,118.41,375.049Z" transform="translate(-118.264 -373.816)" fill="#aacbe8"/></g></g><g transform="translate(59.132 53.296)"><g transform="translate(0)"><path d="M120.957,361.69s2.072,1.425,1.864.855-.029-.493-.029-.493.913.844,1.089.4a.859.859,0,0,0,.025-.708s1.26.886,1.454.4-.75-1.744-1.009-1.918S120.827,361.373,120.957,361.69Z" transform="translate(-120.953 -360.213)" fill="#ff97a6"/></g></g><g transform="translate(69.967 64.465)"><g transform="translate(0)"><path d="M136.26,372.338a3.994,3.994,0,0,1-1.9,1.851c-.832.278-1.716.273-1.747-.11s.7-.239.7-.239-1.405.37-1.451-.273c-.012-.183.943-.5.943-.5s-1.313.266-1.213-.041,1.838-.745,2.237-.75,1.439-1.066,2.241-1.114C136.359,371.149,136.577,371.694,136.26,372.338Z" transform="translate(-131.578 -371.166)" fill="#ff97a6"/></g></g><g transform="translate(73.877 22.063)"><path d="M160.475,363.622c-4.243,7.155-11.8,14.894-20.857,12.284-3.37-.971-4.206-5.443-4.206-5.443l15.35-11.426,6.073-22.894,3.641-6.558S166.777,353,160.475,363.622Z" transform="translate(-135.412 -329.585)" fill="#dbcffd"/></g><g transform="translate(11.921 75.855)"><path d="M140.7,430.668l-66.043-.724V382.335H140.7v48.333Z" transform="translate(-74.657 -382.335)" fill="#76d8df"/></g><g transform="translate(79.712 18.542)"><path d="M141.134,327.2s.437-.1.659-.154a35.1,35.1,0,0,1,9.563-.873c4.769.259,9.006,3.475,9.006,3.475s-5.228,23.48-4.692,26.2c-2.246,1.286-6.714,2-11.084,2.3-.254.017-.762.048-.762.048s-1.961-11.42-2.289-15.514C141.235,338.949,141.134,327.2,141.134,327.2Z" transform="translate(-141.134 -326.133)" fill="#dbcffd"/></g><g transform="translate(76.151 15.016)"><path d="M139.849,322.675s2.548,5.094,2.36,5.816a1.606,1.606,0,0,1-2.6.886c-1.256-1.076-1.964-6.006-1.964-6.006Z" transform="translate(-137.642 -322.675)" fill="#ff97a6"/><g transform="translate(0.222 1.17)"><path d="M141.579,326.405a3.493,3.493,0,0,1-2.955,1.172,22.159,22.159,0,0,1-.764-2.95l2.553-.8C140.765,324.56,141.216,325.531,141.579,326.405Z" transform="translate(-137.86 -323.822)" fill="#c95d77"/></g></g><g transform="translate(71.593 9.766)"><g transform="translate(0)"><path d="M135.03,325.195c-.749-.6-2.307-3.4-1.734-4.891a3.337,3.337,0,0,1,2.8-2.212,8.25,8.25,0,0,1,3-.534c1.081.169,1.646,1.358,2.086,2.233a7.052,7.052,0,0,1,.718,3.586,4.494,4.494,0,0,1-2.143,2.526C137.306,326.978,136.325,326.668,135.03,325.195Z" transform="translate(-133.173 -317.527)" fill="#ff97a6"/></g></g><g transform="translate(89.757 26.494)"><path d="M150.984,357.365c.395-3.986,1.092-7.908,1.863-11.816.8-3.9,1.68-7.789,2.863-11.619-.392,3.982-1.09,7.907-1.864,11.816C153.043,349.65,152.165,353.539,150.984,357.365Z" transform="translate(-150.984 -333.93)" fill="#eeeafe"/></g><g transform="translate(70.611 64.922)"><path d="M134.873,371.669a15.579,15.579,0,0,0-2.489,0c-.835.125,1.6.87,1.6.87l1.091-.87Z" transform="translate(-132.209 -371.614)" fill="#ff97a6"/></g><g transform="translate(88.006 49.334)"><rect width="4.361" height="31.869" transform="translate(31.869 0) rotate(90)" fill="#30193b"/></g><g transform="translate(84.753 49.334)"><rect width="3.252" height="26.635" fill="#3b2b5b"/></g><g transform="translate(88.006 50.961)"><rect width="3.054" height="25.009" fill="#30193b"/></g></g></g></g></svg>