<svg xmlns="http://www.w3.org/2000/svg" width="64.143" height="63.833" viewBox="0 0 64.143 63.833"><g transform="translate(0 0)"><rect width="44.021" height="40.019" transform="translate(10.291 11.287)" fill="#fff"/><g transform="translate(0 0)"><path d="M48.411,23.88H29.293a5.54,5.54,0,0,0-5.534,5.534V48.532a5.541,5.541,0,0,0,5.534,5.535H48.411a5.541,5.541,0,0,0,5.535-5.535V29.414A5.541,5.541,0,0,0,48.411,23.88ZM38.852,48.91a9.937,9.937,0,1,1,9.938-9.938A9.948,9.948,0,0,1,38.852,48.91Zm10.257-17.82a2.351,2.351,0,1,1,2.351-2.351A2.354,2.354,0,0,1,49.109,31.091Z" transform="translate(-6.78 -6.97)"/><path d="M42.587,36.971a5.738,5.738,0,1,0,5.738,5.737A5.745,5.745,0,0,0,42.587,36.971Z" transform="translate(-10.516 -10.706)"/><path d="M32.071,0A31.917,31.917,0,1,0,64.143,31.917,32,32,0,0,0,32.071,0ZM51.363,41.515A9.72,9.72,0,0,1,41.63,51.2H22.513a9.72,9.72,0,0,1-9.733-9.686V22.49A9.721,9.721,0,0,1,22.513,12.8H41.63a9.72,9.72,0,0,1,9.733,9.686Z" transform="translate(0 0)"/></g></g></svg>