<svg xmlns="http://www.w3.org/2000/svg" width="35.047" height="35.047" viewBox="0 0 35.047 35.047"><path d="M17.523,0A17.523,17.523,0,1,0,35.047,17.523,17.543,17.543,0,0,0,17.523,0Zm0,33.7A16.175,16.175,0,1,1,33.7,17.523,16.194,16.194,0,0,1,17.523,33.7Z" fill="#d6d6d6"/><path d="M29.282,16.2a.673.673,0,0,0-.953,0L22.74,21.787,17.15,16.2a.674.674,0,0,0-.953.953l5.589,5.589L16.2,28.329a.674.674,0,1,0,.953.953l5.589-5.589,5.589,5.589a.674.674,0,0,0,.953-.953L23.693,22.74l5.589-5.589A.673.673,0,0,0,29.282,16.2Z" transform="translate(-5.216 -5.216)" fill="#d6d6d6"/></svg>