<svg xmlns="http://www.w3.org/2000/svg" width="52.422" height="74.847" viewBox="0 0 52.422 74.847"><g transform="translate(-8.203)"><path d="M30.125,12a9.568,9.568,0,1,0,9.568,9.568A9.581,9.581,0,0,0,30.125,12Zm0,16.4a6.834,6.834,0,1,1,6.834-6.834A6.842,6.842,0,0,1,30.125,28.4Z" transform="translate(4.533 4.403)" fill="#ff9283"/><path d="M52.951,7.678a26.212,26.212,0,0,0-37.07,0c-9.162,9.161-10.3,26.4-2.466,36.841l21,30.329,20.97-30.286C63.252,34.075,62.114,16.839,52.951,7.678Zm.217,35.285L34.416,70.044,15.634,42.921c-7.107-9.475-6.088-25.042,2.182-33.31a23.478,23.478,0,0,1,33.2,0C59.288,17.879,60.307,33.445,53.169,42.963Z" transform="translate(0 0)" fill="#ff9283"/></g></svg>