<svg xmlns="http://www.w3.org/2000/svg" xmlns:xlink="http://www.w3.org/1999/xlink" width="242" height="78.344" viewBox="0 0 242 78.344"><defs><linearGradient id="a" y1="0.5" x2="1" y2="0.5" gradientUnits="objectBoundingBox"><stop offset="0" stop-color="#ffaf01"/><stop offset="0.014" stop-color="#ffae03"/><stop offset="0.347" stop-color="#ffa23a"/><stop offset="0.633" stop-color="#ff9961"/><stop offset="0.861" stop-color="#ff937a"/><stop offset="1" stop-color="#ff9283"/></linearGradient><linearGradient id="c" x1="0" y1="0.5" x2="1" y2="0.5" xlink:href="#a"/></defs><g transform="translate(-147.714 -208)"><g transform="translate(147.714 211.198)"><path d="M168.7,248.417a21,21,0,1,1-14.869,35.814v21.3h-6.116v-56.6h6.116v5.676A20.192,20.192,0,0,1,168.7,248.417Zm0,35.894a14.875,14.875,0,1,0-10.513-4.357A14.458,14.458,0,0,0,168.7,284.311Z" transform="translate(-147.714 -230.39)" fill="#4b4b4b"/><path d="M236.2,214.089h6.156v59.477H236.2Z" transform="translate(-189.735 -214.089)" fill="#4b4b4b"/><path d="M276.721,290.427a21,21,0,1,1,14.909-35.814v-5.676h6.115v40.93H291.63v-5.636A20.239,20.239,0,0,1,276.721,290.427Zm0-35.894a14.889,14.889,0,0,0,0,29.779,14.889,14.889,0,0,0,0-29.779Z" transform="translate(-199.009 -230.39)" fill="#4b4b4b"/><path d="M383.557,289.867h-6.115V265.285a10.358,10.358,0,0,0-3.158-7.6,10.226,10.226,0,0,0-7.555-3.158,10.781,10.781,0,0,0-10.752,10.753v24.582h-6.116v-40.93h6.116v3.358a16.363,16.363,0,0,1,10.752-3.877,16.922,16.922,0,0,1,16.828,16.868Z" transform="translate(-243.706 -230.39)" fill="#4b4b4b"/><path d="M428.752,284.271a20.988,20.988,0,1,1,14.869,6.156A20.256,20.256,0,0,1,428.752,284.271Zm4.357-25.382a14.881,14.881,0,1,0,21.025,21.064,14.881,14.881,0,1,0-21.025-21.064Z" transform="translate(-278.245 -230.39)" fill="#4b4b4b"/></g><g transform="translate(344.507 208)"><path d="M533.166,242.485a13.4,13.4,0,0,1,2.4-3.228,13.316,13.316,0,0,1,18.866,0,13.688,13.688,0,0,1,2.418,3.228H566.87a22.821,22.821,0,0,0-21.788-16.5q-9.393,0-13.31,3.917V208h-9.313v34.485Z" transform="translate(-522.458 -208)" fill="url(#a)"/><path d="M556.906,297.089a13.625,13.625,0,0,1-2.471,3.339,13.414,13.414,0,0,1-18.866,0,13.607,13.607,0,0,1-2.447-3.339H522.458v15.89h9.313v-3.4q3.876,3.957,13.31,3.957a21.68,21.68,0,0,0,15.948-6.675,21.965,21.965,0,0,0,5.82-9.775Z" transform="translate(-522.458 -250.305)" fill="url(#a)"/><path d="M567.513,280.174H522.458v5.466h45.049a24.148,24.148,0,0,0,.007-5.466Z" transform="translate(-522.458 -242.273)" fill="url(#c)"/></g></g></svg>