<svg xmlns="http://www.w3.org/2000/svg" width="556.927" height="526.738" viewBox="0 0 556.927 526.738"><g transform="translate(-1088.232 -258.817)"><g transform="translate(1088.232 258.817)"><g transform="translate(8.205 492.534)"><ellipse cx="257.736" cy="17.102" rx="257.736" ry="17.102" fill="#eeeafe"/></g><g transform="translate(13.951 236.98)"><g transform="translate(97.771)"><rect width="10.478" height="260.41" fill="#eeeafe"/></g><g transform="translate(108.249)"><rect width="7.01" height="260.41" fill="#dbcffd"/></g><g transform="translate(0 245.868)"><rect width="115.259" height="14.542" fill="#dbcffd"/></g><g transform="translate(10.477)"><rect width="7.01" height="260.41" fill="#dbcffd"/></g><rect width="10.477" height="260.41" fill="#eeeafe"/></g><g transform="translate(135.837 308.635)"><g transform="translate(4.054 0)"><rect width="8.107" height="190.733" transform="translate(8.107 190.733) rotate(180)" fill="#d5eaf5"/></g><g transform="translate(0 0)"><rect width="4.054" height="190.733" transform="translate(4.054 190.733) rotate(180)" fill="#aacbe8"/></g></g><g transform="translate(48.36 305.091)"><rect width="132.239" height="15.689" transform="translate(132.239 15.689) rotate(180)" fill="#aacbe8"/></g><g transform="translate(158.445 318.898)"><g transform="translate(4.054)"><path d="M1264.86,785.466h8.108l1.271-180.023h-8.108Z" transform="translate(-1264.86 -605.443)" fill="#d5eaf5"/></g><path d="M1260.454,785.466h4.054l1.271-180.023h-4.054Z" transform="translate(-1260.454 -605.443)" fill="#aacbe8"/></g><g transform="translate(137.544 115.106)"><path d="M1237.736,573.917h117.186l50.524-189.985H1290.993Z" transform="translate(-1237.736 -383.932)" fill="#f99680"/></g><g transform="translate(151.695 115.114)"><path d="M1408.207,383.94l-39.474,205.665H1253.117V573.917h103.036l37.629-189.937Z" transform="translate(-1253.117 -383.94)" fill="#d5eaf5"/></g><g transform="translate(426.118 39.343)"><path d="M1583.157,345.849a14.737,14.737,0,0,0,11.454-10.071c3.16-9.122-.01-22.759-2.753-25.567s-19.835-12.9-33.381-6.591-5.267,37.773,5.054,40.923A44.672,44.672,0,0,0,1583.157,345.849Z" transform="translate(-1551.401 -301.581)" fill="#295a6e"/></g><g transform="translate(437.108 0.748)"><path d="M1593.316,317.108s30.087-4.968,29.227-24.934-31.621-33.022-40.833-32.53c-19.359,1.033-24.778,17.556-9.631,44.923S1593.316,317.108,1593.316,317.108Z" transform="translate(-1563.347 -259.63)" fill="#295a6e"/></g><g transform="translate(306.487 128.656)"><g transform="translate(86.429)"><path d="M1515.313,582.774h113.565l48.963-184.114H1566.923Z" transform="translate(-1515.313 -398.659)" fill="#ffad96"/></g><g transform="translate(200.189 192.835)"><g transform="translate(3.929)"><path d="M1643.235,783.569h7.857l.385-175.307h-7.857Z" transform="translate(-1643.235 -608.262)" fill="#d5eaf5"/></g><path d="M1638.965,783.569h3.929l.385-175.307h-3.929Z" transform="translate(-1638.965 -608.262)" fill="#aacbe8"/></g><g transform="translate(106.683 197.289)"><g transform="translate(3.929)"><path d="M1541.6,783.956h7.857l1.232-170.854h-7.857Z" transform="translate(-1541.598 -613.102)" fill="#d5eaf5"/></g><path d="M1537.328,783.956h3.929l1.232-170.854h-3.929Z" transform="translate(-1537.328 -613.102)" fill="#aacbe8"/></g><g transform="translate(84.774 187.549)"><g transform="translate(3.928 0)"><rect width="7.857" height="181.019" transform="translate(7.857 181.019) rotate(180)" fill="#d5eaf5"/></g><g transform="translate(0 0)"><rect width="3.929" height="181.019" transform="translate(3.929 181.019) rotate(180)" fill="#aacbe8"/></g></g><g transform="translate(9.889 186.251)"><g transform="translate(3.929)"><rect width="7.857" height="181.018" transform="translate(7.857 181.018) rotate(180)" fill="#d5eaf5"/></g><g transform="translate(0)"><rect width="3.929" height="181.018" transform="translate(3.929 181.018) rotate(180)" fill="#aacbe8"/></g></g><g transform="translate(0 184.114)"><rect width="128.153" height="15.204" transform="translate(128.153 15.204) rotate(180)" fill="#aacbe8"/></g><g transform="translate(100.142 0.008)"><path d="M1680.516,398.668l-38.254,199.31H1530.218v-15.2h99.852l36.466-184.068Z" transform="translate(-1530.218 -398.668)" fill="#d5eaf5"/></g></g><g transform="translate(283.165 210.217)"><g transform="translate(23.386 277.262)"><g transform="translate(0 4.181)"><path d="M1421.44,799.59c-.125-.832,6.584-4.619,11.035-6.223-1.312.929-2.594,2.232-.451,2.761,3.135.775,9.892-.519,11.811-2.9a15.021,15.021,0,0,1,1.155,5.687C1445.048,801.02,1422.047,803.609,1421.44,799.59Z" transform="translate(-1421.438 -793.226)" fill="#30193b"/></g><g transform="translate(9.439)"><path d="M1432.844,795.764c-2.144-.529-.861-1.832.451-2.761,2.76-.994,5.083-1.712,5.594-1.972a3.368,3.368,0,0,0,1.668-1.985l1.4-.364s2.455,3.693,2.695,4.181C1442.736,795.245,1435.979,796.539,1432.844,795.764Z" transform="translate(-1431.698 -788.682)" fill="#ff97a6"/></g></g><g transform="translate(54.611 279.983)"><g transform="translate(0 4.181)"><path d="M1455.38,802.548c-.147-1.14,6.584-4.618,11.034-6.222-1.312.928-2.594,2.231-.451,2.761,3.134.775,9.893-.52,11.812-2.9a15.02,15.02,0,0,1,1.154,5.687C1478.988,803.979,1455.9,806.58,1455.38,802.548Z" transform="translate(-1455.378 -796.185)" fill="#30193b"/></g><g transform="translate(9.44)"><path d="M1466.784,798.723c-2.143-.53-.861-1.833.451-2.761,2.761-.995,5.083-1.712,5.594-1.973A3.366,3.366,0,0,0,1474.5,792l1.4-.364s2.455,3.693,2.695,4.181C1476.677,798.2,1469.919,799.5,1466.784,798.723Z" transform="translate(-1465.639 -791.64)" fill="#f48989"/></g></g><path d="M1548.865,490.991c7.3,28.3-3.925,26.185-1.583,56.391C1550.5,588.905,1434.188,593,1434.188,593s2.993,149.4,4.967,172.482l-1.775.169s-57.442-137.865-36.941-198.2c11.245-33.1,88.109-48.891,88.109-48.891l28.669-31.25S1525.389,490.618,1548.865,490.991Z" transform="translate(-1396.018 -487.312)" fill="#ff97a6"/><g transform="translate(56.115 3.353)"><path d="M1599.622,491.083c19.425,52.8,18.187,61.429,9.306,76.237-11.435,19.066-37.841,20.7-63.638,20.928-21.586.189-40.382,1.879-40.382,1.879s-27.733,154.565-28.811,178.083c-.171,3.748-2.181,6.684-2.532.308-1.353-24.664-7.135-102.211-16.359-183.178-4.949-43.43,86.431-55.713,86.431-55.713l10.107-38.345S1576.146,490.709,1599.622,491.083Z" transform="translate(-1457.012 -490.956)" fill="#f48989"/></g></g><g transform="translate(315.527 74.68)"><path d="M1460.176,352.2c4.411,10.667,20.463,63.039,20.463,63.039s-11.069,22.665-19.8,13.039c-16.675-18.38-14.271-16.129-24.531-35.45-9.684-18.239-2.627-52.841-2.627-52.841S1455.766,341.536,1460.176,352.2Z" transform="translate(-1431.195 -339.99)" fill="#ffe5b0"/></g><g transform="translate(288.906 210.217)"><path d="M1596.037,495.854s14.409,31.094,14.543,50.115-7.229,39.321-61.406,39.262l-48.646,1.968s-43.459-42.64-98.253-24.961c0,0-3.354-23.33,85.043-44.83l27.882-30.1Z" transform="translate(-1402.259 -487.312)" fill="#7f65c1"/></g><g transform="translate(344.985 213.51)"><path d="M1602.327,496.141s14.41,31.094,14.544,50.115-5.953,42.713-60.13,42.654l-50.595,2.41s-16.861-19.608-41.778-28c-.383-.13-1.155-.382-1.155-.382s8.343-11.295,30.867-21.264c9.345-4.136,38.6-13.472,38.6-13.472l19.981-37.312Z" transform="translate(-1463.214 -490.892)" fill="#6f58b7"/></g><g transform="translate(397.033 96.334)"><path d="M1519.816,390.813A25.459,25.459,0,0,1,1542.7,364.22a193.192,193.192,0,0,1,32.512-.037c8.573.615,24.365,2.318,39.523,18.786,6.024,6.546-8.058,101.431-6.732,107.054-53.084,12.1-78.981-1.363-85.56-10.282C1523.436,471.371,1521.222,420.424,1519.816,390.813Z" transform="translate(-1519.787 -363.527)" fill="#ffe5b0"/></g><g transform="translate(337.954 95.962)"><path d="M1455.571,420.439s18.046-22.639,27.018-31.592c6.537-6.524,19.238-17.129,23.316-20.484,5.956-4.9,23.859-5.914,38.678-4.868-2.752,13.088-58.769,59.044-68.55,67.6C1465.175,440.6,1455.571,420.439,1455.571,420.439Z" transform="translate(-1455.571 -363.123)" fill="#ffe5b0"/></g><g transform="translate(467.408 103.147)"><path d="M1597.023,371.082c11.461-.841,23,1.505,32.052,16.462,10.8,17.845,31.969,54.923,23.266,78.131-6.434,17.16-30.83-18.257-30.83-18.257s3.174-11.533-6.726-34.854C1612.419,406.99,1592.194,385.814,1597.023,371.082Z" transform="translate(-1596.281 -370.933)" fill="#f9d5a0"/></g><g transform="translate(427.458 94.818)"><path d="M1568.064,361.879s12.361,2.394,14.089,2.616c11.6,1.492,24.459,1.351,37.651,15.684,6.025,6.546-9.9,103.951-8.571,109.574-19.8,5.782-31.075,4.949-43.616,4.95a93.045,93.045,0,0,1-14.76-1.593s8.483-44,11.055-62.092C1566.29,414.3,1568.064,361.879,1568.064,361.879Z" transform="translate(-1552.858 -361.879)" fill="#f9d5a0"/></g><g transform="translate(444.88 79.994)"><path d="M1571.794,345.766h0Z" transform="translate(-1571.794 -345.766)" fill="#3b2b5b"/></g><g transform="translate(438.756 77.773)"><path d="M1566.59,343.352s-2.162,18.6-1.209,20.687,4.494,4.85,6.594.209.167-20.9.167-20.9Z" transform="translate(-1565.138 -343.352)" fill="#ff97a6"/><g transform="translate(0.186 4.254)"><path d="M1565.34,357.282c2.117,1.6,5.028,2.489,7.61.761.08-3.393-.147-7.216-.381-10.067h-6.423C1565.873,350.652,1565.542,354.164,1565.34,357.282Z" transform="translate(-1565.34 -347.976)" fill="#c95d77"/></g></g><g transform="translate(426.965 57.119)"><path d="M1577.967,341.308c.693-1.247.985-5.5,1.1-9.8a10.17,10.17,0,0,0-10.559-10.386c-1.47.052-2.437.028-2.695-.216-3.162.5-7.023.409-9.847,2.112-3.1,1.869-3.34,6.216-3.594,9.445s.454,9.084,2.287,11.878c1.674,2.554,6.77,4.98,9.717,5.054C1573.226,349.613,1575.843,347.439,1577.967,341.308Z" transform="translate(-1552.322 -320.902)" fill="#ff97a6"/></g><g transform="translate(286.761 79.664)"><g transform="translate(11.509 72.877)"><rect width="6.905" height="28.26" fill="#cbb3fc"/></g><g transform="translate(15.634 4.294)"><rect width="3.239" height="15.686" fill="#cbb3fc"/></g><g transform="translate(2.217 19.127)"><path d="M1406.855,420.929h21.568l18.414-18.414,42.8,15.515-4.6,51.15h65.216v-5.8l-7.786-91.172a6.537,6.537,0,0,0-6.516-6.014H1406.855a4.519,4.519,0,0,0-4.518,4.519v45.694A4.518,4.518,0,0,0,1406.855,420.929Z" transform="translate(-1402.337 -366.198)" fill="#ff5e4d"/></g><g transform="translate(0 116.312)"><path d="M3.206,0H150.125a0,0,0,0,1,0,0V11.424a0,0,0,0,1,0,0H0a0,0,0,0,1,0,0V3.206A3.206,3.206,0,0,1,3.206,0Z" fill="#dbcffd"/></g><g transform="translate(0 127.736)"><rect width="150.125" height="15.345" fill="#cbb3fc"/></g><g transform="translate(5.968 119.722)"><rect width="19.266" height="4.774" fill="#cbb3fc"/></g><g transform="translate(13.81 97.558)"><path d="M1415.508,476.639l-.569-25.191h2.046Z" transform="translate(-1414.939 -451.448)" fill="#cbb3fc"/></g><g transform="translate(18.414 92.101)"><path d="M0,0H3.039A.542.542,0,0,1,3.58.542V6.534a.542.542,0,0,1-.542.542H0a0,0,0,0,1,0,0V0A0,0,0,0,1,0,0Z" fill="#c43b72"/></g><g transform="translate(2.216 19.127)"><path d="M1.338,0H12.617a0,0,0,0,1,0,0V54.73a0,0,0,0,1,0,0H1.081A1.081,1.081,0,0,1,0,53.649V1.338A1.338,1.338,0,0,1,1.338,0Z" fill="#c43b72"/></g><g transform="translate(28.766 51.9)"><circle cx="8.354" cy="8.354" r="8.354" fill="#c43b72"/></g><g transform="translate(33.125 56.259)"><path d="M1443.923,410.554a4,4,0,1,1-3.995-3.995A3.995,3.995,0,0,1,1443.923,410.554Z" transform="translate(-1435.933 -406.559)" fill="#cbb3fc"/></g><g transform="translate(142.443 26.439)"><path d="M1554.756,374.146h4.041a9.013,9.013,0,0,1,9.012,9.012v32.292a9.013,9.013,0,0,1-9.012,9.012h0" transform="translate(-1554.756 -374.146)" fill="#c43b72"/></g><g transform="translate(28.766 15.206)"><rect width="8.354" height="4.774" fill="#ff5e4d"/></g><g transform="translate(104.644)"><g transform="translate(5.371)"><rect width="2.217" height="21.483" fill="#cbb3fc"/></g><g transform="translate(0 13.299)"><rect width="12.958" height="10.662" fill="#ff5e4d"/></g></g><g transform="translate(88.568)"><g transform="translate(5.371)"><rect width="2.217" height="21.483" fill="#cbb3fc"/></g><g transform="translate(0 13.299)"><rect width="12.958" height="10.662" fill="#ff5e4d"/></g></g><g transform="translate(102.987 78.307)"><circle cx="14.194" cy="14.194" r="14.194" fill="#c43b72"/></g><g transform="translate(111.501 86.821)"><circle cx="5.68" cy="5.68" r="5.68" fill="#cbb3fc"/></g></g><g transform="translate(433.417 105.278)"><path d="M1572.729,392.667c.683-.628.807-10.294-1.22-13.315-1.568-2.339-8.237-6.794-9.717-6.013s-.2,1.95-.2,1.95-1.765-.532-2.239.8c-.294.829,2.64,3.23,3.973,5.658.818,1.489,1.906,9.179,3.9,9.736C1568.563,391.862,1571.5,393.8,1572.729,392.667Z" transform="translate(-1559.335 -373.248)" fill="#ff97a6"/></g><g transform="translate(438.513 120.017)"><path d="M1636.144,474.61c-18.315-.662-80.6-51.472-70.081-77.053a19.811,19.811,0,0,1,3.344-5.566,8.455,8.455,0,0,1,11.667-.741l65.307,53.368S1660.914,475.506,1636.144,474.61Z" transform="translate(-1564.874 -389.269)" fill="#f9d5a0"/></g><g transform="translate(308.01 65.205)"><g transform="translate(0 1.224)"><path d="M1435.839,339.619s.244-7.082-6.021-8.432c-3.177-.684-6.781.889-6.794,2.27s3.222.6,4.829,1.4c2.43,1.205,5,7.485,7.879,7.458C1436.8,342.3,1437.22,340.428,1435.839,339.619Z" transform="translate(-1423.024 -331.022)" fill="#ff97a6"/></g><g transform="translate(0.364)"><path d="M1429.114,330.963c-.34-.028-5.708-1.851-5.694-1.084s3.538,2.3,3.538,2.3l2.2-1" transform="translate(-1423.42 -329.691)" fill="#ff97a6"/></g><g transform="translate(3.648 6.566)"><path d="M1431.872,338.358c-.229-.1-3.642-2.073-4.672-1.384s2.017,2.761,2.734,3.156c1.354.744,4.856,2.282,4.856,2.282Z" transform="translate(-1426.99 -336.828)" fill="#ff97a6"/></g></g><g transform="translate(436.505 52.44)"><path d="M1562.692,322.3s12.192,16.262,20.21,13.538,7.444-15.917-.287-19.278S1562.692,322.3,1562.692,322.3Z" transform="translate(-1562.692 -315.817)" fill="#295a6e"/></g><g transform="translate(422.033 50.829)"><path d="M1566.538,314.07s9.481.487-11.851,18.3a56.228,56.228,0,0,0-7.358,8.126s-2.83-19.282,7.208-23.8A29.557,29.557,0,0,1,1566.538,314.07Z" transform="translate(-1546.961 -314.066)" fill="#295a6e"/></g><g transform="translate(421.904)"><path d="M1621.22,292.109a23.35,23.35,0,0,0-4.805-12.129,44.7,44.7,0,0,0-9.449-9.1,66.607,66.607,0,0,0-11.455-6.466,50.519,50.519,0,0,0-12.451-3.877,19.675,19.675,0,0,0-6.36.3,20.02,20.02,0,0,0-3.1.812l-1.5.539c-.482.217-.936.489-1.4.73a14.288,14.288,0,0,0-7.229,9.779,28.444,28.444,0,0,0,.433,12.8,71.309,71.309,0,0,0,4.364,12.371l.008.017a.759.759,0,0,1-.691,1.066,24.472,24.472,0,0,0-6.478.881,12.114,12.114,0,0,0-5.587,3,13.1,13.1,0,0,0-3.1,5.6,25.049,25.049,0,0,0-.905,6.545.49.49,0,0,1-.11.3,19.89,19.89,0,0,0-3.887,9.881,45.482,45.482,0,0,0-.188,10.915,45.762,45.762,0,0,1-.294-10.976c.389-3.631,1.278-7.4,3.657-10.42l-.11.3a26.059,26.059,0,0,1,.778-6.839,14.292,14.292,0,0,1,3.248-6.185,13.447,13.447,0,0,1,6.092-3.5,24.179,24.179,0,0,1,6.872-1.028l-.683,1.082a72.878,72.878,0,0,1-4.573-12.642,30.078,30.078,0,0,1-.543-13.558,15.85,15.85,0,0,1,8.13-10.853c.518-.261,1.024-.555,1.553-.787l1.631-.573a24.509,24.509,0,0,1,10.188-1.1,47.828,47.828,0,0,1,12.812,4.169,67.754,67.754,0,0,1,11.506,6.875,41.143,41.143,0,0,1,9.309,9.6A23.639,23.639,0,0,1,1621.22,292.109Z" transform="translate(-1546.821 -258.817)" fill="#3f7889"/></g><g transform="translate(296.878 54.92)"><g transform="translate(3.018 0.922)"><path d="M1422.443,350.758H1414.2l.047-31.149,8.108-.094Z" transform="translate(-1414.204 -319.514)" fill="#dbcffd"/></g><g transform="translate(3.018 30.941)"><path d="M1422.443,353.124c0,.541-1.845.98-4.119.98s-4.12-.439-4.12-.98,1.844-.98,4.12-.98S1422.443,352.583,1422.443,353.124Z" transform="translate(-1414.204 -352.144)" fill="#dbcffd"/></g><g transform="translate(0 4.921)"><path d="M1410.924,345.648c0,1,3.2,1.815,7.137,1.815s7.136-.812,7.136-1.815V323.861h-14.274v21.757" transform="translate(-1410.924 -323.861)" fill="#357a5f"/></g><g transform="translate(0 3.106)"><path d="M1425.2,323.7c0,1-3.2,1.814-7.136,1.814s-7.137-.812-7.137-1.814,3.2-1.815,7.137-1.815S1425.2,322.7,1425.2,323.7Z" transform="translate(-1410.924 -321.888)" fill="#27664b"/></g><g transform="translate(3.018 0.958)"><path d="M1414.316,323.558c0,.529,1.844.959,4.119.959s4.119-.43,4.119-.959l-.111-4H1414.2l.112,4" transform="translate(-1414.204 -319.554)" fill="#dbcffd"/></g><g transform="translate(3.018)"><ellipse cx="4.119" cy="0.958" rx="4.119" ry="0.958" fill="#cbb3fc"/></g><g transform="translate(3.846 0.193)"><path d="M1421.687,319.487c0,.423-1.474.765-3.291.765s-3.292-.342-3.292-.765,1.474-.765,3.292-.765S1421.687,319.064,1421.687,319.487Z" transform="translate(-1415.104 -318.722)" fill="#9d83e5"/></g></g><g transform="translate(504.891 236.98)"><rect width="10.645" height="260.41" fill="#eeeafe"/></g><g transform="translate(515.535 236.98)"><rect width="7.122" height="260.41" fill="#dbcffd"/></g><g transform="translate(416.204 236.98)"><rect width="7.122" height="260.41" fill="#dbcffd"/></g><g transform="translate(405.56 482.848)"><rect width="117.097" height="14.542" fill="#dbcffd"/></g><g transform="translate(405.56 236.98)"><rect width="10.644" height="260.41" fill="#eeeafe"/></g><g transform="translate(327.421 222.021)"><rect width="195.236" height="26.833" fill="#f99680"/></g><g transform="translate(254.932 314.205)"><g transform="translate(4.054)"><path d="M1369.737,785.058h8.108l.4-184.715h-8.108Z" transform="translate(-1369.737 -600.343)" fill="#d5eaf5"/></g><path d="M1365.331,785.058h4.054l.4-184.715h-4.054Z" transform="translate(-1365.331 -600.343)" fill="#aacbe8"/></g><g transform="translate(58.565 307.296)"><g transform="translate(4.054 0)"><rect width="8.108" height="192.99" transform="translate(8.108 192.99) rotate(180)" fill="#d5eaf5"/></g><g transform="translate(0 0)"><rect width="4.054" height="192.99" transform="translate(4.054 192.99) rotate(180)" fill="#aacbe8"/></g></g><g transform="translate(109.403 17.644)"><path d="M1235.842,373.163s-50.981-21.929-17.035-47.239c0,0-11.71-33.7,18.181-46.975,0,0,19.61-6.877,26.211,16.279,0,0,19.578-4.6,20.96,19.643,0,0,15.284-26.607,43.3-11.042s16.776,53.792,16.776,53.792,22.246-8.9,25.1,18.1c4.4,41.581-60.269,53.776-60.269,53.776Z" transform="translate(-1207.148 -277.995)" fill="#3b2b5b"/></g><g transform="translate(108.91 16.489)"><path d="M1219.308,363.166a41.448,41.448,0,0,1-8.266-7.957,20.256,20.256,0,0,1-4.392-10.654,17.58,17.58,0,0,1,3.433-11.1,41.125,41.125,0,0,1,8.208-8.264l-.274.893a51.72,51.72,0,0,1-2.423-13.91,40.691,40.691,0,0,1,1.879-14.037,30.377,30.377,0,0,1,7.328-12.2c3.224-3.605,7.467-5.974,11.682-8.13l.085-.034a23.58,23.58,0,0,1,9.131-.934,18.95,18.95,0,0,1,8.671,3.06,21.329,21.329,0,0,1,6.27,6.654,39.963,39.963,0,0,1,2.075,4.031l1.469,4.249-1.273-.748a20.4,20.4,0,0,1,8.764.25,16.152,16.152,0,0,1,7.621,4.375,19.988,19.988,0,0,1,4.272,7.583c.418,1.377.661,2.794.973,4.188l.417,4.241-1.572-.372a38.792,38.792,0,0,1,8.569-9.4,29.767,29.767,0,0,1,11.31-5.639,26.85,26.85,0,0,1,12.542-.165,34.551,34.551,0,0,1,6.006,1.8c1.923.807,3.738,1.859,5.6,2.772-1.916-.819-3.771-1.771-5.718-2.471-2.006-.519-3.922-1.375-6-1.541a26.031,26.031,0,0,0-12.162.617,29.754,29.754,0,0,0-10.713,5.708,37.377,37.377,0,0,0-7.978,9.149.849.849,0,0,1-1.568-.334l0-.038-.493-4.043c-.329-1.3-.587-2.634-1-3.9a19.252,19.252,0,0,0-3.927-6.765,14.091,14.091,0,0,0-6.685-3.761,18.447,18.447,0,0,0-7.767-.179,1.122,1.122,0,0,1-1.267-.728l-.007-.02-1.415-3.994a38.093,38.093,0,0,0-1.947-3.708,19.061,19.061,0,0,0-5.639-5.913,16.631,16.631,0,0,0-7.663-2.634,21.456,21.456,0,0,0-8.141.75l.084-.033c-4,2.022-8.03,4.215-11.047,7.556a28.274,28.274,0,0,0-6.931,11.342,40.553,40.553,0,0,0-1.928,13.337,50.2,50.2,0,0,0,2.011,13.439l.006.017a.818.818,0,0,1-.28.878,39.763,39.763,0,0,0-8.081,7.756,17.036,17.036,0,0,0-3.539,10.3,19.527,19.527,0,0,0,3.853,10.384A44.139,44.139,0,0,0,1219.308,363.166Z" transform="translate(-1206.611 -276.74)" fill="#675893"/></g><g transform="translate(42.704 157.752)"><path d="M1134.677,461.581c-.333-1.714,2.3-4.928,3.884-5.693,16.464-7.941,45.55-18.861,52.151-24.531,4.2-3.606,21.977,2.133,15.79,13.576-2.366,4.376-12.558,14.554-18.964,17.924C1163.435,475.536,1141.315,495.758,1134.677,461.581Z" transform="translate(-1134.649 -430.285)" fill="#ffcb48"/></g><g transform="translate(87.412 481.952)"><g transform="translate(0 6.791)"><path d="M1183.585,803.6c-2.593-4.9,10.241-9.782,17.221-12.159-1.8,1.452-3.946,3.489-.795,4,4.609.743,14.229-1.823,16.744-5.387a20.72,20.72,0,0,1,2.279,7.873C1219.346,800.888,1184.776,805.854,1183.585,803.6Z" transform="translate(-1183.245 -790.056)" fill="#30193b"/></g><g transform="translate(13.975)"><path d="M1201.226,794.852c-3.151-.509-4.339-2.524.225-3.828a34.9,34.9,0,0,0,7.995-3.5c1.856-1.1,2.213-4.313,2.213-4.313l3.734-.537s2.179,6.13,2.577,6.791C1215.455,793.03,1205.835,795.6,1201.226,794.852Z" transform="translate(-1198.435 -782.675)" fill="#ff97a6"/></g></g><g transform="translate(0 421.52)"><g transform="translate(0 4.52)"><path d="M1088.232,728.544c0-3.769,12.638-6.392,20.005-6.643-2.138.868-4.788,2.194-1.919,3.594,4.2,2.049,14.146,2.382,17.587-.3a20.726,20.726,0,0,1-.1,8.2C1123.244,736.313,1088.232,731.09,1088.232,728.544Z" transform="translate(-1088.232 -721.901)" fill="#30193b"/></g><g transform="translate(15.886)"><path d="M1107.7,725.1c-2.869-1.4-3.421-3.673,1.326-3.6a34.96,34.96,0,0,0,8.666-1.03c2.1-.518,3.369-3.487,3.369-3.487l3.729.569s.308,6.5.5,7.246C1121.846,727.484,1111.9,727.151,1107.7,725.1Z" transform="translate(-1105.5 -716.988)" fill="#ff97a6"/></g></g><g transform="translate(71.953 186.252)"><path d="M1331.573,516.939a129.337,129.337,0,0,0-22.031-55.675s-62.683,1.578-68.447,12.249c.136.153-.219,16.687-1.08,17.673-25.732,29.461-72.557,27.454-73.467,66.763-1.794,77.533,19.473,191.394,32.967,199.621,3.446,2.1,10.165.91,10.165.91,2.96-.086,3.155-1.516,3.3-5.867l.888-170.407,53.708-4.18c14.417-.471,16.828.263,40.13-5.141C1321.593,569.665,1335.826,548.542,1331.573,516.939Z" transform="translate(-1166.441 -461.264)" fill="#30193b"/></g><g transform="translate(128.768 86.602)"><path d="M1240.732,465.657c11.161,1.337,54.108,4.289,76.064-9.718,1.013-23.676.541-50.253-4.787-71.793-1.529-6.185-5.234-17.9-10.38-23.726-7.423-8.4-20.45-8.3-31.509-6.464-5.532.917-10.986,1.808-13.691,2.211-19.263,2.871-18.988,3.432-26.762,13.847C1223.084,378.832,1240.732,465.657,1240.732,465.657Z" transform="translate(-1228.196 -352.949)" fill="#fd9e38"/></g><g transform="translate(128.768 88.604)"><path d="M1240.732,465.831a203.087,203.087,0,0,0,32.022.477c1.184-.072,6.007-.1,6.007-.1s-4.882-28.788-11.693-56.764c-6.485-26.634-1.564-50.693-2.249-53.951-.271-1.294-10.915,1.227-12.051,1.4-15.6,2.436-15.854,3.582-23.1,13.29C1223.084,379.007,1240.732,465.831,1240.732,465.831Z" transform="translate(-1228.196 -355.125)" fill="#ffcb48"/></g><g transform="translate(157.707 72.485)"><path d="M1259.652,340.06s2.954,14.117,3.714,16.3c1.026,2.948,8.386,4.657,9.505-.345s-6.389-18.412-6.389-18.412Z" transform="translate(-1259.652 -337.605)" fill="#ff97a6"/><g transform="translate(0.777 3.551)"><path d="M1262.441,352.829c3.11.471,6.972-.04,9.6-2.7a67.6,67.6,0,0,0-3.644-8.666l-7.9,2.841C1261,346.776,1261.707,350,1262.441,352.829Z" transform="translate(-1260.497 -341.465)" fill="#c95d77"/></g></g><g transform="translate(131.59 46.04)"><path d="M1267.737,329.409c.142-2.237-2.864-9.276-5.561-15.088a9.457,9.457,0,0,0-12.777-4.475c-7.38,3.653-15.332,8.131-16.948,10.579-2.537,3.841-.439,8.969,1.037,12.818s5.49,10.188,9.125,12.4c3.321,2.018,10.5,2.018,13.93.49C1266.833,341.546,1268.65,337.616,1267.737,329.409Z" transform="translate(-1231.264 -308.86)" fill="#ff97a6"/></g><g transform="translate(92.841 93.523)"><path d="M1245.251,360.51s.94,12.183-15.816,44.775c-19.779,38.471-18.709,42.919-30.839,36.3l-9.451-4.98s17.971-51.041,25.152-63.535C1222.311,359.129,1245.251,360.51,1245.251,360.51Z" transform="translate(-1189.146 -360.472)" fill="#ffcb48"/></g><g transform="translate(175.137 109.492)"><path d="M0,0H6.792a2.65,2.65,0,0,1,2.65,2.65V29.763a2.65,2.65,0,0,1-2.65,2.65H0a0,0,0,0,1,0,0V0A0,0,0,0,1,0,0Z" fill="#f970a8"/></g><g transform="translate(58.082 167.499)"><path d="M0,0H3.24a.542.542,0,0,1,.542.542v6.39a.542.542,0,0,1-.542.542H0a0,0,0,0,1,0,0V0A0,0,0,0,1,0,0Z" fill="#f970a8"/></g><g transform="translate(51.014 147.69)"><rect width="7.293" height="29.848" fill="#cbb3fc"/></g><g transform="translate(162.649 122.885)"><rect width="11.075" height="6.933" fill="#f95da4"/></g><g transform="translate(41.875 98.259)"><path d="M1157.8,425.946h-21.211a2.842,2.842,0,0,1-2.841-2.841V368.461a2.842,2.842,0,0,1,2.841-2.841h33.354l-9.339,57.936A2.841,2.841,0,0,1,1157.8,425.946Z" transform="translate(-1133.748 -365.62)" fill="#fa7268"/></g><g transform="translate(63.484 98.26)"><path d="M0,0H98.609a1.333,1.333,0,0,1,1.333,1.333V36.015a0,0,0,0,1,0,0H0a0,0,0,0,1,0,0V0A0,0,0,0,1,0,0Z" fill="#fa7268"/></g><g transform="translate(101.169 98.259)"><path d="M1207.512,394.582l-9.276,65.464a3.891,3.891,0,0,0,3.852,4.436h59.987V368.5a2.882,2.882,0,0,0-2.881-2.882h-49.521Z" transform="translate(-1198.197 -365.62)" fill="#fa7268"/></g><g transform="translate(119.713 111.195)"><rect width="35.655" height="9.004" rx="1.149" fill="#dbcffd"/></g><g transform="translate(123.044 112.816)"><rect width="28.992" height="5.763" fill="#cbb3fc"/></g><g transform="translate(123.63 119.238)"><rect width="1.081" height="3.872" fill="#dbcffd"/></g><g transform="translate(129.104 119.238)"><rect width="1.081" height="3.872" fill="#dbcffd"/></g><g transform="translate(134.578 119.238)"><rect width="1.081" height="3.872" fill="#dbcffd"/></g><g transform="translate(140.052 119.238)"><rect width="1.081" height="3.872" fill="#dbcffd"/></g><g transform="translate(145.526 119.238)"><rect width="1.081" height="3.872" fill="#dbcffd"/></g><g transform="translate(151 119.238)"><rect width="1.081" height="3.872" fill="#dbcffd"/></g><g transform="translate(53.58 85.654)"><rect width="3.781" height="12.605" fill="#cbb3fc"/></g><g transform="translate(127.535 94.478)"><rect width="11.21" height="4.457" fill="#f970a8"/></g><g transform="translate(131.699 86.465)"><rect width="2.881" height="8.013" fill="#cbb3fc"/></g><g transform="translate(169.762 98.26)"><path d="M0,0H7.262A2.833,2.833,0,0,1,10.1,2.833V52.045a2.833,2.833,0,0,1-2.833,2.833H0a0,0,0,0,1,0,0V0A0,0,0,0,1,0,0Z" fill="#f95da4"/></g><g transform="translate(165.046 163.899)"><rect width="4.716" height="15.342" fill="#f970a8"/></g><g transform="translate(186.659 87.263)"><path d="M1330.072,379.22c25.482,35.108,19.15,57.381,19.15,57.381l-23.031,3.1S1299,369.774,1291.747,357.32C1286.792,348.809,1312.347,354.8,1330.072,379.22Z" transform="translate(-1291.121 -353.668)" fill="#fd9e38"/></g><g transform="translate(177.572 110.143)"><path d="M1290.393,396.35a1.522,1.522,0,0,0,1.329-1.233c.318-1.7.476-6.916-.641-10.052-.516-1.45-2.651-5.182-6.114-6.14-.8-.22-2.507-.733-3.309-.033-.469.409-.871,1.993.766,6.191.651,1.669,2.421,6.237,3.729,7.527a49.5,49.5,0,0,1,2.714,5.518C1289.026,398.844,1289.187,396.487,1290.393,396.35Z" transform="translate(-1281.244 -378.537)" fill="#ffabab"/></g><g transform="translate(179.332 121.211)"><path d="M1286.577,395.588c-6.205,7.688-3.552,18.16,4.627,23.7,16.446,11.143,32.011,24.48,39,27.6,8.68,3.878,22.475-.586,18.278-13.639-1.6-4.991-9.676-13.958-15.822-18.67C1313.651,400.017,1297.943,381.508,1286.577,395.588Z" transform="translate(-1283.157 -390.568)" fill="#fd9e38"/></g><g transform="translate(188.252 120.875)"><path d="M1292.853,391.269c3.617-1.728,8.053-1.209,11.694.5a31.11,31.11,0,0,1,5.116,3.138c1.613,1.136,3.18,2.325,4.756,3.5,3.113,2.4,6.189,4.849,9.169,7.414s5.948,5.14,8.766,7.9c-3.278-2.19-6.444-4.512-9.606-6.838-3.173-2.311-6.271-4.715-9.4-7.077l-4.668-3.558a40.275,40.275,0,0,0-4.741-3.276,16.162,16.162,0,0,0-5.344-1.9A12.846,12.846,0,0,0,1292.853,391.269Z" transform="translate(-1292.853 -390.203)" fill="#ffcb48"/></g><g transform="translate(178.786 126.232)"><path d="M1286.529,396.025a15.858,15.858,0,0,0-3.076,9.142,14.837,14.837,0,0,0,3.053,8.915c3.971,5.042,9.3,9.194,14.488,13.193,5.191,4.076,10.667,7.783,16.2,11.4,2.77,1.8,5.572,3.559,8.446,5.191a89.566,89.566,0,0,0,8.777,4.633,97.5,97.5,0,0,1-17.936-8.675,185.841,185.841,0,0,1-16.551-11.157q-3.951-3.062-7.685-6.408a43.218,43.218,0,0,1-6.844-7.418,15.838,15.838,0,0,1-2.8-9.709A15.531,15.531,0,0,1,1286.529,396.025Z" transform="translate(-1282.564 -396.025)" fill="#ffcb48"/></g><g transform="translate(136.396 41.328)"><path d="M1236.488,310.025s17.38,20.868,31.448,13.962-8.567-20.249-8.567-20.249Z" transform="translate(-1236.488 -303.738)" fill="#3b2b5b"/></g><g transform="translate(127.409 39.862)"><path d="M1231.059,340.59s15.552-29,11.287-36.3-15.626,6.322-15.626,6.322Z" transform="translate(-1226.719 -302.144)" fill="#3b2b5b"/></g><g transform="translate(22.39 210.782)"><path d="M1327.5,538.958c-1.257-32.78-151.529-72.854-167.34-36.854-31.184,71.009-54.878,184.389-45.535,197.134,2.388,3.255,9.054,4.712,9.054,4.712,2.769,1.047,3.919-.689,5.285-4.169l65.712-157.23s65.859,36.693,89.779,36.312C1324.051,578.231,1328.34,560.736,1327.5,538.958Z" transform="translate(-1112.569 -487.926)" fill="#3b2b5b"/></g><g transform="translate(13.951 221.836)"><path d="M1400.457,499.942H1103.4V526.96h405.9V499.942Z" transform="translate(-1103.396 -499.942)" fill="#ffad96"/></g><g transform="translate(25.893 193.565)"><path d="M3.386,0H155.17a3.386,3.386,0,0,1,3.386,3.386v8.679a0,0,0,0,1,0,0H0a0,0,0,0,1,0,0V3.386A3.386,3.386,0,0,1,3.386,0Z" fill="#dbcffd"/></g><g transform="translate(25.893 205.63)"><rect width="158.557" height="16.207" fill="#cbb3fc"/></g><g transform="translate(45.161 197.166)"><rect width="20.349" height="5.042" fill="#cbb3fc"/></g><g transform="translate(53.445 200.362)"><path d="M1146.324,476.6" transform="translate(-1146.324 -476.601)" fill="#cbb3fc"/></g><g transform="translate(0.937 191.734)"><path d="M1189.483,469.013l-69.731-1.791s-7.01,4.42-12.249,18.045-15.269,10.527-17.335,17.411,0,53.358,0,53.358h71.257l-3.742-41.217a19.276,19.276,0,0,1,8.958-15.438c3.845-2.445,8.087-5.771,10.619-9.705C1182.768,481.118,1171.926,472.565,1189.483,469.013Z" transform="translate(-1089.25 -467.222)" fill="#ff5e4d"/></g><g transform="translate(53.445 173.757)"><path d="M1146.9,474.288l-.574-26.606h2.161Z" transform="translate(-1146.324 -447.682)" fill="#cbb3fc"/></g><g transform="translate(25.65 188.132)"><path d="M1136.077,464.037c-1.922-.531-7.918-1.215-11.639-.232-1.719.454-6.224,2.552-7.662,6.449-.33.9-1.087,2.816-.358,3.807.427.58,3.236-1.191,5.3-3.712,1.309-1.6,3.61-1.055,5.029-.411,0,0-3.3,2.076-2.795,3.043s7.091-1.389,8.7-2.771c0,0,3.76-2.247,4.819-2.9C1138.675,466.563,1136.826,464.244,1136.077,464.037Z" transform="translate(-1116.112 -463.307)" fill="#ff97a6"/></g><g transform="translate(437.397 118.916)"><path d="M1636.047,474.514c-4.515-.244-8.745-2.129-12.762-4.08a113.017,113.017,0,0,1-11.654-6.791,171.821,171.821,0,0,1-21.12-16.78,125.3,125.3,0,0,1-17.888-20.283,61.864,61.864,0,0,1-6.616-11.947,26.622,26.622,0,0,1-2.143-13.713,18.749,18.749,0,0,1,2.4-6.683,19.16,19.16,0,0,1,2.05-2.919,9.253,9.253,0,0,1,3-2.329,9.615,9.615,0,0,1,7.391-.339,10.4,10.4,0,0,1,3.208,1.873l2.593,2.136c6.9,5.714,13.865,11.359,20.713,17.14l20.611,17.266,20.454,17.456L1625.1,427.954,1604.078,411.2c-7.029-5.56-13.947-11.256-20.922-16.884l-2.61-2.116a8.186,8.186,0,0,0-2.569-1.483,7.405,7.405,0,0,0-5.687.292,6.961,6.961,0,0,0-2.253,1.783,16.812,16.812,0,0,0-1.786,2.588,16.583,16.583,0,0,0-2.073,5.9,24.387,24.387,0,0,0,1.906,12.535,59.766,59.766,0,0,0,6.3,11.572,135.794,135.794,0,0,0,17.365,20.184,172.612,172.612,0,0,0,20.53,17.137,111.867,111.867,0,0,0,11.292,7.184C1627.493,471.957,1631.568,474.018,1636.047,474.514Z" transform="translate(-1563.661 -388.072)" fill="#ffe5b0"/></g></g></g></svg>