<svg xmlns="http://www.w3.org/2000/svg" width="190" height="234.08" viewBox="0 0 190 234.08"><g transform="translate(-884.818 -349.914)"><g transform="translate(884.818 564.264)"><ellipse cx="95" cy="9.865" rx="95" ry="9.865" fill="#c6c6c6"/></g><g transform="translate(910.973 452.1)"><g transform="translate(45.312)"><rect width="4.856" height="120.687" fill="#eeeafe"/></g><g transform="translate(50.168)"><rect width="3.249" height="120.687" fill="#dbcffd"/></g><g transform="translate(0 113.947)"><rect width="53.417" height="6.739" fill="#dbcffd"/></g><g transform="translate(4.856)"><rect width="3.249" height="120.687" fill="#dbcffd"/></g><rect width="4.856" height="120.687" fill="#eeeafe"/></g><g transform="translate(967.461 485.308)"><g transform="translate(1.879)"><rect width="3.757" height="88.395" transform="translate(3.757 88.395) rotate(180)" fill="#d5eaf5"/></g><rect width="1.879" height="88.395" transform="translate(1.879 88.395) rotate(180)" fill="#aacbe8"/></g><g transform="translate(926.92 483.666)"><rect width="61.286" height="7.271" transform="translate(61.286 7.271) rotate(180)" fill="#aacbe8"/></g><g transform="translate(977.939 490.065)"><g transform="translate(1.879)"><path d="M972.293,562.4h3.758l.589-83.431h-3.757Z" transform="translate(-972.293 -478.964)" fill="#d5eaf5"/></g><path d="M970.563,562.4h1.879l.589-83.431h-1.879Z" transform="translate(-970.563 -478.964)" fill="#aacbe8"/></g><g transform="translate(968.253 395.618)"><path d="M961.644,480.046h54.31L1039.37,392H986.326Z" transform="translate(-961.644 -391.998)" fill="#f99680"/></g><g transform="translate(974.811 395.622)"><path d="M1039.559,392l-18.294,95.315H967.683v-7.271h47.752l17.439-88.026Z" transform="translate(-967.683 -392.001)" fill="#d5eaf5"/></g><g transform="translate(931.65 484.688)"><g transform="translate(1.879)"><rect width="3.758" height="89.441" transform="translate(3.758 89.441) rotate(180)" fill="#d5eaf5"/></g><rect width="1.879" height="89.441" transform="translate(1.879 89.441) rotate(180)" fill="#aacbe8"/></g><g transform="translate(955.211 350.449)"><path d="M962.933,394.512s-23.627-10.164-7.894-21.893c0,0-5.428-15.617,8.425-21.77,0,0,9.089-3.187,12.147,7.545,0,0,9.074-2.134,9.716,9.1,0,0,7.083-12.331,20.065-5.117s7.776,24.93,7.776,24.93,10.31-4.124,11.632,8.389c2.037,19.27-27.931,24.922-27.931,24.922Z" transform="translate(-949.635 -350.406)" fill="#3b2b5b"/></g><g transform="translate(954.982 349.914)"><path d="M955.309,389.967a19.173,19.173,0,0,1-3.832-3.687,9.4,9.4,0,0,1-2.035-4.938,8.146,8.146,0,0,1,1.591-5.144,19.092,19.092,0,0,1,3.8-3.83l-.127.415a23.959,23.959,0,0,1-1.123-6.447,18.873,18.873,0,0,1,.871-6.505,14.067,14.067,0,0,1,3.4-5.653,18,18,0,0,1,5.414-3.768l.04-.015a10.94,10.94,0,0,1,4.232-.433,8.793,8.793,0,0,1,4.018,1.418,9.877,9.877,0,0,1,2.905,3.084,18.412,18.412,0,0,1,.962,1.868l.68,1.969-.59-.348a9.477,9.477,0,0,1,4.062.116,7.478,7.478,0,0,1,3.532,2.028,9.273,9.273,0,0,1,1.981,3.514c.193.638.306,1.295.451,1.941l.193,1.966-.729-.173a17.958,17.958,0,0,1,3.97-4.354,13.8,13.8,0,0,1,5.242-2.613,12.433,12.433,0,0,1,5.812-.076,15.934,15.934,0,0,1,2.782.835c.892.375,1.733.862,2.6,1.285-.887-.379-1.747-.82-2.65-1.145a16.466,16.466,0,0,0-2.778-.715,12.066,12.066,0,0,0-5.638.287,13.8,13.8,0,0,0-4.964,2.644,17.333,17.333,0,0,0-3.7,4.24.392.392,0,0,1-.54.133.4.4,0,0,1-.187-.287v-.017l-.229-1.874c-.153-.6-.272-1.221-.465-1.807a8.926,8.926,0,0,0-1.82-3.135,6.528,6.528,0,0,0-3.1-1.743,8.555,8.555,0,0,0-3.6-.084.521.521,0,0,1-.588-.337l0-.01-.656-1.851a17.573,17.573,0,0,0-.9-1.719,8.851,8.851,0,0,0-2.613-2.74,7.723,7.723,0,0,0-3.551-1.221,9.958,9.958,0,0,0-3.774.348l.039-.015a16.951,16.951,0,0,0-5.118,3.5,13.085,13.085,0,0,0-3.212,5.256,18.763,18.763,0,0,0-.894,6.181,23.251,23.251,0,0,0,.932,6.228l0,.009a.378.378,0,0,1-.129.406,18.415,18.415,0,0,0-3.746,3.595,7.888,7.888,0,0,0-1.64,4.772,9.045,9.045,0,0,0,1.785,4.812A20.435,20.435,0,0,0,955.309,389.967Z" transform="translate(-949.425 -349.914)" fill="#675893"/></g><g transform="translate(924.299 415.382)"><path d="M921.185,424.7c-.154-.794,1.065-2.283,1.8-2.638,7.63-3.681,21.111-8.741,24.169-11.368,1.945-1.671,10.186.988,7.318,6.291-1.1,2.028-5.82,6.745-8.788,8.307C934.513,431.168,924.262,440.539,921.185,424.7Z" transform="translate(-921.172 -410.197)" fill="#ffcb48"/></g><g transform="translate(945.019 565.632)"><g transform="translate(0 3.147)"><path d="M940.409,557.722c-1.2-2.271,4.747-4.533,7.981-5.634-.832.672-1.829,1.617-.368,1.853,2.136.344,6.594-.845,7.76-2.5a9.614,9.614,0,0,1,1.057,3.649C956.982,556.464,940.96,558.766,940.409,557.722Z" transform="translate(-940.251 -551.444)" fill="#30193b"/></g><g transform="translate(6.477 0)"><path d="M947.508,554.19c-1.461-.236-2.011-1.17.1-1.775a16.236,16.236,0,0,0,3.705-1.621c.86-.512,1.025-2,1.025-2l1.73-.249s1.01,2.841,1.195,3.147C954.1,553.345,949.645,554.534,947.508,554.19Z" transform="translate(-946.214 -548.546)" fill="#ff97a6"/></g></g><g transform="translate(904.508 537.625)"><g transform="translate(0 2.095)"><path d="M902.948,527.765c0-1.746,5.857-2.963,9.272-3.079-.992.4-2.22,1.018-.891,1.666,1.945.949,6.556,1.1,8.151-.139a9.6,9.6,0,0,1-.047,3.8C919.174,531.365,902.948,528.944,902.948,527.765Z" transform="translate(-902.948 -524.686)" fill="#30193b"/></g><g transform="translate(7.363 0)"><path d="M910.747,526.518c-1.329-.648-1.585-1.7.615-1.667a16.171,16.171,0,0,0,4.016-.478c.972-.24,1.562-1.616,1.562-1.616l1.728.264s.143,3.012.23,3.358C917.3,527.621,912.692,527.467,910.747,526.518Z" transform="translate(-909.728 -522.757)" fill="#ff97a6"/></g></g><g transform="translate(937.854 428.591)"><path d="M1010.184,448.162a59.936,59.936,0,0,0-10.211-25.8s-29.05.731-31.722,5.677c.063.071-.1,7.734-.5,8.191-11.926,13.653-33.626,12.724-34.048,30.941-.832,35.933,9.025,88.7,15.278,92.515,1.6.974,4.711.421,4.711.421,1.372-.04,1.462-.7,1.529-2.718l.412-78.975,24.892-1.937c6.681-.218,7.8.123,18.6-2.383C1005.558,472.6,1012.155,462.808,1010.184,448.162Z" transform="translate(-933.653 -422.359)" fill="#30193b"/></g><g transform="translate(964.186 382.407)"><path d="M963.708,432.068c5.174.62,25.077,1.987,35.252-4.5.47-10.973.251-23.29-2.218-33.272-.709-2.867-2.426-8.3-4.811-11-3.439-3.893-9.478-3.846-14.6-3-2.564.426-5.091.838-6.346,1.025-8.927,1.33-8.8,1.59-12.4,6.417C955.53,391.829,963.708,432.068,963.708,432.068Z" transform="translate(-957.899 -379.834)" fill="#fd9e38"/></g><g transform="translate(964.186 383.335)"><path d="M963.708,431.995a93.991,93.991,0,0,0,14.84.22c.55-.033,2.785-.046,2.785-.046s-2.263-13.342-5.419-26.308c-3.006-12.343-.725-23.494-1.043-25-.126-.6-5.059.569-5.585.651-7.23,1.129-7.347,1.661-10.7,6.16C955.53,391.756,963.708,431.995,963.708,431.995Z" transform="translate(-957.899 -380.688)" fill="#ffcb48"/></g><g transform="translate(977.598 375.866)"><path d="M970.249,374.948s1.368,6.542,1.721,7.554c.475,1.366,3.886,2.158,4.4-.16s-2.96-8.533-2.96-8.533Z" transform="translate(-970.249 -373.81)" fill="#ff97a6"/><g transform="translate(0.359 1.645)"><path d="M971.481,380.592a5.16,5.16,0,0,0,4.45-1.251,31.464,31.464,0,0,0-1.689-4.016l-3.663,1.317C970.816,377.787,971.14,379.282,971.481,380.592Z" transform="translate(-970.58 -375.325)" fill="#c95d77"/></g></g><g transform="translate(965.493 363.609)"><path d="M976.007,372.048c.065-1.037-1.327-4.3-2.577-6.993a4.384,4.384,0,0,0-5.922-2.074c-3.42,1.693-7.106,3.768-7.854,4.9-1.176,1.78-.2,4.156.48,5.941s2.545,4.722,4.229,5.745a8.777,8.777,0,0,0,6.456.228C975.588,377.673,976.429,375.852,976.007,372.048Z" transform="translate(-959.103 -362.524)" fill="#ff97a6"/></g><g transform="translate(947.536 385.615)"><path d="M968.569,382.8s.437,5.646-7.329,20.752c-9.167,17.829-8.671,19.89-14.292,16.825l-4.38-2.308s8.329-23.656,11.656-29.445C957.938,382.165,968.569,382.8,968.569,382.8Z" transform="translate(-942.568 -382.787)" fill="#ffcb48"/></g><g transform="translate(985.675 393.016)"><path d="M0,0H1.726a2.65,2.65,0,0,1,2.65,2.65v9.722a2.65,2.65,0,0,1-2.65,2.65H0a0,0,0,0,1,0,0V0A0,0,0,0,1,0,0Z" fill="#f970a8"/></g><g transform="translate(931.426 419.899)"><path d="M0,0H1.211a.542.542,0,0,1,.542.542v2.38a.542.542,0,0,1-.542.542H0a0,0,0,0,1,0,0V0A0,0,0,0,1,0,0Z" fill="#f970a8"/></g><g transform="translate(928.15 410.719)"><rect width="3.38" height="13.833" fill="#cbb3fc"/></g><g transform="translate(979.888 399.223)"><rect width="5.133" height="3.213" fill="#f95da4"/></g><g transform="translate(923.915 387.811)"><path d="M931.965,412.766h-9.831a1.317,1.317,0,0,1-1.316-1.316V386.125a1.316,1.316,0,0,1,1.316-1.316h15.458l-4.328,26.851A1.317,1.317,0,0,1,931.965,412.766Z" transform="translate(-920.818 -384.809)" fill="#f970a8"/></g><g transform="translate(933.929 387.81)"><path d="M0,0H44.985a1.333,1.333,0,0,1,1.333,1.333V16.691a0,0,0,0,1,0,0H0a0,0,0,0,1,0,0V0A0,0,0,0,1,0,0Z" fill="#f970a8"/></g><g transform="translate(951.394 387.811)"><path d="M950.438,398.231l-4.3,30.339a1.8,1.8,0,0,0,1.785,2.056h27.8V386.144a1.335,1.335,0,0,0-1.336-1.335H951.439Z" transform="translate(-946.121 -384.809)" fill="#f970a8"/></g><g transform="translate(959.989 393.805)"><rect width="16.524" height="4.173" rx="1.149" fill="#dbcffd"/></g><g transform="translate(961.532 394.556)"><rect width="13.436" height="2.671" fill="#cbb3fc"/></g><g transform="translate(961.804 397.533)"><rect width="0.501" height="1.795" fill="#dbcffd"/></g><g transform="translate(964.341 397.533)"><rect width="0.501" height="1.795" fill="#dbcffd"/></g><g transform="translate(966.878 397.533)"><rect width="0.501" height="1.795" fill="#dbcffd"/></g><g transform="translate(969.415 397.533)"><rect width="0.501" height="1.795" fill="#dbcffd"/></g><g transform="translate(971.952 397.533)"><rect width="0.501" height="1.795" fill="#dbcffd"/></g><g transform="translate(974.489 397.533)"><rect width="0.501" height="1.795" fill="#dbcffd"/></g><g transform="translate(929.339 381.968)"><rect width="1.753" height="5.842" fill="#cbb3fc"/></g><g transform="translate(963.614 386.058)"><rect width="5.195" height="2.066" fill="#f970a8"/></g><g transform="translate(965.544 382.344)"><rect width="1.335" height="3.714" fill="#cbb3fc"/></g><g transform="translate(983.184 387.81)"><path d="M0,0H1.845A2.833,2.833,0,0,1,4.679,2.833V22.6a2.833,2.833,0,0,1-2.833,2.833H0a0,0,0,0,1,0,0V0A0,0,0,0,1,0,0Z" fill="#f95da4"/></g><g transform="translate(980.999 418.231)"><rect width="2.186" height="7.11" fill="#f970a8"/></g><g transform="translate(991.014 382.714)"><path d="M1000.655,391.958c11.81,16.272,8.876,26.593,8.876,26.593l-10.673,1.439s-12.6-32.41-15.964-38.181C980.6,377.865,992.441,380.641,1000.655,391.958Z" transform="translate(-982.603 -380.116)" fill="#fd9e38"/></g><g transform="translate(986.804 393.318)"><path d="M982.966,398.136a.707.707,0,0,0,.616-.572,11.646,11.646,0,0,0-.3-4.658,4.872,4.872,0,0,0-2.833-2.845c-.369-.1-1.162-.34-1.534-.016-.217.19-.4.924.355,2.869A14.433,14.433,0,0,0,981,396.4a22.845,22.845,0,0,1,1.258,2.558C982.333,399.291,982.406,398.2,982.966,398.136Z" transform="translate(-978.726 -389.88)" fill="#ffabab"/></g><g transform="translate(987.619 398.447)"><path d="M981.062,396.93c-2.876,3.562-1.646,8.416,2.144,10.984,7.623,5.165,14.836,11.346,18.076,12.793,4.023,1.8,10.416-.272,8.471-6.321-.744-2.313-4.484-6.469-7.333-8.652C993.609,398.983,986.329,390.4,981.062,396.93Z" transform="translate(-979.477 -394.603)" fill="#fd9e38"/></g><g transform="translate(991.753 398.292)"><path d="M983.283,394.954a6.467,6.467,0,0,1,5.42.231,14.4,14.4,0,0,1,2.371,1.454c.747.527,1.474,1.077,2.2,1.624,1.443,1.113,2.868,2.247,4.25,3.435s2.756,2.383,4.062,3.661c-1.519-1.015-2.987-2.092-4.452-3.17s-2.906-2.185-4.354-3.28l-2.163-1.649a18.739,18.739,0,0,0-2.2-1.518,7.491,7.491,0,0,0-2.477-.879A5.961,5.961,0,0,0,983.283,394.954Z" transform="translate(-983.283 -394.46)" fill="#ffcb48"/></g><g transform="translate(987.366 400.774)"><path d="M981.082,396.746a7.352,7.352,0,0,0-1.425,4.237,6.87,6.87,0,0,0,1.415,4.131,37.478,37.478,0,0,0,6.714,6.114c2.406,1.889,4.945,3.608,7.507,5.285,1.284.833,2.582,1.65,3.914,2.406a41.575,41.575,0,0,0,4.067,2.147,45.072,45.072,0,0,1-8.311-4.02,86.013,86.013,0,0,1-7.672-5.171q-1.829-1.419-3.561-2.969a20.1,20.1,0,0,1-3.172-3.438,7.346,7.346,0,0,1-1.3-4.5A7.2,7.2,0,0,1,981.082,396.746Z" transform="translate(-979.244 -396.746)" fill="#ffcb48"/></g><g transform="translate(967.72 361.425)"><path d="M961.154,363.428s8.055,9.67,14.574,6.47-3.97-9.385-3.97-9.385Z" transform="translate(-961.154 -360.513)" fill="#3b2b5b"/></g><g transform="translate(963.555 360.746)"><path d="M959.33,377.705s7.207-13.439,5.23-16.821-7.242,2.93-7.242,2.93Z" transform="translate(-957.319 -359.888)" fill="#3b2b5b"/></g><g transform="translate(914.885 439.959)"><path d="M1012.115,456.477c-.582-15.192-70.226-33.764-77.554-17.08-14.453,32.908-25.433,85.454-21.1,91.361,1.106,1.509,4.2,2.184,4.2,2.184,1.284.485,1.817-.319,2.45-1.932l30.454-72.867s30.523,17,41.608,16.828C1010.514,474.678,1012.5,466.571,1012.115,456.477Z" transform="translate(-912.503 -432.827)" fill="#3b2b5b"/></g><g transform="translate(910.973 445.082)"><path d="M1020.993,450.065V437.544H908.9v12.521H983" transform="translate(-908.902 -437.544)" fill="#ffad96"/></g><g transform="translate(916.508 431.979)"><path d="M3.386,0H70.1a3.386,3.386,0,0,1,3.386,3.386V5.592a0,0,0,0,1,0,0H0a0,0,0,0,1,0,0V3.386A3.386,3.386,0,0,1,3.386,0Z" fill="#dbcffd"/></g><g transform="translate(916.508 437.571)"><rect width="73.483" height="7.511" fill="#cbb3fc"/></g><g transform="translate(925.438 433.648)"><rect width="9.431" height="2.337" fill="#cbb3fc"/></g><g transform="translate(929.276 435.129)"><path d="M925.755,428.38" transform="translate(-925.755 -428.38)" fill="#cbb3fc"/></g><g transform="translate(904.942 431.131)"><path d="M949.8,425.528l-32.317-.83s-3.248,2.048-5.677,8.362-7.077,4.879-8.033,8.07,0,24.728,0,24.728H936.8l-1.734-19.1a8.936,8.936,0,0,1,4.152-7.155,16.274,16.274,0,0,0,4.922-4.5C946.689,431.138,941.664,427.174,949.8,425.528Z" transform="translate(-903.348 -424.698)" fill="#ff5e4d"/></g><g transform="translate(929.277 422.799)"><path d="M926.021,429.357l-.266-12.331h1Z" transform="translate(-925.756 -417.026)" fill="#cbb3fc"/></g><g transform="translate(916.395 429.461)"><path d="M923.147,423.5a13.456,13.456,0,0,0-5.394-.108,5.632,5.632,0,0,0-3.55,2.989c-.153.415-.5,1.3-.166,1.765.2.268,1.5-.553,2.454-1.721.607-.743,1.674-.489,2.331-.19,0,0-1.531.962-1.3,1.411s3.286-.644,4.034-1.285c0,0,1.743-1.041,2.233-1.344C924.351,424.669,923.494,423.6,923.147,423.5Z" transform="translate(-913.894 -423.161)" fill="#ff97a6"/></g><g transform="translate(1042.57 452.22)"><rect width="4.933" height="120.687" fill="#eeeafe"/></g><g transform="translate(1047.503 452.22)"><rect width="3.301" height="120.687" fill="#dbcffd"/></g><g transform="translate(1008.952 452.22)"><rect width="3.301" height="120.687" fill="#dbcffd"/></g><g transform="translate(1004.019 452.22)"><rect width="4.933" height="120.687" fill="#eeeafe"/></g><g transform="translate(1004.019 445.125)"><rect width="47.041" height="12.436" fill="#f99680"/></g></g></svg>