<svg xmlns="http://www.w3.org/2000/svg" width="38.993" height="36.762" viewBox="0 0 38.993 36.762"><g transform="translate(0 -13.951)"><path d="M36.122,27.09h-.568a16.027,16.027,0,0,0-4.638-6.405,4.212,4.212,0,0,1,.688-3.431,2.134,2.134,0,0,0,.064-2.191,2.156,2.156,0,0,0-1.879-1.112c-.088,0-.184.008-.272.016a8.684,8.684,0,0,0-5.758,2.9,16.093,16.093,0,0,0-3.207-.544,21.647,21.647,0,0,0-2.279-.128,19.5,19.5,0,0,0-12.867,4.67A15.126,15.126,0,0,0,0,32.32a14.236,14.236,0,0,0,.392,3.335c.008.024.008.048.016.064l.008.04a15.294,15.294,0,0,0,1.2,3.215,16.954,16.954,0,0,0,3.079,4.646,7.28,7.28,0,0,1,1.935,4.622v.472a1.242,1.242,0,0,0,.024.248,2.064,2.064,0,0,0,2.031,1.751h5.958A2.055,2.055,0,0,0,16.7,48.657v-.272a21,21,0,0,0,2.559.032v.24a2.055,2.055,0,0,0,2.055,2.055h5.958a2.055,2.055,0,0,0,2.055-2.055V47.2a4.809,4.809,0,0,1,1.647-3.3c.072-.064.152-.128.224-.192l.016-.016a.187.187,0,0,0,.056-.056A15.918,15.918,0,0,0,35.634,37.3h.472a2.891,2.891,0,0,0,2.887-2.887V29.961A2.858,2.858,0,0,0,36.122,27.09ZM29.788,16.1h0l-.008-.008V16.1h0l-.136-1.072ZM36.85,34.423a.73.73,0,0,1-.728.728H34.874a1.082,1.082,0,0,0-1.032.76,13.662,13.662,0,0,1-4.03,6.15l-.016.016-.008.008-.216.192-.024.024a6.953,6.953,0,0,0-2.367,4.87v1.391H21.424v-1.3a1.084,1.084,0,0,0-1.192-1.072,17.971,17.971,0,0,1-1.959.1,18.622,18.622,0,0,1-2.5-.168,1.076,1.076,0,0,0-1.224,1.072v1.367H8.8V48.17a9.459,9.459,0,0,0-2.543-6.054,14.618,14.618,0,0,1-2.679-4.07c-.008-.016-.016-.024-.016-.04a12.59,12.59,0,0,1-1.04-2.767c0-.008-.008-.016-.008-.024V35.2a12.47,12.47,0,0,1-.344-2.871c0-7.7,7.229-13.963,16.114-13.963a19.7,19.7,0,0,1,2.063.112.1.1,0,0,1,.048.008,10.531,10.531,0,0,1,3.223.648,1.083,1.083,0,0,0,1.407-.344,6.368,6.368,0,0,1,4.758-2.663,6.379,6.379,0,0,0-.928,5.19,1.1,1.1,0,0,0,.4.808,13.821,13.821,0,0,1,4.526,6.4,1.083,1.083,0,0,0,1.024.744H36.13a.73.73,0,0,1,.728.728v4.43H36.85Z" fill="#ff9283"/></g></svg>