<svg xmlns="http://www.w3.org/2000/svg" width="79.674" height="75" viewBox="0 0 79.674 75"><g transform="translate(-561 -293.951)"><path d="M635.665,321.475h-1.189a1,1,0,0,1-.937-.64,32.72,32.72,0,0,0-9.428-13.015,1.007,1.007,0,0,1-.32-.5,9.763,9.763,0,0,1,1.56-7.992,3.505,3.505,0,0,0-2.954-5.376c-.139,0-.31.014-.463.028a17.254,17.254,0,0,0-11.406,5.736,1.005,1.005,0,0,1-1.063.3,29.743,29.743,0,0,0-6.446-1.093l-.05,0-.027,0a44.45,44.45,0,0,0-4.668-.262,39.859,39.859,0,0,0-26.294,9.536C564.9,314.381,561,322.632,561,331.426a28.863,28.863,0,0,0,.787,6.725c.012.043.02.08.026.11s.016.059.022.088l.012.062a31.061,31.061,0,0,0,2.429,6.5l.014.028a34.469,34.469,0,0,0,6.261,9.459,16.222,16.222,0,0,1,4.336,10.334c0,.016,0,.032,0,.047v.988a1.6,1.6,0,0,0,.031.322c0,.015.006.03.008.045a3.33,3.33,0,0,0,3.262,2.816h12.48a3.3,3.3,0,0,0,3.3-3.3v-.57a1.005,1.005,0,0,1,1.005-1.005l.076,0c1.014.077,2.063.115,3.118.115.7,0,1.408-.017,2.12-.05h.047a1.005,1.005,0,0,1,1.005,1.005v.5a3.3,3.3,0,0,0,3.3,3.3h12.48a3.3,3.3,0,0,0,3.3-3.3V362.6c0-.008,0-.016,0-.024a11.108,11.108,0,0,1,3.779-7.638l.009-.008c.082-.073.168-.146.255-.219.065-.055.131-.11.193-.165l.012-.012c.02-.019.04-.038.061-.056a1,1,0,0,1,.1-.1,32.439,32.439,0,0,0,8.874-12.865,1,1,0,0,1,.944-.659h.988a5.048,5.048,0,0,0,5.042-5.042v-9.341a4.883,4.883,0,0,0-1.428-3.508A5,5,0,0,0,635.665,321.475Zm2.546,14.357a1.012,1.012,0,0,1-.027.235,2.533,2.533,0,0,1-2.519,2.295h-2.613a1.257,1.257,0,0,0-1.2.878,29.6,29.6,0,0,1-8.714,13.321l-.013.013-.017.017-.043.04-.43.382-.029.029-.036.034a13.562,13.562,0,0,0-4.628,9.47v2.9a1,1,0,0,1-1.005,1.005H604.874a1,1,0,0,1-1.005-1.005v-2.731a1.216,1.216,0,0,0-.405-.914l-.028-.025a1.218,1.218,0,0,0-.823-.314,1.188,1.188,0,0,0-.127.007,38.759,38.759,0,0,1-4.212.224,40.07,40.07,0,0,1-5.379-.361,1.274,1.274,0,0,0-.157-.01,1.246,1.246,0,0,0-1.265,1.258v2.865a1,1,0,0,1-1.005,1.005H578.422a1,1,0,0,1-1.005-1.005v-.8a18.784,18.784,0,0,0-5.043-12,31.576,31.576,0,0,1-5.788-8.772,1.133,1.133,0,0,1-.08-.175,27.412,27.412,0,0,1-2.2-5.867,1.041,1.041,0,0,1-.053-.236,27.082,27.082,0,0,1-.726-6.154c0-16.682,15.594-30.255,34.761-30.255a42.222,42.222,0,0,1,4.382.235,1.2,1.2,0,0,1,.21.025c1.485.1,5.344.539,7.06,1.469a1.228,1.228,0,0,0,.59.15,1.271,1.271,0,0,0,1.049-.554c1.574-2.334,4.707-5.276,10.675-6.009a1.005,1.005,0,0,1,.975,1.53A12.4,12.4,0,0,0,621.4,308.1a1,1,0,0,1,.037.247,1.3,1.3,0,0,0,.471.941,29.932,29.932,0,0,1,9.8,13.865,1.267,1.267,0,0,0,1.189.866h2.781a2.533,2.533,0,0,1,2.53,2.53Z" fill="#fd9385"/></g></svg>