<svg xmlns="http://www.w3.org/2000/svg" width="46.501" height="34.073" viewBox="0 0 46.501 34.073"><path d="M43.562,2.9A2.926,2.926,0,0,0,41.59,8L29.519,17.908,24.008,5.762a2.937,2.937,0,1,0-1.516,0L16.98,17.908,4.909,8a2.926,2.926,0,1,0-1.972.775,2.887,2.887,0,0,0,.755-.111c.005.022,0,.044.01.067l6.912,21.1H9.467A.668.668,0,0,0,8.8,30.5v2.9a.668.668,0,0,0,.668.668H37.034A.668.668,0,0,0,37.7,33.4V30.5a.668.668,0,0,0-.668-.668H35.886L42.8,8.731a.673.673,0,0,0,.01-.067,2.887,2.887,0,0,0,.755.111,2.937,2.937,0,1,0,0-5.873ZM1.522,5.838A1.415,1.415,0,1,1,2.937,7.254,1.417,1.417,0,0,1,1.522,5.838Zm34.843,26.9H10.134V31.172H36.365ZM21.834,2.937A1.415,1.415,0,1,1,23.25,4.353,1.417,1.417,0,0,1,21.834,2.937ZM34.383,29.782H12.116L5.846,10.637,16.79,19.62a.722.722,0,0,0,1.116-.26L23.25,7.586l5.344,11.775a.722.722,0,0,0,1.116.26l10.945-8.983ZM43.562,7.254a1.416,1.416,0,1,1,1.415-1.416A1.417,1.417,0,0,1,43.562,7.254Z" fill="#00bc8c"/></svg>