<?xml version="1.0" encoding="utf-8"?>
<!-- Generator: Adobe Illustrator 22.0.0, SVG Export Plug-In . SVG Version: 6.00 Build 0)  -->
<svg version="1.1" id="Layer_1" xmlns="http://www.w3.org/2000/svg" xmlns:xlink="http://www.w3.org/1999/xlink" x="0px" y="0px"
	 viewBox="0 0 1160.7 651.5" style="enable-background:new 0 0 1160.7 651.5;" xml:space="preserve">
<style type="text/css">
	.st0{fill:#F1EDFF;}
	.st1{fill:#BAA4FF;}
	.st2{fill:#EEEAFE;}
	.st3{fill:#CBB3FC;}
	.st4{fill:#DBCFFD;}
	.st5{fill:#F44638;}
	.st6{fill:#B69FF7;}
	.st7{fill:#FF5E4D;}
	.st8{fill:none;stroke:#000000;stroke-miterlimit:10;}
	.st9{fill:#FD9E38;}
	.st10{fill:#FFCB48;}
	.st11{fill:#B52366;}
	.st12{fill:#C43B72;}
	.st13{fill:#61BDD6;}
	.st14{fill:#76D8DF;}
	.st15{fill:#30193B;}
	.st16{fill:#FF97A6;}
	.st17{fill:#3B2B5B;}
	.st18{fill:#F8F7FD;}
	.st19{fill:#C95D77;}
	.st20{fill:#295A6E;}
	.st21{fill:#396F7F;}
	.st22{fill:#7F65C1;}
	.st23{fill:#EF4743;}
	.st24{fill:#F970A8;}
	.st25{fill:#F95DA4;}
	.st26{fill:#2A6868;}
	.st27{fill:#357A5F;}
	.st28{fill:#FC877E;}
	.st29{fill:#184056;}
	.st30{fill:#F99680;}
	.st31{fill:#FFAD96;}
	.st32{fill:#AACBE8;}
	.st33{fill:#D5EAF5;}
	.st34{fill:#F48989;}
	.st35{fill:#FFE5B0;}
	.st36{fill:#6F58B7;}
	.st37{fill:#F9D5A0;}
	.st38{fill:#3F7889;}
	.st39{fill:#27664B;}
	.st40{fill:#9D83E5;}
	.st41{fill:#675893;}
	.st42{fill:#FFABAB;}
	.st43{fill:#F98A8A;}
	.st44{fill:#A87C1B;}
	.st45{fill:#D6A034;}
	.st46{fill:#FFFFFF;}
	.st47{fill:#DB1B12;}
	.st48{fill:#EF599D;}
	.st49{fill:#FC9C97;}
	.st50{fill:#4EA07D;}
</style>
<path class="st0" d="M32.7,499.7h1111.6c0,0,20.1-372.1-274.5-448.1C438.2-59.9,125.6,306.8,32.7,499.7z"/>
<ellipse class="st1" cx="579.3" cy="501.3" rx="569.8" ry="14.3"/>
<g>
	<ellipse class="st2" cx="574.7" cy="622.1" rx="201.4" ry="13.7"/>
</g>
<g>
	<ellipse class="st2" cx="416.4" cy="635.7" rx="25.7" ry="5.7"/>
</g>
<g>
	<g>
		<g>
			<rect x="467.4" y="502.6" class="st3" width="26.4" height="8.3"/>
		</g>
		<g>
			<rect x="469.2" y="236.7" class="st4" width="7.6" height="265.9"/>
		</g>
		<g>
			<rect x="476.8" y="236.7" class="st3" width="3.8" height="265.9"/>
		</g>
		<g>
			<rect x="460.4" y="502.6" class="st4" width="26.4" height="8.3"/>
		</g>
	</g>
	<g>
		<g>
			<rect x="456.6" y="262.9" class="st4" width="17" height="4.6"/>
		</g>
		<g>
			<rect x="267.9" y="258" class="st5" width="184.2" height="89.9"/>
		</g>
		<g>
			<path class="st6" d="M459.6,284.4c5.6,0,10.2-8.6,10.2-19.1c0-10.6-4.6-19.1-10.2-19.1h-4.5v38.3l5,0"/>
		</g>
		<g>
			<ellipse class="st3" cx="455.1" cy="265.2" rx="10.2" ry="19.1"/>
		</g>
		<g>
			<path class="st7" d="M451.9,248.4c5,0,9,7.6,9,17c0,9.4-4,17-9,17V248.4"/>
		</g>
		<g>
			<rect x="267.9" y="248.4" class="st7" width="184.2" height="33.8"/>
		</g>
		<g>
			<g>
				<path class="st8" d="M451.9,248.4"/>
			</g>
		</g>
		<g>
			<path class="st6" d="M269.4,284.4c5.6,0,10.2-8.6,10.2-19.1c0-10.6-4.6-19.1-10.2-19.1h-4.5v38.3l5,0"/>
		</g>
		<g>
			<ellipse class="st3" cx="265.6" cy="265.2" rx="10.2" ry="19.1"/>
		</g>
		<g>
			<path class="st4" d="M269.4,265.2c0,4-1.7,7.3-3.9,7.3c-2.1,0-3.9-3.3-3.9-7.3c0-4,1.7-7.3,3.9-7.3
				C267.7,258,269.4,261.2,269.4,265.2z"/>
		</g>
		<g>
			<rect x="247.3" y="262.9" class="st4" width="17" height="4.6"/>
		</g>
	</g>
	<g>
		<g>
			<rect x="458" y="355.5" class="st4" width="17" height="4.6"/>
		</g>
		<g>
			<rect x="269.3" y="350.5" class="st9" width="184.2" height="72.9"/>
		</g>
		<g>
			<path class="st6" d="M461,376.9c5.6,0,10.2-8.6,10.2-19.1c0-10.6-4.6-19.1-10.2-19.1h-4.5v38.3l5,0"/>
		</g>
		<g>
			<ellipse class="st3" cx="456.5" cy="357.8" rx="10.2" ry="19.1"/>
		</g>
		<g>
			<path class="st10" d="M453.3,340.9c5,0,9,7.6,9,17s-4,17-9,17V340.9"/>
		</g>
		<g>
			<rect x="269.3" y="340.9" class="st10" width="184.2" height="33.8"/>
		</g>
		<g>
			<g>
				<path class="st8" d="M453.3,340.9"/>
			</g>
		</g>
		<g>
			<path class="st6" d="M270.9,376.9c5.6,0,10.2-8.6,10.2-19.1c0-10.6-4.6-19.1-10.2-19.1h-4.5v38.3l5,0"/>
		</g>
		<g>
			<ellipse class="st3" cx="267" cy="357.8" rx="10.2" ry="19.1"/>
		</g>
		<g>
			<path class="st4" d="M270.9,357.8c0,4-1.7,7.3-3.9,7.3c-2.1,0-3.9-3.3-3.9-7.3c0-4,1.7-7.3,3.9-7.3
				C269.1,350.5,270.9,353.8,270.9,357.8z"/>
		</g>
		<g>
			<rect x="248.8" y="355.5" class="st4" width="17" height="4.6"/>
		</g>
	</g>
	<g>
		<g>
			<rect x="459" y="401.5" class="st4" width="17" height="4.6"/>
		</g>
		<g>
			<rect x="270.3" y="396.6" class="st11" width="184.2" height="72.9"/>
		</g>
		<g>
			<path class="st6" d="M462,423c5.6,0,10.2-8.6,10.2-19.1c0-10.6-4.6-19.1-10.2-19.1h-4.5V423l5,0"/>
		</g>
		<g>
			<ellipse class="st3" cx="457.5" cy="403.8" rx="10.2" ry="19.1"/>
		</g>
		<g>
			<path class="st12" d="M454.3,386.9c5,0,9,7.6,9,17s-4,17-9,17V386.9"/>
		</g>
		<g>
			<rect x="270.3" y="386.9" class="st12" width="184.2" height="33.8"/>
		</g>
		<g>
			<g>
				<path class="st8" d="M454.3,386.9"/>
			</g>
		</g>
		<g>
			<path class="st6" d="M271.9,423c5.6,0,10.2-8.6,10.2-19.1c0-10.6-4.6-19.1-10.2-19.1h-4.5V423l5,0"/>
		</g>
		<g>
			<path class="st3" d="M278.2,403.8c0,10.6-4.6,19.1-10.2,19.1c-5.6,0-10.2-8.6-10.2-19.1c0-10.6,4.6-19.1,10.2-19.1
				C273.6,384.7,278.2,393.3,278.2,403.8z"/>
		</g>
		<g>
			<path class="st4" d="M271.9,403.8c0,4-1.7,7.3-3.9,7.3c-2.1,0-3.9-3.3-3.9-7.3c0-4,1.7-7.3,3.9-7.3
				C270.1,396.6,271.9,399.8,271.9,403.8z"/>
		</g>
		<g>
			<rect x="249.8" y="401.5" class="st4" width="17" height="4.6"/>
		</g>
	</g>
	<g>
		<rect x="458.5" y="307.9" class="st4" width="17" height="4.6"/>
	</g>
	<g>
		<path class="st13" d="M480.6,364h-187c0,0-5.7-2-15.2-20.3c-5.9-11.4-8.7-40.7-8.7-40.7H454c0,0,7.5,30,13.1,40.1
			C475.5,357.9,480.6,364,480.6,364z"/>
	</g>
	<g>
		<path class="st6" d="M461.5,329.3c5.6,0,10.2-8.6,10.2-19.1c0-10.6-4.6-19.1-10.2-19.1h-4.5v38.3l5,0"/>
	</g>
	<g>
		<ellipse class="st3" cx="456.9" cy="310.2" rx="10.2" ry="19.1"/>
	</g>
	<g>
		<path class="st14" d="M453.8,293.3c5,0,9,7.6,9,17c0,9.4-4,17-9,17V293.3"/>
	</g>
	<g>
		<rect x="269.8" y="293.3" class="st14" width="184.2" height="33.8"/>
	</g>
	<g>
		<g>
			<path class="st8" d="M453.8,293.3"/>
		</g>
	</g>
	<g>
		<path class="st6" d="M271.3,329.3c5.6,0,10.2-8.6,10.2-19.1c0-10.6-4.6-19.1-10.2-19.1h-4.5v38.3l5,0"/>
	</g>
	<g>
		<ellipse class="st3" cx="267.5" cy="310.2" rx="10.2" ry="19.1"/>
	</g>
	<g>
		<ellipse class="st4" cx="267.5" cy="310.2" rx="3.9" ry="7.3"/>
	</g>
	<g>
		<rect x="249.2" y="307.9" class="st4" width="17" height="4.6"/>
	</g>
	<g>
		<path class="st14" d="M293.6,364l183.2-23.9c0,0,7.4,3,8.6,10.4c1.4,8.3-0.8,12.2-4.8,13.4H293.6z"/>
	</g>
	<g>
		<g>
			<g>
				<path class="st2" d="M393.7,343.6c-3.2-2.1-17.7-8.9-17.7-8.9s-9.5-13.7-12.3-16.8c-1.3-1.5-2.9-2.9-2.9-2.9
					c-1.5-1.4-5.1-2.4-10.5-3.2c1.7,4.1,12.2,17.9,12.2,17.3c2,3.3,4.5,7,7.4,10.3c3.1,3.6,5.2,5.8,10.4,10.6
					c5,4.7,15.9,1.3,15.9,1.3S396.9,345.7,393.7,343.6z"/>
			</g>
		</g>
		<g>
			<path class="st14" d="M293.6,364l183.2-23.9c0,0,7.4,3,8.6,10.4c1.4,8.3-0.8,12.2-4.8,13.4H293.6z"/>
		</g>
		<g>
			<g>
				<g>
					<path class="st15" d="M292.9,510.8c-4.1-0.9,0.8-5.6,4.2-6.2c-0.9,0.5-2,1.1-0.6,1.4c2.1,0.5,5-1.4,6.4-2.6
						c0.5,0.9,0.6,2.2,0.6,3C303.4,507.6,296,511.5,292.9,510.8z"/>
				</g>
			</g>
			<g>
				<g>
					<path class="st16" d="M296.6,506.6c-1.5-0.2-0.6-1.7,0.4-2.3c3.5-2,3.4-3.4,3.4-3.4l1.8,0c0,0,0.6,2.4,0.8,2.6
						C302,504.8,299.7,507.1,296.6,506.6z"/>
				</g>
			</g>
		</g>
		<g>
			<g>
				<g>
					<path class="st15" d="M351.9,509.3c0.6-4.2-4.9-3.8-8.1-4.5c0.9,0.6,1.9,1.3,0.5,1.7c-2,0.5-6.3-0.1-7.6-1.6
						c-0.5,1.1-0.6,2.5-0.6,3.5C336.1,509.8,351.7,510.4,351.9,509.3z"/>
				</g>
			</g>
			<g>
				<g>
					<path class="st16" d="M344.3,506.5c1.4-0.4,1.8-1.3-0.3-1.7c-1.8-0.3-3.3-1-3.7-1.2c-0.9-0.4-1.2-1.8-1.2-1.8l-1.7-0.1
						c0,0-0.7,2.8-0.8,3.1C338,506.3,342.3,507,344.3,506.5z"/>
				</g>
			</g>
		</g>
		<g>
			<g>
				<path class="st17" d="M355.3,364.5c-3.3-8.7-6-15-7.9-15.9c-10.5-4.5-25.4-10.8-27.4-10.4c-1.9,1.1-13.8,18.9-15.9,30.3
					c-5,27.3-5.1,122.4-5.2,132.1c0,0.4,0.3,0.8,0.8,0.9l2.8,0.4c0.4,0.1,0.8-0.2,1-0.6c1.8-5.7,13.8-44.2,20.4-77.4
					c4.5-22.9,7.4-42.3,8.6-43c3.2,10,2.5,103.1,4.5,121.2c0.3,3,6,0.7,6-1.8c0-10.8,13.4-46.4,17-81.5
					C362.4,394.5,360.2,377.6,355.3,364.5z"/>
			</g>
		</g>
		<g>
			<g>
				<path class="st15" d="M355.3,364.5c-3.3-8.7-6-15-7.9-15.9c-2.8-1.2-5.9-2.5-8.9-3.8c-4.1-1.7,8.4,25.5,9.7,63.8
					c0.5,15.4-3,35.3-4.1,49.9c-1.3,17.9-2.8,27.2-3.5,34.9c-0.3,3.4-1.4,10-1.2,10c2.5-0.7,3.4-2.2,3.6-3.1
					c2.6-11.1,13.4-46.4,17-81.5C362.4,394.5,360.2,377.6,355.3,364.5z"/>
			</g>
		</g>
		<g>
			<path class="st18" d="M329.7,313.5c-1.8,5.1-5.2,14.3-10.9,25.5c0,0-0.8,2.6,9.8,8.8c10,5.9,22.1,5.4,22.1,5.4s5.1-7.9,9.4-17.7
				c4.7-10.5,3.6-17.8,1.9-19.6c-0.7-0.7-12.2-9.9-23.8-9.1C334.3,307.1,331,309.8,329.7,313.5z"/>
		</g>
		<g>
			<path class="st2" d="M334.3,350.5c8.3,3,16.3,2.7,16.3,2.7s4.8-8,9.4-17.7c5-10.5,3.5-17.8,1.9-19.6c-1.4-1.6-6.4-4.4-6.4-4.4
				s2.2,12.3-2.6,21.7C347.6,343.7,333.3,350.2,334.3,350.5z"/>
		</g>
		<g>
			<g>
				<path class="st16" d="M359.1,308.2c0,0-2.5,5.6-3.3,5.8c-0.9,0.2-3.2-0.4-3.4-2.4c-0.2-2,3.9-5.5,3.9-5.5L359.1,308.2z"/>
			</g>
			<g>
				<path class="st19" d="M357.1,312.2c-1.4-0.4-2.6-1.2-3.4-3.5c0.6-0.9,0.8-1,1.5-1.7l3.3,2.4
					C358.1,310.2,357.6,311.3,357.1,312.2z"/>
			</g>
		</g>
		<g>
			<path class="st20" d="M369.7,302.7c0,0-3.6,7.3-6.6,7.3c-2.5,0,1.9-8.8,1.9-8.8L369.7,302.7z"/>
		</g>
		<g>
			<path class="st16" d="M364.6,308.6c0.6-0.5,1.5-3,2.2-5.1c0.6-1.7-0.4-3.6-2.1-4.2c-2.7-0.8-5.8-1.6-6.8-1.4
				c-1.6,0.4-2.2,2.1-2.8,3.5c-0.5,1.3-1,3.9-0.7,5.3c0.4,1.3,2.2,3,3.4,3.4C361.4,311.5,362.8,310.9,364.6,308.6z"/>
		</g>
		<g>
			<path class="st20" d="M362.6,294.3c-0.1-0.2-4.5-2.8-7,0.6c-1.6,2.2-1.4,9.5-1.4,9.5s3.5-5.6,7.3-3.6
				C363.7,301.9,362.6,294.3,362.6,294.3z"/>
		</g>
		<g>
			<path class="st20" d="M364,302.5c0,0,7.8,3.9,12.9-2c5-5.9,1.6-10.8,1.6-10.8s-1.3,4.3-3.5,5.4c0,0,0.2-2.8-0.4-3.6
				c0,0-1.3,3.2-3.5,3.8c-2.3,0.6-8.1-7.1-11.9,0.2C357,299.6,364,302.5,364,302.5z"/>
		</g>
		<g>
			<path class="st16" d="M398.3,350.1c0,0,2.4,0.1,2.9,0.6c0.6,0.5-5.5,0.7-5.5,0.7L398.3,350.1z"/>
		</g>
		<g>
			<g>
				<path class="st16" d="M377.8,355.2c0,0,0.6-0.4,1.1-0.9c0.6-0.5,1.1-1.1,0.7-1.1c-0.4,0-1,0.2-1.7,0.6c-1.4,0.7-2.8,2-1.5,1.9
					C377.3,355.5,377.8,355.2,377.8,355.2z"/>
			</g>
			<g>
				<path class="st16" d="M374.8,355.9c0.1-0.2,0.3-0.4,0.5-0.5c0.8-0.3,2.7-1.1,3.6-1.1c1.1-0.1,4.3,0.9,4.6,1.5
					c0.2,0.6-1.4,0.4-1.4,0.4s1.8,0.1,1.8,0.9c0.1,0.8-2.6,0.8-2.6,0.8s1,0.8,0.4,0.9c-0.4,0.1-1.9,0-2.9,0c-0.3,0-1.4-0.1-1.7-0.2
					c-0.8-0.4-2.6-1.1-2.6-1.3C374.4,357.1,374.6,356.4,374.8,355.9z"/>
			</g>
		</g>
		<g>
			<path class="st18" d="M340.2,307.6c-0.7-1.2-4.9,0.3-5.7,1.4c-2.1,2.9-2.8,4.5-4.6,9.7c-2.8,8-2.5,24.1,2.9,32.6
				c4,6.3,34.6,16.7,41.4,7.8c2.5-3.3,1.3-5.8,1.3-5.8l-35.5-11.6l1.8-21.4C341.7,320.3,343,312.4,340.2,307.6z"/>
		</g>
		<g>
			<path class="st2" d="M329.9,318.7c-0.6,2.7-0.9,5.5-1,8.3c-0.1,2.8-0.1,5.5,0.1,8.3c0.2,2.8,0.6,5.5,1.1,8.2
				c0.6,2.7,1.4,5.4,2.6,7.9c-1.7-2.2-2.9-4.9-3.7-7.6c-0.8-2.7-1.3-5.5-1.5-8.4c-0.2-2.8-0.2-5.7,0.2-8.5
				C328,324,328.7,321.2,329.9,318.7z"/>
		</g>
		<g>
			<path class="st2" d="M348.1,344.4c-1.4-0.3-2.8-0.7-4.2-1.1c-1.4-0.3-2.8-0.8-4.2-1.2c-0.2-0.1-0.3-0.3-0.3-0.5l0,0
				c0.2-3.6,0.4-7.2,0.7-10.7c0.3-3.6,0.6-7.1,1-10.7l0,0l0,0c0.3-2.1,0.5-4.2,0.4-6.3c-0.1-1.1-0.1-2.1-0.3-3.2
				c-0.2-1-0.5-2.1-1-3.1c1.2,1.8,1.8,4,2.1,6.2c0.1,1.1,0.2,2.2,0.2,3.3c0,1.1,0,2.2-0.2,3.3l0,0c-0.2,3.6-0.5,7.2-0.8,10.7
				c-0.3,3.6-0.7,7.1-1.2,10.7l-0.3-0.5c1.3,0.5,2.7,1,4,1.5C345.4,343.3,346.8,343.8,348.1,344.4z"/>
		</g>
		<g>
			<g>
				<path class="st16" d="M395.4,350.9c-0.2-0.7,0.8-1.2,0.9-1.2c1.5-1,3.2-2.1,4.9-1.6c2.6,0.7,4,1.3,3.4,2
					c-0.6,0.6-3.2,0.1-4.3,0.2C399.3,350.3,395.7,352.3,395.4,350.9z"/>
			</g>
		</g>
		<g>
			<path class="st21" d="M378.5,289.7c-0.3,1.1-0.6,2.1-1.2,3.1c-0.5,1-1.2,2-2.2,2.6c-0.1,0.1-0.3,0-0.4-0.1c0,0,0-0.1,0-0.2l0,0
				c0-0.6,0-1.2,0-1.8c0-0.3-0.1-0.6-0.1-0.8c-0.1-0.3-0.2-0.5-0.3-0.6l0.7-0.1c-0.6,1.4-1.3,2.6-2.6,3.5c-0.3,0.2-0.7,0.4-1,0.5
				c-0.2,0.1-0.5,0.1-0.7,0.1c-0.2,0-0.4-0.1-0.6-0.1c-0.8-0.2-1.4-0.6-2-1c-1.2-0.7-2.4-1.4-3.6-1.7c-1.2-0.4-2.5-0.1-3.4,0.7l0,0
				c-0.1,0.1-0.3,0.2-0.5,0.1c-1.1-0.3-2.4-0.3-3.3,0.2c-1,0.5-1.6,1.6-1.9,2.8c-0.6,2.4-0.8,5-1,7.5c-0.1-1.3-0.1-2.5-0.1-3.8
				c0-1.3,0.1-2.6,0.4-3.8c0.2-1.3,0.9-2.7,2.1-3.4c1.2-0.8,2.8-0.8,4.1-0.4l-0.5,0.1c1.1-1.1,2.9-1.5,4.4-1.1
				c1.5,0.4,2.7,1.1,3.9,1.8c0.6,0.3,1.2,0.7,1.7,0.9c0.1,0,0.3,0.1,0.4,0.1c0.1,0,0.2,0,0.3-0.1c0.3-0.1,0.5-0.2,0.8-0.4
				c1-0.7,1.8-1.9,2.4-3l0-0.1c0.1-0.2,0.3-0.3,0.5-0.2c0.1,0,0.1,0.1,0.1,0.1c0.3,0.4,0.3,0.7,0.4,1c0.1,0.3,0.1,0.6,0.1,1
				c0,0.6,0,1.2-0.1,1.9l-0.5-0.3c0.9-0.4,1.6-1.3,2.2-2.2C377.6,291.7,378.1,290.7,378.5,289.7z"/>
		</g>
	</g>
	<g>
		<g>
			<rect x="237.9" y="497.5" class="st3" width="26.4" height="8.3"/>
		</g>
		<g>
			<rect x="239.7" y="231.6" class="st4" width="7.6" height="265.9"/>
		</g>
		<g>
			<rect x="230.9" y="497.5" class="st4" width="26.4" height="8.3"/>
		</g>
		<g>
			<rect x="247.3" y="231.6" class="st3" width="3.8" height="265.9"/>
		</g>
	</g>
</g>
<g>
	<g>
		<path class="st17" d="M909.4,245.6c2,1.1,3.9-4.8,12-1.3c8.2,3.5,10.2,16.8,5.9,21.1c0,0,3.3,13-10.7,28.9
			c0,0-10.8,24.4-29.7,25.3c-18.9,0.9-48-9.4-43-35.7c5-26.3,28.9-18.7,28.9-18.7s0.9-9.3,11.1-6.2C883.9,259,888,233.2,909.4,245.6
			z"/>
	</g>
	<g>
		<path class="st22" d="M843.8,283.8c0.5-3.3,1.4-6.5,3-9.4c1.5-3,3.7-5.6,6.6-7.5c2.8-1.9,6.2-2.9,9.5-3.2
			c3.4-0.3,6.7-0.1,10.1,0.9l-0.8,0.6c0.2-1.4,0.6-2.6,1.3-3.8c0.7-1.2,1.7-2.2,2.9-2.8c1.2-0.6,2.6-0.9,3.9-0.8
			c0.7,0,1.3,0.1,2,0.2l1.9,0.4l-0.9,0.6c0.6-3.1,1.6-6,3-8.8c1.5-2.7,3.5-5.3,6.4-6.9c2.8-1.6,6.3-1.9,9.3-1.3
			c1.5,0.3,3,0.8,4.5,1.5c0.7,0.3,1.4,0.6,2.1,1l1,0.6c0.2,0.1,0.3,0.1,0.3,0.1c0.1,0,0.1,0,0.3,0c0.5-0.1,1.2-0.6,1.8-1
			c0.7-0.4,1.4-0.8,2.2-1c1.6-0.5,3.3-0.4,4.8-0.1c1.6,0.4,3,1,4.3,1.8c1.3,0.9,2.4,2,3.3,3.3c0.9,1.3,1.6,2.7,2.1,4.2
			c0.5,1.5,0.8,3,0.9,4.5c0.1,1.5,0.1,3.1-0.3,4.6c-0.3,1.5-0.9,3-2.1,4c1.1-1.1,1.5-2.6,1.8-4.1c0.3-1.5,0.3-3,0.1-4.5
			c-0.3-3-1.5-5.9-3.2-8.3c-0.9-1.2-2-2.2-3.2-3c-1.2-0.7-2.6-1.3-4.1-1.6c-1.4-0.3-2.9-0.3-4.2,0.2c-0.7,0.2-1.3,0.6-1.9,1
			c-0.6,0.4-1.2,0.9-2.1,1.2c-0.2,0.1-0.6,0.1-0.8,0.1c-0.3-0.1-0.6-0.2-0.7-0.3l-1-0.5c-0.7-0.4-1.3-0.7-2-1
			c-1.4-0.6-2.8-1.1-4.2-1.3c-2.9-0.6-5.9-0.3-8.4,1.2c-2.5,1.4-4.4,3.8-5.8,6.4c-1.4,2.6-2.4,5.5-3,8.3c-0.1,0.4-0.5,0.7-0.9,0.6
			l0,0l0,0l-1.7-0.4c-0.6-0.1-1.2-0.2-1.7-0.2c-1.2,0-2.3,0.2-3.3,0.7c-1,0.5-1.8,1.3-2.4,2.3c-0.6,1-1,2.1-1.1,3.2
			c0,0.4-0.4,0.6-0.7,0.6c0,0-0.1,0-0.1,0c-3-0.9-6.4-1.2-9.6-1c-3.2,0.2-6.4,1.1-9.1,2.8c-1.4,0.8-2.6,1.9-3.7,3.1
			c-1.1,1.2-2.1,2.5-2.9,3.9C845.6,277.4,844.5,280.6,843.8,283.8z"/>
	</g>
	<g>
		<g>
			<g>
				<path class="st16" d="M903,331.1c-6.1-12-12.8-26.5-15.3-27.5c-7.1,0.3-14.4-0.2-17.3-0.1c-2.3,1.2-17,14.3-20.9,27.8
					c-9.5,32.6,1.2,166.5,1.2,166.5l2.6-0.2c0,0,9.6-58.2,18.5-99.7c5.6-26.4,13.3-51.7,13.5-52c3.9,11.5,2.4,129,6.3,149.4
					c0.7,3.5,1.7,4.3,2,1.5C895.8,476.8,918.6,361.6,903,331.1z"/>
			</g>
		</g>
	</g>
	<g>
		<path class="st9" d="M867.5,301.7c0,0,22.5,18.9,30.3,16.4c0,0,11,13.3,11.4,42.2c0.4,27.2,0.3,53.5,0.3,53.5s-24.6,10.1-63.8,3.4
			C845.7,417.1,830.1,328,867.5,301.7z"/>
	</g>
	<g>
		<g>
			<path class="st15" d="M907.4,503.6c0-2.6-5.3-3.6-8.7-4.2c0.9,0.5,2,1.3,0.6,1.7c-2.1,0.6-6.7,0.1-8.1-1.3
				c-0.5,1.1-0.6,2.5-0.6,3.5C890.7,504.6,907.4,504.7,907.4,503.6z"/>
		</g>
		<g>
			<path class="st16" d="M899.3,501.1c1.4-0.4,1.8-1.3-0.3-1.6c-1.9-0.3-3.5-0.9-3.9-1c-0.9-0.4-1.3-1.7-1.3-1.7l-1.8,0
				c0,0-0.6,2.8-0.8,3.1C892.7,501.2,897.2,501.7,899.3,501.1z"/>
		</g>
	</g>
	<g>
		<g>
			<path class="st15" d="M865.9,503.4c0.1-2.5-5-3.6-8.2-4.3c0.9,0.5,1.9,1.3,0.5,1.6c-2,0.5-6.4-0.2-7.7-1.5
				c-0.5,1-0.7,2.4-0.7,3.4C849.8,503.8,865.9,504.4,865.9,503.4z"/>
		</g>
		<g>
			<path class="st16" d="M858.2,500.7c1.4-0.3,1.8-1.2-0.3-1.6c-1.9-0.3-3.4-1-3.7-1.1c-0.9-0.4-1.2-1.7-1.2-1.7l-1.7-0.1
				c0,0-0.7,2.6-0.8,2.9C851.7,500.5,856.2,501.2,858.2,500.7z"/>
		</g>
	</g>
	<g>
		<path class="st10" d="M866.3,302.2c0,0,5.9,3.3,18.6,6.4c0.5,0.1,1.5,0.3,1.5,0.3s-11.8,28.9-12.8,39.1
			c-2.9,32,10.1,70.9,10.1,70.9s-1.2,0.1-1.8,0.1c-9.9,0.7-31.1,0.8-45.6-3.6C836.4,415.5,828.9,328.5,866.3,302.2z"/>
	</g>
	<g>
		<g>
			<path class="st23" d="M866.2,303c4.4,5.3,15.7,16.7,34,18.9c4.7-4.4,9.4-14.4,12.5-23.1c2.4-6.8,5.5-9.2,2.5-13.4
				c-0.2-0.3-2.2-3.3-7-6.7c-10-7.2-19.9-9.7-25.6-9C878.6,270.2,865.6,302.3,866.2,303z"/>
		</g>
	</g>
	<g>
		<g>
			<path class="st7" d="M866.2,303c2.7,3.1,7.7,8.1,15.1,12.5c0.5,0.3,2,1.4,2,1.4s3.5-16.5,6.6-22.2c6.4-11.9,14.3-18.8,13.1-19.5
				c-0.3-0.2-0.6-0.3-0.9-0.5c-7.7-4.1-14.8-5.6-19.2-5.1C878.6,270.2,865.6,302.4,866.2,303z"/>
		</g>
	</g>
	<g>
		<g>
			<g>
				<path class="st16" d="M905.1,269.3c0,0-5.5,5.5-5.6,6.6c-0.1,1.1,0.7,3.4,2.8,2.6c2-0.8,5.2-7.1,5.2-7.1L905.1,269.3z"/>
			</g>
		</g>
		<g>
			<g>
				<g>
					<g>
						<path class="st19" d="M907.9,263.1c0,0-5.8,8.7-6.5,10.1c-0.6,1.2,0.8,4.3,3.2,2.9c2.4-1.4,5.9-10.8,5.9-10.8L907.9,263.1z"/>
					</g>
				</g>
			</g>
		</g>
	</g>
	<g>
		<g>
			<path class="st16" d="M903.4,265.2c0.6-1.7,5.9-6,5.9-6c3.3-2.4,7.5,2.6,8.4,3.8c1.1,1.5,1.8,2.9,2.1,4.8
				c0.4,2.1-1.4,3.9-2.8,5.2c-1.3,1.4-4.2,3.3-6.1,3.6c-1.8,0.2-4.8-1.1-6-2.3C901.5,270.5,901.5,268.5,903.4,265.2z"/>
		</g>
	</g>
	<g>
		<path class="st17" d="M922.5,263.4c0,0-15,3.4-19.3-0.1c-4.3-3.5,2.7-13.8,7.2-11.6C914.9,253.8,922.5,263.4,922.5,263.4z"/>
	</g>
	<g>
		<path class="st22" d="M922.7,262.6c-1.9,1.3-4.1,2-6.3,2.4c-2.2,0.4-4.5,0.5-6.8,0.5c-2.2-0.1-4.6-0.3-6.7-1
			c-1.1-0.3-2.2-0.7-3.2-1.2c-1-0.5-2.1-1.2-2.5-2.3c0.7,0.9,1.7,1.3,2.8,1.6c1,0.3,2.1,0.6,3.2,0.8c2.2,0.4,4.3,0.5,6.5,0.6
			c2.2,0.1,4.4,0,6.6-0.1C918.4,263.6,920.6,263.4,922.7,262.6z"/>
	</g>
	<g>
		<g>
			<path class="st4" d="M973.4,489.7l-13.3-4c-2.4-0.7-4.6-2-6.5-3.7L866,372l2.2-2.6l87.6,110.1c1.6,1.4,3.4,2.4,5.3,3l13.3,4
				L973.4,489.7z"/>
		</g>
	</g>
	<g>
		<rect x="706" y="189.5" class="st18" width="28.7" height="314.2"/>
	</g>
	<g>
		<rect x="734.7" y="189.5" class="st4" width="55" height="314.2"/>
	</g>
	<g>
		<rect x="740.2" y="206" class="st2" width="15.6" height="110.4"/>
	</g>
	<g>
		<rect x="755.9" y="206" class="st3" width="26.7" height="110.4"/>
	</g>
	<g>
		<rect x="778.9" y="369.4" class="st2" width="16.9" height="134.3"/>
	</g>
	<g>
		<rect x="795.6" y="369.4" class="st4" width="27.6" height="134.3"/>
	</g>
	<g>
		<path class="st3" d="M973.3,492l-4.9-2.5c-0.9-0.4-1.3-1.5-1-2.5l0.7-2.2c0.3-1,1.2-1.6,2.1-1.3l5.3,1.3c1.1,0.3,1.7,1.5,1.3,2.7
			l-1,3.3C975.4,492,974.3,492.5,973.3,492z"/>
	</g>
	<g>
		<g>
			<path class="st2" d="M971.1,502.3l-14.2-4.2c-2.6-0.8-4.9-2.1-7-4l-93.6-117.5l2.3-2.8l93.6,117.6c1.7,1.5,3.6,2.6,5.6,3.2
				l14.2,4.2L971.1,502.3z"/>
		</g>
	</g>
	<g>
		<path class="st3" d="M970.8,504.2l-4.9-2.5c-0.9-0.4-1.3-1.5-1-2.5l0.7-2.2c0.3-1,1.2-1.6,2.1-1.3l5.3,1.3
			c1.1,0.3,1.7,1.5,1.3,2.7l-1,3.3C972.9,504.1,971.8,504.7,970.8,504.2z"/>
	</g>
	<g>
		<rect x="759.8" y="217" class="st4" width="18.6" height="63.6"/>
	</g>
	<g>
		<rect x="759.8" y="283.5" class="st7" width="18.6" height="3.7"/>
	</g>
	<g>
		<path class="st14" d="M766.7,294c0,2.2-1.5,3.9-3.4,3.9c-1.9,0-3.4-1.8-3.4-3.9c0-2.2,1.5-3.9,3.4-3.9
			C765.1,290,766.7,291.8,766.7,294z"/>
	</g>
	<g>
		<path class="st3" d="M817.9,356.1c-1.1,0-2.2-0.1-3.3-0.4c-6.1-1.5-11.2-6.7-13.4-13.9c-2-6.3-1.5-11.5-1.4-11.7l2.1-88.4
			c0.2-8.4-2.7-16.2-7.8-21.6c-3.8-3.9-8.5-6-13.4-6c-0.6,0-1.1-0.5-1.1-1.1c0-0.6,0.5-1.1,1.1-1.1c5.5,0,10.8,2.4,15,6.7
			c5.6,5.7,8.7,14.2,8.5,23.2l-2.1,88.5c0,0.1-0.5,5,1.3,10.8c2,6.5,6.4,11.1,11.8,12.4c4.3,1,8.5-0.3,11.9-3.8l0.2-0.2
			c0.4-0.5,1.1-0.5,1.6,0c0.5,0.4,0.5,1.1,0,1.6l-0.2,0.3C825.7,354.4,821.8,356.1,817.9,356.1z"/>
	</g>
	<g>
		<path class="st13" d="M941.7,366.1l-145.8-3c-5.7-0.1-19.4,6.1-19.4,6.1c-0.9,0.9-0.7,6.2,0,7.1c0.6,0.7,1.5,1.1,2.8,1.1
			l155.8,3.4c3,0.1,15.5,0.1,18.5,0c11.1-0.5,35.9-1.7,36.6-5.3c0.1-0.6,0.3-5.2,0.3-5.2s-24.9-2-34.7-3.2
			C951.2,366.5,946.5,366.2,941.7,366.1z"/>
	</g>
	<g>
		<path class="st14" d="M942.7,361.5l-145.8-3c-5.7-0.1-11.2,1.8-14.7,5.2l-5.3,5.1c-1.7,1.6-0.2,3.9,2.6,4l156.7,3.4
			c3,0.1,15.5,0.1,18.5,0c11.1-0.5,36.7-2.2,36-5.9c-0.7-3.4-21.9-6.4-33.7-7.7C952.2,361.9,947.5,361.6,942.7,361.5z"/>
	</g>
	<g>
		<g>
			<path class="st3" d="M908.5,364.6c0,0,0.5,1.2,0.9,2.2c0.2,0.5-0.2,1.1-0.7,1.2c-2.7,0.4-11.4,1.2-34.4,1.2
				c-29.2,0-34.5-2.9-35.5-3.8c-1-0.9-1.1-3.5-1.1-3.5L908.5,364.6z"/>
		</g>
		<g>
			<path class="st24" d="M908.9,364.1l-1.4-2.9l-2.9-0.2l-3.3-4.9l0.8-2.4c0,0-10.1-13.5-13.8-17.1c-3.7-3.6-11.2-8.5-11.2-8.5
				s-14.1-7.3-31.5-9.6c-2.4-0.3-7.3-1.7-9.6,2.2c-2.3,3.9-15.9,29.7-14,31.7c1.9,2,3.9,1.5,9.5,3.8c4.1,1.7,5.7,4.5,6.3,5.8
				c0.2,0.5,0.6,0.8,1.1,1c1.6,0.4,5,1.2,8.3,1.7c5.2,0.8,25.6,1.8,37.9,1.8c10.6-0.1,19.9-0.7,23.3-1.2
				C908.9,365.2,909.2,364.6,908.9,364.1z M874.2,345.2c-5.4,0.3-19-3.6-19-3.6l-16.5-4.3c-0.8-0.2-1.2-1-1-1.7
				c1-3.3,2.7-6.8,3.5-8.4c0.3-0.5,0.8-0.8,1.3-0.8c8.8,0.7,25.3,5.6,30.1,9.3c3.1,2.4,3.7,5.4,3.7,7.2
				C876.3,344.1,875.3,345.1,874.2,345.2z"/>
		</g>
		<g>
			<path class="st14" d="M902.7,354.1c0-0.4-1.6-1.8-1.6-1.8l-1.3,2.9c-0.4,0.8-0.3,1.8,0.2,2.5l2.8,3.9c0.5,0.7,1.2,1,2.1,1
				l3.4-0.1l-0.6-1.2c-0.2-0.4-0.6-0.7-1.1-0.7l-1.2-0.1c-0.4,0-0.8-0.3-1-0.6l-2.1-3.2c-0.3-0.4-0.3-0.9-0.1-1.3
				C902.1,355.4,902.7,354.5,902.7,354.1z"/>
		</g>
		<g>
			<path class="st13" d="M889,337.3l-0.5-4.8l-10.7-4c0,0,1.2,2.1,4.1,4.6C884.8,335.6,889,337.3,889,337.3z"/>
		</g>
		<g>
			<path class="st14" d="M877.8,328.5c0,0,2.1,1.8,5,2.9c3,1.1,5.5,1.6,5.7,1.1c0.2-0.5-2.1-1.8-5-2.9
				C880.5,328.5,877.8,328.5,877.8,328.5z"/>
		</g>
		<g>
			<path class="st14" d="M878.2,336.1c-13.2-10.4-35.3-14-38.4-12.5c-3.1,1.5-9.3,18.9-9.5,21.4c-0.2,2.5,1.6,2,8.8,3.2
				c6.9,1.2,38.9,6.2,46.5,6.4c0.9,0,1.7-0.1,2.5-0.5c0.8-0.4,1.7-1.1,1.8-2.3C889.8,351.8,891.5,346.5,878.2,336.1z M874.2,345.2
				c-5.4,0.3-19-3.6-19-3.6l-16.5-4.3c-0.8-0.2-1.2-1-1-1.7c1-3.3,2.7-6.8,3.5-8.4c0.3-0.5,0.8-0.8,1.3-0.8
				c8.8,0.7,25.3,5.6,30.1,9.3c3.1,2.4,3.7,5.4,3.7,7.2C876.3,344.1,875.3,345.1,874.2,345.2z"/>
		</g>
		<g>
			<path class="st25" d="M864.7,343.4c-0.2,0.9-3.7,0.9-7.8-0.1c-4.1-0.9-7.2-2.4-7-3.3l0.4-1.9l14.8,3.4L864.7,343.4z"/>
		</g>
		<g>
			<path class="st24" d="M850.3,338.2c-0.2,0.9,2.9,2.4,7,3.3c4.1,0.9,7.6,1,7.8,0.1c0.2-0.9-2.9-2.4-7-3.3
				C854,337.3,850.5,337.3,850.3,338.2z"/>
		</g>
	</g>
	<g>
		<g>
			<path class="st23" d="M926.1,338.8c5.3,5.4,18.9,24,18.9,24c6,4.5,18.7-1.9,15.7-8.4c-5.6-12.1-29.2-29.6-29.2-29.6
				S912.1,324.6,926.1,338.8z"/>
		</g>
	</g>
	<g>
		<g>
			<path class="st23" d="M935.7,333.6c0,0-13.7-35.8-19.9-47.5c-1.4-2.7-12.4-4.3-12.4-4.3s0.1,15.9,17.9,50.7L935.7,333.6z"/>
		</g>
	</g>
	<g>
		<g>
			<path class="st16" d="M955.8,360.6c0.2-0.3,0.6-0.4,1-0.3c0.9,0.3,4.2-0.2,5.9,0.4c0,0,2.6,0.9,3.1,2.3c0,0-0.2,0.5-0.9,0
				c0,0,1.6,1.5,1.4,2.2c-0.2,0.7-1.2,0.3-1.2,0.3s0.2,0.6-0.3,0.8c-0.3,0.1-1.6-0.6-3.1-0.9c-1.1-0.2-5-0.7-5.2-1.7
				c0,0-0.7-1-1.1-1.4C955,362.1,955.4,361.2,955.8,360.6z"/>
		</g>
		<g>
			<path class="st16" d="M959.4,364.6c0,0,2.5,1.9,1.6,2.6c-0.7,0.6-4.6-3.4-4.6-3.4L959.4,364.6z"/>
		</g>
	</g>
	<g>
		<g>
			<path class="st16" d="M855.5,319.8c0.2-0.3,0.6-0.4,1-0.3c0.9,0.3,4.2-0.2,5.9,0.4c0,0,2.6,0.9,3.1,2.3c0,0-0.2,0.5-0.9,0
				c0,0,1.6,1.5,1.4,2.2c-0.2,0.7-1.2,0.3-1.2,0.3s0.2,0.6-0.3,0.8c-0.3,0.1-1.6-0.6-3.1-0.9c-1.1-0.2-5-0.7-5.2-1.7
				c0,0-0.7-1-1.1-1.4C854.8,321.3,855.2,320.4,855.5,319.8z"/>
		</g>
		<g>
			<path class="st16" d="M859.2,323.8c0,0,2.5,1.9,1.6,2.6c-0.7,0.6-4.6-3.4-4.6-3.4L859.2,323.8z"/>
		</g>
	</g>
	<g>
		<g>
			<path class="st7" d="M835.8,303.4c1.8,6.4,8.9,19,8.9,19c5.8,3.5,18.6-2.2,15.8-7.4c-5.2-9.8-14.8-33.5-14.8-33.5
				S830.9,286.4,835.8,303.4z"/>
		</g>
	</g>
	<g>
		<g>
			<path class="st7" d="M836.8,299c0,0,37-10.9,48.2-17.9c2.3-1.4-4-12-0.7-11.3c0,0-7.3-2.2-40.2,12.3L836.8,299z"/>
		</g>
	</g>
	<g>
		<polygon class="st26" points="923.9,465.9 906.6,465.9 903,375.4 927.4,376.2 		"/>
	</g>
	<g>
		<polygon class="st26" points="957.7,465.9 940.4,465.9 936.9,376.2 961.3,376.2 		"/>
	</g>
	<g>
		<polygon class="st27" points="903,375.4 916.5,361 934.2,361.3 927.4,376.2 		"/>
	</g>
	<g>
		<polygon class="st27" points="936.9,376.2 941.1,361.5 961.3,363 961.3,376.2 		"/>
	</g>
	<g>
		<path class="st27" d="M928.8,365.5l17.8,0.1l0.6-3.6c0,0-7.5-0.9-17.1-0.6c-9.6,0.4-9.6,0.4-9.6,0.4L928.8,365.5z"/>
	</g>
</g>
<g>
	<g>
		<path class="st7" d="M130.6,291.6c-0.1-0.1-4.8-9.9-5.1-11.3c-0.4-1.5-1-3.5-0.6-5.6c0.7-3.8,6.2-7.6,10.2-6
			c2.1,0.8,5.7,4.8,8.1,0.9c0,0,0.8-3.1,1.3,0.3c0.7,4.1-0.9,6.1-0.9,6.1s6.4,10.3-0.5,15.3C138.2,294.8,132.1,294.7,130.6,291.6z"
			/>
	</g>
	<g>
		<path class="st28" d="M130.6,291.6c-1.7-2.9-3.3-5.9-4.8-9c-0.4-0.8-0.8-1.5-1-2.4c-0.2-0.8-0.5-1.7-0.6-2.5
			c-0.2-0.9-0.2-1.8-0.1-2.7c0.1-0.9,0.5-1.9,1-2.7c1-1.6,2.4-2.8,4-3.6c1.6-0.8,3.5-1.3,5.3-0.8c0.9,0.2,1.7,0.8,2.4,1.2
			c0.7,0.5,1.4,1,2.1,1.3c0.7,0.4,1.5,0.7,2.3,0.5c0.8-0.1,1.4-0.7,2-1.4c-0.4,0.7-1,1.5-1.9,1.8c-0.9,0.3-1.8,0.1-2.7-0.2
			c-1.6-0.6-3-1.9-4.5-2.1c-1.5-0.2-3.1,0.2-4.4,0.9c-1.4,0.8-2.6,1.8-3.4,3.1c-0.4,0.7-0.7,1.3-0.8,2.1c-0.1,0.8-0.1,1.5,0,2.3
			c0.1,0.8,0.3,1.6,0.5,2.4c0.2,0.7,0.5,1.5,0.8,2.3c0.6,1.6,1.3,3.1,1.9,4.7C129.4,288.4,130,290,130.6,291.6z"/>
	</g>
	<g>
		<g>
			<path class="st20" d="M164.1,338.9c0.1,0.4,6.8,8.6,13.1,18.8c7,11.3,6,23,6.1,42c0.1,20.1-10.8,80.6-11.4,99.4
				c-0.1,2.5-1.3,3.3-1.8,0.2c-2.9-19.5-18.3-125-18.3-125L145,496.2c0,0-7.1,3.2-7.1,0c0.2-21.5-16.8-109.6-15-120.2
				c3.7-22.1,8-28.3,8.5-34.3C135.4,343.1,157.1,342.9,164.1,338.9z"/>
		</g>
	</g>
	<g>
		<g>
			<path class="st29" d="M164.1,338.9c0.1,0.4,6.8,8.6,13.1,18.8c7,11.3,6,23,6.1,42c0.1,20.1-10.8,80.6-11.4,99.4
				c-0.1,2.5-1.3,3.3-1.8,0.2c-2.9-19.5-18.3-125-18.3-125l-5.3-32c0,0,0.3,0,0.4,0C153.7,341.9,160.7,340.9,164.1,338.9z"/>
		</g>
	</g>
	<g>
		<g>
			<g>
				<path class="st17" d="M127,503.2c-0.5-4.5,4.1-3,6.9-4.1c-0.8,0.6-1.6,1.5-0.2,1.7c2,0.4,6.3-0.5,7.5-2.1c0.6,1,0.8,2.5,0.9,3.5
					C142.2,503.6,127.3,505.7,127,503.2z"/>
			</g>
		</g>
		<g>
			<g>
				<path class="st16" d="M133.7,500.8c-1.4-0.3-0.6-1.1,0.2-1.7c1.7-0.7,3.2-1.2,3.5-1.4c0.8-0.5,1-1.3,1-1.3l0.9-0.3
					c0,0-0.5,1.3,1.2,1.8c0.3,0.1,0.4,0.5,0.6,0.8C140,500.3,135.7,501.2,133.7,500.8z"/>
			</g>
		</g>
	</g>
	<g>
		<g>
			<path class="st18" d="M134.6,299.4c0,0-22.4,6.3-25.8,20.4c-0.6,2.4,9.4,5.4,9.4,5.4l12.6-15.5L134.6,299.4z"/>
		</g>
	</g>
	<g>
		<g>
			<path class="st18" d="M107.7,324.8c-0.7,4.9-1,15.3-1.1,21.9c-0.1,5.9,9.5,4.2,9.5,4.2s3.6-6.5,3.7-9.4c0.1-4-0.2-17.6-0.2-17.6
				S110.3,306.6,107.7,324.8z"/>
		</g>
	</g>
	<g>
		<g>
			<path class="st18" d="M127.5,302.3c4.1-2.2,16.5-7.9,30.2-7.2c7,0.4,13.3,5.1,13.3,5.1s-7.7,34.7-6.9,38.7
				c-7,4-28.7,4.3-32.6,2.9c0-0.3,0-0.7-0.1-1C125.7,327.7,127.5,302.3,127.5,302.3z"/>
		</g>
	</g>
	<g>
		<g>
			<polygon class="st17" points="142.6,291.8 142.6,291.8 142.6,291.8 			"/>
		</g>
	</g>
	<g>
		<rect x="65.3" y="402.3" class="st4" width="4.1" height="101.9"/>
	</g>
	<g>
		<rect x="69.4" y="402.3" class="st3" width="2.7" height="101.9"/>
	</g>
	<g>
		<rect x="203" y="402.3" class="st4" width="4.2" height="101.9"/>
	</g>
	<g>
		<rect x="207.2" y="402.3" class="st3" width="2.8" height="101.9"/>
	</g>
	<g>
		<rect x="31.2" y="402.3" class="st3" width="2.7" height="101.9"/>
	</g>
	<g>
		<rect x="27.1" y="498.5" class="st3" width="45.1" height="5.7"/>
	</g>
	<g>
		<rect x="168.3" y="402.3" class="st3" width="2.8" height="101.9"/>
	</g>
	<g>
		<rect x="164.2" y="498.5" class="st3" width="45.8" height="5.7"/>
	</g>
	<g>
		<rect x="27.1" y="402.3" class="st4" width="4.1" height="101.9"/>
	</g>
	<g>
		<rect x="164.2" y="402.3" class="st4" width="4.2" height="101.9"/>
	</g>
	<g>
		<rect x="36.4" y="371.3" class="st3" width="12.5" height="9.5"/>
	</g>
	<g>
		<circle class="st4" cx="36.4" cy="375.6" r="4.4"/>
	</g>
	<g>
		<ellipse class="st3" cx="48.8" cy="375.7" rx="4.4" ry="4.5"/>
	</g>
	<g>
		<path class="st15" d="M210.1,390.1H159v-10.4h51.1c2.9,0,5.2,2.3,5.2,5.2l0,0C215.3,387.8,213,390.1,210.1,390.1z"/>
	</g>
	<g>
		<rect x="133.6" y="390.1" class="st30" width="76.4" height="16.8"/>
	</g>
	<g>
		<path class="st17" d="M174.9,390.1H30.2c-2.9,0-5.2-2.3-5.2-5.2l0,0c0-2.9,2.3-5.2,5.2-5.2h144.7c2.9,0,5.2,2.3,5.2,5.2l0,0
			C180,387.8,177.7,390.1,174.9,390.1z"/>
	</g>
	<g>
		<polygon class="st31" points="143.3,390.1 89.6,390.1 27.1,390.1 27.1,406.9 89.6,406.9 157.6,406.9 185.9,406.9 185.9,390.1 		
			"/>
	</g>
	<g>
		<circle class="st3" cx="36.4" cy="375.6" r="2.1"/>
	</g>
	<g>
		<rect x="194.5" y="340.5" class="st17" width="4.8" height="39.3"/>
	</g>
	<g>
		<rect x="197.4" y="342.9" class="st15" width="4.5" height="36.9"/>
	</g>
	<g>
		<rect x="54.3" y="371.3" class="st17" width="5.2" height="8.5"/>
	</g>
	<g>
		
			<rect x="80.5" y="350.2" transform="matrix(-1.836970e-16 1 -1 -1.836970e-16 460.2792 290.7543)" class="st15" width="8.5" height="50.6"/>
	</g>
	<g>
		<g>
			<path class="st32" d="M109.8,363.1l-24.5,26.1c-0.2,0.2,0.1,0.5,0.3,0.3l26.1-20.6l0.3-2.8l2-2.6L109.8,363.1z"/>
		</g>
		<g>
			<polygon class="st13" points="140.1,379.6 42.6,379.6 76,374.4 156.7,373.6 			"/>
		</g>
		<g>
			<path class="st12" d="M118.3,347c-2.5-0.6-4.5,0.3-5.5,1.5c-1,1.2-2.3,4.3-0.8,7l0.6,0.9c0,0,0.3,1.1,0,1.9
				c-0.3,0.9-1.4,2.5-1.4,2.5l-1.4,2.4l4.2,0.3l4.4-6.1c0,0,3.2-1.6,3.8-4.2c0.5-2.1-0.4-3.7-0.4-3.7S120.8,347.6,118.3,347z
				 M118.2,355.4c-1.6,1.2-3.5,1.1-4.5-0.4c-1.1-1.7-0.7-4.7,1-5.8c1.7-1.1,4-0.5,4.9,1C120.6,351.6,120.4,353.8,118.2,355.4z"/>
		</g>
		<g>
			<path class="st12" d="M130.3,363c0,0-1.2-1.4-3.3-1.8c-2.6-0.4-5.3,1.9-5.3,1.9l-7.1,1.6l-1.5,4.2l2.8-0.4c0,0,1.9-0.4,2.9-0.4
				c0.9,0,1.8,0.7,1.8,0.7l0.6,0.9c2,2.4,5.3,2.4,6.8,1.9c1.5-0.5,3.1-2,3.5-4.6C131.9,364.5,130.3,363,130.3,363z M128.2,369.5
				c-1.6,1.2-4.6,0.4-5.8-1.2c-1-1.4-0.4-3.2,1.3-4.3c2.2-1.4,4.4-0.8,5.4,0.6C130.2,366,129.9,368.4,128.2,369.5z"/>
		</g>
		<g>
			<path class="st33" d="M113.4,368.9l-34.9,9.4c-0.2,0.1-0.4-0.3-0.1-0.4l30.2-13.4l3,1.2l3.2-1L113.4,368.9z"/>
		</g>
		<g>
			<path class="st32" d="M108.4,368.6c0.4,0.5,1.1,0.6,1.6,0.3c0.5-0.4,0.6-1.1,0.3-1.6c-0.4-0.5-1.1-0.6-1.6-0.3
				C108.2,367.4,108.1,368.1,108.4,368.6z"/>
		</g>
	</g>
	<g>
		<g>
			<path class="st16" d="M112.3,348.5c0,0,3.1,2.1,2.8,1.3c-0.3-0.8,0-0.7,0-0.7s1.3,1.2,1.6,0.6c0.3-0.7,0-1,0-1s1.9,1.3,2.1,0.6
				c0.3-0.7-1.1-2.6-1.5-2.8C116.9,346.1,112.1,348,112.3,348.5z"/>
		</g>
	</g>
	<g>
		<g>
			<path class="st16" d="M135.2,364.5c0,0-1.1,2.1-2.8,2.7c-1.2,0.4-2.5,0.4-2.6-0.2c0-0.6,1-0.4,1-0.4s-2.1,0.5-2.1-0.4
				c0-0.3,1.4-0.7,1.4-0.7s-1.9,0.4-1.8-0.1c0.1-0.5,2.7-1.1,3.3-1.1c0.6,0,2.1-1.6,3.3-1.6C135.3,362.8,135.6,363.6,135.2,364.5z"
				/>
		</g>
	</g>
	<g>
		<g>
			<path class="st4" d="M171,350.5c-6.3,10.6-17.4,22-30.8,18.1c-5-1.4-6.2-8-6.2-8l22.7-16.9l9-33.8l5.4-9.7
				C171,300.2,180.3,334.8,171,350.5z"/>
		</g>
	</g>
	<g>
		<polygon class="st14" points="140.1,451 42.6,449.9 42.6,379.6 140.1,379.6 140.1,412.4 		"/>
	</g>
	<g>
		<g>
			<path class="st4" d="M142.6,296.6c0,0,0.6-0.2,1-0.2c4.3-1,9.1-1.6,14.1-1.3c7,0.4,13.3,5.1,13.3,5.1s-7.7,34.7-6.9,38.7
				c-3.3,1.9-9.9,3-16.4,3.4c-0.4,0-1.1,0.1-1.1,0.1s-2.9-16.9-3.4-22.9C142.8,313.9,142.6,296.6,142.6,296.6z"/>
		</g>
	</g>
	<g>
		<g>
			<g>
				<path class="st16" d="M140.6,289.8c0,0,3.8,7.5,3.5,8.6c-0.3,1.1-2,2.9-3.8,1.3c-1.9-1.6-2.9-8.9-2.9-8.9L140.6,289.8z"/>
			</g>
		</g>
		<g>
			<g>
				<path class="st19" d="M143.2,295.4c-1,1.1-2.6,2-4.4,1.7c-0.5-1.4-0.9-3.1-1.1-4.4l3.8-1.2C142,292.6,142.7,294.1,143.2,295.4z"
					/>
			</g>
		</g>
	</g>
	<g>
		<g>
			<path class="st16" d="M133.4,293.4c-1.1-0.9-3.4-5-2.6-7.2c1.1-2.9,3.2-3,4.1-3.3c1.4-0.3,3-1,4.4-0.8c1.6,0.2,2.4,2,3.1,3.3
				c0.6,1.3,1.3,3.8,1.1,5.3c-0.3,1.3-2,3.2-3.2,3.7C136.8,296,135.3,295.6,133.4,293.4z"/>
		</g>
	</g>
	<g>
		<path class="st2" d="M157.5,341.3c0.6-5.9,1.6-11.7,2.8-17.4c1.2-5.8,2.5-11.5,4.2-17.1c-0.6,5.9-1.6,11.7-2.8,17.4
			C160.5,330,159.2,335.7,157.5,341.3z"/>
	</g>
	<g>
		<path class="st16" d="M133.1,363.6c0,0-2.4-0.2-3.7,0c-1.2,0.2,2.4,1.3,2.4,1.3l1.6-1.3H133.1z"/>
	</g>
	<g>
		
			<rect x="175.2" y="320.2" transform="matrix(-1.836970e-16 1 -1 -1.836970e-16 522.095 165.2801)" class="st15" width="6.4" height="47"/>
	</g>
	<g>
		<rect x="150.1" y="340.5" class="st17" width="4.8" height="39.3"/>
	</g>
	<g>
		<rect x="154.9" y="342.9" class="st15" width="4.5" height="36.9"/>
	</g>
</g>
<g>
	<g>
		<g>
			<rect x="472.5" y="456.4" class="st2" width="6.7" height="167.3"/>
		</g>
		<g>
			<rect x="479.2" y="456.4" class="st4" width="4.5" height="167.3"/>
		</g>
		<g>
			<rect x="409.7" y="614.3" class="st4" width="74" height="9.3"/>
		</g>
		<g>
			<rect x="416.4" y="456.4" class="st4" width="4.5" height="167.3"/>
		</g>
		<g>
			<rect x="409.7" y="456.4" class="st2" width="6.7" height="167.3"/>
		</g>
	</g>
	<g>
		<g>
			
				<rect x="490.6" y="502.4" transform="matrix(-1 -1.224647e-16 1.224647e-16 -1 986.4164 1127.4001)" class="st33" width="5.2" height="122.5"/>
		</g>
		<g>
			
				<rect x="488" y="502.4" transform="matrix(-1 -1.224647e-16 1.224647e-16 -1 978.6048 1127.4001)" class="st32" width="2.6" height="122.5"/>
		</g>
	</g>
	<g>
		
			<rect x="431.8" y="500.2" transform="matrix(-1 -1.224647e-16 1.224647e-16 -1 948.5645 1010.412)" class="st32" width="84.9" height="10.1"/>
	</g>
	<g>
		<g>
			<polygon class="st33" points="505.1,624.7 510.3,624.7 511.2,509 505.9,509 			"/>
		</g>
		<g>
			<polygon class="st32" points="502.5,624.7 505.1,624.7 505.9,509 503.3,509 			"/>
		</g>
	</g>
	<g>
		<polygon class="st30" points="489.1,500.2 564.4,500.2 596.8,378.1 523.3,378.1 		"/>
	</g>
	<g>
		<polygon class="st33" points="597.8,378.1 572.4,510.2 498.2,510.2 498.2,500.2 564.4,500.2 588.5,378.2 		"/>
	</g>
	<g>
		<path class="st20" d="M694.9,357.9c0,0,5.3-0.6,7.4-6.5c2-5.9,0-14.6-1.8-16.4c-1.8-1.8-12.7-8.3-21.4-4.2
			c-8.7,4.1-3.4,24.3,3.2,26.3C688.9,359.1,694.9,357.9,694.9,357.9z"/>
	</g>
	<g>
		<path class="st20" d="M700.8,341.6c0,0,19.3-3.2,18.8-16c-0.6-12.8-20.3-21.2-26.2-20.9c-12.4,0.7-15.9,11.3-6.2,28.9
			C696.9,351.1,700.8,341.6,700.8,341.6z"/>
	</g>
	<g>
		<g>
			<polygon class="st31" points="653.1,505.1 726.1,505.1 757.5,386.8 686.3,386.8 			"/>
		</g>
		<g>
			<g>
				<polygon class="st33" points="728.7,623.3 733.8,623.3 734,510.7 729,510.7 				"/>
			</g>
			<g>
				<polygon class="st32" points="726.2,623.3 728.7,623.3 729,510.7 726.4,510.7 				"/>
			</g>
		</g>
		<g>
			<g>
				<polygon class="st33" points="668.7,623.3 673.7,623.3 674.5,513.6 669.5,513.6 				"/>
			</g>
			<g>
				<polygon class="st32" points="666.1,623.3 668.7,623.3 669.5,513.6 666.9,513.6 				"/>
			</g>
		</g>
		<g>
			<g>
				
					<rect x="654.6" y="507.3" transform="matrix(-1 -1.224647e-16 1.224647e-16 -1 1314.2258 1130.8843)" class="st33" width="5" height="116.3"/>
			</g>
			<g>
				
					<rect x="652.1" y="507.3" transform="matrix(-1 -1.224647e-16 1.224647e-16 -1 1306.6555 1130.8843)" class="st32" width="2.5" height="116.3"/>
			</g>
		</g>
		<g>
			<g>
				
					<rect x="606.5" y="506.5" transform="matrix(-1 -1.224647e-16 1.224647e-16 -1 1218.0259 1129.217)" class="st33" width="5" height="116.3"/>
			</g>
			<g>
				
					<rect x="604" y="506.5" transform="matrix(-1 -1.224647e-16 1.224647e-16 -1 1210.4556 1129.217)" class="st32" width="2.5" height="116.3"/>
			</g>
		</g>
		<g>
			
				<rect x="597.6" y="505.1" transform="matrix(-1 -1.224647e-16 1.224647e-16 -1 1277.5435 1019.9653)" class="st32" width="82.3" height="9.8"/>
		</g>
		<g>
			<polygon class="st33" points="758.5,386.8 733.9,514.9 661.9,514.9 661.9,505.1 726.1,505.1 749.5,386.9 			"/>
		</g>
	</g>
	<g>
		<g>
			<g>
				<path class="st15" d="M597.7,624.1c-0.1-0.5,4.2-3,7.1-4c-0.8,0.6-1.7,1.4-0.3,1.8c2,0.5,6.4-0.3,7.6-1.9
					c0.5,1.1,0.7,2.6,0.7,3.7C612.8,625,598,626.7,597.7,624.1z"/>
			</g>
			<g>
				<path class="st16" d="M604.5,621.9c-1.4-0.3-0.6-1.2,0.3-1.8c1.8-0.6,3.3-1.1,3.6-1.3c0.9-0.4,1.1-1.3,1.1-1.3l0.9-0.2
					c0,0,1.6,2.4,1.7,2.7C610.8,621.5,606.5,622.4,604.5,621.9z"/>
			</g>
		</g>
		<g>
			<g>
				<path class="st15" d="M617.7,625.8c-0.1-0.7,4.2-3,7.1-4c-0.8,0.6-1.7,1.4-0.3,1.8c2,0.5,6.4-0.3,7.6-1.9
					c0.5,1.1,0.7,2.6,0.7,3.7C632.9,626.8,618,628.4,617.7,625.8z"/>
			</g>
			<g>
				<path class="st34" d="M624.5,623.6c-1.4-0.3-0.6-1.2,0.3-1.8c1.8-0.6,3.3-1.1,3.6-1.3c0.9-0.4,1.1-1.3,1.1-1.3l0.9-0.2
					c0,0,1.6,2.4,1.7,2.7C630.9,623.3,626.5,624.1,624.5,623.6z"/>
			</g>
		</g>
		<g>
			<path class="st16" d="M680.8,441.6c4.7,18.2-2.5,16.8-1,36.2c2.1,26.7-72.6,29.3-72.6,29.3s1.9,96,3.2,110.8l-1.1,0.1
				c0,0-36.9-88.6-23.7-127.3c7.2-21.3,56.6-31.4,56.6-31.4l18.4-20.1C660.5,439.2,665.7,441.4,680.8,441.6z"/>
		</g>
		<g>
			<path class="st34" d="M710.3,441.5c12.5,33.9,11.7,39.5,6,49c-7.3,12.2-24.3,13.3-40.9,13.4c-13.9,0.1-25.9,1.2-25.9,1.2
				s-17.8,99.3-18.5,114.4c-0.1,2.4-1.4,4.3-1.6,0.2c-0.9-15.8-4.6-65.7-10.5-117.7c-3.2-27.9,55.5-35.8,55.5-35.8l6.5-24.6
				C680.8,441.6,695.2,441.2,710.3,441.5z"/>
		</g>
	</g>
	<g>
		<g>
			<path class="st35" d="M622,360c2.8,6.9,13.1,40.5,13.1,40.5s-7.1,14.6-12.7,8.4c-10.7-11.8-9.2-10.4-15.8-22.8
				c-6.2-11.7-1.7-33.9-1.7-33.9S619.2,353.2,622,360z"/>
		</g>
	</g>
	<g>
		<path class="st22" d="M710.8,444.7c0,0,9.3,20,9.3,32.2c0.1,12.2-4.6,25.3-39.4,25.2l-31.2,1.3c0,0-27.9-27.4-63.1-16
			c0,0-2.2-15,54.6-28.8l17.9-19.3L710.8,444.7z"/>
	</g>
	<g>
		<path class="st36" d="M711.7,444.7c0,0,9.3,20,9.3,32.2c0.1,12.2-3.8,27.4-38.6,27.4l-32.5,1.5c0,0-10.8-12.6-26.8-18
			c-0.2-0.1-0.7-0.2-0.7-0.2s5.4-7.3,19.8-13.7c6-2.7,24.8-8.7,24.8-8.7l12.8-24L711.7,444.7z"/>
	</g>
	<g>
		<path class="st35" d="M655.8,383.6c-0.4-8.7,6-16.2,14.7-17.1c5.1-0.5,11.9-0.7,20.9,0c5.5,0.4,15.7,1.5,25.4,12.1
			c3.9,4.2-5.2,65.2-4.3,68.8c-34.1,7.8-50.7-0.9-55-6.6C658.1,435.3,656.7,402.6,655.8,383.6z"/>
	</g>
	<g>
		<g>
			<path class="st35" d="M617.8,402.7c0,0,11.6-14.5,17.4-20.3c4.2-4.2,12.4-11,15-13.2c3.8-3.1,15.3-3.8,24.8-3.1
				c-1.8,8.4-37.7,37.9-44,43.4C624,415.6,617.8,402.7,617.8,402.7z"/>
		</g>
	</g>
	<g>
		<path class="st37" d="M701.5,370.5c7.4-0.5,14.8,1,20.6,10.6c6.9,11.5,20.5,35.3,14.9,50.2c-4.1,11-19.8-11.7-19.8-11.7
			s2-7.4-4.3-22.4C711.3,393.6,698.4,380,701.5,370.5z"/>
	</g>
	<g>
		<path class="st37" d="M685.1,365.1c0,0,7.9,1.5,9,1.7c7.5,1,15.7,0.9,24.2,10.1c3.9,4.2-6.4,66.8-5.5,70.4
			c-12.7,3.7-20,3.2-28,3.2c-4.2,0-9.5-1-9.5-1s5.4-28.3,7.1-39.9C683.9,398.8,685.1,365.1,685.1,365.1z"/>
	</g>
	<g>
		<polygon class="st17" points="686.5,355.6 686.5,355.6 686.5,355.6 		"/>
	</g>
	<g>
		<g>
			<path class="st16" d="M683.5,354.2c0,0-1.4,11.9-0.8,13.3c0.6,1.3,2.9,3.1,4.2,0.1s0.1-13.4,0.1-13.4H683.5z"/>
		</g>
		<g>
			<path class="st19" d="M682.7,362.9c1.4,1,3.2,1.6,4.9,0.5c0.1-2.2-0.1-4.6-0.2-6.5h-4.1C683,358.6,682.8,360.9,682.7,362.9z"/>
		</g>
	</g>
	<g>
		<path class="st16" d="M691.5,354c0.4-0.8,0.6-3.5,0.7-6.3c0.1-3.8-3-6.8-6.8-6.7c-0.9,0-1.6,0-1.7-0.1c-2,0.3-4.5,0.3-6.3,1.4
			c-2,1.2-2.1,4-2.3,6.1c-0.2,2.1,0.3,5.8,1.5,7.6c1.1,1.6,4.3,3.2,6.2,3.2C688.4,359.3,690.1,357.9,691.5,354z"/>
	</g>
	<g>
		<g>
			<rect x="592.3" y="402.2" class="st3" width="4.4" height="18.2"/>
		</g>
		<g>
			<rect x="595" y="358.1" class="st3" width="2.1" height="10.1"/>
		</g>
		<g>
			<path class="st7" d="M589.3,402.8h13.9L615,391l27.5,10l-3,32.9h41.9v-3.7l-5-58.6c-0.2-2.2-2-3.9-4.2-3.9h-82.9
				c-1.6,0-2.9,1.3-2.9,2.9v29.4C586.4,401.5,587.7,402.8,589.3,402.8z"/>
		</g>
		<g>
			<path class="st4" d="M681.4,437.4h-96.4v-4.1c0-1.8,1.4-3.2,3.2-3.2h93.2V437.4z"/>
		</g>
		<g>
			<rect x="584.9" y="437.4" class="st3" width="96.4" height="9.9"/>
		</g>
		<g>
			<rect x="588.8" y="432.3" class="st3" width="12.4" height="3.1"/>
		</g>
		<g>
			<g>
				<polygon class="st3" points="594.2,434.2 593.8,418 595.1,418 				"/>
			</g>
		</g>
		<g>
			<path class="st12" d="M598.5,419.1h-1.8v-4.5h1.8c0.3,0,0.5,0.2,0.5,0.5v3.5C599.1,418.8,598.8,419.1,598.5,419.1z"/>
		</g>
		<g>
			<path class="st12" d="M594.5,402.8h-7c-0.6,0-1.1-0.5-1.1-1.1V369c0-0.7,0.6-1.3,1.3-1.3h6.8V402.8z"/>
		</g>
		<g>
			<circle class="st12" cx="608.8" cy="394.1" r="5.4"/>
		</g>
		<g>
			<path class="st3" d="M611.4,394.1c0,1.4-1.1,2.6-2.6,2.6c-1.4,0-2.6-1.1-2.6-2.6c0-1.4,1.1-2.6,2.6-2.6
				C610.2,391.5,611.4,392.7,611.4,394.1z"/>
		</g>
		<g>
			<path class="st12" d="M676.4,372.4h2.6c3.2,0,5.8,2.6,5.8,5.8v20.7c0,3.2-2.6,5.8-5.8,5.8l0,0"/>
		</g>
		<g>
			<rect x="603.4" y="365.1" class="st7" width="5.4" height="3.1"/>
		</g>
		<g>
			<g>
				<rect x="655.6" y="355.4" class="st3" width="1.4" height="13.8"/>
			</g>
			<g>
				<rect x="652.2" y="363.9" class="st7" width="8.3" height="6.8"/>
			</g>
		</g>
		<g>
			<g>
				<rect x="645.3" y="355.4" class="st3" width="1.4" height="13.8"/>
			</g>
			<g>
				<rect x="641.8" y="363.9" class="st7" width="8.3" height="6.8"/>
			</g>
		</g>
		<g>
			<circle class="st12" cx="660.2" cy="414.8" r="9.1"/>
		</g>
		<g>
			<circle class="st3" cx="660.2" cy="414.8" r="3.6"/>
		</g>
	</g>
	<g>
		<g>
			<path class="st16" d="M687.7,384.3c0.4-0.4,0.5-6.6-0.8-8.6c-1-1.5-5.3-4.4-6.2-3.9c-1,0.5-0.1,1.3-0.1,1.3s-1.1-0.3-1.4,0.5
				c-0.2,0.5,1.7,2.1,2.6,3.6c0.5,1,1.2,5.9,2.5,6.3C685.1,383.8,687,385,687.7,384.3z"/>
		</g>
	</g>
	<g>
		<path class="st37" d="M728.2,436.1c-11.8-0.4-51.8-33.1-45-49.5c0.6-1.5,1.4-2.7,2.1-3.6c1.9-2.2,5.3-2.3,7.5-0.5l41.9,34.3
			C734.8,416.8,744.1,436.7,728.2,436.1z"/>
	</g>
	<g>
		<g>
			<path class="st16" d="M606.8,352.4c0,0,0.2-4.5-3.9-5.4c-2-0.4-4.4,0.6-4.4,1.5c0,0.9,2.1,0.4,3.1,0.9c1.6,0.8,3.2,4.8,5.1,4.8
				C607.4,354.1,607.7,352.9,606.8,352.4z"/>
		</g>
		<g>
			<path class="st16" d="M602.5,346.9c-0.2,0-3.7-1.2-3.7-0.7c0,0.5,2.3,1.5,2.3,1.5l1.4-0.6"/>
		</g>
		<g>
			<path class="st16" d="M604.1,351.3c-0.1-0.1-2.3-1.3-3-0.9c-0.7,0.4,1.3,1.8,1.8,2c0.9,0.5,3.1,1.5,3.1,1.5L604.1,351.3z"/>
		</g>
	</g>
	<g>
		<path class="st20" d="M681.1,342c0,0,7.8,10.4,13,8.7c5.1-1.7,4.8-10.2-0.2-12.4C689,336.2,681.1,342,681.1,342z"/>
	</g>
	<g>
		<path class="st20" d="M684.4,336.9c0,0,6.1,0.3-7.6,11.8c-2.2,1.9-4.2,4.6-4.7,5.2c0,0-1.8-12.4,4.6-15.3
			C680.8,336.7,684.4,336.9,684.4,336.9z"/>
	</g>
	<g>
		<path class="st38" d="M719.5,325.6c-0.2-2.9-1.4-5.5-3.1-7.8c-1.7-2.3-3.8-4.2-6.1-5.8c-2.3-1.6-4.8-3-7.4-4.2
			c-2.6-1.1-5.3-2.1-8-2.5c-1.3-0.2-2.7,0-4.1,0.2c-0.7,0.2-1.4,0.2-2,0.5l-1,0.3c-0.3,0.1-0.6,0.3-0.9,0.5c-2.5,1.2-4,3.6-4.6,6.3
			c-0.6,2.7-0.3,5.5,0.3,8.2c0.6,2.7,1.7,5.4,2.8,7.9l0,0c0.1,0.2,0,0.5-0.2,0.6c-0.1,0-0.1,0-0.2,0c-1.4,0-2.8,0.2-4.2,0.6
			c-1.3,0.4-2.7,0.9-3.6,1.9c-1,1-1.6,2.3-2,3.6c-0.4,1.4-0.6,2.8-0.6,4.2c0,0.1,0,0.1-0.1,0.2c-1.4,1.8-2.2,4.1-2.5,6.3
			c-0.3,2.3-0.3,4.7-0.1,7c-0.3-2.3-0.4-4.7-0.2-7.1c0.2-2.3,0.8-4.8,2.3-6.7l-0.1,0.2c0-1.5,0.1-3,0.5-4.4c0.4-1.4,1-2.8,2.1-4
			c1-1.2,2.5-1.8,3.9-2.2c1.4-0.5,2.9-0.6,4.4-0.7l-0.4,0.7c-1.2-2.6-2.2-5.3-2.9-8.1c-0.7-2.8-1-5.8-0.3-8.7c0.6-2.9,2.5-5.6,5.2-7
			c0.3-0.2,0.7-0.4,1-0.5l1-0.4c0.7-0.3,1.4-0.4,2.1-0.5c1.4-0.2,2.9-0.4,4.4-0.2c2.9,0.5,5.6,1.5,8.2,2.7c2.6,1.2,5.1,2.7,7.4,4.4
			c2.3,1.7,4.4,3.8,6,6.2C718.4,319.9,719.5,322.7,719.5,325.6z"/>
	</g>
	<g>
		<g>
			<polygon class="st4" points="598.7,360.1 593.4,360.1 593.4,340.1 598.6,340.1 			"/>
		</g>
		<g>
			<path class="st4" d="M598.7,360c0,0.3-1.2,0.6-2.6,0.6s-2.6-0.3-2.6-0.6c0-0.3,1.2-0.6,2.6-0.6S598.7,359.6,598.7,360z"/>
		</g>
		<g>
			<path class="st27" d="M591.4,356.6c0,0.6,2.1,1.2,4.6,1.2c2.5,0,4.6-0.5,4.6-1.2v-14h-9.2V356.6"/>
		</g>
		<g>
			<path class="st39" d="M600.6,342.6c0,0.6-2.1,1.2-4.6,1.2c-2.5,0-4.6-0.5-4.6-1.2c0-0.6,2.1-1.2,4.6-1.2
				C598.6,341.5,600.6,342,600.6,342.6z"/>
		</g>
		<g>
			<path class="st4" d="M593.5,342.7c0,0.3,1.2,0.6,2.6,0.6s2.6-0.3,2.6-0.6l-0.1-2.6h-5.3L593.5,342.7"/>
		</g>
		<g>
			<ellipse class="st3" cx="596" cy="340.1" rx="2.6" ry="0.6"/>
		</g>
		<g>
			<path class="st40" d="M598.1,340.1c0,0.3-0.9,0.5-2.1,0.5c-1.2,0-2.1-0.2-2.1-0.5c0-0.3,0.9-0.5,2.1-0.5
				C597.2,339.6,598.1,339.8,598.1,340.1z"/>
		</g>
	</g>
	<g>
		<rect x="725.1" y="456.4" class="st2" width="6.8" height="167.3"/>
	</g>
	<g>
		<rect x="731.9" y="456.4" class="st4" width="4.6" height="167.3"/>
	</g>
	<g>
		<rect x="668.1" y="456.4" class="st4" width="4.6" height="167.3"/>
	</g>
	<g>
		<rect x="661.3" y="614.3" class="st4" width="75.2" height="9.3"/>
	</g>
	<g>
		<rect x="661.3" y="456.4" class="st2" width="6.8" height="167.3"/>
	</g>
	<g>
		<rect x="611.1" y="446.8" class="st30" width="125.4" height="17.2"/>
	</g>
	<g>
		<g>
			<polygon class="st33" points="567.1,624.7 572.3,624.7 572.6,506 567.4,506 			"/>
		</g>
		<g>
			<polygon class="st32" points="564.5,624.7 567.1,624.7 567.4,506 564.8,506 			"/>
		</g>
	</g>
	<g>
		<g>
			
				<rect x="441" y="501.6" transform="matrix(-1 -1.224647e-16 1.224647e-16 -1 887.149 1127.1295)" class="st33" width="5.2" height="124"/>
		</g>
		<g>
			
				<rect x="438.4" y="501.6" transform="matrix(-1 -1.224647e-16 1.224647e-16 -1 879.3373 1127.1295)" class="st32" width="2.6" height="124"/>
		</g>
	</g>
	<g>
		<path class="st17" d="M489.5,376.7c0,0-32.7-14.1-10.9-30.3c0,0-7.5-21.6,11.7-30.2c0,0,12.6-4.4,16.8,10.5c0,0,12.6-3,13.5,12.6
			c0,0,9.8-17.1,27.8-7.1c18,10,10.8,34.6,10.8,34.6s14.3-5.7,16.1,11.6c2.8,26.7-38.7,34.5-38.7,34.5L489.5,376.7z"/>
	</g>
	<g>
		<path class="st41" d="M478.9,370.3c-2-1.5-3.8-3.1-5.3-5.1c-1.5-2-2.6-4.3-2.8-6.8c-0.2-2.6,0.8-5.1,2.2-7.1
			c1.4-2.1,3.3-3.7,5.3-5.3l-0.2,0.6c-1-2.9-1.4-5.9-1.6-8.9c-0.1-3,0.3-6.1,1.2-9c0.9-2.9,2.6-5.6,4.7-7.8c2.1-2.3,4.8-3.8,7.5-5.2
			l0.1,0c1.9-0.6,3.9-0.8,5.9-0.6c2,0.2,3.9,0.8,5.6,2c1.6,1.1,3,2.6,4,4.3c0.5,0.8,0.9,1.7,1.3,2.6l0.9,2.7l-0.8-0.5
			c1.9-0.3,3.8-0.3,5.6,0.2c1.8,0.5,3.6,1.4,4.9,2.8c1.3,1.4,2.2,3.1,2.7,4.9c0.3,0.9,0.4,1.8,0.6,2.7l0.3,2.7l-1-0.2
			c1.5-2.3,3.4-4.3,5.5-6c2.1-1.7,4.6-3,7.3-3.6c2.6-0.6,5.4-0.8,8.1-0.1c1.3,0.2,2.6,0.8,3.9,1.2c1.2,0.5,2.4,1.2,3.6,1.8
			c-1.2-0.5-2.4-1.1-3.7-1.6c-1.3-0.3-2.5-0.9-3.9-1c-2.6-0.5-5.3-0.3-7.8,0.4c-2.5,0.7-4.9,2-6.9,3.7c-2,1.7-3.8,3.7-5.1,5.9
			c-0.2,0.3-0.5,0.3-0.7,0.2c-0.1-0.1-0.2-0.2-0.3-0.4l0,0l-0.3-2.6c-0.2-0.8-0.4-1.7-0.6-2.5c-0.6-1.6-1.4-3.1-2.5-4.3
			c-1.2-1.2-2.7-2-4.3-2.4c-1.6-0.4-3.4-0.4-5-0.1c-0.4,0.1-0.7-0.1-0.8-0.5l0,0l-0.9-2.6c-0.4-0.8-0.7-1.6-1.3-2.4
			c-0.9-1.5-2.2-2.8-3.6-3.8c-1.5-1-3.2-1.5-4.9-1.7c-1.7-0.2-3.6,0-5.2,0.5l0.1,0c-2.6,1.3-5.2,2.7-7.1,4.9c-2,2-3.6,4.5-4.5,7.3
			c-0.9,2.7-1.3,5.7-1.2,8.6c0.1,2.9,0.5,5.9,1.3,8.6l0,0c0.1,0.2,0,0.4-0.2,0.6c-1.9,1.5-3.8,3-5.2,5c-1.4,1.9-2.3,4.2-2.3,6.6
			c0.1,2.4,1.1,4.7,2.5,6.7C475.2,367,477,368.7,478.9,370.3z"/>
	</g>
	<g>
		<path class="st10" d="M428.2,425.6c-0.2-1.1,1.5-3.2,2.5-3.7c10.6-5.1,29.3-12.1,33.5-15.8c2.7-2.3,14.1,1.4,10.1,8.7
			c-1.5,2.8-8.1,9.3-12.2,11.5C446.7,434.6,432.5,447.6,428.2,425.6z"/>
	</g>
	<g>
		<g>
			<path class="st15" d="M457.1,626.8c-1.7-3.1,6.6-6.3,11.1-7.8c-1.2,0.9-2.5,2.2-0.5,2.6c3,0.5,9.1-1.2,10.8-3.5
				c0.9,1.5,1.3,3.6,1.5,5.1C480.1,625.1,457.9,628.3,457.1,626.8z"/>
		</g>
		<g>
			<path class="st16" d="M467.7,621.6c-2-0.3-2.8-1.6,0.1-2.5c2.6-0.7,4.7-2,5.1-2.2c1.2-0.7,1.4-2.8,1.4-2.8l2.4-0.3
				c0,0,1.4,3.9,1.7,4.4C476.8,620.4,470.6,622.1,467.7,621.6z"/>
		</g>
	</g>
	<g>
		<g>
			<path class="st15" d="M400.7,582.1c0-2.4,8.1-4.1,12.9-4.3c-1.4,0.6-3.1,1.4-1.2,2.3c2.7,1.3,9.1,1.5,11.3-0.2
				c0.4,1.7,0.2,3.8-0.1,5.3C423.2,587.1,400.7,583.8,400.7,582.1z"/>
		</g>
		<g>
			<path class="st16" d="M412.4,580.2c-1.8-0.9-2.2-2.4,0.9-2.3c2.7,0,5.1-0.5,5.6-0.7c1.3-0.3,2.2-2.2,2.2-2.2l2.4,0.4
				c0,0,0.2,4.2,0.3,4.7C421.5,581.7,415.1,581.5,412.4,580.2z"/>
		</g>
	</g>
	<g>
		<path class="st15" d="M553,459.6c-2.8-20.9-14.2-35.8-14.2-35.8s-40.3,1-44,7.9c0.1,0.1-0.1,10.7-0.7,11.4
			c-16.5,18.9-46.6,17.6-47.2,42.9c-1.2,49.8,12.5,122.9,21.2,128.2c2.2,1.3,6.5,0.6,6.5,0.6c1.9-0.1,2-1,2.1-3.8l0.6-109.5
			l34.5-2.7c9.3-0.3,10.8,0.2,25.8-3.3C546.6,493.5,555.8,479.9,553,459.6z"/>
	</g>
	<g>
		<path class="st9" d="M491.5,432.2c7.2,0.9,34.8,2.8,48.9-6.2c0.7-15.2,0.3-32.3-3.1-46.1c-1-4-3.4-11.5-6.7-15.2
			c-4.8-5.4-13.1-5.3-20.2-4.2c-3.6,0.6-7.1,1.2-8.8,1.4c-12.4,1.8-12.2,2.2-17.2,8.9C480.2,376.5,491.5,432.2,491.5,432.2z"/>
	</g>
	<g>
		<path class="st10" d="M491.5,432.2c3.4,0.4,11.4,0.9,20.6,0.3c0.8,0,3.9-0.1,3.9-0.1s-3.1-18.5-7.5-36.5
			c-4.2-17.1-1-32.6-1.4-34.7c-0.2-0.8-7,0.8-7.7,0.9c-10,1.6-10.2,2.3-14.8,8.5C480.2,376.5,491.5,432.2,491.5,432.2z"/>
	</g>
	<g>
		<g>
			<path class="st16" d="M502,352.3c0,0,1.9,9.1,2.4,10.5c0.7,1.9,5.4,3,6.1-0.2c0.7-3.2-4.1-11.8-4.1-11.8L502,352.3z"/>
		</g>
		<g>
			<path class="st19" d="M503.8,360.3c2,0.3,4.5,0,6.2-1.7c-0.6-1.9-1.6-4-2.3-5.6l-5.1,1.8C502.9,356.5,503.3,358.5,503.8,360.3z"
				/>
		</g>
	</g>
	<g>
		<path class="st16" d="M508.7,347c0.1-1.4-1.8-6-3.6-9.7c-1.4-3.1-5.1-4.4-8.2-2.9c-4.7,2.3-9.8,5.2-10.9,6.8
			c-1.6,2.5-0.3,5.8,0.7,8.2c0.9,2.5,3.5,6.5,5.9,8c2.1,1.3,6.7,1.3,8.9,0.3C508.1,354.8,509.3,352.2,508.7,347z"/>
	</g>
	<g>
		<path class="st10" d="M496.4,364.3c0,0,0.6,7.8-10.2,28.8c-12.7,24.7-12,27.6-19.8,23.3l-6.1-3.2c0,0,11.5-32.8,16.2-40.8
			C481.7,363.4,496.4,364.3,496.4,364.3z"/>
	</g>
	<g>
		<path class="st24" d="M516.7,395.3h-3.4v-20.8h3.4c1.5,0,2.6,1.2,2.6,2.6v15.5C519.3,394.2,518.1,395.3,516.7,395.3z"/>
	</g>
	<g>
		<path class="st24" d="M439.9,416.6h-1.9v-4.8h1.9c0.3,0,0.5,0.2,0.5,0.5v3.7C440.5,416.3,440.2,416.6,439.9,416.6z"/>
	</g>
	<g>
		<rect x="433.5" y="399.1" class="st3" width="4.7" height="19.2"/>
	</g>
	<g>
		<rect x="505.2" y="383.1" class="st25" width="7.1" height="4.5"/>
	</g>
	<g>
		<path class="st24" d="M443.1,406.1h-13.6c-1,0-1.8-0.8-1.8-1.8v-35.1c0-1,0.8-1.8,1.8-1.8h21.4l-6,37.2
			C444.8,405.4,444,406.1,443.1,406.1z"/>
	</g>
	<g>
		<path class="st24" d="M505.7,390.4h-64.2v-23.1h62.9c0.7,0,1.3,0.6,1.3,1.3V390.4z"/>
	</g>
	<g>
		<path class="st24" d="M471.7,385.9l-6,42c-0.2,1.5,1,2.8,2.5,2.8h38.5v-0.7v-61c0-1-0.8-1.9-1.9-1.9h-31.8L471.7,385.9z"/>
	</g>
	<g>
		<path class="st4" d="M499.4,381.4h-20.6c-0.6,0-1.1-0.5-1.1-1.1v-3.5c0-0.6,0.5-1.1,1.1-1.1h20.6c0.6,0,1.1,0.5,1.1,1.1v3.5
			C500.5,380.9,500,381.4,499.4,381.4z"/>
	</g>
	<g>
		<rect x="479.8" y="376.7" class="st3" width="18.6" height="3.7"/>
	</g>
	<g>
		<g>
			<rect x="480.2" y="380.8" class="st4" width="0.7" height="2.5"/>
		</g>
	</g>
	<g>
		<g>
			<rect x="483.7" y="380.8" class="st4" width="0.7" height="2.5"/>
		</g>
	</g>
	<g>
		<g>
			<rect x="487.2" y="380.8" class="st4" width="0.7" height="2.5"/>
		</g>
	</g>
	<g>
		<g>
			<rect x="490.7" y="380.8" class="st4" width="0.7" height="2.5"/>
		</g>
	</g>
	<g>
		<g>
			<rect x="494.2" y="380.8" class="st4" width="0.7" height="2.5"/>
		</g>
	</g>
	<g>
		<g>
			<rect x="497.7" y="380.8" class="st4" width="0.7" height="2.5"/>
		</g>
	</g>
	<g>
		<rect x="435.2" y="359.2" class="st3" width="2.4" height="8.1"/>
	</g>
	<g>
		<rect x="482.7" y="364.9" class="st24" width="7.2" height="2.9"/>
	</g>
	<g>
		<rect x="485.3" y="359.7" class="st3" width="1.9" height="5.1"/>
	</g>
	<g>
		<path class="st25" d="M513.4,402.6h-3.7v-35.2h3.7c1.6,0,2.8,1.3,2.8,2.8v29.6C516.3,401.3,515,402.6,513.4,402.6z"/>
	</g>
	<g>
		<rect x="506.8" y="409.5" class="st24" width="3" height="9.9"/>
	</g>
	<g>
		<path class="st9" d="M545.7,376.7c16.4,22.6,12.3,36.9,12.3,36.9l-14.8,2c0,0-17.5-44.9-22.1-52.9
			C517.9,357.1,534.3,361,545.7,376.7z"/>
	</g>
	<g>
		<path class="st42" d="M520.7,386.4c0.4,0,0.8-0.4,0.9-0.8c0.2-1.1,0.3-4.4-0.4-6.5c-0.3-0.9-1.7-3.3-3.9-3.9
			c-0.5-0.1-1.6-0.5-2.1,0c-0.3,0.3-0.6,1.3,0.5,4c0.4,1.1,1.6,4,2.4,4.8c0,0,1.6,2.9,1.7,3.5C519.8,388,519.9,386.5,520.7,386.4z"
			/>
	</g>
	<g>
		<path class="st9" d="M518.1,385.3c-4,4.9-2.3,11.7,3,15.2c10.6,7.2,20.6,15.7,25.1,17.7c5.6,2.5,14.4-0.4,11.7-8.8
			c-1-3.2-6.2-9-10.2-12C535.5,388.1,525.4,376.2,518.1,385.3z"/>
	</g>
	<g>
		<path class="st10" d="M521.7,382.5c2.3-1.1,5.2-0.8,7.5,0.3c1.2,0.5,2.3,1.3,3.3,2c1,0.7,2,1.5,3.1,2.2c2,1.5,4,3.1,5.9,4.8
			c1.9,1.6,3.8,3.3,5.6,5.1c-2.1-1.4-4.1-2.9-6.2-4.4c-2-1.5-4-3-6-4.5l-3-2.3c-1-0.8-2-1.5-3-2.1c-1.1-0.6-2.2-1-3.4-1.2
			C524.2,382.2,522.9,382.2,521.7,382.5z"/>
	</g>
	<g>
		<path class="st10" d="M518.1,385.3c-1.2,1.7-2,3.8-2,5.9c0,2.1,0.8,4.1,2,5.7c2.6,3.2,6,5.9,9.3,8.5c3.3,2.6,6.9,5,10.4,7.3
			c1.8,1.2,3.6,2.3,5.4,3.3c1.8,1.1,3.7,2.1,5.6,3c-4.1-1.4-7.8-3.4-11.5-5.6c-3.7-2.2-7.2-4.6-10.6-7.2c-1.7-1.3-3.3-2.7-4.9-4.1
			c-1.6-1.5-3.2-2.9-4.4-4.8c-1.2-1.8-2-4-1.8-6.2C515.8,388.9,516.7,386.9,518.1,385.3z"/>
	</g>
	<g>
		<path class="st17" d="M488.4,334.8c0,0,11.2,13.4,20.2,9c9-4.4-5.5-13-5.5-13L488.4,334.8z"/>
	</g>
	<g>
		<path class="st17" d="M485.4,354.5c0,0,10-18.6,7.2-23.3c-2.7-4.7-10,4.1-10,4.1L485.4,354.5z"/>
	</g>
	<g>
		<path class="st17" d="M553.2,472.4c-0.8-21.1-97.3-46.8-107.5-23.7c-20,45.6-35.3,118.4-29.2,126.6c1.5,2.1,5.8,3,5.8,3
			c1.8,0.7,2.5-0.4,3.4-2.7l42.2-101c0,0,42.3,23.6,57.7,23.3C551,497.6,553.7,486.4,553.2,472.4z"/>
	</g>
	<g>
		<polygon class="st31" points="600.5,446.7 512.4,446.7 409.7,446.7 409.7,464 512.4,464 624,464 670.4,464 670.4,446.7 		"/>
	</g>
	<g>
		<path class="st4" d="M519.2,436.3H417.4v-4.4c0-1.9,1.5-3.4,3.4-3.4h95.1c1.9,0,3.4,1.5,3.4,3.4V436.3z"/>
	</g>
	<g>
		<rect x="417.4" y="436.3" class="st3" width="101.8" height="10.4"/>
	</g>
	<g>
		<rect x="429.8" y="430.8" class="st3" width="13.1" height="3.2"/>
	</g>
	<g>
		<path class="st3" d="M435.1,432.9"/>
	</g>
	<g>
		<path class="st7" d="M465.7,428.5l-44.8-1.2c0,0-4.5,2.8-7.9,11.6c-3.4,8.8-9.8,6.8-11.1,11.2c-1.3,4.4,0,34.3,0,34.3h45.8
			l-2.4-26.5c0.2-4.1,2.3-7.7,5.8-9.9c2.5-1.6,5.2-3.7,6.8-6.2C461.4,436.3,454.5,430.8,465.7,428.5z"/>
	</g>
	<g>
		<g>
			<polygon class="st3" points="435.4,432.9 435.1,415.8 436.5,415.8 			"/>
		</g>
	</g>
	<g>
		<path class="st16" d="M430,425.5c-1.2-0.3-5.1-0.8-7.5-0.1c-1.1,0.3-4,1.6-4.9,4.1c-0.2,0.6-0.7,1.8-0.2,2.4
			c0.3,0.4,2.1-0.8,3.4-2.4c0.8-1,2.3-0.7,3.2-0.3c0,0-2.1,1.3-1.8,2c0.3,0.6,4.6-0.9,5.6-1.8c0,0,2.4-1.4,3.1-1.9
			C431.7,427.1,430.5,425.6,430,425.5z"/>
	</g>
	<g>
		<path class="st35" d="M728.2,436.1c-2.9-0.2-5.6-1.4-8.2-2.6c-2.6-1.3-5.1-2.8-7.5-4.4c-4.8-3.2-9.3-6.8-13.6-10.8
			c-4.3-3.9-8.2-8.2-11.5-13c-1.7-2.4-3.1-4.9-4.2-7.7c-1.1-2.7-1.8-5.7-1.4-8.8c0.2-1.5,0.8-3,1.5-4.3c0.4-0.7,0.8-1.3,1.3-1.9
			c0.5-0.6,1.2-1.1,1.9-1.5c1.5-0.7,3.2-0.8,4.7-0.2c0.8,0.3,1.5,0.7,2.1,1.2l1.7,1.4c4.4,3.7,8.9,7.3,13.3,11l13.2,11.1l13.1,11.2
			l-13.6-10.6l-13.5-10.8c-4.5-3.6-9-7.2-13.4-10.8l-1.7-1.4c-0.5-0.4-1-0.7-1.6-1c-1.2-0.4-2.5-0.4-3.7,0.2c-0.6,0.3-1,0.7-1.4,1.1
			c-0.4,0.5-0.8,1.1-1.1,1.7c-0.7,1.2-1.2,2.5-1.3,3.8c-0.4,2.7,0.2,5.5,1.2,8.1c1,2.6,2.4,5.1,4,7.4c3.2,4.7,7.1,9,11.2,13
			c4.1,4,8.5,7.7,13.2,11c2.3,1.7,4.7,3.2,7.3,4.6C722.7,434.5,725.3,435.8,728.2,436.1z"/>
	</g>
</g>
<g>
	<g>
		<g>
			
				<rect x="1076.2" y="294.5" transform="matrix(0.4208 -0.9072 0.9072 0.4208 339.219 1159.504)" class="st9" width="2.8" height="39.2"/>
		</g>
	</g>
	<g>
		<g>
			<rect x="1042.2" y="349.2" class="st3" width="5.9" height="123.8"/>
		</g>
		<g>
			<g>
				<path class="st3" d="M1022.2,494.6c-1.2,0-2.2-1.2-2.2-2.7c0-1.5,1-2.7,2.2-2.7c4.4,0,8.4-3.8,10.5-9.8l0.3-0.8
					c2.1-6.2,6.5-10.1,11.3-10.1h1.9c1.2,0,2.2,1.2,2.2,2.7c0,1.5-1,2.7-2.2,2.7h-1.9c-3,0-5.7,2.6-7.2,6.8l-0.3,0.8
					C1034.1,489.6,1028.4,494.6,1022.2,494.6z"/>
			</g>
		</g>
		<g>
			<g>
				<path class="st3" d="M1068.7,494.6c1.3,0,2.3-1.2,2.3-2.7c0-1.5-1-2.7-2.3-2.7c-4.6,0-8.8-3.8-10.9-9.8l-0.3-0.8
					c-2.2-6.2-6.7-10.1-11.8-10.1h-2c-1.3,0-2.3,1.2-2.3,2.7c0,1.5,1,2.7,2.3,2.7h2c3.1,0,6,2.6,7.5,6.8l0.3,0.8
					C1056.3,489.6,1062.2,494.6,1068.7,494.6z"/>
			</g>
		</g>
		<g>
			<g>
				<path class="st3" d="M1045.2,495.6c-1.6,0-2.8-1.2-2.8-2.8v-28.4c0-1.5,1.3-2.8,2.8-2.8c1.6,0,2.8,1.2,2.8,2.8v28.4
					C1048,494.3,1046.8,495.6,1045.2,495.6z"/>
			</g>
		</g>
		<g>
			<path class="st20" d="M1077.5,327.6c-4.2-10.8-15.2-14.3-16.9-23.1c-1.7-8.8,5.9-19.7,5.9-19.7c6.9-11.5,9.9-19.6,11.2-24.9
				c1.1-4.6-1.6-9.2-6.1-10.7l-5.2-1.7c-8.2-2.7-13.8-10.4-13.8-19v-1.6h-5h-4.9h-5v1.6c0,8.7-5.6,16.3-13.8,19l-5.2,1.7
				c-4.5,1.5-7.2,6.1-6.1,10.7c1.3,5.3,4.3,13.4,11.2,24.9c0,0,7.6,11,5.9,19.7c-1.7,8.8-12.7,12.3-16.9,23.1
				c-2.9,7.3-3.6,22.5-3.7,31.5c-0.1,4,3.1,7.3,7,7.4h58c4-0.1,7.1-3.4,7-7.4C1081.1,350.1,1080.4,334.9,1077.5,327.6z"/>
		</g>
		<g>
			<path class="st29" d="M1077.5,327.6c-4.2-10.8-15.2-14.3-16.9-23.1c-1.7-8.8,5.9-19.7,5.9-19.7c6.9-11.5,9.9-19.6,11.2-24.9
				c1.1-4.6-1.6-9.2-6.1-10.7l-5.2-1.7c-8.2-2.7-13.8-10.4-13.8-19v-1.6h-5h-2.5v139.7h29c4-0.1,7.1-3.4,7-7.4
				C1081.1,350.1,1080.4,334.9,1077.5,327.6z"/>
		</g>
		<g>
			<path class="st17" d="M1052.7,226.9c0,1-3.4,1.8-7.5,1.8s-7.5-0.8-7.5-1.8c0-1,3.4-1.8,7.5-1.8S1052.7,225.9,1052.7,226.9z"/>
		</g>
	</g>
	<g>
		<path class="st10" d="M1061.2,413l-2.7-1.4c1.7-3.3,1.6-23.5-5.8-37.6c-3.7-7.1-3.2-18.7-2.8-29.9c0.5-11.6,1-23.6-3.3-28.9
			c-7.6-9.3-14.5-8.1-14.6-8l-0.6-2.9c0.3-0.1,8.8-1.6,17.5,9.1c5.1,6.2,4.5,18.2,4,31c-0.5,10.8-0.9,22.1,2.4,28.4
			C1062.7,386.6,1063.8,408,1061.2,413z"/>
	</g>
	<g>
		<path class="st43" d="M1117.4,342c-9.6-1.2-28.9-10.8-23.8-21.8c1.9-4.1,4.3-2.4,4.3-2.4l23.5,15
			C1121.4,332.8,1129.8,343.7,1117.4,342z"/>
	</g>
	<g>
		<polygon class="st17" points="1098.9,300.4 1098.9,300.4 1098.9,300.4 		"/>
	</g>
	<g>
		<path class="st16" d="M1096.7,298c0,0,0.8,7.9,0.1,8.8c-0.6,0.8-2.8,1.9-3.9-0.2c-1.1-2,0.5-8.8,0.5-8.8L1096.7,298z"/>
	</g>
	<g>
		<path class="st19" d="M1097,303.7c-1.3,0.6-3.4,0-4.5-1.2c0.2-1.4,0.2-1.8,0.4-3l3.8,0.3C1096.9,300.9,1097,302.4,1097,303.7z"/>
	</g>
	<g>
		<path class="st16" d="M1088.8,298.6c-0.3-0.5-0.6-2.4-0.8-4.3c-0.3-2.4,1.7-4.6,4.1-4.6c0.6,0,1,0,1.1-0.1c1.3,0.1,3-0.1,4.2,0.5
			c1.4,0.7,1.6,2.5,1.8,3.8c0.2,1.3,0.1,3.8-0.5,5.1c-0.6,1.1-2.7,2.3-3.9,2.5C1091.1,301.9,1089.9,301.1,1088.8,298.6z"/>
	</g>
	<g>
		<path class="st44" d="M1098.7,285.4c-2.1-3.1-5.7-5.4-9.1-6.2c-0.4-0.1-0.8,0.4-0.5,0.8c0.7,0.8,1.7,1.4,2.4,2.8
			c-1-0.8-5.1-3.1-7-4.5c-0.4-0.3-0.8,0.2-0.7,0.6c0.4,0.9,0.8,1.7,1.2,2.6c-1.5-0.6-2.5-2.1-3.7-3.1c-0.3-0.2-0.9,0-0.8,0.4
			c0.2,4-0.1,7.6,4.8,11.8c3,2.6,8.7,0.9,12.6,0.8c0.1,0.1,0.1,0.2,0.2,0.3c0,0.1,0.1,0.1,0.1,0.2c0.3,1.5,0.7,3.1,1.1,4.6
			c0.1,0.2,0.3,0.4,0.6,0.3c1.7-0.5,2.1-2.1,2.4-3.6c0,0,2.3-2.1,2-5.1C1104,286.3,1100.4,284.8,1098.7,285.4z"/>
	</g>
	<g>
		<g>
			<path class="st17" d="M1063.5,503.1c-0.5-3.6,4-2.7,6.7-3.6c-0.8,0.5-1.6,1.3-0.3,1.6c1.9,0.5,6-0.2,7.2-1.6
				c0.5,1,0.6,2.4,0.6,3.4C1077.8,504.1,1063.9,505.4,1063.5,503.1z"/>
		</g>
		<g>
			<path class="st16" d="M1070,501.1c-1.3-0.3-0.5-1.1,0.3-1.6c1.7-0.6,3.1-1,3.4-1.1c0.8-0.4,1-1.2,1-1.2l0.9-0.2
				c0,0-0.5,1.2,1.1,1.7c0.3,0.1,0.4,0.5,0.5,0.8C1076,500.9,1071.9,501.6,1070,501.1z"/>
		</g>
	</g>
	<g>
		<g>
			<path class="st17" d="M1099.9,502.5c-0.5-3.6,4-2.7,6.7-3.6c-0.8,0.5-1.6,1.3-0.3,1.6c1.9,0.5,6-0.2,7.2-1.6
				c0.5,1,0.6,2.4,0.6,3.4C1114.2,503.5,1100.3,504.8,1099.9,502.5z"/>
		</g>
		<g>
			<path class="st16" d="M1106.3,500.5c-1.3-0.3-0.5-1.1,0.3-1.6c1.7-0.6,3.1-1,3.4-1.1c0.8-0.4,1-1.2,1-1.2l0.9-0.2
				c0,0-0.5,1.2,1.1,1.7c0.3,0.1,0.4,0.5,0.5,0.8C1112.3,500.3,1108.2,501,1106.3,500.5z"/>
		</g>
	</g>
	<g>
		<path class="st26" d="M1112.7,344.4c0.1,0.4,5,4.4,8.5,15.1c4.6,14,3.8,21.5,2,37.2c-2.1,18.8-5.6,81.2-8.9,98.5
			c-0.4,2.4-6.3,2.1-6.6-0.8c-1.8-18.6-10.8-114.5-10.8-114.5l-19.4,117.8l-4.6,0.2c0,0-0.4-0.9-0.2-3.9c1.2-20.3-5.5-104-3.3-113.9
			c4.6-20.7,8.9-26.3,9.7-32C1082.8,349.6,1105.9,347.9,1112.7,344.4z"/>
	</g>
	<g>
		<g>
			<path class="st27" d="M1069.4,492.5c1.2-20.3-1.9-100.8-0.9-110.9c0.8-8.6,2.9-16.6,4.7-21.5c2.4-6.6,6.4-10.8,6.9-14
				c0.9,0.4,12.8,4.1,17.7,4.5c0,0-19.3,42.8-22.6,147.2l-5.6-1.3C1069.5,496.4,1069.2,495.6,1069.4,492.5z"/>
		</g>
	</g>
	<g>
		<path class="st11" d="M1081.2,316.3c0.6-4,4.7-8.5,8.2-9.5c5.9-1.7,13.1-1.9,22.1,0c6.5,1.4,3.6,5.7,3.6,5.7s-0.2,12.9,1,22.9
			c1.3,10,1.4,12.5,2.5,17.8c-0.6,0.3-1.6,0.5-2.9,0.8c-5.1,1-14.2,1.8-18.5,1.6c-7.6-0.5-14.5-2.8-16.6-3.9c0.1-0.4,0.1-0.7,0-1
			C1078.2,340.7,1079.9,325,1081.2,316.3z"/>
	</g>
	<g>
		<path class="st12" d="M1096.5,312.8c0,0,0.8,16.5,0.9,26.1c0,6.7-1.5,16.7-1.5,16.7s-13.6-1.2-18.3-4.3c0,0,0.8-11.5,0.7-15.6
			c0-3.6,0.9-11,1.9-17.1c0.9-6-4.7-9,7.8-11.9c2.5-0.6,7.2-1.1,7.4-0.8C1095.8,306.5,1096.5,312.8,1096.5,312.8z"/>
	</g>
	<g>
		<path class="st16" d="M1124.6,339.4c-2.9,6.2-7.4-2.5-7.4-2.5l-5.7-25.1l-1.4-5.2c0,0,3.6,0.3,6.5,3.1c1,1,3.5,6.2,4,7.4
			C1124.1,325.9,1126.5,335.4,1124.6,339.4z"/>
	</g>
	<g>
		<path class="st16" d="M1067,333.9c0,0,4.7,7.8,6.4,6.1c5.3-5.6,11.9-27.5,11.9-27.5l3.7-5.5c0,0-2.8,0-5.4,0.8
			c-1.5,0.4-5.3,1.5-7.6,5C1069.1,323.2,1067,333.9,1067,333.9z"/>
	</g>
	<g>
		<path class="st16" d="M1066.3,341.2c-9.4-2.2-19.9-24.7-19.9-24.7l1-0.4l23.9,16.4C1071.2,332.4,1078.5,344,1066.3,341.2z"/>
	</g>
	<g>
		<path class="st44" d="M1088,289.5c0,0,2.2,7.4,5.8,11c1.8,1.8,8.8-1.9,8.2-6.5c-0.7-4.6-10.8-7.8-11.8-7
			C1089,287.8,1088,289.5,1088,289.5z"/>
	</g>
	<g>
		<path class="st16" d="M1047.5,316.1l0.2-3.5c0,0-1.8-1.2-2.7-0.1c-0.4,0.5,1.4,4.2,1.4,4.2L1047.5,316.1z"/>
	</g>
	<g>
		<path class="st16" d="M1047.4,313.9c0,0,1.2-1.9,1.3-1.5c0.1,0.4-0.5,1.9-0.5,1.9l-1.2,1.6l0.4-1.8L1047.4,313.9z"/>
	</g>
	<g>
		<path class="st16" d="M1047.7,312.7c0,0,0.2-1-0.6-2.3c-0.8-1.3-0.1,2.6-0.1,2.6L1047.7,312.7z"/>
	</g>
	<g>
		<path class="st16" d="M1047.4,314c0,0-0.1-1.3-1.4-2.2c-1.3-0.9,0.7,2.6,0.7,2.6L1047.4,314z"/>
	</g>
	<g>
		<path class="st16" d="M1046.9,314.6c0,0,0-1.6-1.3-2.5c-0.4-0.3-0.9,0.4-0.4,1.7c0.2,0.7,0.8,1.3,0.8,1.3L1046.9,314.6z"/>
	</g>
	<g>
		<path class="st16" d="M1047.4,312.8c0,0-0.5-1.9-1.6-2.8c-1.2-0.9,1,3.2,1,3.2L1047.4,312.8z"/>
	</g>
	<g>
		<path class="st26" d="M1081.3,357l14.1,0.9c0,0,1,17.3-4,18.4c-4.9,1-13.1-1.8-13-9.6C1078.5,358.8,1081.3,357,1081.3,357z"/>
	</g>
	<g>
		<path class="st27" d="M1117.7,357.7l-14.1,0.9c0,0-1,17.3,4,18.4c4.9,1,13.1-1.8,13-9.6C1120.5,359.5,1117.7,357.7,1117.7,357.7z"
			/>
	</g>
	<g>
		<path class="st12" d="M1090,306.7c0,0-8.8-0.8-13.9,5.8c-5.2,6.6-7.1,10.1-7.1,10.1l10.1,8.6L1090,306.7z"/>
	</g>
	<g>
		<polygon class="st12" points="1069,320.8 1080.4,331.2 1079.4,334 1067,323.6 		"/>
	</g>
	<g>
		<path class="st11" d="M1104.6,305.8c0,0,8.8-0.8,13.9,5.8c5.2,6.6,5.7,12,5.7,12l-8.7,6.7L1104.6,305.8z"/>
	</g>
	<g>
		<polygon class="st11" points="1124.2,321.8 1114.2,330.3 1115.2,333.1 1126.2,324.6 		"/>
	</g>
	<g>
		<polygon class="st10" points="1029.8,304 1060.6,304.5 1061.8,307.7 1029,307.2 		"/>
	</g>
	<g>
		<path class="st45" d="M1080.4,278.8c0.2,1.4,0.3,2.9,0.6,4.2c0.3,1.4,0.8,2.7,1.5,3.8c0.7,1.1,1.7,2.2,2.7,3.1
			c1,0.9,2.2,1.4,3.6,1.5l0,0c0.2,0,0.4,0.2,0.4,0.3c0.6,1.5,1.2,3.1,1.9,4.5c0.7,1.5,1.5,2.9,2.6,4.2c-1.3-1.1-2.3-2.4-3.2-3.9
			c-0.9-1.4-1.6-2.9-2.2-4.5l0.4,0.3c-1.5-0.1-3.1-0.6-4.2-1.7c-1.1-1-2.1-2.1-2.8-3.4c-0.8-1.3-1.1-2.8-1.3-4.2
			C1080.3,281.7,1080.4,280.2,1080.4,278.8z"/>
	</g>
</g>
<g>
	<g>
		<g>
			<polygon class="st35" points="293.9,162.9 276.6,179.6 213.6,114.2 230.4,97.6 			"/>
		</g>
		<g>
			<path class="st35" d="M293.4,162.4c1.1,1.1-1.9,5.8-6.6,10.4c-4.8,4.6-9.5,7.4-10.6,6.3c-1.1-1.1,1.9-5.8,6.6-10.4
				C287.5,164,292.3,161.2,293.4,162.4z"/>
		</g>
		<g>
			<path class="st27" d="M259.2,174.3c2,2.1,10.4-2.7,18.6-10.7c8.3-8,13.3-16.2,11.3-18.3L245,99.7l-29.9,28.9L259.2,174.3"/>
		</g>
		<g>
			<path class="st39" d="M245,99.7c2,2.1-3,10.3-11.3,18.3c-8.3,8-16.6,12.8-18.6,10.7c-2-2.1,3-10.3,11.3-18.3
				C234.6,102.3,242.9,97.6,245,99.7z"/>
		</g>
		<g>
			<path class="st35" d="M221.7,122.3c1.1,1.1,5.8-1.7,10.6-6.3c4.8-4.6,7.8-9.2,6.7-10.4l-8.3-8.2l-17.3,16.7L221.7,122.3"/>
		</g>
		<g>
			<path class="st46" d="M230.6,97.5c1.1,1.1-1.9,5.7-6.7,10.4c-4.8,4.6-9.5,7.5-10.6,6.3c-1.1-1.1,1.9-5.7,6.7-10.4
				C224.8,99.2,229.5,96.4,230.6,97.5z"/>
		</g>
		<g>
			<path class="st9" d="M228.9,99.2c0.9,0.9-1.5,4.6-5.3,8.3c-3.8,3.7-7.6,6-8.4,5.1c-0.9-0.9,1.5-4.6,5.3-8.3
				C224.2,100.6,228,98.3,228.9,99.2z"/>
		</g>
	</g>
	<g>
		<path class="st39" d="M229.8,141.6c1.3-3.2,2.7-6.3,4.1-9.5c1.4-3.1,2.9-6.2,4.4-9.3c1.5-3.1,3-6.2,4.6-9.2l2.4-4.6
			c0.8-1.5,1.6-3,2.5-4.5c-0.6,1.6-1.4,3.2-2,4.7l-2.1,4.7c-1.4,3.1-2.9,6.2-4.4,9.3c-1.5,3.1-3,6.2-4.6,9.2
			C233,135.6,231.4,138.6,229.8,141.6z"/>
	</g>
	<g>
		<path class="st39" d="M234.8,147.1c1.3-3.2,2.7-6.3,4.1-9.5c1.4-3.1,2.9-6.2,4.4-9.3c1.5-3.1,3-6.2,4.6-9.2l2.4-4.6
			c0.8-1.5,1.6-3,2.5-4.5c-0.6,1.6-1.4,3.2-2,4.7l-2.1,4.7c-1.4,3.1-2.9,6.2-4.4,9.3c-1.5,3.1-3,6.2-4.6,9.2
			C238,141,236.5,144.1,234.8,147.1z"/>
	</g>
	<g>
		<path class="st39" d="M239.8,152.5c1.3-3.2,2.7-6.3,4.1-9.5c1.4-3.1,2.9-6.2,4.4-9.3c1.5-3.1,3-6.2,4.6-9.2l2.4-4.6
			c0.8-1.5,1.6-3,2.5-4.5c-0.6,1.6-1.4,3.2-2,4.7l-2.1,4.7c-1.4,3.1-2.9,6.2-4.4,9.3c-1.5,3.1-3,6.2-4.6,9.2
			C243.1,146.4,241.5,149.5,239.8,152.5z"/>
	</g>
	<g>
		<path class="st39" d="M244.8,157.9c1.3-3.2,2.7-6.3,4.1-9.5c1.4-3.1,2.9-6.2,4.4-9.3c1.5-3.1,3-6.2,4.6-9.2l2.4-4.6
			c0.8-1.5,1.6-3,2.5-4.5c-0.6,1.6-1.4,3.2-2,4.7l-2.1,4.7c-1.4,3.1-2.9,6.2-4.4,9.3c-1.5,3.1-3,6.2-4.6,9.2
			C248.1,151.8,246.5,154.9,244.8,157.9z"/>
	</g>
	<g>
		<path class="st39" d="M249.8,163.3c1.3-3.2,2.7-6.3,4.1-9.5c1.4-3.1,2.9-6.2,4.4-9.3c1.5-3.1,3-6.2,4.6-9.2l2.4-4.6
			c0.8-1.5,1.6-3,2.5-4.5c-0.6,1.6-1.4,3.2-2,4.7l-2.1,4.7c-1.4,3.1-2.9,6.2-4.4,9.3c-1.5,3.1-3,6.2-4.6,9.2
			C253.1,157.3,251.5,160.3,249.8,163.3z"/>
	</g>
	<g>
		<path class="st39" d="M254.9,168.7c1.3-3.2,2.7-6.3,4.1-9.5c1.4-3.1,2.9-6.2,4.4-9.3c1.5-3.1,3-6.2,4.6-9.2l2.4-4.6
			c0.8-1.5,1.6-3,2.5-4.5c-0.6,1.6-1.4,3.2-2,4.7l-2.1,4.7c-1.4,3.1-2.9,6.2-4.4,9.3c-1.5,3.1-3,6.2-4.6,9.2
			C258.1,162.7,256.5,165.7,254.9,168.7z"/>
	</g>
	<g>
		<path class="st39" d="M259.9,174.2c1.3-3.2,2.7-6.3,4.1-9.5c1.4-3.1,2.9-6.2,4.4-9.3c1.5-3.1,3-6.2,4.6-9.2l2.4-4.6
			c0.8-1.5,1.6-3,2.5-4.5c-0.6,1.6-1.4,3.2-2,4.7l-2.1,4.7c-1.4,3.1-2.9,6.2-4.4,9.3c-1.5,3.1-3,6.2-4.6,9.2
			C263.1,168.1,261.6,171.1,259.9,174.2z"/>
	</g>
</g>
<g>
	<g>
		<g>
			<polygon class="st35" points="627.6,183.2 603.8,170.7 651.4,80.9 675,93 			"/>
		</g>
		<g>
			<path class="st35" d="M628,182.5c-0.8,1.6-6.8,0-13.4-3.4c-6.6-3.5-11.2-7.5-10.4-9.1c0.8-1.6,6.8,0,13.4,3.4
				C624.1,176.9,628.8,181,628,182.5z"/>
		</g>
		<g>
			<path class="st14" d="M603.4,150.3c-1.5,2.9,6.5,10.1,17.8,16.1c11.4,6,21.8,8.5,23.4,5.6l33.2-62.8l-41.2-21.7L603.4,150.3"/>
		</g>
		<g>
			<path class="st13" d="M677.8,109.2c-1.5,2.9-12,0.4-23.4-5.6c-11.4-6-19.4-13.2-17.8-16.1c1.5-2.9,12-0.4,23.4,5.6
				C671.4,99.1,679.3,106.3,677.8,109.2z"/>
		</g>
		<g>
			<path class="st35" d="M645.6,92.4c-0.8,1.5,3.9,5.6,10.4,9c6.6,3.5,12.5,5,13.3,3.5l5.8-11.7l-23.8-12.6L645.6,92.4"/>
		</g>
		<g>
			<path class="st9" d="M675.1,93.2c-0.8,1.5-6.8,0-13.3-3.5c-6.6-3.5-11.2-7.5-10.4-9c0.8-1.5,6.8,0,13.3,3.5
				C671.3,87.6,675.9,91.7,675.1,93.2z"/>
		</g>
		<g>
			<path class="st9" d="M672.7,91.9c-0.6,1.2-5.4,0-10.7-2.8c-5.2-2.8-9-6-8.3-7.2c0.6-1.2,5.4,0,10.7,2.8
				C669.7,87.5,673.4,90.7,672.7,91.9z"/>
		</g>
	</g>
	<g>
		<path class="st13" d="M627.9,107.6c3.8,0.3,7.7,0.7,11.5,1.1c3.8,0.4,7.6,0.9,11.5,1.4c3.8,0.5,7.6,1.1,11.4,1.7l5.7,0.9
			c1.9,0.3,3.8,0.7,5.7,1c-1.9-0.1-3.8-0.3-5.8-0.5l-5.7-0.6c-3.8-0.4-7.6-0.9-11.5-1.4c-3.8-0.5-7.6-1.1-11.4-1.7
			C635.4,109,631.6,108.4,627.9,107.6z"/>
	</g>
	<g>
		<path class="st13" d="M623.9,114.9c3.8,0.3,7.7,0.7,11.5,1.1c3.8,0.4,7.6,0.9,11.5,1.4c3.8,0.5,7.6,1.1,11.4,1.7l5.7,0.9
			c1.9,0.3,3.8,0.7,5.7,1c-1.9-0.1-3.8-0.3-5.8-0.5l-5.7-0.6c-3.8-0.4-7.6-0.9-11.5-1.4c-3.8-0.5-7.6-1.1-11.4-1.7
			C631.4,116.2,627.6,115.6,623.9,114.9z"/>
	</g>
	<g>
		<path class="st13" d="M619.8,122.1c3.8,0.3,7.7,0.7,11.5,1.1c3.8,0.4,7.6,0.9,11.5,1.4c3.8,0.5,7.6,1.1,11.4,1.7l5.7,0.9
			c1.9,0.3,3.8,0.7,5.7,1c-1.9-0.1-3.8-0.3-5.8-0.5l-5.7-0.6c-3.8-0.4-7.6-0.9-11.5-1.4c-3.8-0.5-7.6-1.1-11.4-1.7
			C627.4,123.5,623.6,122.8,619.8,122.1z"/>
	</g>
	<g>
		<path class="st13" d="M615.8,129.3c3.8,0.3,7.7,0.7,11.5,1.1c3.8,0.4,7.6,0.9,11.5,1.4c3.8,0.5,7.6,1.1,11.4,1.7l5.7,0.9
			c1.9,0.3,3.8,0.7,5.7,1c-1.9-0.1-3.8-0.3-5.8-0.5l-5.7-0.6c-3.8-0.4-7.6-0.9-11.5-1.4c-3.8-0.5-7.6-1.1-11.4-1.7
			C623.4,130.7,619.6,130.1,615.8,129.3z"/>
	</g>
	<g>
		<path class="st13" d="M611.8,136.5c3.8,0.3,7.7,0.7,11.5,1.1c3.8,0.4,7.6,0.9,11.5,1.4c3.8,0.5,7.6,1.1,11.4,1.7l5.7,0.9
			c1.9,0.3,3.8,0.7,5.7,1c-1.9-0.1-3.8-0.3-5.8-0.5l-5.7-0.6c-3.8-0.4-7.6-0.9-11.5-1.4c-3.8-0.5-7.6-1.1-11.4-1.7
			C619.4,137.9,615.6,137.3,611.8,136.5z"/>
	</g>
	<g>
		<path class="st13" d="M607.8,143.8c3.8,0.3,7.7,0.7,11.5,1.1c3.8,0.4,7.6,0.9,11.5,1.4c3.8,0.5,7.6,1.1,11.4,1.7l5.7,0.9
			c1.9,0.3,3.8,0.7,5.7,1c-1.9-0.1-3.8-0.3-5.8-0.5l-5.7-0.6c-3.8-0.4-7.6-0.9-11.5-1.4c-3.8-0.5-7.6-1.1-11.4-1.7
			C615.4,145.1,611.6,144.5,607.8,143.8z"/>
	</g>
	<g>
		<path class="st13" d="M603.8,151c3.8,0.3,7.7,0.7,11.5,1.1c3.8,0.4,7.6,0.9,11.5,1.4c3.8,0.5,7.6,1.1,11.4,1.7l5.7,0.9
			c1.9,0.3,3.8,0.7,5.7,1c-1.9-0.1-3.8-0.3-5.8-0.5L638,156c-3.8-0.4-7.6-0.9-11.5-1.4c-3.8-0.5-7.6-1.1-11.4-1.7
			C611.4,152.4,607.6,151.7,603.8,151z"/>
	</g>
</g>
<g>
	<g>
		<path class="st47" d="M763.1,7.8c-14.2,0-25.7,11.5-25.7,25.7c0,14.2,11.5,25.7,25.7,25.7c14.2,0,25.7-11.5,25.7-25.7
			C788.8,19.3,777.3,7.8,763.1,7.8z M753.2,38.4c-2.6,0-4.6-2.1-4.6-4.6s2.1-4.6,4.6-4.6c2.6,0,4.6,2.1,4.6,4.6
			S755.8,38.4,753.2,38.4z M772.7,38.4c-2.6,0-4.6-2.1-4.6-4.6s2.1-4.6,4.6-4.6s4.6,2.1,4.6,4.6S775.3,38.4,772.7,38.4z"/>
	</g>
	<g>
		<path class="st7" d="M760.6,7.8c-14.2,0-25.7,11.5-25.7,25.7c0,14.2,11.5,25.7,25.7,25.7c14.2,0,25.7-11.5,25.7-25.7
			C786.3,19.3,774.8,7.8,760.6,7.8z M750.8,38.4c-2.6,0-4.6-2.1-4.6-4.6s2.1-4.6,4.6-4.6s4.6,2.1,4.6,4.6S753.4,38.4,750.8,38.4z
			 M770.3,38.4c-2.6,0-4.6-2.1-4.6-4.6s2.1-4.6,4.6-4.6c2.6,0,4.6,2.1,4.6,4.6S772.8,38.4,770.3,38.4z"/>
	</g>
</g>
<g>
	<g>
		<path class="st47" d="M544.3,220.4c-11.1,0-20.2,9-20.2,20.2c0,11.1,9,20.2,20.2,20.2c11.1,0,20.2-9,20.2-20.2
			C564.5,229.4,555.5,220.4,544.3,220.4z M536.6,244.4c-2,0-3.6-1.6-3.6-3.6c0-2,1.6-3.6,3.6-3.6s3.6,1.6,3.6,3.6
			C540.3,242.8,538.6,244.4,536.6,244.4z M551.9,244.4c-2,0-3.6-1.6-3.6-3.6c0-2,1.6-3.6,3.6-3.6c2,0,3.6,1.6,3.6,3.6
			C555.5,242.8,553.9,244.4,551.9,244.4z"/>
	</g>
	<g>
		<path class="st24" d="M542.4,220.4c-11.1,0-20.2,9-20.2,20.2c0,11.1,9,20.2,20.2,20.2c11.1,0,20.2-9,20.2-20.2
			C562.6,229.4,553.6,220.4,542.4,220.4z M534.7,244.4c-2,0-3.6-1.6-3.6-3.6c0-2,1.6-3.6,3.6-3.6s3.6,1.6,3.6,3.6
			C538.4,242.8,536.7,244.4,534.7,244.4z M550,244.4c-2,0-3.6-1.6-3.6-3.6c0-2,1.6-3.6,3.6-3.6c2,0,3.6,1.6,3.6,3.6
			C553.6,242.8,552,244.4,550,244.4z"/>
	</g>
</g>
<g>
	<g>
		<g>
			<g>
				<path class="st9" d="M462.8,55.8C445.3,55.8,431,70,431,87.6c0,17.6,14.2,31.8,31.8,31.8c17.6,0,31.8-14.2,31.8-31.8
					C494.6,70,480.4,55.8,462.8,55.8z M450.7,93.6c-3.2,0-5.7-2.6-5.7-5.7c0-3.2,2.6-5.7,5.7-5.7c3.2,0,5.7,2.6,5.7,5.7
					C456.4,91,453.8,93.6,450.7,93.6z M474.7,93.6c-3.2,0-5.7-2.6-5.7-5.7c0-3.2,2.6-5.7,5.7-5.7c3.2,0,5.7,2.6,5.7,5.7
					C480.5,91,477.9,93.6,474.7,93.6z"/>
			</g>
		</g>
		<g>
			<g>
				<path class="st10" d="M459.8,55.8C442.3,55.8,428,70,428,87.6c0,17.6,14.2,31.8,31.8,31.8c17.6,0,31.8-14.2,31.8-31.8
					C491.6,70,477.4,55.8,459.8,55.8z M447.7,93.6c-3.2,0-5.7-2.6-5.7-5.7c0-3.2,2.6-5.7,5.7-5.7c3.2,0,5.7,2.6,5.7,5.7
					C453.4,91,450.8,93.6,447.7,93.6z M471.7,93.6c-3.2,0-5.7-2.6-5.7-5.7c0-3.2,2.6-5.7,5.7-5.7c3.2,0,5.7,2.6,5.7,5.7
					C477.5,91,474.9,93.6,471.7,93.6z"/>
			</g>
		</g>
	</g>
	<g>
		<g>
			<path class="st9" d="M459.8,116.3c-15.7,0-28.5-12.8-28.5-28.5s12.8-28.5,28.5-28.5c15.7,0,28.5,12.8,28.5,28.5
				S475.5,116.3,459.8,116.3z M459.8,60.6c-15,0-27.2,12.2-27.2,27.2s12.2,27.2,27.2,27.2c15,0,27.2-12.2,27.2-27.2
				S474.8,60.6,459.8,60.6z"/>
		</g>
	</g>
</g>
<g>
	<g>
		<path class="st24" d="M888.6,175.9l-51-14.2c-4-1.1-6.3-5.2-5.2-9.2l0,0c1.6-5.6,11.7-15.7,29-15.1c6.9,0.2,15,2.2,24.1,6.8
			c7.3,3.7,14.5,18.8,12.3,26.6l0,0C896.7,174.7,892.5,177,888.6,175.9z"/>
	</g>
	<g>
		<path class="st48" d="M891.8,185.9l-61.5-17.2c-1.3-0.4-2-1.7-1.6-2.9l1.1-3.8c0.4-1.3,1.7-2,2.9-1.6l61.5,17.2
			c1.3,0.4,2,1.7,1.6,2.9l-1.1,3.8C894.4,185.5,893.1,186.2,891.8,185.9z"/>
	</g>
	<g>
		<g>
			<g>
				<path class="st4" d="M855.3,98c-0.1,0-0.3-0.1-0.4-0.2c-0.5-0.4-3.3-2.4-3.8-4.7c-0.5-2.1,0-4.9,3.4-5.9
					c1.4-0.4,2.8-0.1,3.8,0.8c1.2,1,1.9,2.8,1.8,4.5c-0.2,2.4-2.8,4.8-3.4,5.3C856.4,98,855.8,98.1,855.3,98z M856.1,90
					c-0.2-0.1-0.5-0.1-0.8,0c-0.5,0.1-1.8,0.5-1.3,2.3c0.2,0.6,1,1.5,1.8,2.3c0.7-0.8,1.4-1.8,1.5-2.4c0.1-0.7-0.3-1.6-0.7-2
					C856.3,90.1,856.2,90.1,856.1,90z"/>
			</g>
		</g>
		<g>
			<g>
				<polygon class="st4" points="855.6,148.3 854.1,96.2 857,96.2 				"/>
			</g>
		</g>
	</g>
	<g>
		<g>
			<g>
				<path class="st4" d="M926.8,139.5c0-0.1,0-0.3,0-0.4c0.1-0.7,0.7-4,2.4-5.6c1.6-1.5,4.4-2.3,6.8,0.3c1,1.1,1.4,2.4,1.1,3.8
					c-0.3,1.6-1.6,3-3.1,3.7c-2.2,0.9-5.6-0.3-6.2-0.5C927.2,140.5,926.8,140,926.8,139.5z M934.2,136.5c0-0.3-0.2-0.5-0.4-0.7
					c-0.3-0.4-1.3-1.4-2.7-0.1c-0.5,0.4-0.9,1.6-1.2,2.6c1.1,0.3,2.3,0.4,2.8,0.2c0.7-0.3,1.3-0.9,1.4-1.6
					C934.2,136.8,934.2,136.7,934.2,136.5z"/>
			</g>
		</g>
		<g>
			<g>
				<polygon class="st4" points="882.2,162.9 927.7,137.6 929.1,140.2 				"/>
			</g>
		</g>
	</g>
	<g>
		<g>
			<g>
				<path class="st4" d="M914.2,119.4c-0.1-0.1-0.1-0.3-0.1-0.4c-0.1-0.6-0.8-4,0.3-6c1-1.9,3.3-3.7,6.4-2.1
					c1.3,0.7,2.1,1.8,2.3,3.1c0.2,1.6-0.4,3.4-1.7,4.5c-1.8,1.7-5.3,1.7-6,1.7C914.9,120.1,914.4,119.8,914.2,119.4z M920.1,114
					c-0.1-0.2-0.3-0.4-0.6-0.6c-0.5-0.2-1.7-0.8-2.5,0.8c-0.3,0.6-0.3,1.8-0.2,2.9c1.1-0.1,2.3-0.4,2.7-0.8c0.5-0.5,0.9-1.3,0.8-2
					C920.2,114.3,920.1,114.1,920.1,114z"/>
			</g>
		</g>
		<g>
			<g>
				<polygon class="st4" points="880.6,156.9 914.4,117.3 916.6,119.2 				"/>
			</g>
		</g>
	</g>
	<g>
		<g>
			<g>
				<path class="st4" d="M837.6,107.2c-0.1,0-0.3,0-0.4,0c-0.6-0.1-3.9-1-5.4-2.8c-1.3-1.7-1.9-4.6,0.8-6.7c1.1-0.9,2.5-1.2,3.8-0.8
					c1.5,0.5,2.9,1.8,3.4,3.4c0.8,2.3-0.7,5.5-1,6.2C838.6,106.9,838.1,107.2,837.6,107.2z M835.2,99.6c-0.3,0-0.5,0.1-0.8,0.3
					c-0.4,0.3-1.4,1.2-0.3,2.7c0.4,0.5,1.5,1,2.5,1.4c0.4-1,0.6-2.2,0.4-2.8c-0.2-0.7-0.8-1.3-1.5-1.5
					C835.5,99.6,835.3,99.6,835.2,99.6z"/>
			</g>
		</g>
		<g>
			<g>
				<polygon class="st4" points="857.5,153.4 835.8,106.1 838.5,104.9 				"/>
			</g>
		</g>
	</g>
	<g>
		<g>
			<g>
				<path class="st4" d="M816.1,132.4c-0.1,0.1-0.2,0.2-0.4,0.2c-0.6,0.3-3.8,1.5-6,0.8c-2.1-0.7-4.2-2.6-3.2-6
					c0.4-1.4,1.4-2.4,2.7-2.9c1.5-0.5,3.4-0.2,4.7,0.8c1.9,1.4,2.6,5,2.7,5.6C816.7,131.6,816.5,132.1,816.1,132.4z M809.8,127.5
					c-0.2,0.2-0.3,0.4-0.4,0.7c-0.1,0.5-0.5,1.8,1.3,2.3c0.6,0.2,1.8,0,2.8-0.3c-0.3-1-0.8-2.2-1.3-2.6c-0.6-0.4-1.5-0.6-2.1-0.4
					C810,127.4,809.9,127.5,809.8,127.5z"/>
			</g>
		</g>
		<g>
			<g>
				<polygon class="st4" points="858.8,159 813.9,132.6 815.5,130.1 				"/>
			</g>
		</g>
	</g>
	<g>
		<g>
			<g>
				<polygon class="st4" points="862.8,146.6 872.3,99.6 874.9,100.2 				"/>
			</g>
		</g>
		<g>
			<path class="st7" d="M880.7,97.2c-0.8,3.4-4.2,5.5-7.6,4.7c-3.4-0.8-5.5-4.2-4.7-7.6c0.8-3.4,4.2-5.5,7.6-4.7
				C879.4,90.4,881.5,93.8,880.7,97.2z"/>
		</g>
		<g>
			<path class="st49" d="M874.4,91.2c0.4,0.8,0,1.8-1,2.4c-1,0.5-2.1,0.4-2.6-0.4c-0.4-0.8,0-1.8,1-2.4
				C872.8,90.3,874,90.5,874.4,91.2z"/>
		</g>
	</g>
	<g>
		<g>
			<g>
				<polygon class="st4" points="872.5,154.2 896.5,105.6 899.2,107 				"/>
			</g>
		</g>
		<g>
			<path class="st10" d="M906.4,105.4c-1.8,3.5-6.1,4.8-9.6,3c-3.5-1.8-4.8-6.1-3-9.6c1.8-3.5,6.1-4.8,9.6-3
				C906.9,97.6,908.2,101.9,906.4,105.4z"/>
		</g>
		<g>
			<path class="st35" d="M901.2,97c0.2,1-0.6,2-1.8,2.3c-1.2,0.3-2.4-0.2-2.7-1.2c-0.2-1,0.6-2,1.8-2.3
				C899.8,95.5,901,96.1,901.2,97z"/>
		</g>
	</g>
	<g>
		<g>
			<g>
				<polygon class="st4" points="849.5,149.1 822.7,116.1 824.6,114.7 				"/>
			</g>
		</g>
		<g>
			<path class="st27" d="M825.8,109.1c1.9,2.4,1.4,5.9-1,7.8c-2.4,1.9-5.9,1.4-7.8-1c-1.9-2.4-1.4-5.9,1-7.8
				C820.4,106.2,823.9,106.6,825.8,109.1z"/>
		</g>
		<g>
			<path class="st50" d="M818.2,110c0.8,0.1,1.2,1.1,1,2c-0.2,1-1,1.7-1.7,1.5c-0.8-0.1-1.2-1.1-1-2
				C816.6,110.5,817.4,109.9,818.2,110z"/>
		</g>
	</g>
	<g>
		<path class="st24" d="M888.9,176l-51-14.2c-4-1.1-6.4-4.9-5.4-8.4l0,0c1.4-5,11.1-13.7,28.4-12.7c6.9,0.4,14.9,2.4,24.1,6.8
			c7.3,3.5,14.9,17.2,13,24.2l0,0C896.9,175.1,892.9,177.1,888.9,176z"/>
	</g>
	<g>
		<path class="st48" d="M867.6,141.8c-0.1,0.5-1.6,0.6-3.5,0.4c-1.9-0.3-3.4-0.9-3.3-1.3c0.1-0.5,1.6-0.6,3.5-0.4
			C866.2,140.7,867.7,141.3,867.6,141.8z"/>
	</g>
	<g>
		<path class="st48" d="M860.2,140.5c0,0.5-1.5,0.9-3.4,1c-1.9,0.1-3.5-0.2-3.5-0.7c0-0.5,1.5-0.9,3.4-1
			C858.6,139.8,860.2,140.1,860.2,140.5z"/>
	</g>
	<g>
		<path class="st48" d="M848.4,142c0.2,0.4-1.2,1.3-2.9,2c-1.8,0.6-3.4,0.8-3.5,0.4c-0.2-0.4,1.2-1.3,2.9-2
			C846.6,141.7,848.2,141.5,848.4,142z"/>
	</g>
	<g>
		<path class="st48" d="M842,144.2c0.3,0.4-0.8,1.6-2.3,2.7c-1.5,1.1-3,1.7-3.3,1.3c-0.3-0.4,0.8-1.6,2.3-2.7
			C840.3,144.4,841.8,143.8,842,144.2z"/>
	</g>
	<g>
		<path class="st48" d="M880.6,145.6c-0.2,0.4-1.8,0.1-3.5-0.7c-1.7-0.8-2.9-1.8-2.7-2.3c0.2-0.4,1.8-0.1,3.5,0.7
			C879.6,144.2,880.8,145.2,880.6,145.6z"/>
	</g>
	<g>
		<path class="st48" d="M889.9,151.6c-0.3,0.3-1.7-0.4-3.1-1.7c-1.4-1.3-2.2-2.6-1.9-3c0.3-0.3,1.7,0.4,3.1,1.7
			C889.4,149.9,890.3,151.3,889.9,151.6z"/>
	</g>
	<g>
		<path class="st48" d="M895,160c-0.4,0.2-1.5-0.9-2.4-2.6c-0.9-1.7-1.4-3.2-0.9-3.4c0.4-0.2,1.5,0.9,2.4,2.6
			C895,158.2,895.4,159.8,895,160z"/>
	</g>
</g>
</svg>
