<svg xmlns="http://www.w3.org/2000/svg" width="49.745" height="59.646" viewBox="0 0 49.745 59.646"><g transform="translate(-50 -9)"><g transform="translate(50 9)"><path d="M98.417,38.1H97.33V25h1.69a.724.724,0,1,0,0-1.449H97.33v-13.1h1.69a.724.724,0,1,0,0-1.449h-48.3a.724.724,0,1,0,0,1.449h1.69v13.1h-1.69a.724.724,0,1,0,0,1.449h1.69V38.1h-1.69a.724.724,0,1,0,0,1.449h1.69v13.1h-1.69a.724.724,0,1,0,0,1.449h1.69V67.2h-1.69a.724.724,0,1,0,0,1.449h48.3a.724.724,0,1,0,0-1.449H97.33V54.1h1.69a.724.724,0,1,0,0-1.449H97.33v-13.1h1.69a.724.724,0,1,0,0-1.449Zm-2.536,2.536V52.648H91.776a.724.724,0,0,0,0,1.449h4.105V67.2H53.864V54.1h4.105a.724.724,0,1,0,0-1.449H53.864v-13.1h3.369l.1.978a17.628,17.628,0,0,0,35.087,0l.1-.978h3.369ZM58.693,38.823A16.179,16.179,0,1,1,74.873,55,16.2,16.2,0,0,1,58.693,38.823ZM95.881,11.536V23.549H91.776a.724.724,0,0,0,0,1.449h4.105V38.1H92.513l-.1-.978a17.628,17.628,0,0,0-35.087,0l-.1.978H53.864V25h4.105a.724.724,0,1,0,0-1.449H53.864v-13.1H95.881Z" transform="translate(-50 -9)" fill="#102651"/></g><g transform="translate(64.465 29.731)"><path d="M185.4,180.8a.737.737,0,0,0-.362-.1h0a1.206,1.206,0,0,0-.193.024.738.738,0,0,0-.447.338L182.14,185l-.386.664-.761-.145a4.419,4.419,0,0,0-1.594,0l-.761.145-.386-.664-2.27-3.924a.714.714,0,0,0-.435-.338.938.938,0,0,0-.193-.024.738.738,0,0,0-.362.1,10.425,10.425,0,0,0-5.192,9,.727.727,0,0,0,.724.724h5.313l.254.724a4.368,4.368,0,0,0,.8,1.376l.5.58-.386.664-2.27,3.936a.718.718,0,0,0,.266.99,10.4,10.4,0,0,0,10.384,0,.728.728,0,0,0,.266-.99l-2.27-3.936-.386-.664.5-.58a4.368,4.368,0,0,0,.8-1.376l.254-.724h5.337a.727.727,0,0,0,.724-.724A10.444,10.444,0,0,0,185.4,180.8Zm-9.285,7.546-.254.724H171.2l.326-1.34a9,9,0,0,1,2.56-4.431l1-.942.688,1.2,1.256,2.173.386.664-.5.58A4.1,4.1,0,0,0,176.115,188.343Zm7.281,8.428.688,1.2-1.316.4a9.117,9.117,0,0,1-2.56.374,8.7,8.7,0,0,1-2.56-.374l-1.316-.4.688-1.2,1.256-2.173.386-.664.761.145a4.42,4.42,0,0,0,1.594,0l.761-.145.386.664Zm-3.188-4.081a2.9,2.9,0,1,1,2.9-2.9A2.906,2.906,0,0,1,180.208,192.69Zm9.007-3.622h-4.661l-.254-.724a4.367,4.367,0,0,0-.8-1.376l-.5-.58.386-.664,1.256-2.173.688-1.2,1,.942a8.951,8.951,0,0,1,2.56,4.431Z" transform="translate(-169.8 -180.7)" fill="#102651"/></g></g></svg>