<svg xmlns="http://www.w3.org/2000/svg" width="49.963" height="59.491" viewBox="0 0 49.963 59.491"><path d="M63.572,59.491H21.743A1.743,1.743,0,0,1,20,57.748V1.743A1.743,1.743,0,0,1,21.743,0H63.572a1.743,1.743,0,0,1,1.743,1.743V57.748A1.743,1.743,0,0,1,63.572,59.491Zm0,0" transform="translate(-17.676 0)" fill="#2d5064"/><path d="M237.658,57.748V1.743A1.743,1.743,0,0,0,235.915,0H215V59.491h20.915A1.743,1.743,0,0,0,237.658,57.748Zm0,0" transform="translate(-190.018 0)" fill="#264353"/><path d="M48.22,3.486H1.743A1.743,1.743,0,0,1,1.743,0H48.22a1.743,1.743,0,1,1,0,3.486Zm0,0" fill="#557a8f"/><path d="M48.22,485.486H1.743a1.743,1.743,0,0,1,0-3.486H48.22a1.743,1.743,0,0,1,0,3.486Zm0,0" transform="translate(0 -425.995)" fill="#557a8f"/><path d="M8.714,244.486H1.743a1.743,1.743,0,0,1,0-3.486H8.714a1.743,1.743,0,0,1,0,3.486Zm0,0" transform="translate(0 -212.997)" fill="#557a8f"/><path d="M18.01,364.986H1.743a1.743,1.743,0,1,1,0-3.486H18.01a1.743,1.743,0,1,1,0,3.486Zm0,0" transform="translate(0 -319.496)" fill="#557a8f"/><path d="M239.982,1.743A1.743,1.743,0,0,0,238.239,0H215V3.486h23.239A1.743,1.743,0,0,0,239.982,1.743Zm0,0" transform="translate(-190.018 0)" fill="#39647c"/><path d="M239.982,483.743A1.743,1.743,0,0,0,238.239,482H215v3.486h23.239A1.743,1.743,0,0,0,239.982,483.743Zm0,0" transform="translate(-190.018 -425.995)" fill="#39647c"/><path d="M286.848,123.986H271.743a1.743,1.743,0,1,1,0-3.486h15.105a1.743,1.743,0,1,1,0,3.486Zm0,0" transform="translate(-238.628 -106.499)" fill="#39647c"/><path d="M15.686,123.986H1.743a1.743,1.743,0,0,1,0-3.486H15.686a1.743,1.743,0,0,1,0,3.486Zm0,0" transform="translate(0 -106.499)" fill="#557a8f"/><path d="M348.714,244.486h-6.972a1.743,1.743,0,1,1,0-3.486h6.972a1.743,1.743,0,0,1,0,3.486Zm0,0" transform="translate(-300.494 -212.997)" fill="#39647c"/><path d="M286.848,364.986H271.743a1.743,1.743,0,1,1,0-3.486h15.105a1.743,1.743,0,1,1,0,3.486Zm0,0" transform="translate(-238.628 -319.496)" fill="#39647c"/><path d="M82.348,136.508a18.022,18.022,0,1,1,13.161-13.161A17.712,17.712,0,0,1,82.348,136.508Zm0,0" transform="translate(-53.027 -89.263)" fill="#39647c"/><path d="M215,101.016v36.016a18.918,18.918,0,0,0,4.339-.508A17.713,17.713,0,0,0,232.5,123.363,18.047,18.047,0,0,0,215,101.016Zm0,0" transform="translate(-190.018 -89.279)" fill="#2d5064"/><path d="M104.524,131a14.524,14.524,0,1,0,14.524,14.524A14.54,14.54,0,0,0,104.524,131Zm0,0" transform="translate(-79.543 -115.779)" fill="#ffe31f"/><path d="M229.524,145.524A14.54,14.54,0,0,0,215,131v29.048A14.54,14.54,0,0,0,229.524,145.524Zm0,0" transform="translate(-190.018 -115.779)" fill="#facd00"/><path d="M224.544,183.262h-6.207a1.489,1.489,0,0,1-1.289-.744l-1.816-3.145a1.743,1.743,0,0,1,0-1.743l2.9-5.031a1.744,1.744,0,0,1,2.382-.637,11.075,11.075,0,0,1,5.515,9.837,1.5,1.5,0,0,1-1.489,1.464Zm0,0" transform="translate(-190.016 -151.774)" fill="#2d5064"/><path d="M166.393,276.739a11.035,11.035,0,0,1-5.52-1.481,1.743,1.743,0,0,1-.636-2.38l2.9-5.031a1.743,1.743,0,0,1,1.509-.871h3.485a1.743,1.743,0,0,1,1.51.871l2.9,5.031a1.743,1.743,0,0,1-.636,2.38,11.036,11.036,0,0,1-5.52,1.481Zm0,0" transform="translate(-141.412 -235.956)" fill="#39647c"/><path d="M127.553,183.259h-5.81A1.743,1.743,0,0,1,120,181.516a11.078,11.078,0,0,1,5.518-9.558,1.743,1.743,0,0,1,2.382.637l2.9,5.031a1.743,1.743,0,0,1,0,1.743l-1.743,3.018a1.743,1.743,0,0,1-1.509.871Zm0,0" transform="translate(-106.057 -151.771)" fill="#39647c"/><path d="M218.252,267.848a1.743,1.743,0,0,0-1.51-.871H215v9.763a11.036,11.036,0,0,0,5.52-1.481,1.743,1.743,0,0,0,.636-2.38Zm0,0" transform="translate(-190.018 -235.956)" fill="#2d5064"/><path d="M175.229,221.457a5.229,5.229,0,1,1,5.229-5.229A5.235,5.235,0,0,1,175.229,221.457Zm0,0" transform="translate(-150.247 -186.483)" fill="#ffe31f"/><path d="M220.229,216.229A5.235,5.235,0,0,0,215,211v10.457A5.235,5.235,0,0,0,220.229,216.229Zm0,0" transform="translate(-190.018 -186.483)" fill="#facd00"/><path d="M201.743,244.486a1.743,1.743,0,1,1,1.743-1.743A1.745,1.745,0,0,1,201.743,244.486Zm0,0" transform="translate(-176.761 -212.997)" fill="#39647c"/><path d="M216.743,242.743A1.745,1.745,0,0,0,215,241v3.486A1.745,1.745,0,0,0,216.743,242.743Zm0,0" transform="translate(-190.018 -212.997)" fill="#2d5064"/></svg>