<svg xmlns="http://www.w3.org/2000/svg" width="64.143" height="63.833" viewBox="0 0 64.143 63.833"><g transform="translate(0 0)"><ellipse cx="32.071" cy="31.917" rx="32.071" ry="31.917" transform="translate(0 0)"/><g transform="translate(14.351 19.276)"><path d="M62.468,37.623a15.3,15.3,0,0,1-4.4,1.206,7.687,7.687,0,0,0,3.371-4.24,15.347,15.347,0,0,1-4.868,1.86A7.672,7.672,0,0,0,43.5,43.441,21.761,21.761,0,0,1,27.7,35.43a7.674,7.674,0,0,0,2.372,10.235,7.612,7.612,0,0,1-3.472-.96c0,.033,0,.065,0,.1a7.67,7.67,0,0,0,6.15,7.516,7.7,7.7,0,0,1-3.462.133,7.674,7.674,0,0,0,7.161,5.324A15.475,15.475,0,0,1,25.1,60.949a21.684,21.684,0,0,0,11.75,3.445c14.1,0,21.812-11.681,21.812-21.812,0-.332-.007-.663-.022-.991a15.545,15.545,0,0,0,3.826-3.968Z" transform="translate(-25.103 -34.028)" fill="#f1f2f2"/></g></g></svg>